<?xml version="1.0" encoding="UTF-8" standalone="no"?>
<svg version="1.1" viewBox="0 0 157.08 125.82" xmlns="http://www.w3.org/2000/svg" overflow="visible">
 <defs>
  <linearGradient id="linearGradient937-5" x2="1" gradientTransform="matrix(-3e-7 -7.7648 -7.7648 3e-7 129.42 338.71)" gradientUnits="userSpaceOnUse">
   <stop stop-color="#cf6f70" offset="0"/>
   <stop stop-color="#f89888" offset="1"/>
  </linearGradient>
  <linearGradient id="linearGradient957-0" x2="1" gradientTransform="matrix(-3e-7 -7.7648 -7.7648 3e-7 115.53 338.71)" gradientUnits="userSpaceOnUse">
   <stop stop-color="#cf6f70" offset="0"/>
   <stop stop-color="#f89888" offset="1"/>
  </linearGradient>
  <linearGradient id="linearGradient1161-5" x2="1" gradientTransform="matrix(-3e-7 -7.7653 -7.7653 3e-7 388.28 316.31)" gradientUnits="userSpaceOnUse">
   <stop stop-color="#cf6f70" offset="0"/>
   <stop stop-color="#f89888" offset="1"/>
  </linearGradient>
  <linearGradient id="linearGradient1181-5" x2="1" gradientTransform="matrix(-3e-7 -7.7653 -7.7653 3e-7 376.16 316.65)" gradientUnits="userSpaceOnUse">
   <stop stop-color="#cf6f70" offset="0"/>
   <stop stop-color="#f89888" offset="1"/>
  </linearGradient>
  <linearGradient id="linearGradient1433-2" x2="1" gradientTransform="matrix(-3e-7 -7.7585 -7.7585 3e-7 212.43 202.56)" gradientUnits="userSpaceOnUse">
   <stop stop-color="#cf6f70" offset="0"/>
   <stop stop-color="#f89888" offset="1"/>
  </linearGradient>
  <linearGradient id="linearGradient1453-2" x2="1" gradientTransform="matrix(.82612 -7.72 -7.72 -.82612 201.4 201.13)" gradientUnits="userSpaceOnUse">
   <stop stop-color="#cf6f70" offset="0"/>
   <stop stop-color="#f89888" offset="1"/>
  </linearGradient>
  <clipPath id="clipPath831-1-4">
   <path d="m0 500h500v-500h-500z"/>
  </clipPath>
  <clipPath id="clipPath967-0-8">
   <path d="m0 500h500v-500h-500z"/>
  </clipPath>
  <clipPath id="clipPath1191-5-7">
   <path d="m0 500h500v-500h-500z"/>
  </clipPath>
  <clipPath id="clipPath1463-9-5">
   <path d="m0 500h500v-500h-500z"/>
  </clipPath>
  <clipPath id="clipPath1711-2-8">
   <path d="m0 500h500v-500h-500z"/>
  </clipPath>

     
        <style type="text/css"><![CDATA[
    * {overflow:visible;}
        .rotate {
    transform-box: fill-box;
}
      .rightarm {
    transform-origin: top right;
    animation: rightarm 2s linear infinite alternate;
}

@keyframes rightarm {
    from {}
    to {transform: rotate(3deg) translateY(1px);}
}

.midarm {
    transform-origin: bottom left;
    animation: midarm 1.25s linear infinite alternate;
    animation-delay: 1s;
}

@keyframes midarm {
    from {}
    to {transform: rotate(4deg);}
}

.topqmark {
    
    animation: topqmark 1.5s linear infinite alternate;
}

@keyframes topqmark {
    from {}
    to {transform: translateY(7px);}
}


.leftqmark {
    transform-origin: top right;
    animation: leftqmark 1s linear infinite alternate;
}

@keyframes leftqmark {
    from {}
    to {transform: rotate(-7deg);}
}

    ]]>
     </style>
     
     
 </defs>
 <g>
 <g class="midarm rotate">
     <g transform="matrix(.35278 0 0 -.35278 91.899 81.554)">
   <path transform="translate(-86.331 -31.784)" d="m0 0c1.146 0.55 5.221-0.442 17.525-2.717 13.732-2.539 16.57-2.539 16.57-2.539s29.92 27.566 31.076 27.292c2.147-0.508 3.019-5.595 3.019-5.595s-26.427-33.753-30.158-34.351c-1.81-0.29-28.767 1.001-28.767 1.001z" fill="#f89888"/>
   <path transform="translate(-52.245 -49.695)" d="m0 0c2.09-0.051 3.569-0.06 3.946 1e-3 1.959 0.313 10.172 9.766 17.534 18.675-0.072-0.071-16.562-16.177-17.372-16.581-0.812-0.407-2.759 0-2.759 0l-1.34 10.56v-12.564z" fill="#cf6f70"/>
   <path transform="translate(-88.501 -31.41)" d="m0 0 0.137 0.667c0.912 0.145 3.658-0.458 5.223-0.739 4.3-0.774 29.652-5.132 29.652-5.132v-13.36l-23.576 1.281z" fill="#fe677a"/>
   <path transform="translate(-67.373 -41.434)" d="m0 0c-2.309 2.487-9.858 6.694-14.201 8.727-3.271 1.53-5.649 1.696-6.847 1.69l-0.081-0.394 11.436-17.283 23.576-1.281-11.138 2.409s-0.436 3.646-2.745 6.132" fill="#cd437e"/>
   <path transform="translate(-52.958 -50.327)" d="m0 0h-5.851c-0.399 0-0.722 0.323-0.722 0.723v13.701c0 0.429 0.371 0.763 0.798 0.718l5.851-0.618c0.367-0.039 0.646-0.348 0.646-0.717v-13.084c0-0.4-0.323-0.723-0.722-0.723" fill="#fcb4c4"/>
   <path transform="translate(-21.627 43.705)" d="m0 0c-6.385-3.162-11.132-8.232-13.95-14.149-0.497-1.043-0.043-2.292 1.005-2.778l7.151-3.304c1.038-0.481 2.249-0.019 2.748 1.01 1.692 3.487 4.501 6.477 8.266 8.373 8.468 4.266 18.956 1.275 23.901-6.815 5.464-8.937 2.375-20.538-6.678-25.613-2.44-1.369-5.058-2.117-7.675-2.301-1.517-0.108-3.032-0.024-4.512 0.24-4.249 0.757-8.36-1.909-9.447-6.087l-0.801-3.079-3.693-14.251c-0.289-1.109 0.376-2.243 1.486-2.531l7.632-1.986c1.109-0.289 2.242 0.376 2.531 1.486l3.679 14.198c5.628-0.348 11.413 0.855 16.686 3.811 15.098 8.463 20.179 27.98 10.81 42.797-8.265 13.07-25.282 17.842-39.139 10.979" fill="#50c7f1"/>
   <path transform="translate(-28.3 -42.817)" d="m0 0c-1.625 2.899-0.593 6.567 2.307 8.193 2.899 1.625 6.567 0.593 8.192-2.306 1.626-2.9 0.593-6.568-2.307-8.194-2.898-1.625-6.566-0.591-8.192 2.307" fill="#5b9dd3"/>
   <path transform="translate(-21.171 -42.797)" d="m0 0c2.519 1.413 3.416 4.6 2.004 7.119-0.169 0.301-0.364 0.577-0.58 0.831-1.818 1.193-4.219 1.36-6.246 0.223-1.581-0.887-2.602-2.382-2.945-4.027 0.058-0.731 0.266-1.46 0.648-2.141 1.412-2.52 4.599-3.417 7.119-2.005" fill="#50c7f1"/>
   <path transform="translate(-13.663 -28.08)" d="m0 0 3.679 14.198c5.628-0.346 11.413 0.855 16.686 3.811 10.628 5.958 16.282 17.392 15.437 28.809-0.26-7.675-3.469-16.151-12.954-23.118-8.068-5.927-16.554-6.051-20.484-5.701-1.307 0.117-2.495-0.737-2.8-2.014-0.92-3.845-2.681-11.27-2.973-12.954-0.399-2.297-1.505-3.706-6.754-2.531l7.632-1.986c1.109-0.288 2.242 0.377 2.531 1.486" fill="#5b9dd3"/>
   <path d="m0 0c-2.204-1.095-4.532-1.708-6.859-1.872-1.517-0.107-3.032-0.024-4.512 0.24-4.249 0.757-8.36-1.909-9.447-6.087l-0.801-3.079-3.184-12.286c0.931 2.604 3.044 8.543 4.157 11.882 1.454 4.36 2.707 8.713 8.806 8.232 6.1-0.48 9.661 1.086 11.841 2.969z" fill="#84dff7"/>
  </g>
 </g>
 </g>
 <g>
  <g transform="matrix(.35278 0 0 -.35278 133.77 23.192)">
   <g transform="matrix(2.8346 0 0 -2.8346 -378.33 550.49)">
    <g transform="matrix(.35278 0 0 -.35278 -11.098 323.72)">
     <g clip-path="url(#clipPath831-1-4)">
      <g transform="translate(149.86 266.7)">
       <path d="m0 0c-2.231-1.617-6.401-2.542-7.645-1.299-1.372 1.372-1.372 2.869-2.245 14.693-0.873 11.823-3.719 19.712-3.719 19.712v-39.425c6.584 1.43 11.056 4.259 13.609 6.319" fill="#35bdb3"/>
      </g>
      <g transform="translate(83.917 157.95)">
       <path d="m0 0-8.4-67.033 8.532-1.533 14.988 66.952z" fill="#f89888"/>
      </g>
      <g transform="translate(99.037 156.34)">
       <path d="m0 0-0.505-2.268s-9.053-1.059-14.933 1.342l0.318 2.54z" fill="#cf6f70"/>
      </g>
      <g transform="translate(116.79 156.7)">
       <path d="m0 0 3.448-65.781h8.953l2.653 67.238z" fill="#f89888"/>
      </g>
      <g transform="translate(120.24 90.919)">
       <path d="m0 0h1.291l-1.274 62.918s8.178 0.71 11.515 2.467l0.073 1.853-15.053-1.457z" fill="#cf6f70"/>
      </g>
      <g transform="translate(88.518 216.92)">
       <path d="m0 0s-7.468-56.87-7.359-58.068c0.109-1.2 18.743-2.834 19.724-2.507s10.352 44.134 10.352 44.134 2.764-42.847 3.309-43.61c0.545-0.762 19.902 1.111 20.447 2.091 0.545 0.981 0.227 58.698 0.227 58.698z" fill="#0984e3"/>
      </g>
      <g transform="translate(81.159 158.85)">
       <path d="m0 0c0.073-0.805 8.484-1.805 14.309-2.277l0.249 0.117c-7.363 0.484-10.117 2.381-9.973 4.516 0.143 2.136 1.532 13.168 1.532 13.168s5.754-1.714 10.911 1.091c5.979 3.254 5.871 7.989 5.871 7.989-8.601-8.579-16.782-4.836-16.782-4.836l4.729 38.355-3.487-0.055s-7.468-56.87-7.359-58.068" fill="#315095"/>
      </g>
      <g transform="translate(123.49 157.14)">
       <path d="m0 0c-0.014 1e-3 -4.543 0.468-5.179 1.811-0.635 1.344-5.623 33.526-7.071 41.529 0 0 2.764-42.847 3.309-43.61 0.249-0.348 4.426-0.145 8.941 0.27" fill="#315095"/>
      </g>
      <g transform="translate(120 95.442)">
       <path d="m0 0c1.1 0 2.624-4.523 3.828-4.523 1.203 0 4.329 6.544 5.624 6.623 1.295 0.077 2.723-4.585 4.378-6.165 1.654-1.58 11.882-4.813 13.988-5.264s3.008-1.727 3.008-4.023h-33.237s-0.407 2.593 0.721 5.376 0.59 7.976 1.69 7.976" fill="#2f256a"/>
      </g>
      <g transform="translate(85.6 95.442)">
       <path d="m0 0c-1.1 0-2.624-4.523-3.827-4.523s-4.33 6.544-5.625 6.623c-1.294 0.077-2.723-4.585-4.378-6.165-1.654-1.58-11.882-4.813-13.987-5.264-2.106-0.451-3.009-1.727-3.009-4.023h33.238s0.406 2.593-0.722 5.376-0.59 7.976-1.69 7.976" fill="#2f256a"/>
      </g>
      <g transform="translate(84.852 83.692)">
       <path d="m0 0s0 2.322-0.487 3.925c-0.488 1.603-0.907 3.484-0.625 5.574 0.666 1.127 1.32 2.251 1.868 2.251 1.1 0 0.562-5.193 1.69-7.976 0.573-1.412 0.749-2.773 0.785-3.774z" fill="#291d51"/>
      </g>
      <g transform="translate(150.64 83.692)">
       <path d="m0 0h-33.116v-1.602h33.308c9e-3 0.535-0.055 1.069-0.192 1.602" fill="#fff"/>
      </g>
      <g transform="translate(88.082 83.692)">
       <path d="m0 0h-33.115c-0.135-0.481-0.208-1.054-0.194-1.602h33.309z" fill="#fff"/>
      </g>
      <g transform="translate(108.58 314.33)">
       <path d="m0 0v-7.348c0-2.381-0.802-3.202-7.698-5.665 0 0 1.888-4.105 15.189-4.105s15.189 4.105 15.189 4.105c-6.897 2.463-7.699 3.284-7.699 5.665v7.348z" fill="#f89888"/>
      </g>
      <g transform="translate(108.58 310.96)">
       <path d="m0 0s5.296-3.104 8.657-3.396c3.362-0.292 6.324 1.197 6.324 1.257v5.509h-14.981z" fill="#cf6f70"/>
      </g>
      <g transform="translate(133.22 331.89)">
       <path d="m0 0s0.546 0.807 0.936 1.73c0.65 1.545 1.545 9.333-0.845 14.164 0 0 2.3 0.56 3.63 3.01s0.636 2.03-1.861 1.61c-2.45-0.412-6.82 0.465-6.82 0.465z" fill="#242357"/>
      </g>
      <g transform="translate(118.8 352.02)">
       <path d="m0 0c-7.367 0-15.275-1.95-15.275-17.009 0 0-2.567 1.869-5.2 0-3.138-2.226-2.817-6.283-1.084-9.208 1.734-2.925 4.659-4.55 7.15-3.142 0 0 0.975-5.633 1.734-6.825 0.758-1.191 10.183-4.875 13.217-4.875 3.033 0 10.833 4.117 12.025 6.717s1.95 12.783 1.95 17.767c0 4.983-0.65 16.575-14.517 16.575" fill="#f89888"/>
      </g>
     </g>
     <path d="m126 335.42v-1.056c0-1.89 1.532-3.422 3.422-3.422 1.891 0 3.423 1.532 3.423 3.422v1.056c0 1.89-1.532 3.422-3.423 3.422-1.89 0-3.422-1.532-3.422-3.422" fill="url(#linearGradient937-5)"/>
     <path d="m112.11 335.42v-1.056c0-1.89 1.532-3.422 3.422-3.422s3.423 1.532 3.423 3.422v1.056c0 1.89-1.533 3.422-3.423 3.422s-3.422-1.532-3.422-3.422" fill="url(#linearGradient957-0)"/>
     <g clip-path="url(#clipPath967-0-8)">
      <g transform="translate(118.8 352.02)">
       <path d="m0 0c-2.508 0-5.078-0.228-7.378-1.12v-1.834s1.021-3.748 7.214-5.111c6.188-1.363 10.695 0.961 12.079 2.552-2.018 3.097-5.588 5.513-11.915 5.513" fill="#cf6f70"/>
      </g>
      <g transform="translate(103.52 335.01)">
       <path d="m0 0s0.479-2.817 0.811-3.521c0.331-0.703 3.046-0.107 2.516 1.217-0.53 1.325-3.51 12.584 4.57 16.359 0 0 3.047-3.576 10.795-3.576 7.749 0 12.584 8.742 12.783 10.596 0.198 1.855-1.192 1.523-3.246 0.398-2.053-1.126-9.338-1.987-9.338-1.987s1.524 0.927 2.517 1.854-0.1 1.302-3.842 1.052c-4.057-0.272-10.662 0-12.757-0.883-1.779-0.749-7.575-6.99-8.561-8.966-0.929-1.861 0.532-7.81 0.793-11.726 1.084 0.016 2.086-0.211 2.959-0.817" fill="#2f256a"/>
      </g>
      <g transform="translate(118.01 298.84)">
       <path d="m0 0c-5.38-0.459-9.125 1.929-11.27 4.948 0 0-15.371-4.418-17.574-5.152s-2.098-3.776-1.259-15.839 2.413-27.063 2.413-31.259-2.308-34.301-2.308-34.301 8.602-5.979 24.441-5.979 22.762 6.399 22.762 6.399 2.203 39.126 2.728 50.979c0.524 11.853-0.864 30.347-1.7 31.168-0.936 0.92-10.84 3.984-10.84 3.984s0.12-4.307-7.393-4.948" fill="#41d8d3"/>
      </g>
      <g transform="translate(101.85 217.66)">
       <path d="m0 0c-3.214 3.368-5.808 10.035-6.333 19.226-0.623 10.901-0.187 19.322 0.426 22.473 1.358 6.977 2.58 10.859 4.057 12.869 1.476 2.009 4.079 5.645 3.523 5.768-0.555 0.123-3.523-2.716-3.523-2.716s0.622 3.334 0 7.284-2.75 6.477-2.75 6.477c1.338-3.393 0.691-9.257 0.691-9.257l-10.201 5.536c0.053-0.794 0.11-1.63 0.172-2.52 0.839-12.063 2.413-27.063 2.413-31.259 0-4.195-2.308-34.301-2.308-34.301s8.602-5.978 24.441-5.978c4.108 0 7.611 0.431 10.554 1.069-10.602-0.055-19.158 3.228-21.162 5.329" fill="#35bdb3"/>
      </g>
      <g transform="translate(101.22 208.75)">
       <path d="m0 0 1.896-2.022c2.266-0.475 4.984-0.427 6.964-0.056 2.745 0.515 3.489 1.944 3.489 1.944s4.175-0.629 4.633 0.489c0.457 1.118-0.572 1.227-2.517 2.2 0 0-7.054 4.935-10.527 7.318l-3.73-3.495c-1.819-1.704-1.912-4.56-0.208-6.378" fill="#5b9dd3"/>
      </g>
      <g transform="translate(122.91 333.61)">
       <path d="m0 0c-0.956 0.287-1.661-9.05-0.584-9.539 1.076-0.489 4.232 0.132 4.624 1.013 0.392 0.88-3.061 8.233-4.04 8.526" fill="#c46065"/>
      </g>
      <g transform="translate(113.78 332.67)">
       <path d="m0 0c0 0.956 0.775 1.731 1.731 1.731s1.73-0.775 1.73-1.731-0.774-1.73-1.73-1.73-1.731 0.774-1.731 1.73" fill="#251836"/>
      </g>
      <g transform="translate(127.69 332.67)">
       <path d="m0 0c0 0.956 0.775 1.731 1.731 1.731s1.73-0.775 1.73-1.731-0.774-1.73-1.73-1.73-1.731 0.774-1.731 1.73" fill="#251836"/>
      </g>
      <g transform="translate(119.64 339.52)">
       <path d="m0 0c-0.779-0.8-2.758-0.843-4.268-0.758-1.254 0.071-2.753-0.229-3.944-1.489" fill="none" stroke="#291d51" stroke-linecap="round" stroke-miterlimit="10" stroke-width="2"/>
      </g>
      <g transform="translate(126.8 338.58)">
       <path d="m0 0s1.72 1.292 3.914 0.649c2.194-0.642 2.625-2.407 2.625-2.407" fill="none" stroke="#291d51" stroke-linecap="round" stroke-miterlimit="10" stroke-width="2"/>
      </g>
      <g transform="translate(113.78 319.87)">
       <path d="m0 0s2.449 0.357 4.495-0.22c2.549-0.719 3.516-1.801 3.516-1.801" fill="none" stroke="#cf6f70" stroke-linecap="round" stroke-miterlimit="10"/>
      </g>
      <g transform="translate(97.952 330.26)">
       <path d="m0 0c-0.146 0.683 0.97 2.463 2.931 2.097 2.482-0.464 4.07-5 1.653-7.266" fill="none" stroke="#cf6f70" stroke-linecap="round" stroke-miterlimit="10"/>
      </g>
      <g transform="translate(100.56 328.27)">
       <path d="m0 0c-0.242 1.209 1.632 2.539 2.96 1.207" fill="none" stroke="#cf6f70" stroke-linecap="round" stroke-miterlimit="10"/>
      </g>
      <g transform="translate(90.463 298.47)">
       <path transform="translate(19.544 -103.68)" d="m0 0c0.75 3.459 1.229 5.694 1.229 5.694s0.198-3.076 0.499-7.591c1.323-1.299 3.197-2.809 4.861-2.933 2.881-0.215 17.853 14.816 18.675 15.643-0.025 7.07-0.053 12.061-0.053 12.061l-46.7-0.738s5.25-5.247 7.972-6.617c2.723-1.371 13.517-15.519 13.517-15.519" fill="#315095"/>
      </g>
      <g transform="translate(116.6 209.39)">
       <path d="m0 0c-2.612 0.076-8.718 3.26-9.254 3.466 0 0 3.535-2.543 8.589-3.75 0 0 0.298 0.257 0.665 0.284" fill="#cf6f70"/>
      </g>
      <g transform="translate(185.98 222.42)">
       <g>
        <path transform="translate(-49.426 76.424)" d="m0 0s1.493-0.277 7.792-14.806 14.584-30.38 14.584-30.38l-11.887-8.045-9.283 19.094z" fill="#f89888"/>
        <path transform="translate(-34.359 45.845)" d="m0 0s-1.374-2.65-4.891-5.616-6.37-3.289-6.37-3.289l-2.6 5.348z" fill="#cf6f70"/>
        <path transform="translate(-49.734 77.389)" d="m0 0c1.552-0.401 3.398-0.836 6.595-8.326 5.283-12.381 9.606-22.334 9.606-22.334s-5.144-6.364-16.201-8.766z" fill="#41d8d3"/>
       </g>
      </g>
      <g transform="translate(120.76 83.692)">
       <path d="m0 0s0 2.322 0.488 3.925 0.906 3.484 0.625 5.574c-0.667 1.127-1.321 2.251-1.869 2.251-1.099 0-0.562-5.193-1.69-7.976-0.572-1.412-0.749-2.773-0.784-3.774z" fill="#291d51"/>
      </g>
      <g transform="translate(117.53 82.892)">
       <path d="m0 0v-0.801h33.301c4e-3 0.268-0.01 0.534-0.042 0.801z" fill="#e6eff4"/>
      </g>
      <g transform="translate(88.082 82.892)">
       <path d="m0 0v-0.801h-33.31c-4e-3 0.268 0.01 0.534 0.042 0.801z" fill="#e6eff4"/>
      </g>
      <g transform="translate(367.97 220.58)">
       <path d="m0 0c-0.237-7.514-0.734-32.264 0-61.14 0.733-28.876 2.917-55.81 2.917-55.81h8.689l9.166 99.245 28.978-99.245h8.978s-7.907 83.513-19.172 117.9z" fill="#0984e3"/>
      </g>
      <g transform="translate(384.69 157.49)">
       <path d="m0 0-0.607-6.813s-6.458-2.526-15.801-1.235l-0.311 9.997z" fill="#315095"/>
      </g>
      <g transform="translate(388.75 202.88)">
       <path d="m0 0-11.949-93.823h3.57z" fill="#315095"/>
      </g>
      <g transform="translate(384.73 211.46)">
       <path d="m0 0c11.058-1.729 19.558 2.073 19.558 2.073l9.296-34.909-12.949-16.459 1.018-3.486s9.847 4.412 13.912 12.01l9.768-61.633h0.828c-1.963 19.045-9.092 83.366-18.63 112.48l-39.556-0.95s5.696-7.396 16.755-9.124" fill="#315095"/>
      </g>
      <g transform="translate(379.16 103.63)">
       <path d="m0 0-0.788-15.468h-7.106l-0.373 15.468z" fill="#f89888"/>
      </g>
      <g transform="translate(426.05 103.63)">
       <path d="m0 0 1.911-15.468h-7.447l-2.188 15.468z" fill="#f89888"/>
      </g>
      <g transform="translate(380.29 103.63)">
       <path d="m0 0h-9.938c-0.443 0-0.8 0.358-0.8 0.801v3.82c0 0.442 0.357 0.801 0.8 0.801h9.938c0.441 0 0.8-0.359 0.8-0.801v-3.82c0-0.443-0.359-0.801-0.8-0.801" fill="#72a4d5"/>
      </g>
      <g transform="translate(426.83 103.63)">
       <path d="m0 0h-10.084c-0.367 0-0.675 0.274-0.718 0.639l-0.463 3.977c-0.049 0.429 0.286 0.806 0.718 0.806h10.084c0.366 0 0.675-0.276 0.718-0.639l0.463-3.977c0.05-0.429-0.286-0.806-0.718-0.806" fill="#72a4d5"/>
      </g>
      <g transform="translate(361.26 289.32)">
       <path d="m0 0c-0.935-2.875-5.395-17.805-5.395-17.805s19.092 13.307 20.935 13.106l-4.909-17.513s-27.025-14.156-31.657-11.598c-3.766 2.08-2.723 6.096 1.793 15.823 4.209 9.065 8.824 17.171 11.258 21.792z" fill="#ffe568"/>
      </g>
      <g transform="translate(376.8 284.63)">
       <path d="m0 0c-4.901-3.128-12.044-17.52-19.433-21.965-7.307-4.395-16.156-7.455-18.611-5.918 0.367-0.473 0.85-0.881 1.478-1.228 3.24-1.789 17.424 4.593 25.665 8.595z" fill="#fecb2f"/>
      </g>
      <g transform="translate(395.71 327.19)">
       <path d="m0 0s2.524 1.08 5.806-0.404c3.281-1.484 4.609-4.531 4.922-8.383 0.242-2.985 1.166-5.519 3.046-6.992 1.881-1.474 3.984-4.937 3.124-9.828-0.88-5.018 2.344-8.155 2.344-8.155s-5.625-6.975-22.577-6.975-28.279 5.022-28.279 5.022 1.093 2.265 0 4.981c-1.095 2.715-1.485 5.8 0.546 8.768 2.031 2.969 3.828 4.766 3.437 7.813-0.39 3.047-1.172 13.515 10.938 18.436 12.108 4.922 16.693-4.283 16.693-4.283" fill="#242357"/>
      </g>
      <g transform="translate(396.75 301.58)">
       <path d="m0 0s-0.798-10.25-0.682-12.112c0.118-1.863 0.582-2.677 2.794-3.259 2.211-0.582 5.988-3.155 5.988-3.155s-5.988-16.282-23.097-17.33c-17.109-1.047-2.172 19.554-2.172 19.554s3.452 0.815 4.383 1.28c0.932 0.466 1.038 3.008 1.038 6.218z" fill="#f89888"/>
      </g>
      <g transform="translate(384.93 289.78)">
       <path d="m0 0h3e-3c8.76 1e-3 11.582 8.65 11.582 8.65l1e-3 0.011c0.128 1.797 0.231 3.136 0.231 3.136l-11.748-8.804c0-1.098-0.015-2.108-0.069-2.993" fill="#cf6f70"/>
      </g>
      <g transform="translate(386.49 329.22)">
       <path d="m0 0c-5.776 0.056-12.566-3.518-13.446-12.002-0.833-8.029 0.101-15.482 1.595-18.47 1.494-2.987 4.482-5.975 6.274-6.274 1.793-0.298 11.651 0.498 15.236 7.867 0 0 0.996 1.892 1.593 3.784 0 0 2.191-1.493 4.282 0.299 2.091 1.793 3.486 6.473 2.29 8.564-1.194 2.091-3.684 2.49-5.974 0.498 0 0 0.597 1.86 0.498 4.913-0.1 3.053-1.992 10.721-12.348 10.821" fill="#f89888"/>
      </g>
      <g transform="translate(398.34 313.49)">
       <path d="m0 0s0.047 0.153 0.11 0.421c-0.145 2.226-6.55 11.323-9.34 15.085-0.814 0.127-1.669 0.219-2.62 0.228-5.776 0.056-12.566-3.518-13.446-12.003-0.075-0.721-0.131-1.434-0.178-2.143 1.431-0.238 4.377-0.521 4.828-0.161 0.498 0.396 2.773 8.692 2.773 8.692s0.3-9.072 0.504-9.521c0.204-0.45 4.987-1.267 5.579 0 0.403 0.864 1.278 4.984 1.793 7.513 0.536-2.675 1.586-7.728 1.945-8.19 0.49-0.631 6.664-1.172 8.052 0.079" fill="#cf6f70"/>
      </g>
     </g>
     <path d="m384.86 313.02v-1.057c0-1.89 1.531-3.423 3.422-3.423 1.889 0 3.421 1.533 3.421 3.423v1.057c0 1.889-1.532 3.421-3.421 3.421-1.891 0-3.422-1.532-3.422-3.421" fill="url(#linearGradient1161-5)"/>
     <path d="m372.73 313.35v-1.055c0-1.89 1.533-3.422 3.422-3.422 1.891 0 3.423 1.532 3.423 3.422v1.055c0 1.89-1.532 3.423-3.423 3.423-1.889 0-3.422-1.533-3.422-3.423" fill="url(#linearGradient1181-5)"/>
     <g clip-path="url(#clipPath1191-5-7)">
      <g transform="translate(377.45 301.58)">
       <path d="m0 0c0.297-0.635 0.553-1.34-0.653-2.399-1.206-1.058-1.605-1.423-1.605-1.423s-0.459 0.767-0.635 1.171z" fill="#cf6f70"/>
      </g>
      <g transform="translate(381.63 310.82)">
       <path d="m0 0c0.628 0.188 1.222-6.239 0.515-6.561-0.708-0.321-3.399 0.057-3.656 0.636s2.497 5.732 3.141 5.925" fill="#c46065"/>
      </g>
      <g transform="translate(390.01 310.27)">
       <path d="m0 0c0 0.956-0.774 1.731-1.73 1.731-0.957 0-1.731-0.775-1.731-1.731s0.774-1.731 1.731-1.731c0.956 0 1.73 0.775 1.73 1.731" fill="#251836"/>
      </g>
      <g transform="translate(377.84 310.6)">
       <path d="m0 0c0 0.956-0.774 1.731-1.73 1.731-0.957 0-1.732-0.775-1.732-1.731s0.775-1.73 1.732-1.73c0.956 0 1.73 0.774 1.73 1.73" fill="#251836"/>
      </g>
      <g transform="translate(402.6 310.42)">
       <path d="m0 0c0.098 0.456-0.647 1.643-1.955 1.399-1.655-0.31-2.715-3.335-1.103-4.847" fill="none" stroke="#cf6f70" stroke-linecap="round" stroke-miterlimit="10"/>
      </g>
      <g transform="translate(400.86 309.09)">
       <path d="m0 0c0.161 0.806-1.089 1.693-1.975 0.805" fill="none" stroke="#cf6f70" stroke-linecap="round" stroke-miterlimit="10"/>
      </g>
      <g transform="translate(382.88 286.16)">
       <path d="m0 0s-4.552-14.407-2.785-15.325c1.765-0.919 17.989 15.614 17.989 15.614s6.886-2.338 8.306-2.817c2.698-0.91 4.454-1.069 3.815-3.462-0.843-3.163-0.458-10.907-6.676-27.18-2.171-5.683-2.898-11.532-1.323-16.274 1.066-3.209 5.941-14.778 5.941-14.778s-20.461-15.915-40.175-1.359c0 0 1.262 26.616 3.573 32.114 0 0-3.936 1.492-5.823 6.357-2.041 5.259 1.442 9.948 3.491 13.481s7.582 12.094 7.582 12.094z" fill="#ffe568"/>
      </g>
      <g transform="translate(392.93 215.18)">
       <path d="m0 0c8.94 1.886 15.214 6.756 15.214 6.756s-4.875 11.568-5.941 14.778c-1.575 4.741-0.848 10.591 1.324 16.273 1.694 4.435 2.886 8.217 3.758 11.465-0.042 0.099-2.947 6.947-1.63 11.626-0.437 0.316-1.521-2.392-1.373-5.817 0.148-3.426-1.824-1.85-2.414-2.441-0.592-0.591 1.877-2.562 0.742-7.194-1.137-4.633-5.374-11.827-4.389-20.302 0.985-8.476 4.19-13.897 4.46-15.77 0.24-1.659-4.374-7.78-9.751-9.374" fill="#fecb2f"/>
      </g>
      <g transform="translate(354.34 292.62)">
       <path d="m0 0s3.301 5.913 4.416 6.54c0.625 0.352 5.859 1.846 10.938 3.265 0.864 0.241 1.68-0.523 2.199-0.902 1.012 0.053 3.968 0.36 4.832 0.345 1.091-0.019 1.18-1.031-1.356-2.468-2.535-1.436-8.967-5.738-12.173-5.807l-2.457-4.026z" fill="#f89888"/>
      </g>
      <g transform="translate(395.71 327.19)">
       <path d="m0 0s-3.882 5.731-11.846 4.529c-9.015-1.36-12.262-6.689-13.657-17.141 0 0 5.651-0.766 6.589 0 0.936 0.767 3.097 9.546 3.097 9.546s-0.07-8.849 0.418-9.476 5.365-0.906 5.922 0c0.558 0.906 1.116 8.37 1.116 8.37s0.836-8.205 2.438-8.95c1.603-0.744 8.555-0.578 8.555-0.578s0.954 1.49 0.548 6.219c-0.471 5.481-3.18 7.481-3.18 7.481" fill="#2f256a"/>
      </g>
      <g transform="translate(398.34 313.49)">
       <path d="m0 0s-0.617-5.566-1.142-5.61c-0.523-0.043-1.221 7.551-1.221 7.551z" fill="#2f256a"/>
      </g>
      <g transform="translate(385.81 316.91)">
       <path d="m0 0c0.671-0.706 2.431-0.942 3.262-1.124 2.105-0.46 3.331-1.27 3.419-2.876" fill="none" stroke="#291d51" stroke-linecap="round" stroke-miterlimit="10" stroke-width="2"/>
      </g>
      <g transform="translate(378.61 316.35)">
       <path d="m0 0c-1.326 0.478-4.646-0.295-5.263-2.877" fill="none" stroke="#291d51" stroke-linecap="round" stroke-miterlimit="10" stroke-width="2"/>
      </g>
      <g transform="translate(371.89 301.53)">
       <path d="m0 0-3.991-0.592 3.551 0.926z" fill="#cf6f70"/>
      </g>
      <g transform="translate(382.83 298.38)">
       <path d="m0 0c0.971 2.121 3.418 2.646 5.187 2.804" fill="none" stroke="#cf6f70" stroke-linecap="round" stroke-miterlimit="10"/>
      </g>
      <g transform="translate(355.86 271.52)">
       <path d="m0 0s-1.073-4.126-1.521-5.074c0 0 2.578 3.315 3.433 6.396z" fill="#fecb2f"/>
      </g>
      <g transform="translate(367 294.72)">
       <path d="m0 0c-2.108-0.892-4.376-0.33-4.376-0.33l-2.401-3.659-5.883 1.894 6.399-3.053 2.457 4.026c1.018 0.022 2.363 0.474 3.804 1.122" fill="#cf6f70"/>
      </g>
      <g transform="translate(370.89 103.63)">
       <path d="m0 0h8.267l-0.059-1.151s-5.643-0.108-8.208 1.151" fill="#cf6f70"/>
      </g>
      <g transform="translate(418.32 103.63)">
       <path d="m0 0h7.724s-1.301-0.823-7.561-1.154z" fill="#cf6f70"/>
      </g>
      <g transform="translate(416.47 248.54)"></g>
      <g transform="translate(418.66 95.442)">
       <path d="m0 0c1.1 0 2.624-4.523 3.827-4.523s4.33 6.544 5.625 6.623c1.294 0.077 2.723-4.585 4.378-6.165 1.654-1.58 11.882-4.813 13.988-5.264s3.008-1.727 3.008-4.023h-33.237s-0.407 2.593 0.722 5.376c1.127 2.783 0.589 7.976 1.689 7.976" fill="#2f256a"/>
      </g>
      <g transform="translate(449.3 83.692)">
       <path d="m0 0h-33.116v-1.602h33.308c9e-3 0.535-0.055 1.069-0.192 1.602" fill="#fff"/>
      </g>
      <g transform="translate(419.47 83.692)">
       <path d="m0 0s-0.128 3.056 0.424 5.052c0.352 1.274 0.614 3.049 0.653 4.426-0.672 1.134-1.33 2.272-1.882 2.272-1.099 0-0.561-5.193-1.689-7.976-0.573-1.412-0.749-2.773-0.785-3.774z" fill="#291d51"/>
      </g>
      <g transform="translate(449.49 82.091)">
       <path d="M 0,0 H -33.302 V 0.801 H -0.043 C -0.015,0.534 0,0.268 0,0" fill="#e6eff4"/>
      </g>
      <g transform="translate(379.62 95.442)">
       <path d="m0 0c-1.1 0-2.624-4.523-3.827-4.523s-4.33 6.544-5.624 6.623c-1.295 0.077-2.724-4.585-4.378-6.165-1.655-1.58-11.883-4.813-13.988-5.264-2.107-0.451-3.009-1.727-3.009-4.023h33.237s0.407 2.593-0.721 5.376-0.59 7.976-1.69 7.976" fill="#2f256a"/>
      </g>
      <g transform="translate(348.99 83.692)">
       <path d="m0 0h33.115v-1.602h-33.308c-9e-3 0.535 0.055 1.069 0.193 1.602" fill="#fff"/>
      </g>
      <g transform="translate(378.82 83.692)">
       <path d="m0 0s0.127 3.056-0.425 5.052c-0.352 1.274-0.614 3.049-0.652 4.426 0.671 1.134 1.329 2.272 1.881 2.272 1.099 0 0.562-5.193 1.69-7.976 0.572-1.412 0.749-2.773 0.784-3.774z" fill="#291d51"/>
      </g>
      <g transform="translate(348.8 82.091)">
       <path d="M 0,0 H 33.301 V 0.801 H 0.042 C 0.014,0.534 -0.001,0.268 0,0" fill="#e6eff4"/>
      </g>
      <g transform="translate(230.9 118.37)">
       <path d="m0 0s48.119 23.773 54.599 25.679c2.261 0.665 6.553 0.633 10.53-6.862 8.861-16.693 26.575-46.272 26.575-46.272h-8.398l-26.175 34.02-51.696-34.02z" fill="#f89888"/>
      </g>
      <g transform="translate(272.46 132.33)">
       <path d="m0 0 0.872-2.434-15.81-25.047s-20.721-14.756-21.182-13.929c-0.461 0.826 36.12 41.41 36.12 41.41" fill="#cf6f70"/>
      </g>
      <g transform="translate(196.39 107.83)">
       <path d="m0 0c-0.821-2.394-2.968-9.018-1.238-14.733 1.755-5.799 7.659-11.003 15.869-11.003h15.492c3.579 0 11.999 3.667 20.419 15.452s25.527 34.786 25.527 34.786l15.234-42.512h6.887s-10.388 49.3-12.205 56.035c-2.465 9.145-8.424 9.864-19.315 0.206-8.773-7.779-32.155-27.684-32.155-27.684s-7.643-10.957-21.911-4.213z" fill="#f89888"/>
      </g>
      <g transform="translate(230.9 118.37)">
       <path d="m0 0 7.104 6.062s12.085-10.965 15.701-20.005c0 0-14.231-22.34-27.197-22.34h-15.492c-7.042 0-13.471 3.927-15.869 11.003-2.398 7.075 1.238 14.733 1.238 14.733l12.765 8.872z" fill="#0984e3"/>
      </g>
      <g transform="translate(209.16 116.7)">
       <path d="m0 0-12.766-8.872s-0.583-1.243-1.129-3.173c8.371 0.02 14.281 6.161 14.281 6.161 7.579-3.575 12.673 0.792 12.673 0.792v6.098z" fill="#315095"/>
      </g>
      <g transform="translate(203.53 212.78)">
       <path d="m0 0s-3.934 3.797-10.19 2.48c-7.042-1.48-9.305-6.134-10.374-11.871-1.069-5.736-4.043-8.646-4.606-14.255-0.563-5.61 2.013-15.954 12.099-17.408l2.828 11.606z" fill="#2f256a"/>
      </g>
      <g transform="translate(200.24 214.74)">
       <path d="m0 0s3.055 3.835 10.035 2.202c4.733-1.107 10.097-4.641 9.644-11.095s0.226-7.858 1.132-11.061c0.906-3.204-0.637-9.906-5.863-12.303l-12.305 28.558c-0.215 1.704-1.243 2.833-2.643 3.699" fill="#242357"/>
      </g>
      <g transform="translate(192.29 184.97)">
       <path d="m0 0-1.832-13.243-2.693-2.342s6.483-9.543 11.436-11.436c4.953-1.892 11.736-0.655 12.278 0.362 2.014 3.779-4.965 10.778-4.965 10.778l-3.898 1.202 1.346 6.567z" fill="#f89888"/>
      </g>
      <g transform="translate(192.29 184.97)">
       <path d="m0 0-0.291-2.103s1.255-3.924 4.872-6.214c3.616-2.291 6.582-2.279 6.582-2.279l0.509 2.484z" fill="#cf6f70"/>
      </g>
      <g transform="translate(199.8 210.73)">
       <path d="m0 0c5.662 1.144 11.811-0.076 14.275-8.243 2.331-7.728 2.34-13.814 1.913-18.44-0.306-3.326-1.214-6.085-2.917-6.716-1.705-0.631-13.598-2.334-18.507 4.227 0 0-1.335 1.671-2.278 3.416 0 0-1.87-1.88-4.261-0.514-2.392 1.367-4.643 5.701-3.864 7.98 0.78 2.278 3.15 3.139 5.774 1.614 0 0-0.937 1.715-1.415 4.732-0.477 3.017 1.128 9.895 11.28 11.944" fill="#f89888"/>
      </g>
     </g>
     <path d="m212.36 202.66c-1.88-0.201-3.24-1.887-3.039-3.768l0.112-1.049c0.202-1.879 1.888-3.24 3.767-3.038 0.982 0.104 1.816 0.621 2.366 1.352-0.327 1.941-0.794 4.009-1.455 6.213-0.434 0.194-0.909 0.308-1.406 0.308-0.114 0-0.229-6e-3 -0.345-0.018" fill="url(#linearGradient1433-2)"/>
     <path d="m201.39 201.25c-1.88-0.201-3.241-1.888-3.039-3.768l0.113-1.049c0.2-1.879 1.887-3.24 3.766-3.039 1.88 0.202 3.24 1.888 3.039 3.767l-0.112 1.05c-0.188 1.756-1.672 3.058-3.398 3.058-0.122 0-0.246-6e-3 -0.369-0.019" fill="url(#linearGradient1453-2)"/>
     <g clip-path="url(#clipPath1463-9-5)">
      <g transform="translate(202.89 211.04)">
       <path d="m0 0s2.495-5.731-0.272-11.268c-2.768-5.536-9.716-5.611-9.716-5.611z" fill="#cf6f70"/>
      </g>
      <g transform="translate(208.64 195.3)">
       <path d="m0 0c-0.723-0.514-0.703-6.32-4e-3 -6.661 0.698-0.342 4.06 0.689 4.142 1.317 0.192 1.46-3.591 5.734-4.138 5.344" fill="#c46065"/>
      </g>
      <g transform="translate(211.08 196.19)">
       <path d="m0 0c-0.18 0.939 0.435 1.846 1.374 2.026s1.845-0.435 2.025-1.374c0.181-0.938-0.434-1.845-1.373-2.025-0.939-0.181-1.846 0.435-2.026 1.373" fill="#251836"/>
      </g>
      <g transform="translate(200.91 195)">
       <path d="M 0,0 C -0.18,0.938 0.435,1.846 1.374,2.025 2.313,2.206 3.22,1.591 3.399,0.652 3.58,-0.286 2.965,-1.193 2.026,-1.373 1.087,-1.554 0.18,-0.938 0,0" fill="#251836"/>
      </g>
      <g transform="translate(186.33 190.23)">
       <path d="m0 0c-0.182 0.43 0.326 1.736 1.656 1.742 1.684 8e-3 3.295-2.763 1.996-4.552" fill="none" stroke="#cf6f70" stroke-linecap="round" stroke-miterlimit="10"/>
      </g>
      <g transform="translate(188.29 189.26)">
       <path d="m0 0c-0.311 0.762 0.75 1.869 1.787 1.163" fill="none" stroke="#cf6f70" stroke-linecap="round" stroke-miterlimit="10"/>
      </g>
      <g transform="translate(190.46 171.73)">
       <path d="m0 0s-1.222 0.104-6.132-2.441c-5.011-2.599-6.164-3.082-5.484-6.329 0.523-2.495 3.695-16.434 12.168-28.338 3.677-5.165 8.079-9.556 9.098-10.792 1.019-1.237 1.199-2.923-0.69-6.633-1.888-3.71-4.163-9.657-4.163-9.657s6.129 1.451 9.092 3.137c2.964 1.686 4.65 3.485 4.65 3.485s3.941-3.992 9.94-3.254c8.91 1.093 11.971 7.467 11.971 7.467s-1.114 6.466-3.7 12.762c-2.585 6.295-4.834 10.23-4.609 12.029 0.225 1.798 3.935 9.676 0.562 14.787-3.372 5.11-13.837 10.665-15.636 11.339-1.798 0.675-4.072 0.744-4.072 0.744s10.202-8.205 6.165-11.488c-1.195-0.971-4.591-1.78-8.733 1.255s-6.386 7.867-10.427 11.927" fill="#fe677a"/>
      </g>
      <g transform="translate(192 151.97)">
       <path d="m0 0c-0.187 3.589-2.753 7.679-2.842 7.903-0.089 0.226 1.091-4.15 1.294-9.243 0.202-5.087-1.53-12.842-1.534-12.858 0.66-1.059 1.354-2.111 2.092-3.148 3.677-5.165 8.079-9.555 9.098-10.792 1.02-1.236 1.199-2.923-0.69-6.633-1.887-3.709-4.162-9.657-4.162-9.657s2.482 0.589 5.05 1.45c-0.174 3.186 1.557 8.197 2.31 10.535 0.952 2.953 1.459 3.312 0 5.014-1.458 1.701-3.2 4.403-5.288 8.258-2.089 3.856-3.009 7.734-2.068 10.924 0.942 3.189 3.674 11.566 2.635 18.86-1e-3 5e-3 -2e-3 9e-3 -2e-3 0.013-2.48 2.791-4.479 6.167-7.435 9.137 5.34-6.851 1.542-19.763 1.542-19.763" fill="#cd437e"/>
      </g>
      <g transform="translate(181.17 166.47)">
       <path d="m0 0c-1.65 0.342-3.469 0.727-3.863-8.518-0.324-7.593-1.922-35.045-1.922-35.045h10.909s3.162 17.441 3.781 22.116c1.423 10.742-0.127 19.633-8.905 21.447" fill="#fe677a"/>
      </g>
      <g transform="translate(175.39 120.06)">
       <path d="m0 0s-1.48-29.207-1.599-31.46-6.002-3.129-11.133-3.63c-5.133-0.501-7.01-1.885-5.884-2.883h21.892c1.891 0 2.016 1.13 2.516 5.762 0.501 4.631 4.131 32.794 4.131 32.794z" fill="#f89888"/>
      </g>
      <g transform="translate(175.19 116.14)">
       <path d="m0 0-0.088-1.741s5.704-0.346 9.519 0.871l0.111 0.87z" fill="#cf6f70"/>
      </g>
      <g transform="translate(189.94 194.05)">
       <path d="m0 0s6.836-0.932 10.945 5.2c4.11 6.132 1.731 12.765 1.731 12.765s-6.152 2.861-12.073-2.479c-5.922-5.34-2.504-14.257-0.603-15.486" fill="#2f256a"/>
      </g>
      <g transform="translate(190.54 173.74)">
       <path d="m0 0s6.064-0.594 9.566-4.154c3.501-3.561 6.766-9.209 5.084-16.572-1.681-7.363-2.395-10.824-0.406-12.703 1.988-1.88 4.758 0 4.758 0s-2.463-5.864-10.126-3.649c-5.607 1.621-7.69 7.045-5.769 15.308 1.921 8.265 1.814 13.642-3.191 19.763z" fill="#2f256a"/>
      </g>
      <g transform="translate(203.61 184.48)">
       <path d="m0 0s3.361 0.177 5.282-1.836" fill="none" stroke="#cf6f70" stroke-linecap="round" stroke-miterlimit="10"/>
      </g>
      <g transform="translate(185.89 116.14)">
       <path d="m0 0h-11.381c-0.417 0-0.747 0.352-0.72 0.769l0.343 5.32c0.025 0.381 0.34 0.676 0.721 0.676h11.724c0.435 0 0.771-0.382 0.716-0.815l-0.687-5.321c-0.047-0.359-0.353-0.629-0.716-0.629" fill="#fcb4c4"/>
      </g>
      <g transform="translate(270.51 129.7)">
       <path d="m0 0 6.063-12.308 1.001 0.66c-2.085 5.65-4.6 12.309-4.243 15.734z" fill="#cf6f70"/>
      </g>
      <g transform="translate(288.04 124.94)">
       <path d="m0 0s-0.637 2.624 0.688 5.773c0 0 1.493-4.889 6.63-12.098 5.138-7.209 20.638-27.696 20.638-27.696h-1.781z" fill="#cf6f70"/>
      </g>
      <g transform="translate(310.71 95.442)">
       <path d="m0 0c1.101 0 2.624-4.523 3.827-4.523 1.204 0 4.33 6.544 5.625 6.623 1.294 0.077 2.724-4.585 4.378-6.165s11.882-4.813 13.988-5.264 3.008-1.727 3.008-4.023h-33.237s-0.406 2.593 0.722 5.376c1.127 2.783 0.589 7.976 1.689 7.976" fill="#2f256a"/>
      </g>
      <g transform="translate(341.34 83.692)">
       <path d="m0 0h-33.116v-1.602h33.308c9e-3 0.535-0.055 1.069-0.192 1.602" fill="#fff"/>
      </g>
      <g transform="translate(311.51 83.692)">
       <path d="m0 0s-0.128 3.056 0.424 5.052c0.352 1.274 0.615 3.049 0.653 4.426-0.671 1.134-1.33 2.272-1.882 2.272-1.099 0-0.561-5.193-1.689-7.976-0.573-1.412-0.749-2.773-0.785-3.774z" fill="#291d51"/>
      </g>
      <g transform="translate(341.53 82.091)">
       <path d="m 0,0 h -33.302 v 0.801 h 33.26 C -0.014,0.534 0,0.268 0,0" fill="#e6eff4"/>
      </g>
      <g transform="translate(226.51 82.091)">
       <path d="m0 0c12.966 0 27.197 22.34 27.197 22.34-0.602 1.507-1.443 3.066-2.422 4.62-0.01-0.015-12.151-16.169-16.684-19.483-4.535-3.316-13.735-3.681-21.827-3.681-8.082 0-12.69 0-15.935 3.668 3.068-4.831 8.417-7.464 14.179-7.464z" fill="#315095"/>
      </g>
      <g transform="translate(285.17 95.442)">
       <path d="m0 0c1.101 0 2.624-4.523 3.828-4.523 1.203 0 4.329 6.544 5.624 6.623 1.294 0.077 2.724-4.585 4.378-6.165s11.882-4.813 13.988-5.264 3.008-1.727 3.008-4.023h-33.237s-0.406 2.593 0.722 5.376c1.127 2.783 0.589 7.976 1.689 7.976" fill="#2f256a"/>
      </g>
      <g transform="translate(315.8 83.692)">
       <path d="m0 0h-33.116v-1.602h33.308c9e-3 0.535-0.055 1.069-0.192 1.602" fill="#fff"/>
      </g>
      <g transform="translate(285.97 83.692)">
       <path d="m0 0s-0.128 3.056 0.425 5.052c0.352 1.274 0.614 3.049 0.652 4.426-0.671 1.134-1.33 2.272-1.882 2.272-1.099 0-0.561-5.193-1.689-7.976-0.573-1.412-0.749-2.773-0.785-3.774z" fill="#291d51"/>
      </g>
      <g transform="translate(315.99 82.091)">
       <path d="m 0,0 h -33.302 v 0.801 h 33.26 C -0.014,0.534 0,0.268 0,0" fill="#e6eff4"/>
      </g>
      <g transform="translate(204.6 202.79)">
       <path d="m0 0c-0.507-0.759-2.091-1.085-3.317-1.239-1.018-0.128-2.179-0.591-2.95-1.779" fill="none" stroke="#291d51" stroke-linecap="round" stroke-miterlimit="10" stroke-width="2"/>
      </g>
      <g transform="translate(210.24 201.89)">
       <path d="m0 0s1.461 0.563 3.071 0.092 2.385-1.616 2.385-1.616" fill="none" stroke="#291d51" stroke-linecap="round" stroke-miterlimit="10" stroke-width="2"/>
      </g>
      <g transform="translate(189.94 194.05)">
       <path d="m0 0s1.518-2.326 2.06-4.098c0.542-1.77 2.28 0.802 0.676 4.83z" fill="#2f256a"/>
      </g>
      <g transform="translate(418.66 388.95)">
       <path d="m0 0c-4.925-2.288-8.638-6.06-10.897-10.513-0.399-0.785-0.077-1.745 0.712-2.134l5.385-2.655c0.781-0.385 1.713-0.057 2.113 0.718 1.356 2.624 3.552 4.848 6.457 6.221 6.532 3.088 14.464 0.609 18.078-5.648 3.992-6.912 1.418-15.691-5.577-19.385-1.884-0.996-3.893-1.515-5.89-1.606-1.157-0.053-2.311 0.04-3.433 0.269-3.222 0.657-6.405-1.295-7.312-4.456l-0.669-2.331-1.668-5.771c-0.241-0.839 0.244-1.715 1.083-1.956l5.776-1.658c0.84-0.241 1.716 0.244 1.956 1.083l1.657 5.731c4.281-0.372 8.71 0.433 12.785 2.585 11.662 6.159 15.905 20.93 9.049 32.396-6.045 10.114-18.918 14.074-29.605 9.11" fill="#50c7f1"/>
      </g>
      <g transform="translate(413.35 328.18)">
       <path d="M 0,0 C -1.183,2.239 -0.326,5.014 1.913,6.197 4.153,7.38 6.928,6.523 8.11,4.284 9.293,2.044 8.437,-0.73 6.197,-1.914 3.957,-3.096 1.183,-2.24 0,0" fill="#5b9dd3"/>
      </g>
      <g transform="translate(418.78 328.06)">
       <path d="m0 0c1.946 1.028 2.69 3.439 1.662 5.385-0.122 0.233-0.266 0.447-0.425 0.644-1.362 0.943-3.188 1.116-4.755 0.288-1.22-0.645-2.027-1.764-2.319-3.011 0.03-0.557 0.174-1.117 0.452-1.643 1.029-1.946 3.439-2.691 5.385-1.663" fill="#50c7f1"/>
      </g>
      <g transform="translate(424.78 339.13)">
       <path d="m0 0 1.656 5.73c4.281-0.371 8.711 0.434 12.785 2.585 8.209 4.336 12.736 12.939 12.309 21.652-0.345-5.842-2.951-12.237-10.309-17.364-6.259-4.361-12.726-4.293-15.713-3.952-0.994 0.114-1.915-0.514-2.171-1.481-0.775-2.912-0.841-3.519-1.096-4.796-0.348-1.742-1.217-2.794-5.193-1.799l5.776-1.658c0.84-0.242 1.715 0.244 1.956 1.083" fill="#5b9dd3"/>
      </g>
      <g transform="translate(414.31 384.68)">
       <path d="m0 0c5.579 6.063 15.833 6.331 19.556 5.735-4.949 1.206-10.303 0.81-15.2-1.464-4.924-2.288-8.637-6.06-10.897-10.513-0.398-0.785-0.076-1.745 0.713-2.134l5.385-2.655s-2.595 2.029-3.447 2.924c-0.85 0.895-1.699 2.033 3.89 8.107" fill="#84dff7"/>
      </g>
      <g transform="translate(434.31 355.25)">
       <path d="m0 0c-1.699-0.792-3.484-1.215-5.261-1.295-1.157-0.053-2.31 0.039-3.432 0.269-3.223 0.657-6.406-1.295-7.313-4.457l-0.669-2.33-1.243-4.284c0.759 1.966 1.065 1.435 1.977 3.956 1.19 3.294 2.228 6.586 6.865 6.104 4.638-0.482 7.381 0.643 9.077 2.036z" fill="#84dff7"/>
      </g>
      <g class="topqmark rotate">
          <g transform="translate(154.7 430.75)">
       <path d="m0 0c-4.924-2.287-8.637-6.059-10.897-10.513-0.398-0.785-0.077-1.745 0.713-2.134l5.384-2.655c0.782-0.385 1.714-0.056 2.113 0.718 1.356 2.624 3.553 4.848 6.457 6.221 6.532 3.088 14.464 0.609 18.078-5.648 3.991-6.911 1.417-15.691-5.576-19.385-1.885-0.996-3.894-1.515-5.891-1.606-1.157-0.052-2.31 0.04-3.432 0.269-3.223 0.658-6.406-1.295-7.313-4.456l-0.67-2.331-1.667-5.771c-0.241-0.839 0.243-1.715 1.083-1.956l5.776-1.658c0.84-0.241 1.716 0.244 1.957 1.083l1.656 5.731c4.281-0.372 8.711 0.433 12.785 2.585 11.662 6.16 15.905 20.93 9.05 32.396-6.046 10.114-18.919 14.074-29.606 9.11" fill="#50c7f1"/>
      </g>
          <g transform="translate(149.38 369.98)">
       <path d="M 0,0 C -1.183,2.24 -0.326,5.014 1.914,6.197 4.153,7.38 6.928,6.523 8.111,4.284 9.293,2.044 8.437,-0.73 6.197,-1.914 3.958,-3.096 1.183,-2.24 0,0" fill="#5b9dd3"/>
      </g>
          <g transform="translate(154.81 369.86)">
       <path d="m0 0c1.946 1.028 2.69 3.438 1.663 5.385-0.123 0.232-0.267 0.447-0.426 0.643-1.362 0.944-3.188 1.117-4.754 0.289-1.222-0.645-2.027-1.764-2.32-3.011 0.03-0.557 0.174-1.118 0.452-1.643 1.028-1.947 3.439-2.691 5.385-1.663" fill="#50c7f1"/>
      </g>
          <g transform="translate(160.81 380.93)">
       <path d="m0 0 1.656 5.73c4.281-0.371 8.711 0.434 12.785 2.585 8.209 4.336 12.735 12.939 12.309 21.652-0.345-5.842-2.951-12.237-10.31-17.363-6.258-4.362-12.725-4.294-15.712-3.953-0.995 0.114-1.915-0.514-2.172-1.481-0.774-2.912-0.841-3.519-1.096-4.796-0.347-1.742-1.217-2.794-5.192-1.799l5.775-1.658c0.84-0.242 1.716 0.244 1.957 1.083" fill="#5b9dd3"/>
      </g>
          <g transform="translate(150.34 426.48)">
       <path d="m0 0c5.58 6.063 15.833 6.331 19.556 5.735-4.948 1.206-10.303 0.81-15.2-1.464-4.924-2.287-8.637-6.059-10.897-10.513-0.398-0.785-0.076-1.745 0.713-2.134l5.385-2.655s-2.595 2.029-3.446 2.924c-0.852 0.896-1.7 2.033 3.889 8.107" fill="#84dff7"/>
      </g>
          <g transform="translate(170.34 397.04)">
       <path d="m0 0c-1.699-0.792-3.485-1.215-5.261-1.295-1.157-0.053-2.31 0.04-3.432 0.269-3.223 0.657-6.405-1.295-7.313-4.457l-0.669-2.33-1.242-4.283c0.758 1.965 1.064 1.434 1.976 3.956 1.19 3.294 2.228 6.586 6.865 6.103 4.638-0.482 7.381 0.644 9.076 2.036z" fill="#84dff7"/>
      </g>
      </g>
     <g class="leftqmark rotate">
          <g transform="translate(33.784 364.89)">
       <path d="m0 0c-2.293-4.922-2.703-10.199-1.562-15.062 0.201-0.856 1.066-1.383 1.921-1.172l5.828 1.439c0.846 0.208 1.347 1.06 1.154 1.91-0.654 2.88-0.407 5.996 0.93 8.917 3.006 6.57 10.67 9.784 17.465 7.327 7.506-2.714 11.193-11.088 8.224-18.418-0.8-1.976-2.002-3.668-3.471-5.024-0.851-0.786-1.793-1.458-2.799-2.005-2.888-1.574-4.064-5.117-2.722-8.12l0.99-2.213 2.442-5.489c0.357-0.797 1.292-1.154 2.089-0.798l5.487 2.453c0.797 0.357 1.154 1.292 0.797 2.089l-2.424 5.45c3.513 2.474 6.383 5.944 8.112 10.214 4.952 12.224-1.319 26.254-13.949 30.608-11.14 3.84-23.536-1.425-28.512-12.106" fill="#50c7f1"/>
      </g>
      <g transform="translate(68.867 314.99)">
       <path d="m0 0c-2.348 0.951-3.48 3.625-2.529 5.973 0.951 2.347 3.625 3.479 5.972 2.528 2.348-0.95 3.48-3.624 2.53-5.972-0.952-2.347-3.625-3.48-5.973-2.529" fill="#5b9dd3"/>
      </g>
      <g transform="translate(73.098 318.39)">
       <path d="m0 0c0.826 2.04-0.158 4.363-2.197 5.189-0.244 0.099-0.492 0.17-0.741 0.219-1.649-0.157-3.157-1.2-3.822-2.842-0.518-1.28-0.414-2.656 0.166-3.798 0.382-0.407 0.853-0.742 1.405-0.965 2.04-0.826 4.363 0.157 5.189 2.197" fill="#50c7f1"/>
      </g>
      <g transform="translate(70.557 330.72)">
       <path d="m0 0-2.425 5.45c3.513 2.473 6.383 5.943 8.113 10.213 3.485 8.605 1.404 18.101-4.535 24.49 3.5-4.69 5.627-11.26 3.302-19.922-1.978-7.368-6.967-11.483-9.472-13.146-0.833-0.553-1.133-1.627-0.707-2.531 1.285-2.727 1.625-3.234 2.252-4.374 0.857-1.557 0.87-2.922-2.812-4.722l5.486 2.453c0.798 0.356 1.154 1.292 0.798 2.089" fill="#5b9dd3"/>
      </g>
      <g transform="translate(33.203 358.82)">
       <path d="m0 0c0.361 8.232 8.031 15.042 11.262 16.985-4.561-2.265-8.402-6.018-10.681-10.912-2.293-4.922-2.703-10.199-1.562-15.061 0.201-0.857 1.065-1.384 1.92-1.173l5.829 1.439s-3.292-0.12-4.52 0.016c-1.227 0.136-2.609 0.46-2.248 8.706" fill="#84dff7"/>
      </g>
      <g transform="translate(67.462 349.19)">
       <path d="m0 0c-0.79-1.701-1.883-3.174-3.189-4.38-0.852-0.786-1.793-1.458-2.799-2.006-2.888-1.573-4.064-5.116-2.722-8.119l0.99-2.214 1.809-4.076c-0.686 1.992-0.11 1.783-1.037 4.299-1.212 3.286-2.539 6.473 1.319 9.091 3.857 2.619 5.23 5.247 5.63 7.405z" fill="#84dff7"/>
      </g>
     </g>
      <g transform="translate(252.77 398.56)">
       <path d="m0 0c-6.545-9.537-9.258-20.481-8.567-31.098 0.122-1.871 1.755-3.282 3.624-3.139l12.751 0.978c1.851 0.142 3.202 1.755 3.094 3.609-0.362 6.28 1.251 12.743 5.084 18.411 8.623 12.749 25.854 16.814 39.268 9.266 14.819-8.338 19.628-27.225 10.817-41.586-2.375-3.871-5.494-7.004-9.056-9.337-2.064-1.353-4.278-2.435-6.583-3.232-6.622-2.292-10.337-9.325-8.57-16.106l1.303-4.998 3.205-12.388c0.47-1.801 2.31-2.88 4.11-2.411l12.388 3.229c1.8 0.469 2.879 2.309 2.41 4.11l-3.182 12.301c8.25 3.965 15.497 10.248 20.63 18.614 14.693 23.948 6.441 55.629-18.569 69.208-22.06 11.977-49.954 5.266-64.157-15.431" fill="#50c7f1"/>
      </g>
      <g transform="translate(308.98 281.4)">
       <path d="m0 0c-4.6 2.822-6.04 8.837-3.219 13.437 2.823 4.599 8.838 6.039 13.437 3.217 4.599-2.821 6.04-8.837 3.219-13.436-2.823-4.599-8.838-6.04-13.437-3.218" fill="#5b9dd3"/>
      </g>
      <g transform="translate(319.06 287.07)">
       <path d="m0 0c2.452 3.996 1.2 9.224-2.796 11.675-0.477 0.293-0.974 0.53-1.479 0.719-3.52 0.25-7.055-1.415-9.029-4.63-1.538-2.509-1.8-5.435-0.983-8.038 0.66-0.99 1.532-1.859 2.612-2.522 3.996-2.452 9.223-1.2 11.675 2.796" fill="#50c7f1"/>
      </g>
      <g transform="translate(318.05 313.87)">
       <path d="m0 0-3.183 12.302c8.25 3.964 15.497 10.248 20.63 18.613 10.343 16.858 9.303 37.539-0.934 53.049 5.709-11.084 7.872-25.635-0.053-43.019-6.741-14.787-18.669-21.682-24.516-24.297-1.944-0.87-2.951-3.021-2.373-5.071 1.741-6.179 2.279-7.364 3.198-9.981 1.252-3.571 0.801-6.444-7.567-8.934l12.388 3.228c1.8 0.469 2.879 2.309 2.41 4.11" fill="#5b9dd3"/>
      </g>
      <g transform="translate(249.42 386)">
       <path d="m0 0c3.647 17.17 22.154 28.788 29.623 31.736-10.379-3.158-19.765-9.695-26.272-19.179-6.545-9.537-9.258-20.481-8.567-31.098 0.122-1.871 1.754-3.282 3.624-3.139l12.75 0.978s-6.958 0.904-9.489 1.621c-2.532 0.717-5.322 1.882-1.669 19.081" fill="#84dff7"/>
      </g>
      <g transform="translate(318.03 353.75)">
       <path d="m0 0c-2.255-3.296-5.069-6.008-8.238-8.084-2.064-1.352-4.278-2.434-6.583-3.232-6.622-2.292-10.336-9.325-8.57-16.106l1.303-4.997 2.371-9.201c-0.743 4.427 0.396 3.786-0.671 9.397-1.392 7.33-3.062 14.491 5.961 18.64 9.025 4.149 12.831 9.189 14.429 13.582z" fill="#84dff7"/>
      </g>
      <g transform="translate(54.773 82.091)">
       <path d="m0 0h-23.165c-10.566 0 62.875-5.864 223.73-5.864 160.85 0 234.74 6.264 216.23 6.264-18.506 0-416.79-0.4-416.79-0.4" fill="#b7d7e2"/>
      </g>
     </g>
     <g clip-path="url(#clipPath1711-2-8)"></g>
    </g>
   </g>
   <g transform="translate(6.6764 -118.6)"></g>
  </g>
 </g>
 <g>
 <g class="qmark rotate">
     <g transform="matrix(.35278 0 0 -.35278 21.128 47.427)">
   <path transform="translate(2.5427e-7 -1.3875e-6)" d="m113.56 53.81c-15.412 1.5859-30.023-2.2374-42.067-9.8542-2.1237-1.3421-2.7359-4.1667-1.3699-6.2733l9.3221-14.371c1.353-2.0867 4.1166-2.641 6.2283-1.3279 7.1546 4.452 15.788 6.6965 24.912 5.8204 20.523-1.9719 36.346-19.633 36.065-40.249-0.31069-22.773-19.443-40.535-41.981-39.374-6.0743 0.31205-11.759 1.9725-16.787 4.6676-2.9125 1.5611-5.6044 3.4715-8.0206 5.6721-6.9402 6.3192-17.592 6.1808-24.436-0.24293l-44.406-41.69c-1.8173-1.7058-1.9065-4.5619-0.20175-6.3782l11.737-12.503c1.7058-1.8163 4.5609-1.9065 6.3782-0.20075l39.276 36.872c9.95-7.1633 21.985-11.66 35.114-12.337 37.585-1.9352 69.56 28.075 69.503 66.194-0.0499 33.624-25.82 62.131-59.267 65.573" fill="#50c7f1"/>
   <path transform="translate(172.84 -11.843)" d="m0 0c-3e-3 5.612-0.737 11.077-2.09 16.313 2.646-19.41-1.02-51.896-30.307-67.127-26.401-13.731-50.629-9.485-66.866 4.279-3.106 2.633-7.727 2.403-10.661-0.42-10.614-10.214-32.966-31.68-35.595-33.836-3.182-2.61-7.344-5.509-12.619-1.29l7.778-8.301c1.704-1.818 4.559-1.911 6.378-0.207l39.312 36.834c9.943-7.173 21.974-11.683 35.102-12.371 37.583-1.972 69.587 28.007 69.568 66.126" fill="#5b9dd3"/>
   <path transform="translate(-11.528 -109.23)" d="m0 0c0.378 7.218 6.537 12.762 13.754 12.383s12.761-6.536 12.383-13.754c-0.379-7.218-6.537-12.762-13.754-12.383s-12.761 6.536-12.383 13.754" fill="#5b9dd3"/>
   <path transform="translate(13.583 -105.87)" d="m0 0c0.019 0.351 0.014 0.697 2e-3 1.042-1.89 4.469-6.189 7.714-11.359 7.985-5.655 0.297-10.645-3.049-12.73-7.98-0.227-6.558 4.834-12.113 11.412-12.459 6.652-0.349 12.326 4.761 12.675 11.412" fill="#50c7f1"/>
   <path transform="translate(79.491 23.323)" d="m0 0c-2.236 6.069-5.328 13.999-4.709 16.322 0.618 2.323 27.737 21.1 65.281 5.443-7.895 4.642-16.842 7.704-26.427 8.7-15.41 1.6-30.025-2.208-42.077-9.813-2.125-1.34-2.74-4.164-1.376-6.273z" fill="#84dff7"/>
   <path transform="translate(125.74 -47.076)" d="m0 0-2e-3 3e-3c-6.249-3.389-13.478-5.16-21.098-4.759-6.075 0.318-11.757 1.984-16.783 4.684-2.911 1.564-5.6 3.477-8.014 5.679-6.934 6.327-17.587 6.199-24.436-0.218l-5.048-4.73-17.332-16.241h-1e-3c-0.302-0.283 13.116 9.714 23.302 17.312 6.257 4.666 14.823 4.778 21.153 0.212 4.957-3.575 11.18-7.243 19.28-8.664 14.976-2.628 23.307 2.627 28.979 6.722" fill="#84dff7"/>
  </g>
 </g>
  
 </g>
 <g>
  <g transform="matrix(.35278 0 0 -.35278 54.81 74.247)">
   <path transform="translate(-15.582 3.6767)" d="m0 0c3.958-0.247 8.593 3.985 11.481 5.468 3.207 1.646 9.736 2.822 8.899-1.15-0.885-4.206-2.341-5.899-4.798-7.995-2.458-2.095-14.276 0.114-15.582 3.677" fill="#f89888"/>
   <path d="m0 0c0.448 0.382 0.862 0.751 1.247 1.124-4e-3 -1e-3 -7e-3 -2e-3 -0.011-3e-3 -3.051-1.203-9.435-0.123-10.319 1.314-0.884 1.436 0.442 2.873 2.256 5.014-2.659-1.775-5.883-3.952-8.755-3.772 1.306-3.563 13.124-5.773 15.582-3.677" fill="#cf6f70"/>
  </g>
 </g>
 <g>
 <g class="leftarm rotate">
     <g transform="matrix(.35278 0 0 -.35278 21.114 47.419)">
   <path transform="translate(-15.511 -34.372)" d="m0 0s-4.362-11.249-5.504-14.021c-1.667-4.044-2.499-5.339 4.884-14.201 7.384-8.86 17.381-20.788 26.242-25.787 7.672-4.328 13.413-2.162 15.662-0.801 0.348 0.211 1.079 0.095 1.521 0.179 3.906 0.749-4.586 4.449-7.534 6.494-2.947 2.045-4.017 3.656-4.017 3.656l5.042 4.723s-0.204 0.844-2.135 0.503c-1.932-0.341-4.109-1.349-6.835-1.576s-4.317 0.682-6.93 3.862c-2.613 3.181-12.325 19.034-12.325 19.034l5.325 13.297z" fill="#f89888"/>
   <path d="m0 0c-1.681 1.054-4.089 0.114-6.702-5.68-2.613-5.793-12.042-25.674-12.042-25.674s1.704-2.953 8.066-5.565c6.362-2.613 11.7-2.159 11.7-2.159s5.113 15.904 6.135 18.971 1.363 14.768-7.157 20.107" fill="#41d8d3"/>
  </g>
 </g>
  
 </g>
 <g>
 <g class="rightarm rotate">
     <g transform="matrix(.35278 0 0 -.35278 136.12 65.033)">
   <path transform="translate(-46.439 -3.0566)" d="m0 0c-0.408-2.982-0.758-6.452-1.048-9.842 8e-3 0 12.763-0.512 20.212-6.599 5.486-4.483 7.941-9.864 8.857-12.397 4.636 1.674 8.027 3.84 9.406 4.799-7.147 16.686-20.198 23.764-37.427 24.039" fill="#35bdb3"/>
   <path transform="translate(-81.947 -135.44)" d="M 0,0 C -2.674,5.14 -0.675,11.473 4.465,14.146 9.604,16.82 15.938,14.82 18.611,9.681 21.285,4.542 19.286,-1.792 14.146,-4.466 9.007,-7.139 2.673,-5.14 0,0" fill="#5b9dd3"/>
   <path transform="translate(-69.761 -136.38)" d="m0 0c4.611 2.399 6.405 8.081 4.007 12.692-0.399 0.766-0.895 1.446-1.454 2.05-3.028 1.832-6.905 2.099-10.275 0.346-3.624-1.885-5.676-5.591-5.64-9.413 0.169-0.567 0.387-1.125 0.671-1.668 2.398-4.611 8.081-6.405 12.691-4.007" fill="#50c7f1"/>
   <path transform="translate(-68.517 5.0234)" d="m0 0c-11.297-5.16-19.844-13.734-25.076-23.889-0.923-1.79-0.2-3.991 1.6-4.892l12.277-6.149c1.783-0.892 3.918-0.154 4.844 1.612 3.138 5.981 8.195 11.038 14.856 14.135 14.985 6.969 33.092 1.186 41.268-13.176 9.03-15.867 3.016-35.911-13.032-44.258-4.326-2.25-8.928-3.41-13.498-3.589-2.647-0.104-5.282 0.124-7.846 0.664-7.363 1.551-14.668-2.869-16.79-10.088l-1.564-5.32-5.463-18.483c-0.563-1.916 0.534-3.926 2.45-4.49l13.188-3.876c1.917-0.563 3.927 0.533 4.49 2.45l5.436 18.391c9.785-0.911 19.929 0.866 29.278 5.729 26.764 13.921 36.68 47.644 21.166 73.967-13.685 23.22-43.07 32.462-67.584 21.262" fill="#50c7f1"/>
   <path transform="translate(6.1641 -48.268)" d="m0 0c-1.087-6.494-9.31-29.291-27.677-37.227-10.941-4.726-23.344-5.196-29.844-5.048-2.675 0.061-5.051-1.684-5.776-4.259-0.898-3.194-2.145-7.547-3.279-11.224-1.932-6.263-4.366-9.474-12.236-7.416l11.344-3.334c1.917-0.563 3.927 0.533 4.49 2.45l5.436 18.391c9.785-0.911 19.93 0.866 29.278 5.729 16.494 8.58 26.577 24.683 28.264 41.938" fill="#5b9dd3"/>
   <path transform="translate(-53.397 9.3276)" d="m0 0c-5.125-0.657-10.221-2.065-15.12-4.304-11.297-5.16-19.844-13.735-25.076-23.889-0.923-1.79-0.2-3.991 1.6-4.892l10.457-5.237c-10.274 6.085-9.029 6.376-1.699 18.349 7.292 11.91 22.334 18.431 29.838 19.973" fill="#84dff7"/>
   <path transform="translate(-43.783 -77.554)" d="m0 0c10.476 0.783 16.561 7.561 18.686 10.594h-1e-3c-1.978-1.782-4.21-3.348-6.682-4.634-4.326-2.25-8.929-3.41-13.498-3.589-2.648-0.103-5.282 0.124-7.847 0.664-7.362 1.551-14.668-2.869-16.79-10.088l-1.563-5.32-4.867-16.462c1e-3 0 3.728 9.359 6.566 16.802 2.837 7.442 5.006 10.081 9.367 11.734s6.153-0.484 16.629 0.299" fill="#84dff7"/>
   <path transform="translate(-3.6464 -12.097)" d="m0 0-10.474-4.47-12.721 2.674c0.117-3.03 4.899-3.583 4.899-3.583l-1.593-2.597s3e-3 -0.395 0.076-0.973c1.394-1.447 2.664-3.039 3.784-4.773h4e-3c3.851-0.18 9.893 4.304 9.893 4.304 0.276-0.275 0.766-0.619 0.766-0.619 1.577 0.886 7.501 6.559 7.604 6.659-0.711 1.159-1.451 2.291-2.238 3.378" fill="#5b9dd3"/>
   <path transform="translate(-13.25 -12.898)" d="m0 0c-2.679-1.571-10.634-0.864-13.063-0.071-1.454 0.473-0.441-1.535 0.583-2.251 1.458-1.021 4.217-1.458 4.217-1.458-0.482-0.496-2.022-1.628-5.207-1.032-2.028 0.639-2.815 1.677-3.916 2.245 0 0-0.515-1.281 0.087-3.037 0.603-1.754 2.233-5.124 6.75-5.895 4.482-0.765 13.521 6.35 13.521 6.35z" fill="#f89888"/>
   <path transform="translate(-8.9375 33.431)" d="m0 0c0.699 1.374 3.162 1.684 7.211-6.003 3.616-6.865 14.568-28.164 14.042-30.948-0.479-2.53-20.013-13.85-22.252-14.969 0 0-2.741 2.631-3.488 6.736l13.425 11.753s-8.725 14.235-9.713 17.149c-0.99 2.915-2.709 9.435 0.775 16.282" fill="#ffe568"/>
   <path transform="translate(-30.822 -17.174)" d="m0 0c0.02-0.019 1.571-1.501 4.238-1.296 2.684 0.206 4.116 0.816 5.072 1.791-0.483-0.496-2.023-1.628-5.207-1.031-2.029 0.639-2.816 1.677-3.916 2.244 0 0-0.265-0.675-0.187-1.708" fill="#cf6f70"/>
   <path d="m0 0s1.412 1.18 3.37 1.502c0 0-2.391 0.409-3.916-0.608z" fill="#fecb2f"/>
  </g>
 </g>
  
 </g>
</svg>