<?xml version="1.0" encoding="UTF-8" standalone="no"?>
<svg width="100%" height="100%" version="1.1" viewBox="0 0 177.91 136.91" xmlns="http://www.w3.org/2000/svg">
    
 <defs>
    <style type="text/css"><![CDATA[

    .rotate {
    transform-box: fill-box;
}
.slice1 {
    animation: slice1 1s linear infinite alternate;
}

@keyframes slice1 {
    from {}
    to {transform: scale(1.2) translate(2px, 2px);}
}
svg {overflow: visible;}

.slice2 {
    animation: slice2 1.2s linear infinite alternate;
    animation-delay: 1s;
    transform-origin: top right;
}

@keyframes slice2 {
    from {}
    to {transform: scale(1.2) translate(7.5px, 0px);}
}

.slice3 {
    transform-origin: bottom left;
    animation: slice3 1s linear infinite alternate;
}

@keyframes slice3 {
    from {}
    to {transform: scale(1.2) translate(0px, .75px);}
}
.atom {
    animation: atom 1s linear infinite alternate;
    transform-origin: center right;
    transform: rotate(-42deg);
}

@keyframes atom {
    from {}
    to {transform: rotate(-20deg);}
}
.clockh1 {
    animation: clockh1 7s linear infinite;
    transform-origin: 50% -22%;
}

@keyframes clockh1 {
    from {}
    to {transform: rotate(-360deg);}
}


.clockh2 {
    animation: clockh2 11s linear infinite;
    transform-origin: -35% 50%;
}

@keyframes clockh2 {
    from {}
    to {transform: rotate(-360deg);}
}

.cloud1 {
    animation: cloud1 2s linear infinite alternate;
}

@keyframes cloud1 {
    from {}
    to {transform: translateX(5px);}
}

.plus {
    animation: plus 1s linear infinite;
    transform-origin: center;
}

@keyframes plus {
    0% {transform: rotate(0deg);}
    20%, 100% {transform: rotate(-91deg);}
}

.plus1 {
    animation-duration: 1.15s;
}

.gear {
    transform-origin: center;
    animation: gear 17s linear infinite;
}

@keyframes gear {
    from {}
    to {transform: rotate(360deg);}
}


.gear1 {
    transform-origin: center;
    animation: gear1 17s linear infinite;
}

@keyframes gear1 {
    from {}
    to {transform: rotate(360deg);}
}

]]>
     </style>
 </defs>    
 <defs>
  <linearGradient id="linearGradient20456" x2="1" gradientTransform="matrix(1.762 -44.458 -44.458 -1.762 362.96 142.2)" gradientUnits="userSpaceOnUse">
   <stop stop-color="#86cf94" offset="0"/>
   <stop stop-color="#86cf94" offset=".36559"/>
   <stop stop-color="#008166" offset=".98925"/>
   <stop stop-color="#008166" offset=".99712"/>
   <stop stop-color="#008166" offset="1"/>
  </linearGradient>
  <linearGradient id="linearGradient20536" x2="1" gradientTransform="matrix(2.4811 0 0 -2.4811 367.48 392.62)" gradientUnits="userSpaceOnUse">
   <stop stop-color="#fff" offset="0"/>
   <stop stop-color="#fff" stop-opacity="0" offset="1"/>
  </linearGradient>
  <linearGradient id="linearGradient20554" x2="1" gradientTransform="matrix(2.4811 0 0 -2.4811 367.48 392.62)" gradientUnits="userSpaceOnUse">
   <stop stop-color="#f7941e" offset="0"/>
   <stop stop-color="#f7941e" offset="1"/>
  </linearGradient>
  <clipPath id="clipPath19144-1">
   <path d="m0 500h750v-500h-750z"/>
  </clipPath>
  <clipPath id="clipPath19152-7">
   <path d="m109.01 463h535.39v-402.16h-535.39z"/>
  </clipPath>
  <clipPath id="clipPath19176-3">
   <path d="m180.49 53.929h198.05v-3.2484h-198.05z"/>
  </clipPath>
  <clipPath id="clipPath19192-4">
   <path d="m383.07 53.929h133.53v-3.2484h-133.53z"/>
  </clipPath>
  <clipPath id="clipPath19208-9">
   <path d="m256.85 44.816h236.72v-3.2485h-236.72z"/>
  </clipPath>
  <clipPath id="clipPath19224-2">
   <path d="m498.94 44.816h56.192v-3.2485h-56.192z"/>
  </clipPath>
  <clipPath id="clipPath19256-7">
   <path d="m171.23 145.56h55.438v-49.618h-55.438z"/>
  </clipPath>
  <clipPath id="clipPath19276-4">
   <path d="m173.66 384.97h68.488v-68.488h-68.488z"/>
  </clipPath>
  <clipPath id="clipPath19336-8">
   <path d="m565.4 258.66h13.066v-13.067h-13.066z"/>
  </clipPath>
  <clipPath id="clipPath19360-3">
   <path d="m222.96 441.34h13.066v-13.067h-13.066z"/>
  </clipPath>
  <clipPath id="clipPath19376-8">
   <path d="m285.54 152.11h13.066v-13.067h-13.066z"/>
  </clipPath>
  <clipPath id="clipPath19396-6">
   <path d="m315.66 422.57h7.411v-7.41h-7.411z"/>
  </clipPath>
  <clipPath id="clipPath19412-0">
   <path d="m277.49 98.165h51.085v-27.482h-51.085z"/>
  </clipPath>
  <clipPath id="clipPath19428-1">
   <path d="m390.5 118.61h51.084v-27.483h-51.084z"/>
  </clipPath>
  <clipPath id="clipPath19444-3">
   <path d="m149.36 250.82h37.908v-20.393h-37.908z"/>
  </clipPath>
  <clipPath id="clipPath19496-2">
   <path d="m618.09 160.2h18.986v-18.986h-18.986z"/>
  </clipPath>
  <clipPath id="clipPath19516-5">
   <path d="m230.72 392.13h266.2v-228.51h-266.2z"/>
  </clipPath>
  <clipPath id="clipPath19864-4">
   <path d="m380.66 339.95h240.38v-270.79h-240.38z"/>
  </clipPath>
  <clipPath id="clipPath19868-8">
   <path d="m392.56 297.63h216.56v-216.56h-216.56z"/>
  </clipPath>
  <clipPath id="clipPath20108-9">
   <path d="m387.36 302.84h216.56v-216.55h-216.56z"/>
  </clipPath>
  <clipPath id="clipPath20144-4">
   <path d="m409.14 281.06h172.99v-172.99h-172.99z"/>
  </clipPath>
  <clipPath id="clipPath20440-3">
   <path d="m337.68 141.87h52.219v-43.829h-52.219z"/>
  </clipPath>
  <clipPath id="clipPath20522-2">
   <path d="m367.48 393.18h2.481v-1.109h-2.481z"/>
  </clipPath>
  <clipPath id="clipPath20526-3">
   <path d="m369.62 392.21c-0.126-0.047-0.443-0.095-0.776-0.142 0 0-0.967 0.903-1.363 1.109 0.412-0.063 1.189-0.174 1.68-0.174 1.157-0.016 0.824-0.602 0.459-0.793"/>
  </clipPath>
  <mask id="mask20538-4" x="0" y="0" width="1" height="1" maskUnits="userSpaceOnUse">
   <path d="m-32768 32767h65535v-65535h-65535z" fill="url(#linearGradient20536)"/>
  </mask>
  <clipPath id="clipPath20596-9">
   <path d="m0 500h750v-500h-750z"/>
  </clipPath>
 </defs>
 <g class="gear rotate">
      <g transform="translate(0 -1.9379e-6)">
      <g transform="matrix(.35278 0 0 -.35278 143.27 40.668)" fill="#1d2468">
       <path transform="translate(9.4401 3.0946)" d="m0 0c1.886-19.65-14.468-36.02-34.113-34.161-14.302 1.353-26.069 12.703-27.895 26.953-2.618 20.423 14.546 37.639 34.986 35.069 14.265-1.794 25.648-13.549 27.022-27.861m15.273-9.261v12.333h-5.265c-1.021 6.862-3.722 13.175-7.672 18.511l3.726 3.726-8.72 8.721-3.727-3.728c-5.335 3.948-11.648 6.65-18.511 7.672v5.267h-12.332v-5.265c-6.863-1.021-13.177-3.722-18.513-7.672l-3.725 3.726-8.721-8.721 3.726-3.725c-3.95-5.336-6.651-11.65-7.672-18.512h-5.265v-12.333h5.267c1.023-6.863 3.723-13.175 7.672-18.511l-3.728-3.727 8.721-8.72 3.726 3.726c5.336-3.95 11.649-6.651 18.512-7.672v-5.265h12.332v5.266c6.862 1.023 13.175 3.724 18.51 7.673l3.728-3.728 8.72 8.72-3.728 3.728c3.949 5.335 6.65 11.648 7.673 18.51z"/>
       <path d="m0 0c0-11.942-9.681-21.622-21.622-21.622-11.942 0-21.622 9.68-21.622 21.622 0 11.941 9.68 21.622 21.622 21.622 11.941 0 21.622-9.681 21.622-21.622"/>
      </g>
     </g>
 </g>

 <g transform="translate(0 -1.9379e-6)">
  <g transform="translate(-11.307 -151.37)">
   <g transform="matrix(.35278 0 0 -.35278 -35.53 310.36)">
    <g clip-path="url(#clipPath19144-1)">
     <g clip-path="url(#clipPath19152-7)" opacity=".60001"></g>
     <g clip-path="url(#clipPath19176-3)" opacity=".5"></g>
     <g clip-path="url(#clipPath19192-4)" opacity=".5"></g>
     <g clip-path="url(#clipPath19208-9)" opacity=".25"></g>
     <g clip-path="url(#clipPath19224-2)" opacity=".25"></g>
     <g transform="translate(538.88 335.39)"></g>
     <g class="gear1 rotate">
         <g transform="translate(585.28 373.43)">
          <path d="m0 0c0.771-8.032-5.914-14.724-13.944-13.964-5.846 0.554-10.656 5.193-11.402 11.017-1.07 8.348 5.946 15.386 14.301 14.335 5.831-0.733 10.483-5.538 11.045-11.388m6.243-3.785v5.04h-2.152c-0.418 2.805-1.522 5.386-3.136 7.567l1.523 1.523-3.565 3.565-1.523-1.524c-2.181 1.614-4.761 2.718-7.566 3.136v2.153h-5.041v-2.153c-2.805-0.417-5.386-1.521-7.567-3.135l-1.523 1.523-3.564-3.565 1.522-1.523c-1.614-2.181-2.718-4.762-3.135-7.567h-2.152v-5.04h2.152c0.418-2.806 1.522-5.386 3.136-7.567l-1.523-1.523 3.564-3.565 1.523 1.524c2.181-1.615 4.762-2.719 7.567-3.137v-2.152h5.041v2.153c2.805 0.418 5.385 1.522 7.566 3.136l1.523-1.524 3.565 3.565-1.524 1.523c1.614 2.181 2.718 4.761 3.136 7.567z" fill="#fff"/>
         </g>
     </g>
     <g transform="translate(581.42 372.17)">
      <path d="m0 0c0-4.881-3.957-8.838-8.838-8.838s-8.838 3.957-8.838 8.838 3.957 8.838 8.838 8.838 8.838-3.957 8.838-8.838" fill="#fff"/>
     </g>
     <g clip-path="url(#clipPath19256-7)" opacity=".5">
      <g transform="translate(215.8 135.7)">
       <path d="m0 0c-4.537 5.988-11.708 9.87-19.803 9.858-13.126-0.02-24.245-10.711-24.751-23.827-0.545-14.149 10.763-25.79 24.79-25.79 8.445 0 15.893 4.228 20.374 10.673l-20.374 14.135z" fill="#fff"/>
      </g>
     </g>
     <g clip-path="url(#clipPath19276-4)" opacity=".7">
      <g transform="translate(207.91 379.69)">
       <path d="m0 0c-15.969 0-28.96-12.991-28.96-28.959 0-15.969 12.991-28.96 28.96-28.96 15.968 0 28.959 12.991 28.959 28.96 0 15.968-12.991 28.959-28.959 28.959m0-63.203c-18.883 0-34.245 15.361-34.245 34.244 0 18.882 15.362 34.244 34.245 34.244 18.882 0 34.244-15.362 34.244-34.244 0-18.883-15.362-34.244-34.244-34.244" fill="#ace2f9"/>
      </g>
      <g transform="translate(228.84 350.73)">
       <path d="m0 0c0 0.954 0.78 1.734 1.734 1.734h2.973c0.954 0 1.734-0.78 1.734-1.734s-0.78-1.734-1.734-1.734h-2.973c-0.954 0-1.734 0.78-1.734 1.734" fill="#ace2f9"/>
      </g>
      <g transform="translate(180.54 350.73)">
       <path d="m0 0c0 0.954 0.78 1.734 1.734 1.734h2.973c0.953 0 1.734-0.78 1.734-1.734s-0.781-1.734-1.734-1.734h-2.973c-0.954 0-1.734 0.78-1.734 1.734" fill="#ace2f9"/>
      </g>
      <g transform="translate(207.91 329.79)">
       <path d="m0 0c0.954 0 1.734-0.78 1.734-1.734v-2.973c0-0.953-0.78-1.734-1.734-1.734s-1.734 0.781-1.734 1.734v2.973c0 0.954 0.78 1.734 1.734 1.734" fill="#ace2f9"/>
      </g>
      <g transform="translate(207.91 378.1)">
       <path d="m0 0c0.954 0 1.734-0.78 1.734-1.734v-2.973c0-0.954-0.78-1.734-1.734-1.734s-1.734 0.78-1.734 1.734v2.973c0 0.954 0.78 1.734 1.734 1.734" fill="#ace2f9"/>
      </g>
      <g transform="translate(193.11 335.93)">
       <path d="m0 0c0.674-0.674 0.674-1.778 0-2.452l-2.102-2.102c-0.674-0.675-1.778-0.675-2.452 0-0.675 0.674-0.675 1.778 0 2.452l2.102 2.102c0.674 0.674 1.778 0.674 2.452 0" fill="#ace2f9"/>
      </g>
      <g transform="translate(227.26 370.08)">
       <path d="m0 0c0.675-0.674 0.675-1.778 0-2.452l-2.102-2.102c-0.674-0.675-1.778-0.675-2.452 0-0.675 0.674-0.675 1.778 0 2.452l2.102 2.102c0.674 0.674 1.778 0.674 2.452 0" fill="#ace2f9"/>
      </g>
      <g transform="translate(193.11 365.53)">
       <path d="m0 0c-0.674-0.674-1.778-0.674-2.452 0l-2.102 2.102c-0.675 0.674-0.675 1.778 0 2.452 0.674 0.675 1.778 0.675 2.452 0l2.102-2.102c0.674-0.674 0.674-1.777 0-2.452" fill="#ace2f9"/>
      </g>
      <g transform="translate(227.26 331.37)">
       <path d="m0 0c-0.674-0.674-1.778-0.674-2.452 0l-2.102 2.102c-0.675 0.674-0.675 1.778 0 2.452 0.674 0.675 1.778 0.675 2.452 0l2.102-2.102c0.675-0.674 0.675-1.778 0-2.452" fill="#ace2f9"/>
      </g>
      <g transform="translate(210.74 350.73)">
       <path d="m0 0c0-1.564-1.268-2.833-2.833-2.833-1.564 0-2.833 1.269-2.833 2.833 0 1.565 1.269 2.833 2.833 2.833 1.565 0 2.833-1.268 2.833-2.833" fill="#ace2f9"/>
      </g>
      <g transform="translate(207.91 354.28)">
       <path class="clockh1 rotate" d="m0 0c-0.304 0-0.551 0.246-0.551 0.55v14.478c0 0.304 0.247 0.551 0.551 0.551s0.55-0.247 0.55-0.551v-14.478c0-0.304-0.246-0.55-0.55-0.55" fill="#ace2f9"/>
      </g>
      <g transform="translate(211.82 350.73)">
       <path class="clockh2 rotate" d="m0 0c0 0.304 0.246 0.551 0.55 0.551h9.564c0.304 0 0.55-0.247 0.55-0.551s-0.246-0.551-0.55-0.551h-9.564c-0.304 0-0.55 0.247-0.55 0.551" fill="#ace2f9"/>
      </g>
     </g>
     <g clip-path="url(#clipPath19336-8)" opacity=".5">
      <g transform="translate(577.26 253.33)">
       <path class="plus rotate" d="m0 0h-4.122v4.123c0 0.666-0.539 1.205-1.206 1.205-0.666 0-1.205-0.539-1.205-1.205v-4.123h-4.123c-0.666 0-1.205-0.54-1.205-1.205 0-0.666 0.539-1.206 1.205-1.206h4.123v-4.122c0-0.666 0.539-1.206 1.205-1.206 0.667 0 1.206 0.54 1.206 1.206v4.122h4.122c0.666 0 1.205 0.54 1.205 1.206 0 0.665-0.539 1.205-1.205 1.205" fill="#11afd3"/>
      </g>
     </g>
     <g transform="translate(203.27 162.85)">
      <path class="plus rotate plus1" d="m0 0h-4.122v4.123c0 0.666-0.539 1.206-1.206 1.206-0.666 0-1.205-0.54-1.205-1.206v-4.123h-4.123c-0.666 0-1.205-0.54-1.205-1.205 0-0.666 0.539-1.206 1.205-1.206h4.123v-4.122c0-0.666 0.539-1.206 1.205-1.206 0.667 0 1.206 0.54 1.206 1.206v4.122h4.122c0.666 0 1.205 0.54 1.205 1.206 0 0.665-0.539 1.205-1.205 1.205" fill="#fff"/>
     </g>
     <g transform="translate(140.53 78.68)">
      <path class="plus rotate" d="m0 0h-2.7v2.7c0 0.436-0.353 0.789-0.789 0.789s-0.789-0.353-0.789-0.789v-2.7h-2.7c-0.436 0-0.79-0.353-0.79-0.789s0.354-0.79 0.79-0.79h2.7v-2.699c0-0.436 0.353-0.79 0.789-0.79s0.789 0.354 0.789 0.79v2.699h2.7c0.436 0 0.789 0.354 0.789 0.79s-0.353 0.789-0.789 0.789" fill="#fff"/>
     </g>
     <g clip-path="url(#clipPath19360-3)" opacity=".5">
      <g transform="translate(234.82 436.01)">
       <path class="plus rotate" d="m0 0h-4.122v4.123c0 0.666-0.54 1.205-1.206 1.205s-1.205-0.539-1.205-1.205v-4.123h-4.123c-0.666 0-1.205-0.54-1.205-1.205 0-0.666 0.539-1.206 1.205-1.206h4.123v-4.122c0-0.666 0.539-1.206 1.205-1.206s1.206 0.54 1.206 1.206v4.122h4.122c0.666 0 1.205 0.54 1.205 1.206 0 0.665-0.539 1.205-1.205 1.205" fill="#11afd3"/>
      </g>
     </g>
     <g clip-path="url(#clipPath19376-8)" opacity=".8">
      <g transform="translate(297.4 146.79)">
       <path class="plus rotate" d="m0 0h-4.122v4.123c0 0.666-0.539 1.206-1.206 1.206-0.666 0-1.205-0.54-1.205-1.206v-4.123h-4.123c-0.666 0-1.205-0.54-1.205-1.205 0-0.666 0.539-1.206 1.205-1.206h4.123v-4.122c0-0.666 0.539-1.206 1.205-1.206 0.667 0 1.206 0.54 1.206 1.206v4.122h4.122c0.666 0 1.205 0.54 1.205 1.206 0 0.665-0.539 1.205-1.205 1.205" fill="#fff"/>
      </g>
     </g>
     <g transform="translate(441.32 437.32)">
      <path class="plus rotate" d="m0 0h-4.122v4.123c0 0.666-0.539 1.206-1.206 1.206-0.666 0-1.205-0.54-1.205-1.206v-4.123h-4.123c-0.666 0-1.205-0.54-1.205-1.205 0-0.666 0.539-1.206 1.205-1.206h4.123v-4.122c0-0.666 0.539-1.206 1.205-1.206 0.667 0 1.206 0.54 1.206 1.206v4.122h4.122c0.666 0 1.205 0.54 1.205 1.206 0 0.665-0.539 1.205-1.205 1.205" fill="#025aa2"/>
     </g>
     <g clip-path="url(#clipPath19396-6)" opacity=".60001">
      <g transform="translate(322.39 419.55)">
       <path d="m0 0h-2.338v2.338c0 0.378-0.306 0.684-0.684 0.684s-0.683-0.306-0.683-0.684v-2.338h-2.338c-0.378 0-0.684-0.306-0.684-0.684 0-0.377 0.306-0.683 0.684-0.683h2.338v-2.338c0-0.378 0.305-0.684 0.683-0.684s0.684 0.306 0.684 0.684v2.338h2.338c0.378 0 0.684 0.306 0.684 0.683 0 0.378-0.306 0.684-0.684 0.684" fill="#bde7ff"/>
      </g>
     </g>
     <g clip-path="url(#clipPath19412-0)" opacity=".8">
      <g transform="translate(320.29 87.236)">
       <path d="m0 0c-1.535 0-2.953-0.446-4.186-1.173-0.811 6.815-6.6 12.103-13.634 12.103-5.627 0-10.457-3.386-12.582-8.229-0.829 0.228-1.684 0.388-2.585 0.388-5.424 0-9.821-4.397-9.821-9.821s4.397-9.821 9.821-9.821h32.987c4.571 0 8.276 3.706 8.276 8.277s-3.705 8.276-8.276 8.276" fill="#fff"/>
      </g>
     </g>
     <g clip-path="url(#clipPath19428-1)" opacity=".8">
      <g transform="translate(433.31 107.68)">
       <path d="m0 0c-1.535 0-2.953-0.446-4.186-1.173-0.811 6.815-6.6 12.103-13.634 12.103-5.627 0-10.457-3.386-12.582-8.229-0.829 0.227-1.684 0.388-2.585 0.388-5.424 0-9.821-4.397-9.821-9.821s4.397-9.821 9.821-9.821h32.987c4.571 0 8.276 3.706 8.276 8.277s-3.705 8.276-8.276 8.276" fill="#fff"/>
      </g>
     </g>
     <g clip-path="url(#clipPath19444-3)" opacity=".7" class="cloud1 rotate">
      <g transform="translate(181.13 242.71)">
       <path d="m0 0c-1.139 0-2.192-0.331-3.106-0.871-0.602 5.058-4.898 8.981-10.118 8.981-4.175 0-7.76-2.512-9.336-6.105-0.615 0.168-1.25 0.287-1.918 0.287-4.025 0-7.288-3.263-7.288-7.287 0-4.025 3.263-7.288 7.288-7.288h24.478c3.392 0 6.142 2.75 6.142 6.142s-2.75 6.141-6.142 6.141" fill="#ace2f9"/>
      </g>
     </g>
     <g transform="translate(526.18 431.78)">
      <path class="slice1 rotate" d="m0 0c-1.521 8.377-7.293 15.755-15.867 18.891l-8.518-23.293z" fill="#50c7f1"/>
     </g>
     <g transform="translate(521.49 415.53)">
      <path d="m0 0c-0.809-2.212-1.894-4.234-3.218-6.047l-20.083 14.569 24.392 4.4c0.763-4.198 0.479-8.63-1.091-12.922" fill="#fff"/>
     </g>
     <g transform="translate(506.7 447.34)">
      <path d="m0 0-8.517-23.288-24.023-6.143c-1.199 4.689-1.052 9.772 0.735 14.66 4.705 12.862 18.942 19.475 31.805 14.771" fill="#fff"/>
     </g>
     <g transform="translate(558.23 432.68)">
      <path class="atom rotate" d="m0 0c-1.822 0-3.446-0.794-4.587-2.04l-4.941 3.474c0.234 0.521 0.37 1.096 0.37 1.704 0 2.309-1.871 4.181-4.181 4.181-2.308 0-4.18-1.872-4.18-4.181s1.872-4.18 4.18-4.18c1.126 0 2.143 0.449 2.895 1.173l4.947-3.478c-0.457-0.868-0.741-1.842-0.741-2.891 0-1.485 0.541-2.83 1.407-3.902l-2.536-2.654c-0.652 0.42-1.423 0.669-2.255 0.669-2.309 0-4.181-1.871-4.181-4.18s1.872-4.181 4.181-4.181 4.18 1.872 4.18 4.181c0 0.9-0.29 1.728-0.774 2.41l2.53 2.648c1.035-0.763 2.302-1.229 3.686-1.229 3.445 0 6.238 2.793 6.238 6.238s-2.793 6.238-6.238 6.238" fill="#fff"/>
     </g>
     <g transform="translate(188.91 202.86)">
      <path d="m0 0c0.038-4.378-3.48-7.958-7.858-7.996s-7.957 3.48-7.995 7.858c-0.039 4.378 3.48 7.958 7.857 7.996 4.378 0.038 7.958-3.48 7.996-7.858" fill="#025aa2"/>
     </g>
     <g transform="translate(177.5 202.39)">
      <path d="m0 0 3.148-2.999 4.12 5.663" fill="none" stroke="#fff" stroke-linecap="round" stroke-linejoin="round" stroke-miterlimit="10" stroke-width="1.684"/>
     </g>
     <g transform="translate(606.18 310.35)">
      <path d="m0 0c0.045-5.142-4.087-9.346-9.229-9.39-5.141-0.045-9.345 4.087-9.39 9.228-0.045 5.142 4.087 9.346 9.228 9.391 5.142 0.044 9.346-4.087 9.391-9.229" fill="#1d2468"/>
     </g>
     <g transform="translate(592.78 309.79)">
      <path d="m0 0 3.697-3.522 4.839 6.651" fill="none" stroke="#fff" stroke-linecap="round" stroke-linejoin="round" stroke-miterlimit="10" stroke-width="1.978"/>
     </g>
     <g clip-path="url(#clipPath19496-2)" opacity=".60001">
      <g transform="translate(637.08 150.79)">
       <path d="m0 0c0.046-5.243-4.168-9.529-9.41-9.575-5.243-0.046-9.529 4.167-9.575 9.41s4.167 9.529 9.41 9.575c5.242 0.046 9.529-4.167 9.575-9.41" fill="#bde7ff"/>
      </g>
     </g>
     <g transform="translate(623.41 150.22)">
      <path d="m0 0 3.77-3.592 4.934 6.783" fill="none" stroke="#fff" stroke-linecap="round" stroke-linejoin="round" stroke-miterlimit="10" stroke-width="2.017"/>
     </g>
     <g clip-path="url(#clipPath19516-5)" opacity=".25">
      <g transform="translate(496.92 371.88)">
       <path d="m0 0v-193.09c0-8.372-6.793-15.165-15.164-15.165h-235.87c-8.371 0-15.164 6.793-15.164 15.165v193.09c0 8.387 6.793 15.164 15.164 15.164h235.87c8.371 0 15.164-6.777 15.164-15.164" fill="#2a507a"/>
      </g>
      <g transform="translate(496.92 371.88)">
       <path d="m0 0v-26.996h-266.2v26.996c0 8.387 6.793 15.164 15.164 15.164h235.87c8.371 0 15.164-6.777 15.164-15.164" fill="#2a507a"/>
      </g>
      <g transform="translate(269.3 302.59)">
       <path d="m0 0h-25.688c-1.284 0-2.324 1.041-2.324 2.324v25.688c0 1.284 1.04 2.325 2.324 2.325h25.688c1.284 0 2.324-1.041 2.324-2.325v-25.688c0-1.283-1.04-2.324-2.324-2.324" fill="#2a507a"/>
      </g>
      <g transform="translate(312.52 302.59)">
       <path d="m0 0h-25.688c-1.284 0-2.324 1.041-2.324 2.324v25.688c0 1.284 1.04 2.325 2.324 2.325h25.688c1.284 0 2.324-1.041 2.324-2.325v-25.688c0-1.283-1.04-2.324-2.324-2.324" fill="#2a507a"/>
      </g>
      <g transform="translate(355.74 302.59)">
       <path d="m0 0h-25.688c-1.284 0-2.324 1.041-2.324 2.324v25.688c0 1.284 1.04 2.325 2.324 2.325h25.688c1.284 0 2.324-1.041 2.324-2.325v-25.688c0-1.283-1.04-2.324-2.324-2.324" fill="#2a507a"/>
      </g>
      <g transform="translate(398.96 302.59)">
       <path d="m0 0h-25.688c-1.284 0-2.324 1.041-2.324 2.324v25.688c0 1.284 1.04 2.325 2.324 2.325h25.688c1.284 0 2.325-1.041 2.325-2.325v-25.688c0-1.283-1.041-2.324-2.325-2.324" fill="#2a507a"/>
      </g>
      <g transform="translate(442.18 302.59)">
       <path d="m0 0h-25.688c-1.284 0-2.324 1.041-2.324 2.324v25.688c0 1.284 1.04 2.325 2.324 2.325h25.688c1.284 0 2.324-1.041 2.324-2.325v-25.688c0-1.283-1.04-2.324-2.324-2.324z" fill="none" stroke="#2a507a" stroke-miterlimit="10" stroke-width="1.302"/>
      </g>
      <g transform="translate(485.4 302.59)">
       <path d="m0 0h-25.688c-1.284 0-2.324 1.041-2.324 2.324v25.688c0 1.284 1.04 2.325 2.324 2.325h25.688c1.284 0 2.325-1.041 2.325-2.325v-25.688c0-1.283-1.041-2.324-2.325-2.324" fill="#2a507a"/>
      </g>
      <g transform="translate(269.3 261.89)">
       <path d="m0 0h-25.688c-1.284 0-2.324 1.041-2.324 2.324v25.688c0 1.284 1.04 2.325 2.324 2.325h25.688c1.284 0 2.324-1.041 2.324-2.325v-25.688c0-1.283-1.04-2.324-2.324-2.324" fill="#2a507a"/>
      </g>
      <g transform="translate(312.52 261.89)">
       <path d="m0 0h-25.688c-1.284 0-2.324 1.041-2.324 2.324v25.688c0 1.284 1.04 2.325 2.324 2.325h25.688c1.284 0 2.324-1.041 2.324-2.325v-25.688c0-1.283-1.04-2.324-2.324-2.324" fill="#2a507a"/>
      </g>
      <g transform="translate(355.74 261.89)">
       <path d="m0 0h-25.688c-1.284 0-2.324 1.041-2.324 2.324v25.688c0 1.284 1.04 2.325 2.324 2.325h25.688c1.284 0 2.324-1.041 2.324-2.325v-25.688c0-1.283-1.04-2.324-2.324-2.324z" fill="none" stroke="#2a507a" stroke-miterlimit="10" stroke-width="1.302"/>
      </g>
      <g transform="translate(398.96 261.89)">
       <path d="m0 0h-25.688c-1.284 0-2.324 1.041-2.324 2.324v25.688c0 1.284 1.04 2.325 2.324 2.325h25.688c1.284 0 2.325-1.041 2.325-2.325v-25.688c0-1.283-1.041-2.324-2.325-2.324" fill="#2a507a"/>
      </g>
      <g transform="translate(442.18 261.89)">
       <path d="m0 0h-25.688c-1.284 0-2.324 1.041-2.324 2.324v25.688c0 1.284 1.04 2.325 2.324 2.325h25.688c1.284 0 2.324-1.041 2.324-2.325v-25.688c0-1.283-1.04-2.324-2.324-2.324" fill="#2a507a"/>
      </g>
      <g transform="translate(485.4 261.89)">
       <path d="m0 0h-25.688c-1.284 0-2.324 1.041-2.324 2.324v25.688c0 1.284 1.04 2.325 2.324 2.325h25.688c1.284 0 2.325-1.041 2.325-2.325v-25.688c0-1.283-1.041-2.324-2.325-2.324" fill="#2a507a"/>
      </g>
      <g transform="translate(269.3 221.19)">
       <path d="m0 0h-25.688c-1.284 0-2.324 1.041-2.324 2.324v25.688c0 1.284 1.04 2.325 2.324 2.325h25.688c1.284 0 2.324-1.041 2.324-2.325v-25.688c0-1.283-1.04-2.324-2.324-2.324" fill="#2a507a"/>
      </g>
      <g transform="translate(312.52 221.19)">
       <path d="m0 0h-25.688c-1.284 0-2.324 1.041-2.324 2.324v25.688c0 1.284 1.04 2.325 2.324 2.325h25.688c1.284 0 2.324-1.041 2.324-2.325v-25.688c0-1.283-1.04-2.324-2.324-2.324" fill="#2a507a"/>
      </g>
      <g transform="translate(355.74 221.19)">
       <path d="m0 0h-25.688c-1.284 0-2.324 1.041-2.324 2.324v25.688c0 1.284 1.04 2.325 2.324 2.325h25.688c1.284 0 2.324-1.041 2.324-2.325v-25.688c0-1.283-1.04-2.324-2.324-2.324" fill="#2a507a"/>
      </g>
      <g transform="translate(398.96 221.19)">
       <path d="m0 0h-25.688c-1.284 0-2.324 1.041-2.324 2.324v25.688c0 1.284 1.04 2.325 2.324 2.325h25.688c1.284 0 2.325-1.041 2.325-2.325v-25.688c0-1.283-1.041-2.324-2.325-2.324" fill="#2a507a"/>
      </g>
      <g transform="translate(442.18 221.19)">
       <path d="m0 0h-25.688c-1.284 0-2.324 1.041-2.324 2.324v25.688c0 1.284 1.04 2.325 2.324 2.325h25.688c1.284 0 2.324-1.041 2.324-2.325v-25.688c0-1.283-1.04-2.324-2.324-2.324" fill="#2a507a"/>
      </g>
      <g transform="translate(485.4 221.19)">
       <path d="m0 0h-25.688c-1.284 0-2.324 1.041-2.324 2.324v25.688c0 1.284 1.04 2.325 2.324 2.325h25.688c1.284 0 2.325-1.041 2.325-2.325v-25.688c0-1.283-1.041-2.324-2.325-2.324" fill="#2a507a"/>
      </g>
      <g transform="translate(269.3 180.48)">
       <path d="m0 0h-25.688c-1.284 0-2.324 1.041-2.324 2.325v25.687c0 1.284 1.04 2.325 2.324 2.325h25.688c1.284 0 2.324-1.041 2.324-2.325v-25.687c0-1.284-1.04-2.325-2.324-2.325z" fill="none" stroke="#2a507a" stroke-miterlimit="10" stroke-width="1.302"/>
      </g>
      <g transform="translate(312.52 180.48)">
       <path d="m0 0h-25.688c-1.284 0-2.324 1.041-2.324 2.325v25.687c0 1.284 1.04 2.325 2.324 2.325h25.688c1.284 0 2.324-1.041 2.324-2.325v-25.687c0-1.284-1.04-2.325-2.324-2.325" fill="#2a507a"/>
      </g>
      <g transform="translate(355.74 180.48)">
       <path d="m0 0h-25.688c-1.284 0-2.324 1.041-2.324 2.325v25.687c0 1.284 1.04 2.325 2.324 2.325h25.688c1.284 0 2.324-1.041 2.324-2.325v-25.687c0-1.284-1.04-2.325-2.324-2.325" fill="#2a507a"/>
      </g>
      <g transform="translate(398.96 180.48)">
       <path d="m0 0h-25.688c-1.284 0-2.324 1.041-2.324 2.325v25.687c0 1.284 1.04 2.325 2.324 2.325h25.688c1.284 0 2.325-1.041 2.325-2.325v-25.687c0-1.284-1.041-2.325-2.325-2.325" fill="#2a507a"/>
      </g>
      <g transform="translate(442.18 180.48)">
       <path d="m0 0h-25.688c-1.284 0-2.324 1.041-2.324 2.325v25.687c0 1.284 1.04 2.325 2.324 2.325h25.688c1.284 0 2.324-1.041 2.324-2.325v-25.687c0-1.284-1.04-2.325-2.324-2.325" fill="#2a507a"/>
      </g>
      <g transform="translate(485.4 180.48)">
       <path d="m0 0h-25.688c-1.284 0-2.324 1.041-2.324 2.325v25.687c0 1.284 1.04 2.325 2.324 2.325h25.688c1.284 0 2.325-1.041 2.325-2.325v-25.687c0-1.284-1.041-2.325-2.325-2.325" fill="#2a507a"/>
      </g>
      <g transform="translate(252.27 363.53)">
       <path d="m0 0c0-3.047-2.47-5.517-5.517-5.517-3.046 0-5.516 2.47-5.516 5.517s2.47 5.517 5.516 5.517c3.047 0 5.517-2.47 5.517-5.517" fill="#2a507a"/>
      </g>
      <g transform="translate(299.25 363.53)">
       <path d="m0 0c0-3.047-2.47-5.517-5.517-5.517-3.046 0-5.516 2.47-5.516 5.517s2.47 5.517 5.516 5.517c3.047 0 5.517-2.47 5.517-5.517" fill="#2a507a"/>
      </g>
      <g transform="translate(346.23 363.53)">
       <path d="m0 0c0-3.047-2.47-5.517-5.517-5.517-3.046 0-5.516 2.47-5.516 5.517s2.47 5.517 5.516 5.517c3.047 0 5.517-2.47 5.517-5.517" fill="#2a507a"/>
      </g>
      <g transform="translate(393.21 363.53)">
       <path d="m0 0c0-3.047-2.47-5.517-5.517-5.517s-5.516 2.47-5.516 5.517 2.469 5.517 5.516 5.517 5.517-2.47 5.517-5.517" fill="#2a507a"/>
      </g>
      <g transform="translate(440.18 363.53)">
       <path d="m0 0c0-3.047-2.47-5.517-5.517-5.517s-5.516 2.47-5.516 5.517 2.469 5.517 5.516 5.517 5.517-2.47 5.517-5.517" fill="#2a507a"/>
      </g>
      <g transform="translate(487.16 363.53)">
       <path d="m0 0c0-3.047-2.47-5.517-5.517-5.517s-5.516 2.47-5.516 5.517 2.469 5.517 5.516 5.517 5.517-2.47 5.517-5.517" fill="#2a507a"/>
      </g>
      <g transform="translate(246.75 363.53)">
       <path d="m0 0v25.899" fill="none" stroke="#2a507a" stroke-linecap="round" stroke-miterlimit="10" stroke-width="5.414"/>
      </g>
      <g transform="translate(293.73 363.53)">
       <path d="m0 0v25.899" fill="none" stroke="#2a507a" stroke-linecap="round" stroke-miterlimit="10" stroke-width="5.414"/>
      </g>
      <g transform="translate(340.71 363.53)">
       <path d="m0 0v25.899" fill="none" stroke="#2a507a" stroke-linecap="round" stroke-miterlimit="10" stroke-width="5.414"/>
      </g>
      <g transform="translate(434.67 363.53)">
       <path d="m0 0v25.899" fill="none" stroke="#2a507a" stroke-linecap="round" stroke-miterlimit="10" stroke-width="5.414"/>
      </g>
      <g transform="translate(481.65 363.53)">
       <path d="m0 0v25.899" fill="none" stroke="#2a507a" stroke-linecap="round" stroke-miterlimit="10" stroke-width="5.414"/>
      </g>
      <g transform="translate(336.98 235.8)">
       <path d="m0 0c0.036-2.225 0.393-4.439 1.023-6.581 1.428 0.262 2.88 0.417 4.332 0.441v6.14zm-1.119 0h-4.879c0.131-2.939 1.333-5.617 3.225-7.616 0.881 0.309 1.785 0.583 2.702 0.797-0.655 2.226-1.012 4.51-1.048 6.819m2.488-7.676c0.392-1.106 0.868-2.213 1.427-3.284 0.81-0.226 1.666-0.357 2.559-0.405v4.106c-1.333-0.024-2.666-0.167-3.986-0.417m5.104 0.417v-4.106c0.881 0.048 1.738 0.179 2.571 0.405 0.559 1.071 1.035 2.178 1.416 3.296-1.321 0.25-2.654 0.381-3.987 0.405m5.094-0.619c-0.286-0.869-0.631-1.713-1.024-2.558 1.167 0.488 2.226 1.154 3.154 1.975-0.702 0.226-1.416 0.417-2.13 0.583m-11.305-0.012c-0.714-0.166-1.428-0.357-2.13-0.595 0.928-0.809 1.987-1.463 3.153-1.963-0.381 0.845-0.726 1.69-1.023 2.558m12.685 7.89c-0.036-2.309-0.381-4.593-1.035-6.807 0.904-0.214 1.797-0.476 2.689-0.785 1.892 1.999 3.094 4.665 3.225 7.592zm-6.474 0v-6.14c1.452-0.024 2.904-0.167 4.332-0.441 0.643 2.142 0.988 4.356 1.024 6.581zm-9.246 8.723c-1.892-2.011-3.094-4.677-3.225-7.604h4.879c0.036 2.296 0.393 4.593 1.024 6.818-0.917 0.215-1.809 0.464-2.678 0.786m3.784-1.036c-0.63-2.13-0.975-4.343-1.011-6.568h5.355v6.128c-1.452 0.012-2.916 0.179-4.344 0.44m-2.879 1.904c0.69-0.238 1.392-0.428 2.106-0.595 0.297 0.857 0.631 1.702 1.012 2.523-1.143-0.476-2.19-1.13-3.118-1.928m4.617 2.464c-0.547-1.071-1.024-2.166-1.404-3.285 1.32-0.238 2.665-0.392 4.01-0.404v4.093c-0.905-0.035-1.773-0.178-2.606-0.404m3.165 0.416c-0.19 0-0.369 0-0.559-0.012h1.118c-0.19 0.012-0.368 0.012-0.559 0.012m4.903-4.795c-1.428-0.262-2.892-0.417-4.344-0.429v-6.128h5.356c-0.036 2.213-0.369 4.426-1.012 6.557m-1.737 4.379c-0.833 0.226-1.702 0.369-2.607 0.404v-4.093c1.333 0.012 2.678 0.154 4.011 0.392-0.381 1.131-0.857 2.226-1.404 3.297m1.499-0.536c0.393-0.821 0.714-1.678 1.012-2.535 0.714 0.167 1.416 0.358 2.106 0.584-0.928 0.809-1.964 1.475-3.118 1.951m4.034-2.82c-0.892-0.321-1.785-0.571-2.689-0.786 0.642-2.213 0.987-4.51 1.023-6.794h4.879c-0.131 2.915-1.333 5.581-3.213 7.58" fill="#2a507a"/>
      </g>
      <g transform="translate(342.33 224.44)">
       <path d="m0 0c0.19-0.011 0.369-0.011 0.559-0.011s0.369 0 0.559 0.011" fill="#2a507a"/>
      </g>
      <g transform="translate(247.55 315.66)">
       <path d="m0 0 7.315-6.116 10.54 14.648" fill="none" stroke="#2a507a" stroke-linecap="round" stroke-linejoin="round" stroke-miterlimit="10" stroke-width="3.906"/>
      </g>
      <g transform="translate(421.25 315.66)">
       <path d="m0 0 7.315-6.116 10.54 14.648" fill="none" stroke="#2a507a" stroke-linecap="round" stroke-linejoin="round" stroke-miterlimit="10" stroke-width="3.906"/>
      </g>
      <g transform="translate(290.74 195.36)">
       <path d="m0 0 7.315-6.116 10.54 14.648" fill="none" stroke="#2a507a" stroke-linecap="round" stroke-linejoin="round" stroke-miterlimit="10" stroke-width="3.906"/>
      </g>
     </g>
     <g transform="translate(491.71 377.09)">
      <path d="m0 0v-193.09c0-8.372-6.793-15.165-15.164-15.165h-235.87c-8.371 0-15.164 6.793-15.164 15.165v193.09c0 8.387 6.793 15.164 15.164 15.164h235.87c8.371 0 15.164-6.777 15.164-15.164" fill="#fff"/>
     </g>
     <g transform="translate(491.71 377.09)">
      <path d="m0 0v-26.996h-266.2v26.996c0 8.387 6.793 15.164 15.164 15.164h235.87c8.371 0 15.164-6.777 15.164-15.164" fill="#50c7f1"/>
     </g>
     <g transform="translate(264.09 307.8)">
      <path d="m0 0h-25.688c-1.284 0-2.324 1.041-2.324 2.324v25.688c0 1.284 1.04 2.325 2.324 2.325h25.688c1.284 0 2.325-1.041 2.325-2.325v-25.688c0-1.283-1.041-2.324-2.325-2.324" fill="#50c7f1"/>
     </g>
     <g transform="translate(307.31 307.8)">
      <path d="m0 0h-25.688c-1.284 0-2.324 1.041-2.324 2.324v25.688c0 1.284 1.04 2.325 2.324 2.325h25.688c1.284 0 2.324-1.041 2.324-2.325v-25.688c0-1.283-1.04-2.324-2.324-2.324" fill="#50c7f1"/>
     </g>
     <g transform="translate(350.53 307.8)">
      <path d="m0 0h-25.688c-1.284 0-2.324 1.041-2.324 2.324v25.688c0 1.284 1.04 2.325 2.324 2.325h25.688c1.284 0 2.325-1.041 2.325-2.325v-25.688c0-1.283-1.041-2.324-2.325-2.324" fill="#50c7f1"/>
     </g>
     <g transform="translate(393.75 307.8)">
      <path d="m0 0h-25.688c-1.284 0-2.324 1.041-2.324 2.324v25.688c0 1.284 1.04 2.325 2.324 2.325h25.688c1.284 0 2.324-1.041 2.324-2.325v-25.688c0-1.283-1.04-2.324-2.324-2.324" fill="#50c7f1"/>
     </g>
     <g transform="translate(436.97 307.8)">
      <path d="m0 0h-25.688c-1.284 0-2.324 1.041-2.324 2.324v25.688c0 1.284 1.04 2.325 2.324 2.325h25.688c1.284 0 2.324-1.041 2.324-2.325v-25.688c0-1.283-1.04-2.324-2.324-2.324z" fill="none" stroke="#50c7f1" stroke-miterlimit="10" stroke-width="1.302"/>
     </g>
     <g transform="translate(480.19 307.8)">
      <path d="m0 0h-25.688c-1.284 0-2.324 1.041-2.324 2.324v25.688c0 1.284 1.04 2.325 2.324 2.325h25.688c1.284 0 2.324-1.041 2.324-2.325v-25.688c0-1.283-1.04-2.324-2.324-2.324" fill="#50c7f1"/>
     </g>
     <g transform="translate(264.09 267.1)">
      <path d="m0 0h-25.688c-1.284 0-2.324 1.041-2.324 2.324v25.688c0 1.284 1.04 2.325 2.324 2.325h25.688c1.284 0 2.325-1.041 2.325-2.325v-25.688c0-1.283-1.041-2.324-2.325-2.324" fill="#50c7f1"/>
     </g>
     <g transform="translate(307.31 267.1)">
      <path d="m0 0h-25.688c-1.284 0-2.324 1.041-2.324 2.324v25.688c0 1.284 1.04 2.325 2.324 2.325h25.688c1.284 0 2.324-1.041 2.324-2.325v-25.688c0-1.283-1.04-2.324-2.324-2.324" fill="#50c7f1"/>
     </g>
     <g transform="translate(350.53 267.1)">
      <path d="m0 0h-25.688c-1.284 0-2.324 1.041-2.324 2.324v25.688c0 1.284 1.04 2.325 2.324 2.325h25.688c1.284 0 2.325-1.041 2.325-2.325v-25.688c0-1.283-1.041-2.324-2.325-2.324z" fill="none" stroke="#50c7f1" stroke-miterlimit="10" stroke-width="1.302"/>
     </g>
     <g transform="translate(393.75 267.1)">
      <path d="m0 0h-25.688c-1.284 0-2.324 1.041-2.324 2.324v25.688c0 1.284 1.04 2.325 2.324 2.325h25.688c1.284 0 2.324-1.041 2.324-2.325v-25.688c0-1.283-1.04-2.324-2.324-2.324" fill="#50c7f1"/>
     </g>
     <g transform="translate(436.97 267.1)">
      <path d="m0 0h-25.688c-1.284 0-2.324 1.041-2.324 2.324v25.688c0 1.284 1.04 2.325 2.324 2.325h25.688c1.284 0 2.324-1.041 2.324-2.325v-25.688c0-1.283-1.04-2.324-2.324-2.324" fill="#50c7f1"/>
     </g>
     <g transform="translate(480.19 267.1)">
      <path d="m0 0h-25.688c-1.284 0-2.324 1.041-2.324 2.324v25.688c0 1.284 1.04 2.325 2.324 2.325h25.688c1.284 0 2.324-1.041 2.324-2.325v-25.688c0-1.283-1.04-2.324-2.324-2.324" fill="#ace2f9"/>
     </g>
     <g transform="translate(264.09 226.39)">
      <path d="m0 0h-25.688c-1.284 0-2.324 1.041-2.324 2.324v25.688c0 1.284 1.04 2.325 2.324 2.325h25.688c1.284 0 2.325-1.041 2.325-2.325v-25.688c0-1.283-1.041-2.324-2.325-2.324" fill="#50c7f1"/>
     </g>
     <g transform="translate(307.31 226.39)">
      <path d="m0 0h-25.688c-1.284 0-2.324 1.041-2.324 2.324v25.688c0 1.284 1.04 2.325 2.324 2.325h25.688c1.284 0 2.324-1.041 2.324-2.325v-25.688c0-1.283-1.04-2.324-2.324-2.324" fill="#50c7f1"/>
     </g>
     <g transform="translate(350.53 226.39)">
      <path d="m0 0h-25.688c-1.284 0-2.324 1.041-2.324 2.324v25.688c0 1.284 1.04 2.325 2.324 2.325h25.688c1.284 0 2.325-1.041 2.325-2.325v-25.688c0-1.283-1.041-2.324-2.325-2.324" fill="#50c7f1"/>
     </g>
     <g transform="translate(393.75 226.39)">
      <path d="m0 0h-25.688c-1.284 0-2.324 1.041-2.324 2.324v25.688c0 1.284 1.04 2.325 2.324 2.325h25.688c1.284 0 2.324-1.041 2.324-2.325v-25.688c0-1.283-1.04-2.324-2.324-2.324" fill="#50c7f1"/>
     </g>
     <g transform="translate(436.97 226.39)">
      <path d="m0 0h-25.688c-1.284 0-2.324 1.041-2.324 2.324v25.688c0 1.284 1.04 2.325 2.324 2.325h25.688c1.284 0 2.324-1.041 2.324-2.325v-25.688c0-1.283-1.04-2.324-2.324-2.324" fill="#ace2f9"/>
     </g>
     <g transform="translate(480.19 226.39)">
      <path d="m0 0h-25.688c-1.284 0-2.324 1.041-2.324 2.324v25.688c0 1.284 1.04 2.325 2.324 2.325h25.688c1.284 0 2.324-1.041 2.324-2.325v-25.688c0-1.283-1.04-2.324-2.324-2.324" fill="#ace2f9"/>
     </g>
     <g transform="translate(264.09 185.69)">
      <path d="m0 0h-25.688c-1.284 0-2.324 1.041-2.324 2.325v25.687c0 1.284 1.04 2.325 2.324 2.325h25.688c1.284 0 2.325-1.041 2.325-2.325v-25.687c0-1.284-1.041-2.325-2.325-2.325z" fill="none" stroke="#50c7f1" stroke-miterlimit="10" stroke-width="1.302"/>
     </g>
     <g transform="translate(307.31 185.69)">
      <path d="m0 0h-25.688c-1.284 0-2.324 1.041-2.324 2.325v25.687c0 1.284 1.04 2.325 2.324 2.325h25.688c1.284 0 2.324-1.041 2.324-2.325v-25.687c0-1.284-1.04-2.325-2.324-2.325" fill="#50c7f1"/>
     </g>
     <g transform="translate(350.53 185.69)">
      <path d="m0 0h-25.688c-1.284 0-2.324 1.041-2.324 2.325v25.687c0 1.284 1.04 2.325 2.324 2.325h25.688c1.284 0 2.325-1.041 2.325-2.325v-25.687c0-1.284-1.041-2.325-2.325-2.325" fill="#50c7f1"/>
     </g>
     <g transform="translate(393.75 185.69)">
      <path d="m0 0h-25.688c-1.284 0-2.324 1.041-2.324 2.325v25.687c0 1.284 1.04 2.325 2.324 2.325h25.688c1.284 0 2.324-1.041 2.324-2.325v-25.687c0-1.284-1.04-2.325-2.324-2.325" fill="#50c7f1"/>
     </g>
     <g transform="translate(436.97 185.69)">
      <path d="m0 0h-25.688c-1.284 0-2.324 1.041-2.324 2.325v25.687c0 1.284 1.04 2.325 2.324 2.325h25.688c1.284 0 2.324-1.041 2.324-2.325v-25.687c0-1.284-1.04-2.325-2.324-2.325" fill="#ace2f9"/>
     </g>
     <g transform="translate(480.19 185.69)">
      <path d="m0 0h-25.688c-1.284 0-2.324 1.041-2.324 2.325v25.687c0 1.284 1.04 2.325 2.324 2.325h25.688c1.284 0 2.324-1.041 2.324-2.325v-25.687c0-1.284-1.04-2.325-2.324-2.325" fill="#ace2f9"/>
     </g>
     <g transform="translate(247.06 368.73)">
      <path d="m0 0c0-3.047-2.47-5.517-5.517-5.517-3.046 0-5.516 2.47-5.516 5.517s2.47 5.517 5.516 5.517c3.047 0 5.517-2.47 5.517-5.517" fill="#50c7f1"/>
     </g>
     <g transform="translate(294.04 368.73)">
      <path d="m0 0c0-3.047-2.47-5.517-5.517-5.517-3.046 0-5.516 2.47-5.516 5.517s2.47 5.517 5.516 5.517c3.047 0 5.517-2.47 5.517-5.517" fill="#50c7f1"/>
     </g>
     <g transform="translate(341.02 368.73)">
      <path d="m0 0c0-3.047-2.47-5.517-5.517-5.517-3.046 0-5.516 2.47-5.516 5.517s2.47 5.517 5.516 5.517c3.047 0 5.517-2.47 5.517-5.517" fill="#50c7f1"/>
     </g>
     <g transform="translate(388 368.73)">
      <path d="m0 0c0-3.047-2.47-5.517-5.517-5.517s-5.516 2.47-5.516 5.517 2.469 5.517 5.516 5.517 5.517-2.47 5.517-5.517" fill="#50c7f1"/>
     </g>
     <g transform="translate(434.98 368.73)">
      <path d="m0 0c0-3.047-2.47-5.517-5.517-5.517s-5.516 2.47-5.516 5.517 2.469 5.517 5.516 5.517 5.517-2.47 5.517-5.517" fill="#bde7ff"/>
     </g>
     <g transform="translate(481.96 368.73)">
      <path d="m0 0c0-3.047-2.47-5.517-5.517-5.517s-5.516 2.47-5.516 5.517 2.469 5.517 5.516 5.517 5.517-2.47 5.517-5.517" fill="#bde7ff"/>
     </g>
     <g transform="translate(241.55 368.73)">
      <path d="m0 0v25.899" fill="none" stroke="#192469" stroke-linecap="round" stroke-miterlimit="10" stroke-width="5.414"/>
     </g>
     <g transform="translate(288.52 368.73)">
      <path d="m0 0v25.899" fill="none" stroke="#192469" stroke-linecap="round" stroke-miterlimit="10" stroke-width="5.414"/>
     </g>
     <g transform="translate(335.5 368.73)">
      <path d="m0 0v25.899" fill="none" stroke="#192469" stroke-linecap="round" stroke-miterlimit="10" stroke-width="5.414"/>
     </g>
     <g transform="translate(429.46 368.73)">
      <path d="m0 0v25.899" fill="none" stroke="#192469" stroke-linecap="round" stroke-miterlimit="10" stroke-width="5.414"/>
     </g>
     <g transform="translate(476.44 368.73)">
      <path d="m0 0v25.899" fill="none" stroke="#192469" stroke-linecap="round" stroke-miterlimit="10" stroke-width="5.414"/>
     </g>
     <g transform="translate(331.77 241.01)">
      <path d="m0 0c0.036-2.225 0.393-4.439 1.023-6.581 1.428 0.262 2.88 0.417 4.332 0.441v6.14zm-1.119 0h-4.879c0.131-2.939 1.333-5.617 3.225-7.616 0.881 0.309 1.785 0.583 2.702 0.797-0.655 2.226-1.012 4.51-1.048 6.819m2.488-7.676c0.392-1.106 0.868-2.213 1.427-3.284 0.81-0.226 1.666-0.357 2.559-0.405v4.106c-1.333-0.024-2.666-0.167-3.986-0.417m5.104 0.417v-4.106c0.881 0.048 1.738 0.179 2.571 0.405 0.559 1.071 1.035 2.178 1.416 3.296-1.321 0.25-2.654 0.381-3.987 0.405m5.094-0.619c-0.286-0.869-0.631-1.713-1.024-2.558 1.167 0.488 2.226 1.154 3.154 1.975-0.702 0.226-1.416 0.417-2.13 0.583m-11.305-0.012c-0.714-0.166-1.428-0.357-2.13-0.595 0.928-0.809 1.987-1.463 3.153-1.963-0.381 0.845-0.726 1.69-1.023 2.558m12.685 7.89c-0.036-2.309-0.381-4.593-1.035-6.807 0.904-0.214 1.797-0.476 2.689-0.785 1.892 1.999 3.094 4.665 3.225 7.592zm-6.474 0v-6.14c1.452-0.024 2.904-0.167 4.332-0.441 0.643 2.142 0.988 4.356 1.024 6.581zm-9.246 8.723c-1.892-2.011-3.094-4.677-3.225-7.604h4.879c0.036 2.296 0.393 4.593 1.024 6.818-0.917 0.215-1.809 0.464-2.678 0.786m3.784-1.036c-0.63-2.13-0.975-4.343-1.011-6.568h5.355v6.128c-1.452 0.012-2.916 0.179-4.344 0.44m-2.879 1.904c0.69-0.238 1.392-0.428 2.106-0.595 0.297 0.857 0.631 1.702 1.012 2.523-1.143-0.476-2.19-1.13-3.118-1.928m4.617 2.464c-0.547-1.071-1.024-2.166-1.404-3.285 1.32-0.238 2.665-0.392 4.01-0.404v4.093c-0.905-0.035-1.773-0.178-2.606-0.404m3.165 0.416c-0.19 0-0.369 0-0.559-0.012h1.118c-0.19 0.012-0.368 0.012-0.559 0.012m4.903-4.795c-1.428-0.262-2.892-0.417-4.344-0.429v-6.128h5.356c-0.036 2.213-0.369 4.426-1.012 6.557m-1.737 4.379c-0.833 0.226-1.702 0.369-2.607 0.404v-4.093c1.333 0.012 2.678 0.154 4.011 0.392-0.381 1.131-0.857 2.226-1.404 3.297m1.499-0.536c0.393-0.821 0.714-1.678 1.012-2.535 0.714 0.167 1.416 0.358 2.106 0.584-0.928 0.809-1.964 1.475-3.118 1.951m4.034-2.82c-0.892-0.321-1.785-0.571-2.689-0.786 0.642-2.213 0.987-4.51 1.023-6.794h4.879c-0.131 2.915-1.333 5.581-3.213 7.58" fill="#fff"/>
     </g>
     <g transform="translate(337.12 229.65)">
      <path d="m0 0c0.19-0.011 0.369-0.011 0.559-0.011s0.369 0 0.559 0.011" fill="#fff"/>
     </g>
     <g transform="translate(242.35 320.87)">
      <path d="m0 0 7.315-6.116 10.54 14.648" fill="none" stroke="#e6505c" stroke-linecap="round" stroke-linejoin="round" stroke-miterlimit="10" stroke-width="3.906"/>
     </g>
     <g transform="translate(416.04 320.87)">
      <path d="m0 0 7.315-6.116 10.54 14.648" fill="none" stroke="#e6505c" stroke-linecap="round" stroke-linejoin="round" stroke-miterlimit="10" stroke-width="3.906"/>
     </g>
     <g transform="translate(285.54 200.57)">
      <path d="m0 0 7.315-6.116 10.54 14.648" fill="none" stroke="#e6505c" stroke-linecap="round" stroke-linejoin="round" stroke-miterlimit="10" stroke-width="3.906"/>
     </g>
     <g clip-path="url(#clipPath19864-4)" opacity=".25">
      <g transform="translate(429.4 282.53)">
       <path d="m0 0-7.592 12.28 16.578 10.249 7.592-12.28z" fill="#2a507a"/>
      </g>
      <g transform="translate(421.81 294.81)">
       <path d="m0 0c3.864 5.569 9.869 9.281 16.578 10.249z" fill="#2a507a"/>
      </g>
      <g transform="translate(572.29 282.53)">
       <path d="m0 0 7.592 12.28-16.578 10.249-7.592-12.28z" fill="#2a507a"/>
      </g>
      <g transform="translate(579.88 294.81)">
       <path d="m0 0c-3.864 5.569-9.869 9.281-16.578 10.249z" fill="#2a507a"/>
      </g>
      <path d="m485.59 315.9h30.498v-9.971h-30.498z" fill="#2a507a"/>
      <g transform="translate(521.6 336.12)">
       <path d="m0 0v-20.215h-41.514v20.215c13.362 5.111 28.153 5.111 41.514 0" fill="#2a507a"/>
      </g>
      <g transform="translate(482.44 315.9)">
       <path d="m0 0v20.212" fill="none" stroke="#2a507a" stroke-miterlimit="10" stroke-width="1.083"/>
      </g>
      <g transform="translate(485.75 315.9)">
       <path d="m0 0v20.212" fill="none" stroke="#2a507a" stroke-miterlimit="10" stroke-width="1.083"/>
      </g>
      <g transform="translate(489.06 315.9)">
       <path d="m0 0v20.212" fill="none" stroke="#2a507a" stroke-miterlimit="10" stroke-width="1.083"/>
      </g>
      <g transform="translate(492.38 315.9)">
       <path d="m0 0v20.212" fill="none" stroke="#2a507a" stroke-miterlimit="10" stroke-width="1.083"/>
      </g>
      <g transform="translate(495.69 315.9)">
       <path d="m0 0v20.212" fill="none" stroke="#2a507a" stroke-miterlimit="10" stroke-width="1.083"/>
      </g>
      <g transform="translate(499.01 315.9)">
       <path d="m0 0v20.212" fill="none" stroke="#2a507a" stroke-miterlimit="10" stroke-width="1.083"/>
      </g>
      <g transform="translate(502.32 315.9)">
       <path d="m0 0v20.212" fill="none" stroke="#2a507a" stroke-miterlimit="10" stroke-width="1.083"/>
      </g>
      <g transform="translate(505.63 315.9)">
       <path d="m0 0v20.212" fill="none" stroke="#2a507a" stroke-miterlimit="10" stroke-width="1.083"/>
      </g>
      <g transform="translate(508.95 315.9)">
       <path d="m0 0v20.212" fill="none" stroke="#2a507a" stroke-miterlimit="10" stroke-width="1.083"/>
      </g>
      <g transform="translate(512.26 315.9)">
       <path d="m0 0v20.212" fill="none" stroke="#2a507a" stroke-miterlimit="10" stroke-width="1.083"/>
      </g>
      <g transform="translate(515.58 315.9)">
       <path d="m0 0v20.212" fill="none" stroke="#2a507a" stroke-miterlimit="10" stroke-width="1.083"/>
      </g>
      <g transform="translate(518.89 315.9)">
       <path d="m0 0v20.212" fill="none" stroke="#2a507a" stroke-miterlimit="10" stroke-width="1.083"/>
      </g>
      <g transform="translate(521.6 336.12)">
       <path d="m0 0h-41.514c13.362 5.111 28.153 5.111 41.514 0" fill="#2a507a"/>
      </g>
      <g transform="translate(621.03 189.35)">
       <path d="m0 0c0-66.378-53.81-120.19-120.19-120.19s-120.19 53.81-120.19 120.19 53.811 120.19 120.19 120.19 120.19-53.81 120.19-120.19" fill="#2a507a"/>
      </g>
      <g clip-path="url(#clipPath19868-8)" opacity=".7">
       <g transform="translate(609.12 189.35)">
        <path d="m0 0c0-59.8-48.478-108.28-108.28-108.28s-108.28 48.478-108.28 108.28 48.478 108.28 108.28 108.28 108.28-48.478 108.28-108.28" fill="#2a507a"/>
       </g>
      </g>
      <g transform="translate(605.33 189.35)">
       <path d="m0 0c0-57.707-46.781-104.49-104.49-104.49s-104.49 46.781-104.49 104.49 46.781 104.49 104.49 104.49 104.49-46.781 104.49-104.49" fill="#2a507a"/>
      </g>
      <g transform="translate(598.83 189.35)">
       <path d="m0 0h-10.286" fill="none" stroke="#2a507a" stroke-linecap="round" stroke-miterlimit="10" stroke-width="5.414"/>
      </g>
      <g transform="translate(500.84 91.362)">
       <path d="m0 0v10.286" fill="none" stroke="#2a507a" stroke-linecap="round" stroke-miterlimit="10" stroke-width="5.414"/>
      </g>
      <g transform="translate(402.85 189.35)">
       <path d="m0 0h10.286" fill="none" stroke="#2a507a" stroke-linecap="round" stroke-miterlimit="10" stroke-width="5.414"/>
      </g>
      <g transform="translate(500.84 287.34)">
       <path d="m0 0v-10.286" fill="none" stroke="#2a507a" stroke-linecap="round" stroke-miterlimit="10" stroke-width="5.414"/>
      </g>
      <g transform="translate(585.7 140.35)">
       <path d="m0 0-8.908 5.144" fill="none" stroke="#2a507a" stroke-linecap="round" stroke-miterlimit="10" stroke-width="3.248"/>
      </g>
      <g transform="translate(451.84 104.49)">
       <path d="m0 0 5.144 8.908" fill="none" stroke="#2a507a" stroke-linecap="round" stroke-miterlimit="10" stroke-width="3.248"/>
      </g>
      <g transform="translate(415.98 238.35)">
       <path d="m0 0 8.908-5.144" fill="none" stroke="#2a507a" stroke-linecap="round" stroke-miterlimit="10" stroke-width="3.248"/>
      </g>
      <g transform="translate(549.84 274.21)">
       <path d="m0 0-5.144-8.908" fill="none" stroke="#2a507a" stroke-linecap="round" stroke-miterlimit="10" stroke-width="3.248"/>
      </g>
      <g transform="translate(549.82 104.48)">
       <path d="m0 0-5.142 8.909" fill="none" stroke="#2a507a" stroke-linecap="round" stroke-miterlimit="10" stroke-width="3.248"/>
      </g>
      <g transform="translate(415.97 140.37)">
       <path d="m0 0 8.909 5.141" fill="none" stroke="#2a507a" stroke-linecap="round" stroke-miterlimit="10" stroke-width="3.248"/>
      </g>
      <g transform="translate(451.86 274.23)">
       <path d="m0 0 5.142-8.909" fill="none" stroke="#2a507a" stroke-linecap="round" stroke-miterlimit="10" stroke-width="3.248"/>
      </g>
      <g transform="translate(585.71 238.33)">
       <path d="m0 0-8.909-5.142" fill="none" stroke="#2a507a" stroke-linecap="round" stroke-miterlimit="10" stroke-width="3.248"/>
      </g>
      <g transform="translate(526.34 151.12)">
       <path d="m0 0c-1.003 0-1.992 0.463-2.628 1.335l-26.521 36.387 26.099 70.703c0.622 1.683 2.488 2.543 4.173 1.922 1.683-0.621 2.544-2.489 1.922-4.172l-24.893-67.439 24.471-33.574c1.056-1.45 0.737-3.482-0.712-4.539-0.577-0.421-1.247-0.623-1.911-0.623" fill="#2a507a"/>
      </g>
      <g transform="translate(508.96 189.35)">
       <path d="m0 0c0-4.485-3.636-8.121-8.121-8.121s-8.121 3.636-8.121 8.121 3.636 8.121 8.121 8.121 8.121-3.636 8.121-8.121" fill="#2a507a"/>
      </g>
     </g>
     <g transform="translate(424.19 287.74)">
      <path d="m0 0-7.592 12.28 16.578 10.249 7.592-12.28z" fill="#50c7f1"/>
     </g>
     <g transform="translate(416.6 300.02)">
      <path d="m0 0c3.864 5.569 9.869 9.281 16.577 10.249z" fill="#098ce3"/>
     </g>
     <g transform="translate(567.08 287.74)">
      <path d="m0 0 7.592 12.28-16.578 10.249-7.592-12.28z" fill="#50c7f1"/>
     </g>
     <g transform="translate(574.67 300.02)">
      <path d="m0 0c-3.864 5.569-9.869 9.281-16.578 10.249z" fill="#098ce3"/>
     </g>
     <path d="m480.39 321.11h30.498v-9.971h-30.498z" fill="#50c7f1"/>
     <g transform="translate(516.39 341.33)">
      <path d="m0 0v-20.215h-41.514v20.215c13.362 5.111 28.153 5.111 41.514 0" fill="#50c7f1"/>
     </g>
     <g transform="translate(477.23 321.11)">
      <path d="m0 0v20.212" fill="none" stroke="#101747" stroke-miterlimit="10" stroke-width="1.083"/>
     </g>
     <g transform="translate(480.54 321.11)">
      <path d="m0 0v20.212" fill="none" stroke="#101747" stroke-miterlimit="10" stroke-width="1.083"/>
     </g>
     <g transform="translate(483.86 321.11)">
      <path d="m0 0v20.212" fill="none" stroke="#101747" stroke-miterlimit="10" stroke-width="1.083"/>
     </g>
     <g transform="translate(487.17 321.11)">
      <path d="m0 0v20.212" fill="none" stroke="#101747" stroke-miterlimit="10" stroke-width="1.083"/>
     </g>
     <g transform="translate(490.48 321.11)">
      <path d="m0 0v20.212" fill="none" stroke="#101747" stroke-miterlimit="10" stroke-width="1.083"/>
     </g>
     <g transform="translate(493.8 321.11)">
      <path d="m0 0v20.212" fill="none" stroke="#101747" stroke-miterlimit="10" stroke-width="1.083"/>
     </g>
     <g transform="translate(497.11 321.11)">
      <path d="m0 0v20.212" fill="none" stroke="#101747" stroke-miterlimit="10" stroke-width="1.083"/>
     </g>
     <g transform="translate(500.43 321.11)">
      <path d="m0 0v20.212" fill="none" stroke="#101747" stroke-miterlimit="10" stroke-width="1.083"/>
     </g>
     <g transform="translate(503.74 321.11)">
      <path d="m0 0v20.212" fill="none" stroke="#101747" stroke-miterlimit="10" stroke-width="1.083"/>
     </g>
     <g transform="translate(507.05 321.11)">
      <path d="m0 0v20.212" fill="none" stroke="#101747" stroke-miterlimit="10" stroke-width="1.083"/>
     </g>
     <g transform="translate(510.37 321.11)">
      <path d="m0 0v20.212" fill="none" stroke="#101747" stroke-miterlimit="10" stroke-width="1.083"/>
     </g>
     <g transform="translate(513.68 321.11)">
      <path d="m0 0v20.212" fill="none" stroke="#101747" stroke-miterlimit="10" stroke-width="1.083"/>
     </g>
     <g transform="translate(516.39 341.33)">
      <path d="m0 0h-41.514c13.362 5.111 28.153 5.111 41.514 0" fill="#098ce3"/>
     </g>
     <g transform="translate(615.82 194.56)">
      <path d="m0 0c0-66.378-53.81-120.19-120.19-120.19s-120.19 53.81-120.19 120.19 53.811 120.19 120.19 120.19 120.19-53.81 120.19-120.19" fill="#50c7f1"/>
     </g>
     <g clip-path="url(#clipPath20108-9)" opacity=".7">
      <g transform="translate(603.91 194.56)">
       <path d="m0 0c0-59.8-48.478-108.28-108.28-108.28s-108.28 48.478-108.28 108.28 48.478 108.28 108.28 108.28 108.28-48.478 108.28-108.28" fill="#50c7f1"/>
      </g>
     </g>
     <g transform="translate(600.12 194.56)">
      <path d="m0 0c0-57.707-46.781-104.49-104.49-104.49s-104.49 46.781-104.49 104.49 46.781 104.49 104.49 104.49 104.49-46.781 104.49-104.49" fill="#fff"/>
     </g>
     <g transform="translate(593.63 194.56)">
      <path d="m0 0h-10.286" fill="none" stroke="#192469" stroke-linecap="round" stroke-miterlimit="10" stroke-width="5.414"/>
     </g>
     <g transform="translate(495.64 96.569)">
      <path d="m0 0v10.286" fill="none" stroke="#192469" stroke-linecap="round" stroke-miterlimit="10" stroke-width="5.414"/>
     </g>
     <g transform="translate(397.64 194.56)">
      <path d="m0 0h10.286" fill="none" stroke="#192469" stroke-linecap="round" stroke-miterlimit="10" stroke-width="5.414"/>
     </g>
     <g transform="translate(495.64 292.55)">
      <path d="m0 0v-10.286" fill="none" stroke="#192469" stroke-linecap="round" stroke-miterlimit="10" stroke-width="5.414"/>
     </g>
     <g clip-path="url(#clipPath20144-4)" opacity=".3">
      <g transform="translate(580.5 145.56)">
       <path d="m0 0-8.908 5.144" fill="none" stroke="#101747" stroke-linecap="round" stroke-miterlimit="10" stroke-width="3.248"/>
      </g>
      <g transform="translate(446.64 109.7)">
       <path d="m0 0 5.144 8.908" fill="none" stroke="#101747" stroke-linecap="round" stroke-miterlimit="10" stroke-width="3.248"/>
      </g>
      <g transform="translate(410.77 243.56)">
       <path d="m0 0 8.908-5.144" fill="none" stroke="#101747" stroke-linecap="round" stroke-miterlimit="10" stroke-width="3.248"/>
      </g>
      <g transform="translate(544.63 279.42)">
       <path d="m0 0-5.143-8.908" fill="none" stroke="#101747" stroke-linecap="round" stroke-miterlimit="10" stroke-width="3.248"/>
      </g>
      <g transform="translate(544.62 109.69)">
       <path d="m0 0-5.142 8.909" fill="none" stroke="#101747" stroke-linecap="round" stroke-miterlimit="10" stroke-width="3.248"/>
      </g>
      <g transform="translate(410.76 145.58)">
       <path d="m0 0 8.909 5.142" fill="none" stroke="#101747" stroke-linecap="round" stroke-miterlimit="10" stroke-width="3.248"/>
      </g>
      <g transform="translate(446.66 279.43)">
       <path d="m0 0 5.142-8.909" fill="none" stroke="#101747" stroke-linecap="round" stroke-miterlimit="10" stroke-width="3.248"/>
      </g>
      <g transform="translate(580.51 243.54)">
       <path d="m0 0-8.909-5.142" fill="none" stroke="#101747" stroke-linecap="round" stroke-miterlimit="10" stroke-width="3.248"/>
      </g>
     </g>
     <g transform="translate(521.13 156.33)">
      <path d="m0 0c-1.003 0-1.992 0.463-2.628 1.335l-26.521 36.387 26.099 70.703c0.622 1.683 2.488 2.543 4.173 1.922 1.683-0.621 2.544-2.489 1.922-4.172l-24.893-67.439 24.471-33.574c1.056-1.45 0.737-3.482-0.712-4.539-0.577-0.421-1.247-0.623-1.911-0.623" fill="#50c7f1"/>
     </g>
     <g transform="translate(503.76 194.56)">
      <path d="m0 0c0-4.485-3.636-8.121-8.121-8.121s-8.121 3.636-8.121 8.121 3.636 8.121 8.121 8.121 8.121-3.636 8.121-8.121" fill="#192469"/>
     </g>
     <g transform="translate(592.64 71.929)">
      <path d="m0 0 2.925-5.067 3.735 0.722-2.564 5.932" fill="#fdaeb3"/>
     </g>
     <g transform="translate(599.3 67.954)">
      <path d="m0 0s-0.882-0.709-2.642-0.704c0 0-0.949 0.268-1.245 0.197-0.296-0.07-0.807-0.909-1.023-1.149-0.216-0.241-1.304-1.004-1.976-1.32-0.52-0.245-2.503-0.935-2.861-1.702-0.15-0.321 0.097-0.69 0.453-0.686 0.599 5e-3 2.24 0.045 3.391 0.056 0.718 8e-3 1.431 0.107 2.118 0.315 2.163 0.653 4.842 1.562 4.983 1.708 0.166 0.172-0.074 2.457-1.198 3.285" fill="#004ba8"/>
     </g>
     <g transform="translate(566.31 121.19)">
      <path d="m0 0c-14.34 9.214-12.57-4.549-12.57-4.549l40.45-47.869s2.572 0.058 3.926 2.502c0 0-15.614 39.419-31.806 49.916" fill="#0961e3"/>
     </g>
     <g transform="translate(571.04 162.25)">
      <path d="m0 0s1.676-3.517 1.25-8.035c-0.382-4.061-1.311-7.502-1.651-11.206-0.34-3.705-4.639-25.762-4.639-25.762s-11.624-3.527-12.461-0.071c-1.696 6.993-4.1 44.831-4.1 44.831s11.186-2.341 21.601 0.243" fill="#0961e3"/>
     </g>
     <g transform="translate(575.44 163.33)">
      <path d="m0 0s3.449-9.279-8.066-19.938c-2.994-2.772-5.72-3.824-9.39-7.226-2.728-2.528-19.474-19.107-19.474-19.107s-10.347 8.223-9.048 11.533c2.629 6.698 21.202 40.244 21.202 40.244s14.766-1.639 24.776-5.506" fill="#0984e3"/>
     </g>
     <g transform="translate(515.53 71.875)">
      <path d="m0 0-1.426-5.734 3.799-0.183 3.079 5.429" fill="#fdaeb3"/>
     </g>
     <g transform="translate(541.58 124.68)">
      <path d="m0 0c-0.996 19.271-12.122 3.911-12.122 3.911l-14.66-58.757s1.732-1.805 4.594-1.84c0 0 23.184 37.415 22.188 56.686" fill="#0984e3"/>
     </g>
     <g transform="translate(579.33 227.01)">
      <path d="m0 0c-4.771-2.345-12.774-0.319-12.774-0.319l2.684 8.544 1.152 3.647s0.82 0.7 2.03 1.671c3.721 2.996 11.138 8.475 9.207 3.131-2.562-7.07-2.299-16.674-2.299-16.674" fill="#fdaeb3"/>
     </g>
     <g transform="translate(574.91 239.43)">
      <path d="m0 0s-2.063-2.832-5.665-4.187l1.152 3.646s0.82 0.7 2.03 1.671l0.398 0.071z" fill="#e58099"/>
     </g>
     <g transform="translate(564.68 255.36)">
      <path d="m0 0s-3.104-15.521-0.648-18.118c2.456-2.596 13.935 2.183 13.935 2.183s8.973 8.386 8.338 15.964c-0.536 6.393-13.963 11.738-19.734 5.131-1.068-1.223-1.442-3.065-1.891-5.16" fill="#fdaeb3"/>
     </g>
     <g transform="translate(563.46 265.79)">
      <path d="m0 0s-2.528-7.982 3.454-10.868c3.968-1.914 8.503-2.339 8.496-4.3s0.836-0.542 1.711-0.18c1.857 0.768 2.779-1.802 1.634-4.212-0.874-1.838-0.767-4.725 2.018-5.42 0 0 3.137 4.105 4.722 6.927 1.251 2.226 4.481 10.071-0.75 11.783-0.338 1.753-1.959 3.495-3.796 4.338-5.012 2.299-9.713 1.614-13.306 1.461-1.656-0.07-3.455 3.38-4.183 0.471" fill="#1d2468"/>
     </g>
     <g transform="translate(553.55 213.26)">
      <path d="m0 0c-1.875 0.753-4.584 1.989-7.428 3.341-2.229 1.063-4.54 2.196-6.593 3.217-3.814 1.878-6.766 3.394-6.766 3.394s2.471 7.603 4.061 7.929c0.941 0.194 8.039-1.106 13.628-2.185 1.193-0.227 2.323-0.452 3.295-0.66 2.157-0.407 3.606-0.705 3.606-0.705z" fill="#fdaeb3"/>
     </g>
     <g transform="translate(532.77 223.22)">
      <path d="m0 0c-3.567 1.797-5.051 4.127-8.918 11.522-1.393 2.656-4.494 8.863-5.705 11.428l1.319 3.572c0.729-0.449 10.877-10.256 12.205-11.806 2.122-2.473 5.161-6.787 5.161-6.787 1.523-2.669-0.495-9.739-4.062-7.929" fill="#fdaeb3"/>
     </g>
     <g transform="translate(566.64 225.88)">
      <path d="m0 0c-5.828 1.938-18.956 4.295-18.956 4.295s-3.588-8.067-3.733-13.957c4.237-2.665 14.871-5.916 14.871-5.916" fill="#fcae24"/>
     </g>
     <g transform="translate(582.14 190.28)">
      <path d="m0 0c-0.156-0.339-0.326-0.69-0.495-1.029-0.846-1.679-1.666-3.371-2.395-5.077-5.885-13.604-3.815-20.856-3.815-20.856-9.66-1.263-25.816 3.58-25.816 3.58s0.039 1.38 0.013 2.461c-0.104 4.791-0.286 18.903 0.99 30.685 0.117 1.003 0.234 1.979 0.377 2.929 0.638 4.765 1.575 8.931 2.916 11.639 5.494 11.118 12.641 12.082 12.641 12.082 6.653-0.795 12.772 0.312 12.772 0.312 11.535-6.614 8.514-24.749 2.812-36.726" fill="#fecb22"/>
     </g>
     <g transform="translate(532.3 205.03)">
      <path d="m 0,0 c 0,0 -0.488,7.976 0.874,8.863 0.806,0.526 7.886,1.92 13.478,2.953 1.195,0.228 2.334,0.433 3.315,0.6 2.146,0.407 3.612,0.659 3.612,0.659 L 22.983,-1.656 C 16.472,-1.62 0,0 0,0" fill="#fdaeb3"/>
     </g>
     <g transform="translate(533.17 213.9)">
      <path d="m0 0s-3.728 3.212-6.611 4.736c-1.801 0.952-8.69 3.641-13.513 5.805-2.896 1.299-4.968 2.647-4.968 2.647l-1.488-2.308s6.896-6.811 13.19-12.281 8.534-7.092 12.514-7.466c3.98-0.373 3.266 6.944 0.876 8.867" fill="#fdaeb3"/>
     </g>
     <g transform="translate(571.69 203.37)">
      <path d="m0 0c-7.264-4.14-18.565-3.515-21.064-3.32 0.117 1.003 0.234 1.979 0.377 2.929z" fill="#fcae24"/>
     </g>
     <g transform="translate(573.56 204.05)">
      <path d="m 0,0 c -9.033,-3.721 -23.39,-1.739 -23.39,-1.739 -2.007,7.025 -1.556,15.124 -1.556,15.124 3.749,1.25 15.075,3.072 15.075,3.072 0,0 11.513,1.45 13.202,-6.348 C 5.076,2.06 0,0 0,0" fill="#fecb22"/>
     </g>
     <g transform="translate(507.38 224.01)">
      <path d="m0 0s-0.973 1.009-2.125 0.99c-1.129-0.019-2.512 0.93-2.622 1.488-0.11 0.557 1.573 3.261 1.874 3.445 0.3 0.183 1.814-0.968 2.309-1.144 0.495-0.177 0.406-1.153 2.033-2.173" fill="#fdaeb3"/>
     </g>
     <g transform="translate(507.53 227.63)">
      <path d="m0 0s0.058 0.724-0.488 1.839c-0.144 0.293-0.501 1.347-0.683 1.35-0.182 2e-3 -0.42-0.231-0.492-0.505-0.073-0.273 0.028-1.277 0.028-1.277" fill="#fdaeb3"/>
     </g>
     <g transform="translate(566.56 226.69)">
      <path d="m0 0 1.498 1.957s5.938-1.331 11.274-0.132l2e-3 -1.506-4.735-0.985s-3.858-0.869-8.039 0.666" fill="#fcae24"/>
     </g>
     <g transform="translate(568.06 228.65)">
      <path d="m0 0 0.378-4.495s7.553 0.291 11.759 2.324l-0.853 2.577s-4.124-1.122-11.284-0.406" fill="#ffd664"/>
     </g>
     <g transform="translate(518.21 66.485)">
      <path d="m0 0s-1.608-0.576-3.165-0.318c0 0-0.381 0.832-1.007 0.839s-1.397-0.864-1.821-1.06c-0.425-0.197-8.493-2.664-5.784-3.212 0.096-0.115 9.573-0.146 11.653-0.151 0.249 0 0.458 0.173 0.511 0.416 0.159 0.73 0.546 2.3-0.387 3.486" fill="#004ba8"/>
     </g>
     <g transform="translate(564.64 221.18)">
      <path d="m0 0s3.188 1.437 6.786-0.227c4.117-1.904 6.875-5.504 5.456-11.314" fill="none" stroke="#fff" stroke-linecap="round" stroke-miterlimit="10" stroke-width=".247"/>
     </g>
     <g transform="translate(575.77 224.63)">
      <path d="m0 0s0.598-3.233-1.934-5.135" fill="none" stroke="#fff" stroke-linecap="round" stroke-miterlimit="10" stroke-width=".247"/>
     </g>
     <g transform="translate(513.29 251.78)">
      <path d="m0 0s-0.093 3.659 0.774 4.635c0.868 0.977 2.523 1.085 2.74-0.217s-3.124-3.361-3.124-3.361z" fill="#fdaeb3"/>
     </g>
     <g transform="translate(261.93 121.9)">
      <path d="m0 0c-1.344-10.022-6.78-48.719-6.78-48.719h-4.103s-3.478 31.823-2.311 39.404c1.179 7.605 1.981 9.975 1.627 13.324-0.035 0.377-1.792 8.053-3.23 14.372-0.212 0.897-0.413 1.757-0.59 2.571-0.754 3.266-1.32 5.706-1.32 5.706h16.731s0.33-23.993-0.024-26.658" fill="#fdaeb3"/>
     </g>
     <g transform="translate(260.72 143.44)">
      <path d="m0 0c-4.74-2.04-13.194-3.113-13.583-3.16-0.212 0.896-0.412 1.757-0.589 2.57l0.023 0.177 4.056 1.698s14.951 0.814 10.093-1.285" fill="#e58099"/>
     </g>
     <g transform="translate(255.15 73.185)">
      <path d="m0 0s-0.121-1.006 0.306-1.763c0.427-0.756 1.71-4.143 4.373-6.313l0.329-0.887-2.4-0.198s-3.453 2.072-3.683 2.466c-0.23 0.395-1.118 2.125-1.381 2.657-0.263 0.533-1.381 1.519-1.381 1.98 0 0.46-0.46 2.058-0.46 2.058s1.381 1.131 1.611 1.197c0.23 0.065 1.249 0.164 1.249 0.164z" fill="#fdaeb3"/>
     </g>
     <g transform="translate(250.95 74.11)">
      <path d="m0 0s-1.751-2.435-1.51-4.89c0.149-1.518 0.805-4.46 0.797-6.636h0.562l0.92 4.926s4.067-4.478 4.987-4.702c0.921-0.224 4.636-0.224 4.834-0.224 0.197 0 3.09 0.651-1.71 2.525 0 0 0.033-0.953-1.874 0.033-1.907 0.987-3.683 2.96-4.9 4.571-0.641 0.849-1.808 2.663-2.106 4.397" fill="#423d73"/>
     </g>
     <g transform="translate(248.11 149.83)">
      <path d="m0 0s0-1.651-0.153-4.339c-0.047-0.766-0.095-1.627-0.165-2.547-0.437-5.612-1.462-13.842-3.856-21.647-2.971-9.668-15.952-47.339-15.952-47.339l-4.056 0.566s2.983 31.268 5.187 38.626c2.205 7.357 5.731 10.234 5.837 13.594 0.059 1.91-0.802 8.725-1.557 14.231-0.247 1.851-0.483 3.549-0.672 4.87-0.235 1.65-0.389 2.712-0.389 2.712z" fill="#fdaeb3"/>
     </g>
     <g transform="translate(227.99 73.964)">
      <path d="m0 0s-0.258-0.98 0.061-1.788 1.124-4.339 3.464-6.854l0.204-0.925-2.405 0.135s-3.135 2.526-3.309 2.949c-0.173 0.422-0.815 2.257-1.002 2.821-0.188 0.564-1.16 1.695-1.096 2.15 0.063 0.456-0.173 2.103-0.173 2.103s1.523 0.93 1.76 0.964c0.237 0.033 1.26-9e-3 1.26-9e-3z" fill="#fdaeb3"/>
     </g>
     <g transform="translate(223.96 75.458)">
      <path d="m0 0s-2.07-2.171-2.168-4.636c-0.061-1.524 0.185-4.528-0.122-6.683l0.556-0.077 1.589 4.753s3.412-4.994 4.293-5.343c0.881-0.348 4.562-0.859 4.757-0.886s3.151 0.22-1.347 2.737c0 0-0.098-0.949-1.851 0.29-1.754 1.239-3.241 3.437-4.225 5.2-0.518 0.929-1.425 2.887-1.482 4.645" fill="#423d73"/>
     </g>
     <g transform="translate(248.78 143.62)">
      <path d="m0 0c-0.307-0.248-0.637-0.472-0.99-0.672-4.41-2.582-12.074-2.158-14.397-1.969-0.247 1.851-0.483 3.549-0.672 4.869 4.858 0.248 12.168 0.437 15.234-0.353 1.438-0.378 1.945-0.967 0.825-1.875" fill="#e58099"/>
     </g>
     <g transform="translate(280.82 236.39)">
      <path d="m0 0s0.126-5.143-1.503-6.366c-1.239-0.931-12.121-0.602-17.222-0.393-1.599 0.071-2.633 0.12-2.633 0.12l0.61 5.038 0.568 4.688z" fill="#fdaeb3"/>
     </g>
     <g transform="translate(278.55 235.83)">
      <path d="m0 0s3.723 2.01 7.034 2.565c3.312 0.554 18.092 4.344 18.092 4.344l1.151-2.895s-13.7-8.661-27.1-10.186z" fill="#fdaeb3"/>
     </g>
     <g transform="translate(303.67 242.74)">
      <path d="m0 0s0.809 0.667 1.151 1.391 0.955 1.715 1.958 2.069c1.002 0.354 1.782 0.855 2.061 0.744 0.278-0.111 0.188-0.766-0.376-1.017-0.564-0.25-1.379-0.88-1.337-1.077s2.402 1.14 2.652 1.224c0.251 0.083 2.925 1.149 3.28 1.086s0.103-0.861-1.261-1.396c-1.029-0.403-1.604-0.928-1.52-1.185 0.083-0.256 1.034-1.114 0.157-2.563-0.877-1.45-1.763-2.104-2.891-2.23-1.128-0.125-2.264 0.085-3.106-0.177" fill="#fdaeb3"/>
     </g>
     <g transform="translate(265.55 238.98)">
      <path d="m0 0s0-6.938-0.909-9.759c0 0-2.594-0.2-6.216 0.08-1.284 0.094-2.687 0.241-4.158 0.482-0.628 0.106-1.27 0.227-1.925 0.36v11.457s7.526-0.668 13.208-2.62" fill="#fecb22"/>
     </g>
     <g transform="translate(258.42 229.3)">
      <path d="m0 0c-1.283 0.094-2.687 0.241-4.158 0.481l-0.32 0.481 0.815 3.516s1.939-2.433 3.663-4.478" fill="#fcae24"/>
     </g>
     <g transform="translate(258.49 192.66)">
      <path d="m0 0s-9.077-5.976-27.098-0.521c0 0 2.928 10.347 1.939 17.125-0.268 1.871-1.297 4.732-2.647 7.914-0.829 1.938-1.765 3.97-2.727 5.975-1.658 3.463-3.369 6.778-4.626 9.158-1.069 2.045-0.133 4.558 2.019 5.414 4.879 1.952 14.184 4.665 26.991 3.877 0.775-1.792 2.152-7.821 2.927-8.957 3.864-5.668 3.382-6.283 2.567-10.521-1.163-5.949-2.299-20.467 0.655-29.464" fill="#fecb22"/>
     </g>
     <g transform="translate(231.99 226.97)">
      <path d="m0 0s-0.481-5.668-1.31-9.799c-0.829 1.938-1.765 3.97-2.727 5.976z" fill="#fcae24"/>
     </g>
     <g transform="translate(232.51 193.55)">
      <path d="m0 0s-3.196-2.7-4.299-11.959c-1.102-9.258 4.299-37.915 4.299-37.915s8.266-3.968 29.869 0c0 0 0.441 34.939-4.409 50.866z" fill="#0984e3"/>
     </g>
     <g transform="translate(235.21 243.72)">
      <path d="m0 0s-1.981-3.541-3.333-3.901c0 0 6.282-2.494 10.318-2.153 4.035 0.342 6.083 4.063 6.083 4.063s-3.286 0.343-3.744 4.093" fill="#fdaeb3"/>
     </g>
     <g transform="translate(244.98 251.21)">
      <path d="m0 0s-0.082-0.914-0.164-1.815c-0.082-0.777-0.15-1.541-0.163-1.705-0.178-1.897-0.11-3.411-0.383-5.949l-9.059 1.978s1.61 1.719 0.532 10.424l9.073-2.878z" fill="#fdaeb3"/>
     </g>
     <g transform="translate(244.98 251.21)">
      <path d="m0 0s-0.082-0.914-0.164-1.815c-1.965-0.054-4.216 0.382-4.216 0.382l4.216 1.488z" fill="#e58099"/>
     </g>
     <g transform="translate(237.55 274.11)">
      <path d="m0 0s2.754 2.013 5.024 0.275c2.27-1.737 2.553-5.342 1.444-7.793s-6.806 5.114-6.806 5.114" fill="#332f62"/>
     </g>
     <g transform="translate(249.71 253.15)">
      <path d="m0 0c0.046-0.764-0.426-1.46-1.143-1.729-2.094-0.789-6.672-2.176-11.517-1.474-5.98 0.866-11.769 17.279 0.283 22.837 2.342 1.08 11.563-6.225 12.377-19.634" fill="#fdaeb3"/>
     </g>
     <g transform="translate(223.5 262.29)">
      <path d="m0 0s-2.081-0.486-2.622-1.729c0 0 2.528 1.125 3.629 0.214" fill="#332f62"/>
     </g>
     <g transform="translate(225.42 261.78)">
      <path d="m0 0s-4.526-1.118-7.286 1.983c-3.811 4.284 3.467 13.214 9.415 4.915" fill="#332f62"/>
     </g>
     <g transform="translate(224.14 260.28)">
      <path d="m0 0s-0.769 0.269-1.009 1.18c-0.344 1.309-0.563 5.343 3.004 8.891 0 0 0.927 0.836 1.574 0.338" fill="#fac12a"/>
     </g>
     <g transform="translate(236.06 248.65)">
      <path d="m0 0s-9.885 2.791-12.244 12.301 11.991 18.88 18.026 9.826c0 0-4.278-0.909-5.448-4.083-1.17-3.173-0.428-7.779-1.679-6.992-1.291 0.812-3.128-0.234-2.849-2.043 0.23-1.484 2.526-3.267 3.703-5.266 0.709-1.203 0.865-2.885 0.491-3.743" fill="#332f62"/>
     </g>
     <g transform="translate(241.87 272.47)">
      <path d="m0 0s4.625-4.711-5.102-9.38c0.488 1.845-2.149 6.364-2.149 6.364" fill="#332f62"/>
     </g>
     <g transform="translate(199.5 197.82)">
      <path d="m0 0 40.379 9.668c0.387 0.093 0.775-0.145 0.868-0.532l6.574-27.455c0.092-0.387-0.146-0.776-0.533-0.868l-40.379-9.669c-0.387-0.092-0.775 0.146-0.868 0.533l-6.574 27.455c-0.092 0.387 0.146 0.775 0.533 0.868" fill="#423d73"/>
     </g>
     <g transform="translate(201.3 196.69)">
      <path d="m0 0 37.495 8.978 6.201-25.897-37.495-8.978z" fill="#fff"/>
     </g>
     <g transform="translate(239.9 196.57)">
      <path d="m0 0 1.917 0.463 2.403-9.947-1.918-0.463z" fill="#9e9dba"/>
     </g>
     <g transform="translate(223.33 202.32)">
      <path d="m0 0s-5.083 0.79-5.998 2.61c-0.696 1.384 1.561 12.035 2.672 17.018 0.354 1.561 0.586 2.57 0.586 2.57l4.849-1.495 4.513-1.392z" fill="#fdaeb3"/>
     </g>
     <g transform="translate(223.18 204.65)">
      <path d="m0 0s1.317-4.021 1.274-7.378c-0.042-3.357 1.063-18.576 1.063-18.576l-3.054-0.618s-6.09 15.021-5.211 28.479z" fill="#fdaeb3"/>
     </g>
     <g transform="translate(222.46 178.08)">
      <path d="m0 0s0.265-3.22 0.8-4.4c1.364-3.013 5.201-0.139 5.63 0.669 0 0-1.114-0.134-1.897 2.01-0.265 0.724-1.044 1.242-1.199 1.426-0.155 0.185-0.28 0.914-0.28 0.914" fill="#fdaeb3"/>
     </g>
     <g transform="translate(223.14 235.46)">
      <path d="m0 0s-2.66-9.134-3.456-14.933c0 0 4.148-1.89 9.665-2.047 0 0 2.089 5.131 2.899 9.779" fill="#fecb22"/>
     </g>
     <g transform="translate(371.51 99.621)">
      <path d="m0 0s15.95 0.865 15.968 4.106c0.015 2.521-9.742 0.388-9.742 0.388s10.672 3.096 15.606 5.63c1.082 0.556 2.186 1.156 2.944 2.108 0.759 0.952 1.088 2.35 0.474 3.4-0.831 1.423-2.823 1.538-4.459 1.341-6.569-0.793-11.187-4.307-17.101-7.276 4.329 2.174 8.179 4.956 11.787 8.179 3.318 2.964 7.178 5.744 9.389 9.707 1.386 2.483 1.936 6.151-0.517 8.194-2.379 1.98-5.788 1.055-8.401 0.137-7.017-2.465-13.166-7.358-17.208-13.595 1.041 2.915 1.853 5.911 2.426 8.953 0.231 1.225 0.316 2.736-0.698 3.463-1.313 0.941-3.067-0.318-4.088-1.571-2.475-3.034-4.364-6.546-5.531-10.284 0.806 8.373 1.603 16.912-0.219 25.124-0.415 1.875-0.99 3.768-2.16 5.291-1.171 1.523-3.047 2.623-4.956 2.415-1.809-0.196-3.302-1.482-4.515-2.838-3.911-4.377-6.204-10.169-6.346-16.037-0.142-5.867 1.867-11.764 5.563-16.324-1.944 2.04-4.141 3.838-6.524 5.341-0.536 0.338-1.322 0.628-1.724 0.139-0.208-0.252-0.204-0.613-0.174-0.939 0.367-3.981 3.037-7.319 5.593-10.394-5.182 6.05-13.336 9.423-21.278 8.803-0.96-0.075-2.049-0.289-2.537-1.118-0.282-0.48-0.295-1.071-0.236-1.625 0.424-3.993 3.947-6.889 7.411-8.92 2.914-1.708 5.982-3.136 9.045-4.562-1.751 0.251-3.529 0.313-5.293 0.187-0.402-0.029-0.852-0.093-1.097-0.413-0.464-0.605 0.189-1.426 0.807-1.872 4.426-3.196 10.002-4.764 15.445-4.341" fill="#0961e3"/>
     </g>
     <g clip-path="url(#clipPath20440-3)" opacity=".45">
      <path d="m337.77 113.24c5.946-3.551 12.304-11.135 18.787-13.611 0.205-0.078 0.373 0.208 0.165 0.31-6.282 3.07-12.703 10.145-18.781 13.623-0.205 0.117-0.372-0.202-0.171-0.322m50.779-1.01c-8.166-3.683-16.586-8.016-23.505-13.773-0.215-0.178-7e-3 -0.543 0.241-0.378 7.619 5.059 14.992 10.038 23.371 13.817 0.203 0.092 0.099 0.427-0.107 0.334m-44.371 9.065c4.117-5.85 8.679-16.67 14.086-21.387 0.221-0.193 0.497 0.118 0.304 0.329-4.886 5.375-9.676 15.449-14.059 21.27-0.15 0.199-0.478-3e-3 -0.331-0.212m12.39 20.479c-1.374-13.706-0.266-28.32 3.407-41.611 0.061-0.222 0.377-0.11 0.334 0.107-1.394 6.97-2.655 13.931-3.235 21.024-0.558 6.821-0.501 13.625-0.263 20.457 4e-3 0.136-0.229 0.161-0.243 0.023m10.1-16.495c-2.915-7.468-4.665-16.874-4.078-24.909 0.015-0.204 0.312-0.19 0.316 0.012 0.13 8.089 1.337 17.133 4.185 24.738 0.09 0.239-0.33 0.399-0.423 0.159m22.953 4.114c0.196 0.141 0.389-0.171 0.2-0.314-5.072-3.833-9.763-8.142-13.918-12.958-4.19-4.855-7.532-10.156-10.799-15.648-0.118-0.198-0.416-0.04-0.316 0.168 5.432 11.391 14.678 21.407 24.833 28.752" fill="url(#linearGradient20456)"/>
     </g>
     <g transform="translate(373.96 62.584)">
      <path d="m0 0h-22.576l-6.111 37.987h34.798z" fill="#50c7f1"/>
     </g>
     <g transform="translate(373.94 62.584)">
      <path d="m0 0h-6.837l6.133 37.987h6.838z" fill="#098ce3"/>
     </g>
     <g transform="translate(410.98 392.26)">
      <path d="m0 0h-48.573s0.019 0.671 0.476 1.696c2.771 4.074 4.245 6.067 6.848 8.72 5.038 1.542 7.615 1.878 15.193 3.107l8.554 0.552s10.859-2.521 14.513-5.133c1.867-2.119 3.099-5.007 2.989-8.942" fill="#fecb22"/>
     </g>
     <g transform="translate(394.88 392.26)">
      <path d="m0 0h-32.471s0.031 0.666 0.475 1.696c1.189 0.38 2.694 0.332 3.851 0.031 1.189-0.316 1.981-0.522 1.981-0.522h21.124c4.121 0 5.04-1.205 5.04-1.205" fill="#f29127"/>
     </g>
     <g transform="translate(391.27 414.27)">
      <path d="m0 0s0.412 2.327 0.144 3.738c-0.269 1.411-1.568 3.293-1.703 3.315-0.134 0.023-1.832-0.381-1.8-0.448 0.031-0.067 0-2.531 0-2.531s0.613-3.538 0.793-3.897c0.179-0.358 0.91-1.792 1.003-1.814 0.094-0.023 0.833 0.269 0.833 0.269z" fill="#fdaeb3"/>
     </g>
     <g transform="translate(386.86 401.5)">
      <path d="m0 0c-1.302-0.078-2.487 0.807-2.786 2.083-0.104 0.43-0.365 1.041-0.677 1.718-0.365 0.808-0.794 1.693-1.068 2.422l2.852 2.083 6.079 4.465s0.755-5.702 2.214-7.941c0 0 0.481-4.427-6.614-4.83" fill="#fdaeb3"/>
     </g>
     <g transform="translate(388.25 410.84)">
      <path d="m0 0c-0.169-0.273-2.682-4.062-4.856-5.533-0.365 0.807-0.794 1.692-1.068 2.421l2.851 2.083z" fill="#e58099"/>
     </g>
     <g transform="translate(390.16 416.9)">
      <path d="m0 0c0.128-1.323 0.173-2.511 0.075-3.372-0.01-0.114-0.03-0.239-0.06-0.365-0.02-0.114-0.04-0.239-0.08-0.366-0.964-3.814-12.749-8.187-13.106-7.958-6.585 4.233-8.868 19.905-8.181 20.946 0.755 1.143 10.09 2.226 10.284 2.244 0.193 0.017 9.165-0.63 9.165-0.63s1.451-6.021 1.903-10.499" fill="#fdaeb3"/>
     </g>
     <g transform="translate(364.51 429.47)">
      <path d="m0 0s0.291-6.844 11.534-4.107c3.086 0.752 5.809 1.454 7.339 0.628 2.299-7.231 2.373-10.7 3.187-10.415 1.018 0.356-1.741 6.362 1.776 5.714 2.69-0.497 2.924-7.022 2.924-7.022s0.229-0.532 0.323 0.986c0.057 0.907 0.681 15.579-1.545 18.654-2.226 3.076-5.406 1.218-5.406 1.218s0.188 7.423-10.451 1.95c-6.143-3.16-9.115-1.011-9.098-1.202s-1.054-2.11-0.583-6.404" fill="#1d2468"/>
     </g>
     <g transform="translate(379.7 343.08)">
      <path d="m0 0s-0.726-0.864-1.37-1.361c-0.644-0.498-0.908-0.498-1.815-0.732s-1.683-1.17-1.947-1.492c-0.263-0.322 0-0.469 0.557-0.352 0.556 0.117 1.273 0.556 1.507 0.556s0.234-0.285 0-0.801-0.878-1.365-1.259-1.657c-0.38-0.293-1.434-0.878-1.551-1.23-0.117-0.351-0.029-0.527 0.527-0.351s1.2 0.644 1.873 0.995c0.362 0.189 0.53 0.401 0.707 0.55 0.22-0.057 1.005-0.243 1.555-0.16 0.283 0.043 0.534 0.18 0.729 0.32 0.077 0.017 0.16 0.026 0.229 0.054 0.497 0.202 0.761 1.929 1.024 2.397 0.264 0.469 2.485 2.173 2.485 2.173z" fill="#fdaeb3"/>
     </g>
     <g transform="translate(366.41 388.91)">
      <path d="m0 0c-0.285 0.032-0.682 0.333-1.173 0.856-0.158 0.158-0.38 0.428-0.618 0.713-0.222 0.158-0.428 0.301-0.602 0.412-0.38 0.269-0.777 0.301-0.919 0.301h-0.048v0.016c-2.298 0.047-3.328 1.046-6.149 1.046 0 0 6.593 3.169 10.571 0.919 0.412-0.063 1.188-0.174 1.68-0.174 1.156-0.016 0.824-0.603 0.459-0.793-0.127-0.047-0.444-0.095-0.776-0.142 0.015-0.016 0.031-0.032 0.063-0.064 0.174-0.19 0.333-0.38 0.475-0.554 0.508-0.618 1.189-1.427 1.316-1.553 0.174-0.206 0.063-0.333 0.063-0.333 0.247-0.381-2.295-1.662-4.342-0.65" fill="#fdaeb3"/>
     </g>
     <g clip-path="url(#clipPath20522-2)" opacity=".47">
      <g clip-path="url(#clipPath20526-3)">
       <g mask="url(#mask20538-4)">
        <path d="m369.62 392.21c-0.126-0.047-0.443-0.095-0.776-0.142 0 0-0.967 0.903-1.363 1.109 0.412-0.063 1.189-0.174 1.68-0.174 1.157-0.016 0.824-0.602 0.459-0.793" fill="url(#linearGradient20554)"/>
       </g>
      </g>
     </g>
     <g transform="translate(403.14 359.66)">
      <path d="m 0,0 c 0,0 -7.203,1.071 -7.737,2.453 -0.317,0.817 -0.222,7.393 -0.088,12.573 0.023,1.109 0.056,2.163 0.092,3.069 0.042,1.99 0.094,3.345 0.094,3.345 L 5.817,20.177 C 4.555,14.379 0,0 0,0" fill="#fdaeb3"/>
     </g>
     <g transform="translate(395.4 362.12)">
      <path d="m0 0s-3.568-2.717-5.471-4.999c-1.189-1.426-4.887-7.061-7.726-10.952-1.705-2.336-3.299-3.929-3.299-3.929l1.777-1.762s7.375 4.861 13.44 9.44 7.934 6.269 9.019 9.747c1.084 3.478-5.575 4.223-7.74 2.455" fill="#fdaeb3"/>
     </g>
     <g transform="translate(394.88 392.26)">
      <path d="m0 0 0.454-12.321s7.257-2.542 13.795-0.986c0 0 4.121 9.755 0.852 19.077" fill="#fecb22"/>
     </g>
     <g transform="translate(382.48 368.73)">
      <path d="m0 0v25.899" fill="none" stroke="#192469" stroke-linecap="round" stroke-miterlimit="10" stroke-width="5.414"/>
     </g>
    </g>
    <g clip-path="url(#clipPath20596-9)"></g>
   </g>
  </g>
 </g>
 <g transform="translate(0 -1.9379e-6)">
  <path class="slice2" d="m128.91 0.63815c-0.14268 5.21e-5 -0.28498 0.00382-0.42684 0.010852 0.28373-0.014062 0.56924-0.014073 0.85576 0-0.14309-0.00702-0.28641-0.010904-0.42892-0.010852zm3.0076 0.53485-3.005 8.2155-8.4744 2.1673c-0.0529-0.20677-0.0986-0.41612-0.13643-0.62684 0.0378 0.2107 0.0831 0.42006 0.13591 0.62684 0.69215 2.7009 2.6559 5.0238 5.4689 6.0529 3.7574 1.3741 7.8534 0.01131 10.091-3.0804l-7.0848-5.1397zm4.0804 13.355c0.23354-0.31979 0.44598-0.65808 0.63562-1.0139-0.18975 0.35582-0.40208 0.6941-0.63562 1.0139z" fill="#50c7f1"/>
 </g>
 <g transform="translate(0 -1.9379e-6)">
  <path class="slice3 rotate" d="m31.347 111.11-6.9723 5.2744 7.1875 4.9865c0.9839-1.4154 1.5642-3.1323 1.5642-4.9865 0-1.9837-0.66746-3.8068-1.7794-5.2744" fill="#fff" opacity=".5"/>
 </g>
</svg>