<svg width="163" height="37" viewBox="0 0 163 37" fill="none" xmlns="http://www.w3.org/2000/svg">
<g clip-path="url(#clip0_6_2)">
<path d="M2.83203 37V8.36719H11.4844L16.6797 27.8984L21.8164 8.36719H30.4883V37H25.1172V14.4609L19.4336 37H13.8672L8.20312 14.4609V37H2.83203ZM40.293 22.5859L35.3125 21.6875C35.8724 19.6823 36.8359 18.1979 38.2031 17.2344C39.5703 16.2708 41.6016 15.7891 44.2969 15.7891C46.7448 15.7891 48.5677 16.082 49.7656 16.668C50.9635 17.2409 51.8034 17.9766 52.2852 18.875C52.7799 19.7604 53.0273 21.3945 53.0273 23.7773L52.9688 30.1836C52.9688 32.0065 53.0534 33.3542 53.2227 34.2266C53.4049 35.0859 53.737 36.0104 54.2188 37H48.7891C48.6458 36.6354 48.4701 36.0951 48.2617 35.3789C48.1706 35.0534 48.1055 34.8385 48.0664 34.7344C47.1289 35.6458 46.1263 36.3294 45.0586 36.7852C43.9909 37.2409 42.8516 37.4688 41.6406 37.4688C39.5052 37.4688 37.819 36.8893 36.582 35.7305C35.3581 34.5716 34.7461 33.1068 34.7461 31.3359C34.7461 30.1641 35.026 29.1224 35.5859 28.2109C36.1458 27.2865 36.9271 26.5833 37.9297 26.1016C38.9453 25.6068 40.4036 25.1771 42.3047 24.8125C44.8698 24.3307 46.6471 23.8815 47.6367 23.4648V22.918C47.6367 21.8633 47.3763 21.1146 46.8555 20.6719C46.3346 20.2161 45.3516 19.9883 43.9062 19.9883C42.9297 19.9883 42.168 20.1836 41.6211 20.5742C41.0742 20.9518 40.6315 21.6224 40.293 22.5859ZM47.6367 27.0391C46.9336 27.2734 45.8203 27.5534 44.2969 27.8789C42.7734 28.2044 41.7773 28.5234 41.3086 28.8359C40.5924 29.3438 40.2344 29.9883 40.2344 30.7695C40.2344 31.5378 40.5208 32.2018 41.0938 32.7617C41.6667 33.3216 42.3958 33.6016 43.2812 33.6016C44.2708 33.6016 45.2148 33.276 46.1133 32.625C46.7773 32.1302 47.2135 31.5247 47.4219 30.8086C47.5651 30.3398 47.6367 29.4479 47.6367 28.1328V27.0391ZM63.7109 37H58.2227V16.2578H63.3203V19.207C64.1927 17.8138 64.974 16.8958 65.6641 16.4531C66.3672 16.0104 67.1615 15.7891 68.0469 15.7891C69.2969 15.7891 70.5013 16.1341 71.6602 16.8242L69.9609 21.6094C69.0365 21.0104 68.1771 20.7109 67.3828 20.7109C66.6146 20.7109 65.9635 20.9258 65.4297 21.3555C64.8958 21.7721 64.4727 22.5339 64.1602 23.6406C63.8607 24.7474 63.7109 27.0651 63.7109 30.5938V37ZM73.8477 37V8.36719H79.3359V23.5625L85.7617 16.2578H92.5195L85.4297 23.8359L93.0273 37H87.1094L81.8945 27.6836L79.3359 30.3594V37H73.8477ZM108.32 30.3984L113.789 31.3164C113.086 33.3216 111.973 34.8516 110.449 35.9062C108.939 36.9479 107.044 37.4688 104.766 37.4688C101.159 37.4688 98.4896 36.2904 96.7578 33.9336C95.3906 32.0456 94.707 29.6628 94.707 26.7852C94.707 23.3477 95.6055 20.6589 97.4023 18.7188C99.1992 16.7656 101.471 15.7891 104.219 15.7891C107.305 15.7891 109.74 16.8112 111.523 18.8555C113.307 20.8867 114.16 24.0052 114.082 28.2109H100.332C100.371 29.8385 100.814 31.1081 101.66 32.0195C102.507 32.918 103.561 33.3672 104.824 33.3672C105.684 33.3672 106.406 33.1328 106.992 32.6641C107.578 32.1953 108.021 31.4401 108.32 30.3984ZM108.633 24.8516C108.594 23.263 108.184 22.0586 107.402 21.2383C106.621 20.4049 105.671 19.9883 104.551 19.9883C103.353 19.9883 102.363 20.4245 101.582 21.2969C100.801 22.1693 100.417 23.3542 100.43 24.8516H108.633ZM128.086 16.2578V20.6328H124.336V28.9922C124.336 30.6849 124.368 31.6745 124.434 31.9609C124.512 32.2344 124.674 32.4622 124.922 32.6445C125.182 32.8268 125.495 32.918 125.859 32.918C126.367 32.918 127.103 32.7422 128.066 32.3906L128.535 36.6484C127.259 37.1953 125.814 37.4688 124.199 37.4688C123.21 37.4688 122.318 37.306 121.523 36.9805C120.729 36.6419 120.143 36.2122 119.766 35.6914C119.401 35.1576 119.147 34.4414 119.004 33.543C118.887 32.9049 118.828 31.6159 118.828 29.6758V20.6328H116.309V16.2578H118.828V12.1367L124.336 8.93359V16.2578H128.086ZM131.895 13.4453V8.36719H137.383V13.4453H131.895ZM131.895 37V16.2578H137.383V37H131.895ZM147.129 22.5859L142.148 21.6875C142.708 19.6823 143.672 18.1979 145.039 17.2344C146.406 16.2708 148.438 15.7891 151.133 15.7891C153.581 15.7891 155.404 16.082 156.602 16.668C157.799 17.2409 158.639 17.9766 159.121 18.875C159.616 19.7604 159.863 21.3945 159.863 23.7773L159.805 30.1836C159.805 32.0065 159.889 33.3542 160.059 34.2266C160.241 35.0859 160.573 36.0104 161.055 37H155.625C155.482 36.6354 155.306 36.0951 155.098 35.3789C155.007 35.0534 154.941 34.8385 154.902 34.7344C153.965 35.6458 152.962 36.3294 151.895 36.7852C150.827 37.2409 149.688 37.4688 148.477 37.4688C146.341 37.4688 144.655 36.8893 143.418 35.7305C142.194 34.5716 141.582 33.1068 141.582 31.3359C141.582 30.1641 141.862 29.1224 142.422 28.2109C142.982 27.2865 143.763 26.5833 144.766 26.1016C145.781 25.6068 147.24 25.1771 149.141 24.8125C151.706 24.3307 153.483 23.8815 154.473 23.4648V22.918C154.473 21.8633 154.212 21.1146 153.691 20.6719C153.171 20.2161 152.188 19.9883 150.742 19.9883C149.766 19.9883 149.004 20.1836 148.457 20.5742C147.91 20.9518 147.467 21.6224 147.129 22.5859ZM154.473 27.0391C153.77 27.2734 152.656 27.5534 151.133 27.8789C149.609 28.2044 148.613 28.5234 148.145 28.8359C147.428 29.3438 147.07 29.9883 147.07 30.7695C147.07 31.5378 147.357 32.2018 147.93 32.7617C148.503 33.3216 149.232 33.6016 150.117 33.6016C151.107 33.6016 152.051 33.276 152.949 32.625C153.613 32.1302 154.049 31.5247 154.258 30.8086C154.401 30.3398 154.473 29.4479 154.473 28.1328V27.0391Z" fill="url(#paint0_linear_6_2)"/>
</g>
<defs>
<linearGradient id="paint0_linear_6_2" x1="0" y1="23" x2="163" y2="23" gradientUnits="userSpaceOnUse">
<stop offset="0.244" stop-color="#6F09BE"/>
<stop offset="1" stop-color="#D8695E"/>
</linearGradient>
<clipPath id="clip0_6_2">
<rect width="163" height="37" fill="white"/>
</clipPath>
</defs>
</svg>
