<?xml version="1.0" encoding="UTF-8" standalone="no"?>
<svg
   width="100%"
   height="100%"
   viewBox="0 0 96.82 97.33"
   overflow="hidden"
   version="1.1"
   id="svg300"
   sodipodi:docname="designer.svg"
   inkscape:version="1.2.2 (732a01da63, 2022-12-09)"
   xmlns:inkscape="http://www.inkscape.org/namespaces/inkscape"
   xmlns:sodipodi="http://sodipodi.sourceforge.net/DTD/sodipodi-0.dtd"
   xmlns="http://www.w3.org/2000/svg"
   xmlns:svg="http://www.w3.org/2000/svg">
  <sodipodi:namedview
     id="namedview302"
     pagecolor="#ffffff"
     bordercolor="#000000"
     borderopacity="0.25"
     inkscape:showpageshadow="2"
     inkscape:pageopacity="0.0"
     inkscape:pagecheckerboard="0"
     inkscape:deskcolor="#d1d1d1"
     showgrid="false"
     inkscape:zoom="4.8494811"
     inkscape:cx="26.394576"
     inkscape:cy="55.16054"
     inkscape:window-width="1280"
     inkscape:window-height="945"
     inkscape:window-x="-9"
     inkscape:window-y="-9"
     inkscape:window-maximized="1"
     inkscape:current-layer="svg300" />
  <defs
     id="defs4">
    <style
       type="text/css"
       id="style2"><![CDATA[
        .rotate {
    transform-box: fill-box;
}
        .clockhand1 {
    transform-origin: 50% 97%;
    
    animation: hand1 30s linear infinite;
}
@keyframes hand1 {
    from{}
    to {transform: rotate(360deg);}
}

.clockhand2 {
    
    transform-origin: 96% 16%;
    animation: hand2 100s linear infinite;
}
@keyframes hand2 {
    from{}
    to {transform: rotate(360deg);}
}
.paper1 {
    transform-origin: center;
    animation: paper1 4s linear infinite backwards;
    transform: translateY(-45px);
    opacity: 0;
}
@keyframes paper1 {
    0%, 40% { transform: translateY(-45px);opacity: 0;}
    65%, 80% {transform: translateY(0);opacity: 1;}
    90%, 100% {transform: translateY(0);opacity: 0;}
}

.paper2 {
    transform-origin: center;
    animation: paper2 4s linear infinite backwards;
    transform: translateY(-45px);
    opacity: 0;
}
@keyframes paper2 {
    0%, 25% { transform: translateY(-45px);opacity: 0;}
    40%, 45% {transform: translateY(0);opacity: 1;}
    99%, 100% {transform: translateY(0);opacity: 0;}
}

.paper3 {
    transform-origin: center;
    animation: paper3 4s linear infinite backwards;
    transform: translateY(-40px);
    opacity: 0;
}
@keyframes paper3 {
    0%, 30% { transform: translateY(-40px);opacity: 0;}
    50%, 75% {transform: translateY(0);opacity: 1;}
    99%, 100% {transform: translateY(0);opacity: 0;}
}


.designerhand {
    transform-origin: bottom center;
    animation: desigernhand 2s linear infinite alternate;
}

@keyframes desigernhand {
    from {}
    to {transform: translateY(-7px);}
}


.pen{ 
    transform-origin: bottom;
    animation: pen 2s linear infinite alternate;
}
@keyframes pen {
    from {}
    to {transform: translateY(-1.7px);}
}

    ]]></style>
  </defs>
  <defs
     id="defs24">
    <clipPath
       id="a">
      <rect
         width="65.66"
         height="16.28"
         x="294.28"
         y="316.9"
         fill="#407bff"
         stroke="#263238"
         stroke-linecap="round"
         stroke-linejoin="round"
         rx="4.97"
         id="rect6" />
    </clipPath>
    <clipPath
       id="b">
      <path
         fill="#fff"
         stroke="#263238"
         stroke-linecap="round"
         stroke-linejoin="round"
         d="M273 251.42s-43 11.85-49.9 11-9-3.9-10.62-3.9-6 2.13-8 1.95-4.24-.71-4.24.53 1.77 3.19 2.83 3.19 5.31-.18 5.31-.18-8.32 2.48-8.68 4.07a2.83 2.83 0 002.31 3.36 5 5 0 012.3 1.07 12.32 12.32 0 001.77 3.89c1.06 1.24 4.24 1.77 7.78 1.06s9.74-3.89 11.15-4.78 44.42-4.78 47.61-5.48 7.08-.71 8.32-2.84-7.94-12.94-7.94-12.94z"
         id="path9" />
    </clipPath>
    <clipPath
       id="c">
      <path
         fill="#407bff"
         stroke="#263238"
         stroke-linecap="round"
         stroke-linejoin="round"
         d="M309.32 208.06s-3.89 10.61-8.84 17.69-7.08 14.52-3.9 22.48a16.29 16.29 0 0010.09 9.77s-2.48 23.36-1.77 29.56 10.26 13.45 24.6 14 26.72-4.6 26.72-9.56-10.08-31.32-10.08-36.81.88-22.65-3.9-38-21.59-20.46-32.92-9.13z"
         id="path12" />
    </clipPath>
    <clipPath
       id="d">
      <path
         fill="#407bff"
         stroke="#263238"
         stroke-linecap="round"
         stroke-linejoin="round"
         d="M308.26 210.71a38.16 38.16 0 00-7.43 6.19c-4.07 4.25-23.72 34-23.72 34s5.84 12.22 7.61 12.57 32.57-26 35.4-29.2 4.6-9 3.72-11.51"
         id="path15" />
    </clipPath>
    <clipPath
       id="e">
      <path
         fill="#fff"
         stroke="#263238"
         stroke-linecap="round"
         stroke-linejoin="round"
         d="M279.24 174.61s-.36 5.13.53 6.72 3.36 3.19 3.36 5.31-1.77 5-1.24 6.55 3.37 1.77 3.37 1.77 5.3 6.55 6.9 8.85 2.3 1.41 4.78.71 7.78-5.31 10.79-8.85-2-14.34-8.49-21.59-16.29-7.08-18.41-5-1.59 5.53-1.59 5.53z"
         id="path18" />
    </clipPath>
    <clipPath
       id="f">
      <path
         fill="#263238"
         stroke="#263238"
         stroke-linecap="round"
         stroke-linejoin="round"
         d="M273.75 166.82v.71l-.32 8.67 9.55 1.24 2.13-3.72v4.07a19.58 19.58 0 018.67 1.24c4.6 1.77 10.44 14.34 10.09 19.47s-4.78 6.19-4.25 14S312 228.05 321 223.1s10.45-11.33 14.16-10.09 9.38 8.85 12.92-1.95 1.95-17.69-6.37-26.54-14.86-8.14-15.93-15.22-3.36-16.64-11-22-18.58-5.66-28-1.59-13.03 16.51-13.03 21.11z"
         id="path21" />
    </clipPath>
  </defs>
  <g
     transform="translate(-17.36 -17.46) scale(.26458)"
     id="g290">
    <g
       fill="#50c7f1"
       id="g32">
      <path
         d="M408.9 258.53s0-4.18-5.86-10-9.61-9.2-9.61-9.2-2.93 9.61 2.5 15.47a103.36 103.36 0 0013 11.29zM400.4 284.65s0-4.18-5.85-10-9.62-9.2-9.62-9.2-2.93 9.55 2.51 15.44a102.85 102.85 0 0013 11.29z"
         id="path26" />
      <path
         d="M408.53 265.66s.44-4.16 6.88-9.37 10.59-8.13 10.59-8.13 1.89 9.88-4.13 15.12a102.49 102.49 0 01-14.08 9.86zM398.27 296.5s.87-4.09 7.82-8.59 11.34-7 11.34-7 .84 10-5.7 14.61a103.13 103.13 0 01-15 8.32zM400.2 330.13s0-4.18 5.85-10 9.62-9.2 9.62-9.2 2.93 9.62-2.51 15.48a103.63 103.63 0 01-13 11.29z"
         id="path28" />
      <path
         d="M400.1 338.34s.59-4.14-4.37-10.77-8.21-10.47-8.21-10.47-4.27 9.1.28 15.67a102.73 102.73 0 0011.23 13zM394.33 362.66s0-4.18 5.85-10 9.62-9.2 9.62-9.2 2.93 9.62-2.51 15.47a102.68 102.68 0 01-13 11.29zM398.23 384.72s-1.05-4.05 3.13-11.19 7-11.34 7-11.34 5.27 8.56 1.49 15.61a102.08 102.08 0 01-9.68 14.2z"
         id="path30" />
    </g>
    <g
       fill="none"
       stroke="#263238"
       stroke-linecap="round"
       stroke-linejoin="round"
       stroke-width=".5"
       id="g38">
      <path
         d="M409.43 257.46a119.48 119.48 0 01-1.6 13c-2.32 11.95-8.1 19.67-10.42 30.47s4.33 24.71 2.55 38.59-7.18 21.58-5.63 30.84 9.67 34.32 9.67 34.32M408.47 268.44l6.31-4.85M408.77 262.86l-2.64-4.7M397.76 300.42s5.28-4 10.71-7.92M400.4 292.18s-4.4-8.63-9.39-14.35M400.4 336.08A65.34 65.34 0 01411.7 321"
         id="path34" />
      <path
         d="M399.38 342a74.48 74.48 0 00-5.73-10.86 245.3 245.3 0 00-3.52-5.14M394.33 370.35a69.56 69.56 0 014.75-9.62 60.78 60.78 0 016.17-8.07M400.14 392a17.91 17.91 0 011.58-9.26c2.2-4.26 4.7-9.83 5.73-12"
         id="path36" />
    </g>
    <g
       fill="#50c7f1"
       id="g46">
      <path
         d="M370.56 314.4s-.45-2.62 2.58-6.93 5-6.81 5-6.81 2.88 5.71.11 10a64.71 64.71 0 01-6.9 8.49zM378.72 329.86s-.45-2.63 2.59-6.93 5-6.82 5-6.82 2.88 5.72.1 10a65.49 65.49 0 01-6.9 8.49z"
         id="path40" />
      <path
         d="M371.56 318.83s-.72-2.56-5.33-5.13-7.49-3.95-7.49-3.95-.11 6.4 4.23 9a65.51 65.51 0 009.91 4.66zM381.35 337.06s-1-2.47-5.84-4.54-7.87-3.15-7.87-3.15.56 6.38 5.16 8.54a65.06 65.06 0 0010.34 3.59zM383.79 358.35s-.45-2.62-4.76-5.66-7-4.72-7-4.72-.79 6.35 3.25 9.43a65.65 65.65 0 009.36 5.67z"
         id="path42" />
      <path
         d="M384.74 363.49s-.82-2.53 1.57-7.23 4-7.46 4-7.46 3.66 5.25 1.52 9.86a65.18 65.18 0 01-5.63 9.39zM392.09 384.64s.3-2.64 4.43-5.92 6.75-5.12 6.75-5.12 1.15 6.3-2.71 9.6a65.05 65.05 0 01-9 6.2zM391 378.12s-.45-2.62-4.76-5.66-7-4.73-7-4.73-.79 6.35 3.26 9.44a65.23 65.23 0 009.35 5.67zM391 392.37s.22-2.65-3.18-6.68-5.6-6.35-5.6-6.35-2.37 5.94.76 10a65.93 65.93 0 007.61 7.86z"
         id="path44" />
    </g>
    <g
       fill="none"
       stroke="#263238"
       stroke-linecap="round"
       stroke-linejoin="round"
       stroke-width=".5"
       id="g52">
      <path
         d="M370.11 313.79a75.18 75.18 0 002.42 8c2.75 7.24 7.21 11.45 9.84 18s0 16 2.58 24.48 6.85 12.75 6.89 18.73-2.32 22.57-2.32 22.57M371.9 320.56l-4.48-2.35M371.11 317.1l1.15-3.23M382.09 339.46s-3.74-1.91-7.58-3.81M379.54 334.58a53.36 53.36 0 014.33-10M384.31 362.11a41.62 41.62 0 00-8.73-8.25"
         id="path48" />
      <path
         d="M385.59 365.68a46.62 46.62 0 012.41-7.43c1.44-3.19 1.65-3.61 1.65-3.61M391.63 387.47a40.36 40.36 0 014.82-5 25.46 25.46 0 003.13-2.72M391.84 382.94a44.38 44.38 0 00-4-5.52 39.43 39.43 0 00-4.74-4.39M390.54 397.15a11.34 11.34 0 00-2-5.64c-1.84-2.43-4-5.66-4.89-6.92"
         id="path50" />
    </g>
    <path
       fill="#263238"
       d="M377.56 402.62h38.3v28.7a3 3 0 01-3 3H380.6a3 3 0 01-3-3v-28.7z"
       id="path54" />
    <path
       fill="#263238"
       d="M415.52 407.61h-38a3 3 0 01-3-3 3 3 0 013-3h38a3 3 0 013 3 3 3 0 01-3 3z"
       id="path56" />
    <circle
       cx="342.67"
       cy="106.67"
       r="34"
       fill="#263238"
       id="circle58" />
    <circle
       cx="342.67"
       cy="106.67"
       r="29.49"
       fill="#50c7f1"
       transform="rotate(-22.08 342.66 106.68)"
       id="circle60" />
    <path
       fill="#50c7f1"
       d="M140.37 258.67L91.5 127.51h37.33l48.87 131.16z"
       id="path62" />
    <path
       fill="#263238"
       d="M118.86 159.55h-9.6a3.45 3.45 0 01-3-2.17l-3.71-9.95a1.45 1.45 0 011.36-2.16h9.6a3.47 3.47 0 013 2.16l3.71 9.95c.44 1.2-.16 2.17-1.36 2.17zM93.97 134.14l-2.47-6.63h37.33l2.47 6.63z"
       id="path64" />
    <g
       fill="none"
       stroke="#263238"
       stroke-linecap="round"
       stroke-linejoin="round"
       id="g68">
      <path
         d="M106.73 135.23l1.07 2.88M108.17 135.23l1.07 2.88M109.6 135.23l1.08 2.88M111.04 135.23l1.07 2.88M112.48 135.23l1.07 2.88M113.92 135.23l1.07 2.88M115.36 135.23l1.07 2.88M116.8 135.23l1.07 2.88M118.23 135.23l1.08 2.88M119.67 135.23l1.07 2.88"
         id="path66" />
    </g>
    <path
       fill="#fff"
       d="M115.75 153.31l-9-5.73a.56.56 0 00-.6-.06.38.38 0 00-.09.51l4.14 8.93a.86.86 0 00.56.46h.14a.33.33 0 00.34-.23l1-2.94h3.6a.33.33 0 00.36-.34.79.79 0 00-.45-.6z"
       id="path70" />
    <path
       fill="#263238"
       d="M106.53 147.98l4.14 8.93 1.03-3.16 3.87-.04z"
       id="path72" />
    <g
       fill="#fff"
       id="g82">
      <path
         d="M123.42 147.98l4.15 8.93 1.02-3.16 3.87-.04zM136.28 156.95l-1.07 1.55 1.88.29zM158.12 215.57l-1.07 1.55 1.88.29zM164.82 233.56l-1.06 1.54 1.88.3zM171.69 252l-1.06 1.55 1.88.29zM133.2 194.8l-1.06 1.54 1.88.3zM140.94 215.57l-1.06 1.55 1.88.29zM147.65 233.56l-1.07 1.54 1.88.3zM154.52 252l-1.06 1.55 1.88.29zM117.32 179.54l4.32-9.01-1.57-1.02-4.32 9.02zM117.69 169.7c-2.29-1.78-2.45-2.14-1.89-4.16-1.18 1.62-1.53 1.65-4 .33 2.29 1.79 2.45 2.15 1.89 4.17 1.14-1.62 1.49-1.65 4-.34zM125.23 170.67c-1.41-1.1-1.51-1.32-1.17-2.57-.73 1-.94 1-2.49.21 1.41 1.1 1.51 1.32 1.16 2.57.73-1 .95-1.02 2.5-.21zM124.8 174.91c-1-.79-1.08-.94-.83-1.83-.52.71-.68.72-1.78.14 1 .79 1.07.95.83 1.84.52-.72.67-.73 1.78-.15zM148.43 215.57l4.32-9.02-.97-.69-4.32 9.02zM135.87 171.15l3.65 7.88.91-2.79 3.41-.04z"
         id="path74" />
      <path
         d="M137.84 176.67c-2.92 0-5.94-1.73-6.73-3.85s.95-3.82 3.89-3.82 5.94 1.73 6.73 3.84-.96 3.83-3.89 3.83zm-2.69-7.23c-2.67 0-4.27 1.52-3.58 3.38s3.43 3.38 6.1 3.38 4.28-1.51 3.58-3.38-3.43-3.38-6.1-3.38z"
         id="path76" />
      <path
         d="M134.33 175.9a2.09 2.09 0 01-1.79-1.31.88.88 0 01.82-1.31 2.09 2.09 0 011.79 1.31.88.88 0 01-.82 1.31zm-.8-2.15a.56.56 0 00-.53.84 1.34 1.34 0 001.16.85c.46 0 .7-.38.53-.85a1.36 1.36 0 00-1.16-.84z"
         id="path78" />
      <path
         d="M134.46 177.27l-.32-.44a1.26 1.26 0 00.93-1 1.82 1.82 0 00-.34-1.12l.38-.16a2.42 2.42 0 01.45 1.48 1.54 1.54 0 01-1.1 1.24zM123.89 186.22l-1.18 1.88 5.57 4.05 1.18-1.88zM120.54 195.52l.91.66 2-3.24a.67.67 0 01-.18-.77c.15-.25.56-.25.9 0a.75.75 0 01.34.9.57.57 0 01-.73.11l-2 3.24.85.62 5-1.41.31-3-5.49-4L120 190z"
         id="path80" />
    </g>
    <path
       fill="none"
       stroke="#263238"
       stroke-linecap="round"
       stroke-linejoin="round"
       d="M115.28 182.79h32.13"
       id="path84" />
    <g
       fill="#fff"
       id="g92">
      <path
         d="M142.04 188.1l5.57 4.05 1.18-1.88-5.57-4.05zM139.28 190l.59 5.51.91.66 2-3.24a.67.67 0 01-.18-.77c.15-.25.56-.25.9 0a.75.75 0 01.34.9.57.57 0 01-.73.11l-2 3.24.85.62 5-1.41.31-3-5.49-4z"
         id="path86" />
      <path
         d="M137.9 191.63c.06-.39.11-.81.15-1.28a3.34 3.34 0 00-.79-2.51 5.08 5.08 0 00-2.44-1.51c-.15 0-.27 0-.25.18a.41.41 0 00.3.32 4.44 4.44 0 012 1.23 2.78 2.78 0 01.63 2.07c0 .46-.1.88-.15 1.26-.27 2-.43 3.2 2.89 5.19a.32.32 0 00.18.06.18.18 0 00.17-.1.35.35 0 00-.19-.37c-2.87-1.73-2.76-2.55-2.5-4.54zM123.68 205l.2.52a20.65 20.65 0 001 2.35l.93-.23a15.44 15.44 0 01-.69-1.6h4l3.32 8.92h-1.49l.39 1h4l-.39-1h-1.48l-3.34-8.96H134l.69 1.88h1.05l-.89-2.4-.2-.52z"
         id="path88" />
      <path
         d="M144.56 229.72c.86 2.3-1 4.16-4.2 4.16s-6.44-1.86-7.29-4.16 1-4.15 4.2-4.15 6.44 1.86 7.29 4.15z"
         opacity=".44"
         id="path90" />
    </g>
    <path
       fill="none"
       stroke="#fff"
       stroke-miterlimit="10"
       d="M144.56 229.72c.86 2.3-1 4.16-4.2 4.16s-6.44-1.86-7.29-4.16 1-4.15 4.2-4.15 6.44 1.86 7.29 4.15z"
       id="path94" />
    <g
       fill="#fff"
       id="g100">
      <path
         d="M156.39 229.84l3.77-6.85a.7.7 0 011-.14 1.13 1.13 0 01.69 1.13l-2 7.57z"
         id="path96" />
      <path
         d="M155.77 230.42c1.48-.2 4.38 1.07 4.46 3a1.19 1.19 0 01-.67 1 8.49 8.49 0 01-4.22.72 1.18 1.18 0 00.41-1.26 15.72 15.72 0 00-.69-1.62c-.27-.77-.13-1.8.71-1.86M147.92 245.45a5.33 5.33 0 00-1.36-1.87l-1.14 1.81a6 6 0 011.57 2.12 16.21 16.21 0 001.14 2.09l1.11-1.78a15.72 15.72 0 01-1.32-2.37zM146.61 247.54a5.53 5.53 0 00-1.37-1.87l-1.14 1.82a6.09 6.09 0 011.58 2.12 15.88 15.88 0 001.13 2.09l1.12-1.78a14.3 14.3 0 01-1.32-2.38zM148.31 245.42a15.88 15.88 0 001.13 2.09l1.64-2.62-3.67-2.68-.68 1.08a6.25 6.25 0 011.58 2.13zM145.29 249.64a5.33 5.33 0 00-1.36-1.87l-1 1.52.17 3.45a.45.45 0 00.53.39l2.92-1.15a15.48 15.48 0 01-1.26-2.34zM144 252l-.09-1.84 1.67 1.22zM159.7 247.08l-1.25 2 6.46 4.71 1.25-2 .39.29 3-4.71-7.25-5.28-2.95 4.71zm4.78 5.57l-4.89-3.57.89-1.43 4.9 3.57zM98.95 129.9l-.9 1.1 1.72 1.1.23.64-2.7-1.74 1.41-1.73zM96.69 129.9l-.9 1.1 1.72 1.1.24.64-2.71-1.74 1.41-1.73z"
         id="path98" />
    </g>
    <path
       fill="#263238"
       d="M172.79 206.17l-23.6-65.84h77.21l23.6 65.84z"
       id="path102" />
    <path
       fill="#50c7f1"
       d="M175.69 202.58l-21.02-58.65h68.83l21.02 58.65z"
       id="path104" />
    <path
       fill="#fff"
       d="M220.05 157.69l-8.99 23.34-23.31-6.58-12.06 28.13h68.83l-13.09-36.51zM184 156.49c-1.6-4.46-6.51-8.08-11-8.08s-6.78 3.62-5.18 8.08 6.51 8.08 11 8.08 6.79-3.57 5.18-8.08z"
       id="path106" />
    <path
       fill="#263238"
       d="M180.79 194.84L157.19 129h77.21l23.6 65.84z"
       id="path108" />
    <path
       fill="#50c7f1"
       d="M183.69 191.25l-21.02-58.66h68.83l21.02 58.66z"
       id="path110" />
    <path
       fill="#fff"
       d="M228.05 146.36l-8.99 23.34-23.31-6.58-12.06 28.13h68.83l-13.09-36.51zM192 145.16c-1.6-4.46-6.51-8.08-11-8.08s-6.78 3.62-5.18 8.08 6.51 8.08 11 8.08 6.79-3.62 5.18-8.08z"
       id="path112" />
    <path
       d="M258.35 118.67l1.85 4.5h-.53a8.59 8.59 0 00-1.05-1.7 4.91 4.91 0 00-1.61-1.21 5 5 0 00-2.06-.39h-2.71l5.37 14.67a5.56 5.56 0 001.19 2.21 2.91 2.91 0 001.87.6h.67l.19.52h-8.14l-.19-.52h.68c.81 0 1.29-.25 1.45-.74a4.34 4.34 0 00-.44-2.07l-5.37-14.67h-2.3a5.72 5.72 0 00-1.84.2 1.55 1.55 0 00-.88 1 3.59 3.59 0 00.13 2.06h-.54l-1.42-4.5z"
       id="path114" />
    <path
       fill="none"
       stroke="#263238"
       stroke-miterlimit="10"
       stroke-width=".5"
       d="M270.04 127.72h5.87M246.16 143.28l-10.95-29.94h29.56l10.95 29.94z"
       id="path116" />
    <g
       fill="#fff"
       stroke="#263238"
       stroke-miterlimit="10"
       stroke-width=".5"
       id="g120">
      <path
         d="M239.73 128.82l-.81-2.21h2.22l.81 2.21zM269.33 128.82l-.81-2.21h2.22l.81 2.21zM234.54 114.61l-.81-2.21h2.21l.81 2.21zM264.14 114.61l-.81-2.21h2.21l.81 2.21zM249.35 114.61l-.81-2.21h2.21l.81 2.21zM245.36 144.21l-.81-2.21h2.22l.81 2.21zM274.96 144.21l-.81-2.21h2.22l.81 2.21z"
         id="path118" />
    </g>
    <path
       fill="none"
       stroke="#263238"
       stroke-miterlimit="10"
       stroke-width=".5"
       d="M261.11 143.81l2.15 5.88"
       id="path122" />
    <path
       fill="#fff"
       stroke="#263238"
       stroke-miterlimit="10"
       stroke-width=".5"
       d="M260.17 144.21l-.81-2.21h2.22l.81 2.21z"
       id="path124" />
    <path
       fill="#263238"
       d="M262.58 150.8l-.81-2.22h2.22l.81 2.22z"
       id="path126" />
    <path
       fill="none"
       stroke="#263238"
       stroke-miterlimit="10"
       stroke-width=".5"
       d="M244.39 137.67h24.83"
       id="path128" />
    <path
       fill="#263238"
       d="M277.08 127.72a1.85 1.85 0 00-1.59-1.17.79.79 0 00-.74 1.17 1.84 1.84 0 001.59 1.16.78.78 0 00.74-1.16z"
       id="path130" />
    <path
       d="M166.82 309.45l-25.53 124.91h1.73l28.4-122.62 26.02 21.82-36.74 100.65 2.3-.38 38.65-97.97 107.54 97.97h65.44l-76.54-150.02-158.06 2.68z"
       opacity=".2"
       id="path132" />
    <g
       stroke="#263238"
       stroke-linecap="round"
       stroke-linejoin="round"
       id="g138">
      <path
         fill="#263238"
         d="M141.29 434.36l-2.59-150.01h6.91l-2.59 150.01zM290.15 434.36l-2.59-150.01h6.91l-2.59 150.01z"
         id="path134" />
      <path
         fill="#fff"
         d="M136.06 282.03h166.36v3.89H136.06z"
         id="path136" />
    </g>
    <g
       stroke="#263238"
       stroke-linecap="round"
       stroke-linejoin="round"
       id="g182">
      <path
         fill="#fff"
         d="M98.5 362.57l-3 6.38s3.7 4 5.38 4 2.35-1.68 4.37-2.36 5.37-7.05 5.37-7.05-2-3.36-4-3.7-5-1.34-6.72-1.68-1.4 4.41-1.4 4.41z"
         id="path140" />
      <path
         fill="none"
         d="M98.5 362.57l2 3.36v3s2 1 2.69 0 3.7-4.37 3.7-4.37l-1.35-3M100.51 368.95l-3.69-.67"
         id="path142" />
      <path
         fill="#fff"
         d="M156.4 423l-6.79 2s-.59 5.44.52 6.7 2.82.66 4.65 1.73 8.85-.63 8.85-.63 1.2-3.73.12-5.46-2.32-4.68-3.18-6.16-4.17 1.82-4.17 1.82z"
         id="path144" />
      <path
         fill="none"
         d="M156.4 423l-1.19 3.74-2.27 2s.57 2.18 1.77 2 5.73-.11 5.73-.11l1.38-3M152.94 428.75l-1.94-3.22"
         id="path146" />
      <g
         class="paper3 rotate"
         id="g152">
        <path
           fill="#fff"
           d="M87.74 361.22s-5.71 3.7-4.7 5.72 1.68 3.36 2.69 4 4 1.68 5 1 3.36-2.35 3.69-5 1.35-3 .34-4.37-7.02-1.35-7.02-1.35z"
           id="path148" />
        <path
           fill="none"
           d="M83 366.94l4 2.69 3.36-.34 1.34-3.7a2 2 0 00-2-2 4.45 4.45 0 00-3 1l.68 2"
           id="path150" />
      </g>
      <g
         class="paper2 rotate"
         id="g160">
        <path
           fill="#fff"
           d="M112.61 356.52s-5 4.7-4.37 8.06 7.06 6.05 7.06 6.05l7.73-4.36-2.36-6-5-2.69z"
           id="path154" />
        <path
           fill="none"
           d="M108.24 364.58l5.38 2.02 6.05-2.02-2.36-5.37"
           id="path156" />
        <path
           fill="none"
           d="M112.61 356.52l-.34 7.06 4.04 1.34"
           id="path158" />
      </g>
      <path
         fill="#fff"
         d="M127.73 419.69s-5 4.71-4.37 8.07 7.06 6.05 7.06 6.05l7.73-4.37-2.35-6.05-5.05-2.69z"
         id="path162" />
      <path
         fill="none"
         d="M123.36 427.76l5.38 2.01 6.05-2.01-2.35-5.38"
         id="path164" />
      <path
         fill="none"
         d="M127.73 419.69l-.34 7.06 4.04 1.35"
         id="path166" />
      <g
         class="paper1 rotate"
         id="g174">
        <path
           fill="#fff"
           d="M94.13 351.48s-5 4.7-4.37 8.06 7.06 6 7.06 6l7.72-4.37-2.35-6-5-2.69z"
           id="path168" />
        <path
           fill="none"
           d="M89.76 359.54l5.38 2.02 6.04-2.02-2.35-5.37"
           id="path170" />
        <path
           fill="none"
           d="M94.13 351.48l-.34 7.06 4.03 1.34"
           id="path172" />
      </g>
      <path
         fill="#263238"
         d="M82.44 434.36l-5.98-66.11h51.84l-5.98 66.11z"
         id="path176" />
      <path
         fill="#fff"
         d="M95.81 423.39s-5.72 3.7-4.71 5.71 1.68 3.36 2.69 4 4 1.68 5 1 3.36-2.35 3.7-5 1.34-3 .33-4.37-7.01-1.34-7.01-1.34z"
         id="path178" />
      <path
         fill="none"
         d="M91.1 429.1l4 2.69 3.36-.33 1.34-3.7a2 2 0 00-2-2 4.41 4.41 0 00-3 1l.67 2"
         id="path180" />
    </g>
    <g
       fill="gray"
       stroke="#263238"
       stroke-linecap="round"
       stroke-linejoin="round"
       id="g186">
      <path
         d="M201.54 236.32a2.24 2.24 0 11-2.21-1.89 2.07 2.07 0 012.21 1.89zM203.67 242.08a2.24 2.24 0 11-2.21-1.89 2.07 2.07 0 012.21 1.89zM205.79 247.84a2.24 2.24 0 11-2.21-1.89 2.07 2.07 0 012.21 1.89zM207.92 253.6a2.24 2.24 0 11-2.22-1.89 2.08 2.08 0 012.22 1.89z"
         id="path184" />
    </g>
    <g
       stroke="#263238"
       stroke-linecap="round"
       stroke-linejoin="round"
       id="g210">
      <path
         fill="#263238"
         d="M162.82 281.66l-2.28-25.11h19.7l-2.28 25.11z"
         id="path188" />
      <path
         fill="#50c7f1"
         d="M179.49 264.81l-17.4 8.86.73 7.99h8.1l7.86-9.03zM158.79 253.55h23.2v5.46h-23.2z"
         id="path190" />
      <path
         fill="#263238"
         d="M222.78 282h-27.25a3.46 3.46 0 110-6.91h27.25a3.46 3.46 0 110 6.91z"
         id="path192" />
      <path
         fill="#263238"
         d="M211.37 282.03l-20.01-54.46h83.89l20.01 54.46z"
         id="path194" />
      <path
         fill="#50c7f1"
         d="M218.3 276.37l-17.08-46.5h71.63l17.09 46.5z"
         id="path196" />
    </g>
    <g
       fill="#fff"
       stroke="#263238"
       stroke-linecap="round"
       stroke-linejoin="round"
       id="g216">
      <path
         d="M298 408.04h60.17v2.83H298z"
         id="path212" />
      <path
         d="M303.48 332.12L293 432.78a.81.81 0 00.81.89.81.81 0 00.8-.69l15.65-100.86zM351.62 332.12l10.53 100.66a.8.8 0 01-.8.89.8.8 0 01-.8-.69L344.9 332.12zM332.51 332.12l.49 100.74a.82.82 0 01-.81.81.8.8 0 01-.8-.77l-5.63-100.78z"
         id="path214" />
    </g>
    <rect
       width="65.66"
       height="16.28"
       x="294.28"
       y="316.9"
       fill="#0984e3"
       rx="4.97"
       id="rect218" />
    <g
       clip-path="url(#a)"
       id="g222">
      <path
         d="M355 316.9h-54.48l-1.62 3.4s50.28.88 50.28 3.78.87 6.69-9 6.69c-8 0-34.85.38-44.79.52a5 5 0 001.44 1.23l2.92.66H355a5 5 0 005-5v-6.34a5 5 0 00-5-4.94z"
         opacity=".2"
         id="path220" />
    </g>
    <g
       stroke="#263238"
       stroke-linecap="round"
       stroke-linejoin="round"
       id="g234">
      <rect
         width="65.66"
         height="16.28"
         x="294.28"
         y="316.9"
         fill="none"
         rx="4.97"
         id="rect224" />
      <g
         class="designerhand"
         id="g232" />
    </g>
    <g
       clip-path="url(#b)"
       id="g242" />
    <g
       clip-path="url(#c)"
       id="g250" />
    <g
       fill="none"
       stroke="#263238"
       stroke-linecap="round"
       stroke-linejoin="round"
       id="g254" />
    <g
       clip-path="url(#d)"
       id="g260" />
    <g
       clip-path="url(#e)"
       id="g274" />
    <g
       clip-path="url(#f)"
       id="g284" />
    <path
       fill="none"
       stroke="#263238"
       stroke-miterlimit="10"
       d="M67.23 434.36h365.94"
       id="path288" />
  </g>
  <path
     fill="#263238"
     fill-rule="evenodd"
     d="M73.04 3.68h.52v7.3h-.52z"
     class="clockhand1 rotate"
     id="path292" />
  <g
     id="g298">
    <path
       fill="#263238"
       fill-rule="evenodd"
       d="M73.4 10.43l.16.55-5.24 1.5-.15-.55z"
       class="clockhand2 rotate"
       id="path296" />
  </g>
</svg>
