<svg width="100%" height="100%" viewBox="0 0 97 98" fill="none" xmlns="http://www.w3.org/2000/svg">
<mask id="mask0_10_2" style="mask-type:luminance" maskUnits="userSpaceOnUse" x="0" y="0" width="97" height="98">
<path d="M96.82 0H0V97.33H96.82V0Z" fill="white"/>
</mask>
<g mask="url(#mask0_10_2)">
<path d="M90.8268 50.9419C90.8268 50.9419 90.8268 49.8359 89.2763 48.2961C87.7259 46.7562 86.7337 45.8619 86.7337 45.8619C86.7337 45.8619 85.9585 48.4046 87.3952 49.955C88.4566 51.0446 89.6071 52.0438 90.8347 52.9421L90.8268 50.9419ZM88.5778 57.8527C88.5778 57.8527 88.5778 56.7468 87.03 55.2069C85.4822 53.667 84.4848 52.7728 84.4848 52.7728C84.4848 52.7728 83.7096 55.2995 85.1489 56.8579C86.2099 57.948 87.3604 58.9472 88.5884 59.845L88.5778 57.8527Z" fill="#50C7F1"/>
<path d="M90.7289 52.8283C90.7289 52.8283 90.8453 51.7277 92.5492 50.3492C94.2531 48.9708 95.3511 48.1982 95.3511 48.1982C95.3511 48.1982 95.8512 50.8122 94.2584 52.1986C93.0919 53.171 91.8457 54.0437 90.5331 54.8074L90.7289 52.8283ZM88.0143 60.988C88.0143 60.988 88.2445 59.9058 90.0833 58.7152C91.9221 57.5246 93.0836 56.8632 93.0836 56.8632C93.0836 56.8632 93.3059 59.509 91.5755 60.7287C90.3161 61.5714 88.9886 62.3077 87.6068 62.93L88.0143 60.988ZM88.5249 69.8858C88.5249 69.8858 88.5249 68.7799 90.0727 67.24C91.6205 65.7001 92.618 64.8059 92.618 64.8059C92.618 64.8059 93.3932 67.3511 91.9539 68.9016C90.8922 69.991 89.7417 70.9901 88.5143 71.8887L88.5249 69.8858Z" fill="#50C7F1"/>
<path d="M88.4985 72.058C88.4985 72.058 88.6546 70.9626 87.3422 69.2085C86.0299 67.4543 85.17 66.4383 85.17 66.4383C85.17 66.4383 84.0403 68.846 85.2441 70.5843C86.1368 71.8117 87.1307 72.9623 88.2154 74.0238L88.4985 72.058ZM86.9718 78.4926C86.9718 78.4926 86.9718 77.3866 88.5196 75.8468C90.0674 74.3069 91.0649 73.4126 91.0649 73.4126C91.0649 73.4126 91.8401 75.9579 90.4008 77.5057C89.3399 78.5959 88.1894 79.5952 86.9613 80.4928L86.9718 78.4926ZM88.0037 84.3292C88.0037 84.3292 87.7259 83.2577 88.8318 81.3686C89.9378 79.4795 90.6839 78.3682 90.6839 78.3682C90.6839 78.3682 92.0782 80.633 91.0781 82.4983C90.3315 83.8204 89.4748 85.0772 88.517 86.2554L88.0037 84.3292Z" fill="#50C7F1"/>
<path d="M90.967 50.6588C90.8889 51.8121 90.7476 52.9604 90.5437 54.0983C89.9298 57.26 88.4006 59.3026 87.7867 62.16C87.1729 65.0175 88.9324 68.6978 88.4614 72.3702C87.9905 76.0426 86.5617 78.0798 86.9718 80.5298C87.3819 82.9798 89.5303 89.6102 89.5303 89.6102M90.713 53.5638L92.3825 52.2806M90.7924 52.0875L90.0939 50.844M87.8793 62.0251C87.8793 62.0251 89.2763 60.9668 90.713 59.9296M88.5778 59.845C88.5778 59.845 87.4137 57.5616 86.0934 56.0482M88.5778 71.46C89.3764 69.9926 90.3835 68.6487 91.5676 67.4702" stroke="#263238" stroke-width="0.13229" stroke-linecap="round" stroke-linejoin="round"/>
<path d="M88.308 73.0263C87.8826 72.0285 87.3755 71.0674 86.7919 70.153C86.4872 69.6958 86.1768 69.2424 85.8606 68.7931M86.9718 80.5272C87.3246 79.6477 87.7448 78.7967 88.2286 77.9819C88.7122 77.2259 89.2583 76.5117 89.861 75.8468M88.509 86.2553C88.4279 85.416 88.5722 84.5703 88.9271 83.8053C89.5092 82.6782 90.1706 81.2045 90.4431 80.6304" stroke="#263238" stroke-width="0.13229" stroke-linecap="round" stroke-linejoin="round"/>
<path d="M80.6828 65.7239C80.6828 65.7239 80.5637 65.0308 81.3654 63.8904C82.1671 62.7501 82.6883 62.0886 82.6883 62.0886C82.6883 62.0886 83.4503 63.5994 82.7174 64.7344C82.1733 65.5334 81.5626 66.2848 80.8918 66.9807L80.6828 65.7239ZM82.8417 69.8144C82.8417 69.8144 82.7227 69.1185 83.527 67.9808C84.3313 66.8431 84.8499 66.1764 84.8499 66.1764C84.8499 66.1764 85.6119 67.6898 84.8764 68.8222C84.3315 69.6205 83.7209 70.3719 83.0508 71.0685L82.8417 69.8144Z" fill="#50C7F1"/>
<path d="M80.9473 66.896C80.9473 66.896 80.7568 66.2187 79.5371 65.5387C78.3174 64.8588 77.5554 64.4937 77.5554 64.4937C77.5554 64.4937 77.5263 66.187 78.6746 66.8749C79.5127 67.3583 80.3897 67.7707 81.2966 68.1078L80.9473 66.896ZM83.5376 71.7193C83.5376 71.7193 83.273 71.0658 81.9924 70.5181C80.7119 69.9705 79.9102 69.6847 79.9102 69.6847C79.9102 69.6847 80.0584 71.3727 81.2754 71.9442C82.159 72.3371 83.0742 72.6549 84.0112 72.8941L83.5376 71.7193ZM84.1832 77.3522C84.1832 77.3522 84.0641 76.659 82.9238 75.8547C81.7834 75.0504 81.0717 74.6059 81.0717 74.6059C81.0717 74.6059 80.8627 76.286 81.9316 77.1009C82.7139 77.669 83.5423 78.1708 84.4081 78.6011L84.1832 77.3522Z" fill="#50C7F1"/>
<path d="M84.4345 78.7122C84.4345 78.7122 84.2176 78.0428 84.8499 76.7993C85.4823 75.5557 85.9082 74.8255 85.9082 74.8255C85.9082 74.8255 86.8766 76.2145 86.3104 77.4343C85.8844 78.3027 85.3861 79.1338 84.8208 79.9187L84.4345 78.7122ZM86.3792 84.3081C86.3792 84.3081 86.4585 83.6096 87.5513 82.7417C88.644 81.8739 89.3372 81.3871 89.3372 81.3871C89.3372 81.3871 89.6414 83.0539 88.6202 83.9271C87.8738 84.5397 87.0773 85.0884 86.2389 85.5675L86.3792 84.3081ZM86.0908 82.583C86.0908 82.583 85.9717 81.8898 84.8314 81.0855C83.691 80.2811 82.9793 79.834 82.9793 79.834C82.9793 79.834 82.7703 81.5141 83.8419 82.3316C84.623 82.9001 85.4505 83.4019 86.3157 83.8318L86.0908 82.583ZM86.0908 86.3533C86.0908 86.3533 86.149 85.6521 85.2494 84.5859C84.3499 83.5196 83.7678 82.9058 83.7678 82.9058C83.7678 82.9058 83.1407 84.4774 83.9689 85.5516C84.5812 86.2994 85.2547 86.995 85.9823 87.6312L86.0908 86.3533Z" fill="#50C7F1"/>
<path d="M80.5637 65.5626C80.7377 66.2794 80.9515 66.9861 81.204 67.6792C81.9316 69.5948 83.1116 70.7086 83.8075 72.4416C84.5033 74.1746 83.8075 76.6749 84.4901 78.9186C85.1727 81.1622 86.3024 82.292 86.313 83.8741C86.3236 85.4563 85.6992 89.8457 85.6992 89.8457M81.0373 67.3538L79.852 66.732M80.8283 66.4383L81.1326 65.5837M83.7334 72.3543C83.7334 72.3543 82.7438 71.849 81.7279 71.3463M83.0587 71.0632C83.3493 70.1445 83.7332 69.2579 84.2043 68.4174M84.3207 78.3471C83.6604 77.5116 82.8824 76.7764 82.011 76.1643" stroke="#263238" stroke-width="0.13229" stroke-linecap="round" stroke-linejoin="round"/>
<path d="M84.6594 79.2916C84.8166 78.6197 85.0299 77.9621 85.2971 77.3258C85.678 76.4818 85.7336 76.3707 85.7336 76.3707M86.2575 85.0568C86.6438 84.58 87.0704 84.1374 87.5328 83.7339C87.8279 83.517 88.1049 83.2763 88.3609 83.0143M86.313 83.8583C85.9982 83.345 85.6444 82.8568 85.2547 82.3978C84.8692 81.977 84.4497 81.5885 84.0006 81.2363M85.9691 87.618C85.9295 87.0821 85.7467 86.5668 85.4399 86.1257C84.9531 85.4828 84.3816 84.6282 84.1461 84.2948" stroke="#263238" stroke-width="0.13229" stroke-linecap="round" stroke-linejoin="round"/>
<path d="M82.5348 89.0652H92.6682V96.6586C92.6682 96.8691 92.5846 97.071 92.4358 97.2199C92.2869 97.3687 92.085 97.4524 91.8745 97.4524H83.3391C83.1286 97.4524 82.9267 97.3687 82.7779 97.2199C82.629 97.071 82.5454 96.8691 82.5454 96.6586V89.0652H82.5348Z" fill="#263238"/>
<path d="M92.5783 90.3855H82.5242C82.3137 90.3855 82.1118 90.3018 81.963 90.153C81.8141 90.0041 81.7305 89.8022 81.7305 89.5917C81.7305 89.3812 81.8141 89.1793 81.963 89.0305C82.1118 88.8816 82.3137 88.798 82.5242 88.798H92.5783C92.7888 88.798 92.9907 88.8816 93.1395 89.0305C93.2884 89.1793 93.372 89.3812 93.372 89.5917C93.372 89.8022 93.2884 90.0041 93.1395 90.153C92.9907 90.3018 92.7888 90.3855 92.5783 90.3855Z" fill="#263238"/>
<path d="M73.3036 19.7585C78.2718 19.7585 82.2994 15.7309 82.2994 10.7627C82.2994 5.79455 78.2718 1.76703 73.3036 1.76703C68.3354 1.76703 64.3079 5.79455 64.3079 10.7627C64.3079 15.7309 68.3354 19.7585 73.3036 19.7585Z" fill="#263238"/>
<path d="M76.2354 17.9922C80.2286 16.3724 82.1525 11.8221 80.5327 7.82897C78.9129 3.83582 74.3626 1.91187 70.3695 3.53169C66.3764 5.15152 64.4524 9.70173 66.0722 13.6949C67.692 17.6881 72.2423 19.612 76.2354 17.9922Z" fill="#50C7F1"/>
<path d="M19.7791 50.9789L6.84908 16.2766H16.7258L29.6559 50.9789H19.7791Z" fill="#50C7F1"/>
<path d="M14.088 24.7538H11.548C11.3748 24.7434 11.2082 24.6839 11.0676 24.5822C10.927 24.4805 10.8183 24.3409 10.7543 24.1796L9.77269 21.547C9.73863 21.4868 9.72152 21.4184 9.72317 21.3492C9.72481 21.28 9.74516 21.2125 9.78205 21.1539C9.81893 21.0953 9.87098 21.0478 9.93268 21.0164C9.99439 20.985 10.0634 20.9709 10.1325 20.9756H12.6725C12.8452 20.9863 13.0114 21.0457 13.1518 21.1468C13.2922 21.2479 13.4012 21.3867 13.4662 21.547L14.4478 24.1796C14.5642 24.4971 14.4055 24.7538 14.088 24.7538ZM7.50259 18.0308L6.84908 16.2766H16.7258L17.3794 18.0308H7.50259Z" fill="#263238"/>
<path d="M10.8786 18.3192L11.1617 19.0811M11.2596 18.3192L11.5427 19.0811M11.638 18.3192L11.9237 19.0811M12.019 18.3192L12.3021 19.0811M12.4 18.3192L12.6831 19.0811M12.781 18.3192L13.0641 19.0811M13.162 18.3192L13.4451 19.0811M13.543 18.3192L13.8261 19.0811M13.9213 18.3192L14.207 19.0811M14.3023 18.3192L14.5854 19.0811" stroke="#263238" stroke-width="0.26458" stroke-linecap="round" stroke-linejoin="round"/>
<path d="M13.2651 23.1028L10.8839 21.5867C10.8617 21.5692 10.835 21.5584 10.8069 21.5556C10.7787 21.5528 10.7504 21.5581 10.7252 21.5709C10.7049 21.5862 10.6911 21.6086 10.6867 21.6336C10.6823 21.6587 10.6875 21.6845 10.7014 21.7058L11.7967 24.0685C11.8111 24.0983 11.8318 24.1247 11.8574 24.1457C11.883 24.1667 11.9128 24.1819 11.9449 24.1902H11.9819C12.0016 24.1917 12.0212 24.1865 12.0375 24.1755C12.0539 24.1644 12.066 24.1482 12.0719 24.1294L12.3365 23.3515H13.289C13.3013 23.3526 13.3137 23.3511 13.3255 23.3471C13.3372 23.343 13.3479 23.3365 13.3569 23.328C13.3659 23.3195 13.373 23.3092 13.3777 23.2977C13.3824 23.2862 13.3846 23.2739 13.3842 23.2615C13.3791 23.2273 13.3655 23.1948 13.3447 23.1671C13.3239 23.1394 13.2966 23.1173 13.2651 23.1028Z" fill="white"/>
<path d="M10.8257 21.6926L11.9211 24.0553L12.1936 23.2192L13.2175 23.2086L10.8257 21.6926Z" fill="#263238"/>
<path d="M15.2945 21.6926L16.3925 24.0553L16.6623 23.2192L17.6863 23.2086L15.2945 21.6926ZM18.697 24.0658L18.4139 24.4759L18.9113 24.5527L18.697 24.0658ZM24.4754 39.5755L24.1923 39.9856L24.6897 40.0624L24.4754 39.5755ZM26.2481 44.3353L25.9676 44.7428L26.465 44.8221L26.2481 44.3353ZM28.0657 49.2142L27.7853 49.6243L28.2827 49.701L28.0657 49.2142ZM17.8821 34.0802L17.6016 34.4877L18.099 34.567L17.8821 34.0802ZM19.9299 39.5755L19.6495 39.9856L20.1469 40.0624L19.9299 39.5755ZM21.7052 44.3353L21.4221 44.7428L21.9196 44.8221L21.7052 44.3353ZM23.5229 49.2142L23.2424 49.6243L23.7399 49.701L23.5229 49.2142ZM13.6805 30.0427L14.8235 27.6588L14.4081 27.389L13.2651 29.7755L13.6805 30.0427ZM13.7784 27.4392C13.1725 26.9683 13.1302 26.873 13.2784 26.3386C12.9662 26.7672 12.8736 26.7751 12.22 26.4259C12.8259 26.8995 12.8683 26.9947 12.7201 27.5292C13.0217 27.1006 13.1143 27.0926 13.7784 27.4392ZM15.7734 27.6959C15.4003 27.4048 15.3738 27.3466 15.4638 27.0159C15.2707 27.2805 15.2151 27.2805 14.805 27.0715C15.1781 27.3625 15.2045 27.4207 15.1119 27.7514C15.305 27.4869 15.3633 27.4816 15.7734 27.6959ZM15.6596 28.8177C15.395 28.6087 15.3738 28.569 15.44 28.3335C15.3024 28.5214 15.2601 28.524 14.969 28.3706C15.2336 28.5796 15.2521 28.6219 15.1886 28.8574C15.3262 28.6669 15.3659 28.6643 15.6596 28.8177ZM21.9116 39.5755L23.0546 37.189L22.798 37.0065L21.655 39.393L21.9116 39.5755ZM18.5885 27.8229L19.5542 29.9078L19.795 29.1696L20.6972 29.159L18.5885 27.8229Z" fill="white"/>
<path d="M19.1097 29.2834C18.3371 29.2834 17.5381 28.8256 17.3291 28.2647C17.1201 27.7038 17.5804 27.254 18.3583 27.254C19.1362 27.254 19.9299 27.7118 20.1389 28.27C20.3479 28.8283 19.8849 29.2834 19.1097 29.2834ZM18.398 27.3704C17.6916 27.3704 17.2682 27.7726 17.4508 28.2647C17.6333 28.7568 18.3583 29.159 19.0647 29.159C19.7712 29.159 20.1971 28.7595 20.0119 28.2647C19.8267 27.77 19.1044 27.3704 18.398 27.3704Z" fill="white"/>
<path d="M18.181 29.0796C18.0775 29.0721 17.9782 29.0356 17.8945 28.9744C17.8107 28.9131 17.7459 28.8294 17.7074 28.733C17.6869 28.6966 17.6766 28.6552 17.6776 28.6134C17.6785 28.5716 17.6908 28.5308 17.713 28.4953C17.7352 28.4598 17.7665 28.431 17.8037 28.4119C17.8409 28.3927 17.8826 28.3839 17.9244 28.3864C18.0279 28.3939 18.1272 28.4304 18.211 28.4917C18.2947 28.553 18.3595 28.6366 18.398 28.733C18.4185 28.7695 18.4288 28.8108 18.4279 28.8527C18.4269 28.8945 18.4146 28.9353 18.3924 28.9708C18.3702 29.0062 18.3389 29.0351 18.3017 29.0542C18.2645 29.0734 18.2228 29.0822 18.181 29.0796ZM17.9694 28.5108C17.9424 28.5086 17.9153 28.5138 17.891 28.5259C17.8668 28.538 17.8463 28.5565 17.8319 28.5794C17.8174 28.6023 17.8095 28.6287 17.809 28.6558C17.8085 28.6829 17.8155 28.7096 17.8291 28.733C17.8536 28.7958 17.8955 28.8503 17.9499 28.8901C18.0042 28.93 18.0688 28.9535 18.1361 28.9579C18.2578 28.9579 18.3213 28.8574 18.2763 28.733C18.2509 28.6711 18.2087 28.6175 18.1544 28.5782C18.1002 28.539 18.0361 28.5156 17.9694 28.5108Z" fill="white"/>
<path d="M18.2154 29.4421L18.1308 29.3257C18.1929 29.3099 18.2491 29.2766 18.2927 29.2297C18.3364 29.1827 18.3656 29.1242 18.3768 29.0611C18.3803 28.9551 18.3487 28.851 18.2869 28.7648L18.3874 28.7225C18.4689 28.8365 18.5107 28.974 18.5065 29.1141C18.4943 29.1908 18.4604 29.2625 18.4089 29.3206C18.3573 29.3787 18.2902 29.4209 18.2154 29.4421ZM15.4188 31.8101L15.1066 32.3075L16.5803 33.3791L16.8925 32.8817L15.4188 31.8101ZM14.5325 34.2707L14.7732 34.4453L15.3024 33.5881C15.2739 33.5636 15.2539 33.5306 15.2453 33.494C15.2368 33.4574 15.2401 33.419 15.2548 33.3844C15.2945 33.3182 15.4029 33.3182 15.4929 33.3844C15.5334 33.4072 15.5646 33.4436 15.5811 33.4871C15.5975 33.5306 15.5982 33.5786 15.5829 33.6225C15.5594 33.6495 15.527 33.6672 15.4916 33.6725C15.4563 33.6779 15.4201 33.6704 15.3897 33.6516L14.8606 34.5088L15.0854 34.6729L16.4083 34.2998L16.4904 33.5061L15.0378 32.4478L14.3896 32.8102L14.5325 34.2707Z" fill="white"/>
<path d="M13.1408 30.9026H21.6417" stroke="#263238" stroke-width="0.26458" stroke-linecap="round" stroke-linejoin="round"/>
<path d="M20.221 32.3075L21.6947 33.3791L22.0069 32.8817L20.5332 31.8101L20.221 32.3075ZM19.4907 32.8102L19.6468 34.2681L19.8876 34.4427L20.4168 33.5854C20.3882 33.5609 20.3682 33.528 20.3597 33.4914C20.3511 33.4547 20.3544 33.4163 20.3691 33.3817C20.4088 33.3156 20.5173 33.3156 20.6073 33.3817C20.6478 33.4046 20.679 33.4409 20.6954 33.4845C20.7119 33.528 20.7125 33.5759 20.6972 33.6198C20.6737 33.6468 20.6414 33.6646 20.606 33.6699C20.5706 33.6752 20.5345 33.6678 20.5041 33.6489L19.9749 34.5062L20.1998 34.6702L21.5227 34.2972L21.6047 33.5034L20.1522 32.4451L19.4907 32.8102Z" fill="white"/>
<path d="M19.1256 33.2415C19.1415 33.1383 19.1547 33.0272 19.1653 32.9028C19.1772 32.7838 19.1649 32.6635 19.1289 32.5493C19.093 32.4352 19.0343 32.3295 18.9563 32.2387C18.7839 32.0463 18.5598 31.9076 18.3107 31.8392C18.271 31.8392 18.2393 31.8392 18.2445 31.8869C18.2484 31.907 18.2579 31.9257 18.272 31.9407C18.286 31.9557 18.304 31.9664 18.3239 31.9715C18.5263 32.0306 18.7091 32.143 18.8531 32.297C18.9161 32.3725 18.9633 32.4598 18.9919 32.5539C19.0205 32.648 19.03 32.7468 19.0198 32.8446C19.0198 32.9663 18.9933 33.0775 18.9801 33.178C18.9086 33.7072 18.8663 34.0247 19.7447 34.5512C19.7586 34.5612 19.7752 34.5667 19.7923 34.5671C19.8016 34.5675 19.8108 34.5652 19.8188 34.5605C19.8268 34.5558 19.8332 34.5489 19.8373 34.5406C19.8405 34.521 19.8373 34.501 19.8283 34.4834C19.8192 34.4658 19.8048 34.4515 19.787 34.4427C19.0277 33.985 19.0568 33.768 19.1256 33.2415ZM15.3633 36.7789L15.4162 36.9165C15.4915 37.129 15.5798 37.3367 15.6808 37.5383L15.9268 37.4774C15.858 37.3399 15.7971 37.1985 15.7443 37.0541H16.8026L17.681 39.4142H17.2868L17.3899 39.6787H18.4483L18.3451 39.4142H17.9535L17.0698 37.0435H18.0937L18.2763 37.5409H18.5541L18.3186 36.9059L18.2657 36.7684L15.3633 36.7789Z" fill="white"/>
<path opacity="0.44" d="M20.8877 43.3193C21.1152 43.9279 20.6231 44.42 19.7765 44.42C18.9298 44.42 18.0726 43.9279 17.8477 43.3193C17.6228 42.7108 18.1123 42.2213 18.9589 42.2213C19.8056 42.2213 20.6628 42.7135 20.8877 43.3193Z" fill="white"/>
<path d="M20.8877 43.3193C21.1152 43.9279 20.6231 44.42 19.7765 44.42C18.9298 44.42 18.0726 43.9279 17.8477 43.3193C17.6228 42.7108 18.1123 42.2213 18.9589 42.2213C19.8056 42.2213 20.6628 42.7134 20.8877 43.3193Z" stroke="white" stroke-width="0.26458" stroke-miterlimit="10"/>
<path d="M24.0177 43.3511L25.0151 41.5387C25.0298 41.5185 25.0483 41.5014 25.0697 41.4885C25.0911 41.4757 25.1148 41.4673 25.1395 41.4638C25.1642 41.4603 25.1894 41.4619 25.2135 41.4684C25.2376 41.4749 25.2601 41.4862 25.2797 41.5016C25.3377 41.5259 25.3866 41.5679 25.4194 41.6216C25.4521 41.6753 25.4672 41.7379 25.4623 41.8006L24.9331 43.8035L24.0177 43.3511Z" fill="white"/>
<path d="M23.8536 43.5045C24.2452 43.4516 25.0125 43.7876 25.0337 44.2983C25.0303 44.3541 25.0121 44.4081 24.9809 44.4546C24.9498 44.5011 24.9068 44.5385 24.8564 44.5628C24.5066 44.7207 24.1222 44.7862 23.7399 44.7533C23.7892 44.715 23.826 44.6627 23.8453 44.6033C23.8647 44.5439 23.8657 44.48 23.8483 44.42C23.7955 44.2738 23.7346 44.1307 23.6658 43.9913C23.5943 43.7876 23.6314 43.5151 23.8536 43.4992M21.7767 47.4812C21.6944 47.2919 21.5716 47.123 21.4169 46.9864L21.1152 47.4653C21.2936 47.6191 21.4355 47.8107 21.5306 48.0262C21.6175 48.2177 21.7183 48.4025 21.8322 48.5792L22.1259 48.1082C21.9917 47.9096 21.8748 47.6998 21.7767 47.4812ZM21.4301 48.0341C21.3456 47.8454 21.222 47.6768 21.0676 47.5394L20.766 48.0209C20.9447 48.175 21.0874 48.3665 21.184 48.5818C21.2697 48.7733 21.3697 48.9582 21.483 49.1348L21.7793 48.6638C21.6432 48.4655 21.5262 48.2546 21.4301 48.0341ZM21.8799 47.4732C21.9656 47.6647 22.0655 47.8496 22.1788 48.0262L22.6128 47.333L21.6417 46.6239L21.4618 46.9097C21.6399 47.0654 21.7824 47.2576 21.8799 47.4732ZM21.0808 48.5897C20.9985 48.4005 20.8757 48.2316 20.721 48.095L20.4564 48.4971L20.5014 49.4099C20.5033 49.4262 20.5085 49.4418 20.5167 49.4559C20.5249 49.4701 20.5359 49.4823 20.5491 49.492C20.5622 49.5017 20.5772 49.5086 20.5932 49.5122C20.6091 49.5158 20.6256 49.5161 20.6416 49.5131L21.4142 49.2089C21.2855 49.0124 21.174 48.8053 21.0808 48.5897ZM20.7395 49.2142L20.7157 48.7273L21.1576 49.0501L20.7395 49.2142ZM24.8934 47.9124L24.5627 48.4416L26.2719 49.6877L26.6026 49.1586L26.7058 49.2353L27.4995 47.9891L25.5813 46.5922L24.8008 47.8383L24.8934 47.9124ZM26.1581 49.3861L24.8643 48.4416L25.0998 48.0632L26.3962 49.0078L26.1581 49.3861ZM8.8202 16.9089L8.58208 17.2L9.03715 17.491L9.09801 17.6603L8.38364 17.2L8.7567 16.7422L8.8202 16.9089ZM8.22225 16.9089L7.98413 17.2L8.4392 17.491L8.5027 17.6603L7.78569 17.2L8.15875 16.7422L8.22225 16.9089Z" fill="white"/>
<path d="M28.3568 37.0885L22.1127 19.6685H42.5409L48.785 37.0885H28.3568Z" fill="#263238"/>
<path d="M29.1241 36.1386L23.5626 20.621H41.7736L47.3351 36.1386H29.1241Z" fill="#50C7F1"/>
<path d="M40.8608 24.2616L38.4823 30.4369L32.3149 28.696L29.1241 36.1386H47.3351L43.8718 26.4788L40.8608 24.2616ZM31.3227 23.9441C30.8994 22.7641 29.6003 21.8063 28.4123 21.8063C27.2244 21.8063 26.6185 22.7641 27.0418 23.9441C27.4652 25.1242 28.7642 26.0819 29.9522 26.0819C31.1402 26.0819 31.7487 25.1374 31.3227 23.9441Z" fill="white"/>
<path d="M30.4734 34.0908L24.2293 16.6708H44.6576L50.9016 34.0908H30.4734Z" fill="#263238"/>
<path d="M31.2407 33.1409L25.6792 17.6207H43.8903L49.4517 33.1409H31.2407Z" fill="#50C7F1"/>
<path d="M42.9775 21.264L40.5989 27.4393L34.4315 25.6983L31.2407 33.141H49.4517L45.9884 23.4811L42.9775 21.264ZM33.4394 20.9465C33.016 19.7664 31.7169 18.8087 30.529 18.8087C29.341 18.8087 28.7351 19.7664 29.1585 20.9465C29.5818 22.1265 30.8809 23.0843 32.0688 23.0843C33.2568 23.0843 33.8653 22.1265 33.4394 20.9465Z" fill="white"/>
<path d="M50.9943 13.9377L51.4837 15.1283H51.3435C51.2687 14.9681 51.1755 14.8171 51.0657 14.6785C50.9473 14.5435 50.8023 14.4345 50.6397 14.3584C50.4674 14.2859 50.2816 14.2507 50.0947 14.2552H49.3777L50.7985 18.1366C50.8575 18.3529 50.9652 18.553 51.1133 18.7213C51.2549 18.83 51.4298 18.8861 51.6081 18.8801H51.7853L51.8356 19.0176H49.6819L49.6317 18.8801H49.8116C50.0259 18.8801 50.1529 18.8139 50.1952 18.6843C50.2022 18.4949 50.1622 18.3067 50.0788 18.1366L48.658 14.2552H48.0495C47.8854 14.2463 47.721 14.2642 47.5627 14.3081C47.5066 14.3321 47.4566 14.3684 47.4164 14.4141C47.3761 14.4599 47.3465 14.5141 47.3298 14.5727C47.2877 14.7538 47.2996 14.9433 47.3642 15.1177H47.2213L46.8456 13.9271L50.9943 13.9377Z" fill="black"/>
<path d="M54.0872 16.3322H55.6403M47.769 20.449L44.8719 12.5275H52.6929L55.59 20.449H47.769Z" stroke="#263238" stroke-width="0.13229" stroke-miterlimit="10"/>
<path d="M46.0678 16.6232L45.8535 16.0385H46.4408L46.6551 16.6232H46.0678ZM53.8993 16.6232L53.685 16.0385H54.2724L54.4867 16.6232H53.8993ZM44.6946 12.8635L44.4803 12.2788H45.065L45.2793 12.8635H44.6946ZM52.5262 12.8635L52.3119 12.2788H52.8966L53.1109 12.8635H52.5262ZM48.613 12.8635L48.3987 12.2788H48.9834L49.1977 12.8635H48.613ZM47.5574 20.6951L47.343 20.1104H47.9304L48.1447 20.6951H47.5574ZM55.3889 20.6951L55.1746 20.1104H55.762L55.9763 20.6951H55.3889Z" fill="white" stroke="#263238" stroke-width="0.13229" stroke-miterlimit="10"/>
<path d="M51.7245 20.5892L52.2933 22.145" stroke="#263238" stroke-width="0.13229" stroke-miterlimit="10"/>
<path d="M51.4758 20.6951L51.2615 20.1104H51.8488L52.0632 20.6951H51.4758Z" fill="white" stroke="#263238" stroke-width="0.13229" stroke-miterlimit="10"/>
<path d="M52.1134 22.4387L51.8991 21.8513H52.4865L52.7008 22.4387H52.1134Z" fill="#263238"/>
<path d="M47.3007 18.9647H53.8702" stroke="#263238" stroke-width="0.13229" stroke-miterlimit="10"/>
<path d="M55.9498 16.3322C55.9161 16.2461 55.8587 16.1714 55.7842 16.1166C55.7098 16.0618 55.6213 16.0292 55.5291 16.0226C55.4918 16.0203 55.4545 16.0281 55.4212 16.0452C55.3879 16.0622 55.3597 16.0879 55.3397 16.1195C55.3197 16.1511 55.3086 16.1876 55.3075 16.225C55.3063 16.2624 55.3153 16.2994 55.3334 16.3322C55.3672 16.4179 55.4247 16.4923 55.4992 16.5466C55.5737 16.6009 55.662 16.633 55.754 16.6391C55.7913 16.642 55.8286 16.6347 55.8621 16.618C55.8955 16.6013 55.9238 16.5758 55.9439 16.5443C55.964 16.5128 55.9752 16.4764 55.9762 16.4391C55.9773 16.4017 55.9681 16.3647 55.9498 16.3322Z" fill="#263238"/>
<path opacity="0.2" d="M26.7772 64.4143L20.0225 97.4629H20.4802L27.9943 65.0201L34.8787 70.7933L25.158 97.4233L25.7666 97.3227L35.9926 71.4018L64.4455 97.3227H81.7596L61.5087 57.6304L19.6891 58.3395L26.7772 64.4143Z" fill="black"/>
<path d="M20.0225 97.463L19.3372 57.7733H21.1655L20.4802 97.463H20.0225ZM59.4079 97.463L58.7226 57.7733H60.5509L59.8656 97.463H59.4079Z" fill="#263238" stroke="#263238" stroke-width="0.26458" stroke-linecap="round" stroke-linejoin="round"/>
<path d="M18.6388 57.1595H62.6543V58.1887H18.6388V57.1595Z" fill="white" stroke="#263238" stroke-width="0.26458" stroke-linecap="round" stroke-linejoin="round"/>
<path d="M8.70112 78.4688L7.90738 80.1568C7.90738 80.1568 8.88633 81.2151 9.33082 81.2151C9.77532 81.2151 9.95259 80.7706 10.487 80.5907C11.0215 80.4108 11.9078 78.7254 11.9078 78.7254C11.9078 78.7254 11.3787 77.8365 10.8495 77.7465C10.3204 77.6565 9.52661 77.392 9.07154 77.302C8.61646 77.212 8.70112 78.4688 8.70112 78.4688Z" fill="white" stroke="#263238" stroke-width="0.26458" stroke-linecap="round" stroke-linejoin="round"/>
<path d="M8.70114 78.4688L9.2303 79.3578V80.1515C9.2303 80.1515 9.75946 80.4161 9.94202 80.1515C10.1246 79.8869 10.921 78.9953 10.921 78.9953L10.5638 78.2016M9.23294 80.1568L8.25664 79.9795" stroke="#263238" stroke-width="0.26458" stroke-linecap="round" stroke-linejoin="round"/>
<path d="M24.0203 94.4574L22.2238 94.9865C22.2238 94.9865 22.0677 96.4259 22.3614 96.7592C22.6551 97.0926 23.1075 96.9338 23.5917 97.2169C24.0759 97.5 25.9332 97.0503 25.9332 97.0503C25.9332 97.0503 26.2507 96.0634 25.965 95.6056C25.6792 95.1479 25.3512 94.3674 25.1236 93.9758C24.8961 93.5843 24.0203 94.4574 24.0203 94.4574Z" fill="white" stroke="#263238" stroke-width="0.26458" stroke-linecap="round" stroke-linejoin="round"/>
<path d="M24.0203 94.4574L23.7055 95.4469L23.1049 95.9761C23.1049 95.9761 23.2557 96.5528 23.5732 96.5052C23.8907 96.4576 25.0892 96.4761 25.0892 96.4761L25.4543 95.6824M23.1049 95.9787L22.5916 95.1268" stroke="#263238" stroke-width="0.26458" stroke-linecap="round" stroke-linejoin="round"/>
<path d="M16.4348 93.5816C16.4348 93.5816 15.1119 94.8278 15.2786 95.7168C15.4453 96.6058 17.1465 97.3175 17.1465 97.3175L19.1917 96.1613L18.57 94.5606L17.2338 93.8488L16.4348 93.5816Z" fill="white" stroke="#263238" stroke-width="0.26458" stroke-linecap="round" stroke-linejoin="round"/>
<path d="M15.2786 95.7168L16.702 96.2486L18.3027 95.7168L17.681 94.2933" stroke="#263238" stroke-width="0.26458" stroke-linecap="round" stroke-linejoin="round"/>
<path d="M16.4348 93.5816L16.3448 95.4495L17.4138 95.8067" stroke="#263238" stroke-width="0.26458" stroke-linecap="round" stroke-linejoin="round"/>
<path d="M4.45199 97.463L2.8698 79.9716H16.5856L15.0034 97.463H4.45199Z" fill="#263238" stroke="#263238" stroke-width="0.26458" stroke-linecap="round" stroke-linejoin="round"/>
<path d="M7.98942 94.5606C7.98942 94.5606 6.47602 95.5395 6.74325 96.0713C7.01047 96.6031 7.18774 96.9603 7.45497 97.1296C7.72219 97.299 8.51329 97.5741 8.77787 97.3942C9.04245 97.2143 9.66686 96.7724 9.75681 96.0713C9.84677 95.3702 10.1114 95.2776 9.84413 94.9151C9.5769 94.5526 7.98942 94.5606 7.98942 94.5606Z" fill="white" stroke="#263238" stroke-width="0.26458" stroke-linecap="round" stroke-linejoin="round"/>
<path d="M6.74326 96.0713L7.80158 96.783L8.69056 96.6957L9.0451 95.7168C9.0451 95.5764 8.98935 95.4418 8.89011 95.3426C8.79088 95.2434 8.65628 95.1876 8.51594 95.1876C8.22775 95.1746 7.94498 95.2689 7.7222 95.4522L7.89947 95.9814" stroke="#263238" stroke-width="0.26458" stroke-linecap="round" stroke-linejoin="round"/>
<path d="M35.9635 45.0655C35.9824 45.1853 35.9642 45.3079 35.9112 45.4169C35.8583 45.526 35.7732 45.6162 35.6674 45.6754C35.5617 45.7345 35.4403 45.7599 35.3197 45.7479C35.1991 45.736 35.085 45.6873 34.9929 45.6085C34.9008 45.5298 34.835 45.4246 34.8045 45.3073C34.774 45.19 34.7802 45.0662 34.8222 44.9525C34.8643 44.8388 34.9402 44.7408 35.0397 44.6716C35.1392 44.6024 35.2575 44.5653 35.3787 44.5655C35.5224 44.5552 35.6643 44.602 35.7737 44.6955C35.8831 44.7891 35.9513 44.9221 35.9635 45.0655ZM36.527 46.5895C36.5459 46.7092 36.5277 46.8319 36.4748 46.9409C36.4219 47.05 36.3368 47.1402 36.231 47.1993C36.1252 47.2585 36.0038 47.2838 35.8832 47.2719C35.7626 47.2599 35.6486 47.2113 35.5564 47.1325C35.4643 47.0538 35.3986 46.9486 35.3681 46.8313C35.3375 46.714 35.3437 46.5902 35.3858 46.4765C35.4278 46.3628 35.5037 46.2648 35.6032 46.1956C35.7027 46.1264 35.8211 46.0893 35.9423 46.0895C36.0859 46.0792 36.2278 46.1259 36.3372 46.2195C36.4467 46.3131 36.5149 46.446 36.527 46.5895ZM37.0879 48.1135C37.1069 48.2332 37.0886 48.3559 37.0357 48.4649C36.9828 48.5739 36.8977 48.6641 36.7919 48.7233C36.6861 48.7825 36.5648 48.8078 36.4441 48.7959C36.3235 48.7839 36.2095 48.7353 36.1173 48.6565C36.0252 48.5777 35.9595 48.4726 35.929 48.3553C35.8985 48.238 35.9046 48.1142 35.9467 48.0005C35.9887 47.8868 36.0646 47.7888 36.1641 47.7195C36.2637 47.6503 36.382 47.6133 36.5032 47.6134C36.6468 47.6032 36.7887 47.6499 36.8982 47.7435C37.0076 47.8371 37.0758 47.97 37.0879 48.1135ZM37.6515 49.6375C37.6704 49.7571 37.6522 49.8796 37.5994 49.9886C37.5466 50.0976 37.4617 50.1877 37.356 50.247C37.2504 50.3062 37.1292 50.3317 37.0087 50.3199C36.8882 50.3082 36.7741 50.2598 36.6819 50.1813C36.5897 50.1028 36.5238 49.998 36.4929 49.8809C36.4621 49.7638 36.4679 49.64 36.5096 49.5263C36.5512 49.4126 36.6267 49.3144 36.7258 49.2448C36.8249 49.1753 36.943 49.1378 37.0641 49.1374C37.208 49.1271 37.3502 49.1738 37.4601 49.2673C37.5699 49.3608 37.6387 49.4938 37.6515 49.6375Z" fill="#808080" stroke="#263238" stroke-width="0.26458" stroke-linecap="round" stroke-linejoin="round"/>
<path d="M25.7189 57.0616L25.1157 50.418H30.3279L29.7247 57.0616H25.7189Z" fill="#263238" stroke="#263238" stroke-width="0.26458" stroke-linecap="round" stroke-linejoin="round"/>
<path d="M30.1295 52.6034L25.5258 54.9476L25.7189 57.0616H27.862L29.9416 54.6725L30.1295 52.6034ZM24.6527 49.6243H30.7909V51.0689H24.6527V49.6243Z" fill="#50C7F1" stroke="#263238" stroke-width="0.26458" stroke-linecap="round" stroke-linejoin="round"/>
<path d="M41.5831 57.1516H34.3733C34.2492 57.1582 34.1249 57.1396 34.0082 57.0966C33.8915 57.0537 33.7847 56.9875 33.6945 56.9019C33.6042 56.8164 33.5323 56.7133 33.4832 56.5991C33.434 56.4849 33.4087 56.3618 33.4087 56.2374C33.4087 56.1131 33.434 55.99 33.4832 55.8758C33.5323 55.7615 33.6042 55.6585 33.6945 55.573C33.7847 55.4874 33.8915 55.4212 34.0082 55.3782C34.1249 55.3353 34.2492 55.3166 34.3733 55.3233H41.5831C41.7073 55.3166 41.8316 55.3353 41.9483 55.3782C42.065 55.4212 42.1718 55.4874 42.262 55.573C42.3523 55.6585 42.4242 55.7615 42.4733 55.8758C42.5224 55.99 42.5478 56.1131 42.5478 56.2374C42.5478 56.3618 42.5224 56.4849 42.4733 56.5991C42.4242 56.7133 42.3523 56.8164 42.262 56.9019C42.1718 56.9875 42.065 57.0537 41.9483 57.0966C41.8316 57.1396 41.7073 57.1582 41.5831 57.1516Z" fill="#263238" stroke="#263238" stroke-width="0.26458" stroke-linecap="round" stroke-linejoin="round"/>
<path d="M38.5643 57.1595L33.27 42.7505H55.4657L60.7599 57.1595H38.5643Z" fill="#263238" stroke="#263238" stroke-width="0.26458" stroke-linecap="round" stroke-linejoin="round"/>
<path d="M40.3978 55.662L35.8788 43.359H54.8307L59.3523 55.662H40.3978Z" fill="#50C7F1" stroke="#263238" stroke-width="0.26458" stroke-linecap="round" stroke-linejoin="round"/>
<path d="M63.0723 62.3056C62.5576 63.0626 61.9749 63.7711 61.3314 64.4222C59.3 66.2576 57.5531 68.3852 56.1483 70.7351C54.1586 74.1085 52.7722 77.556 51.4546 80.5404C50.137 83.5249 47.7505 89.0335 46.5572 90.7109C45.364 92.3883 44.557 93.2853 44.557 93.2853C44.557 93.2853 42.5859 93.3302 40.2523 93.1239C37.9187 92.9175 36.953 92.4968 36.9239 93.1053C36.8948 93.7139 38.5114 95.3834 39.6596 95.6744C40.8079 95.9654 42.3054 96.4099 42.6547 96.7565C43.0039 97.1031 43.4484 97.5 44.0358 97.246C44.6232 96.992 46.372 94.5447 48.3273 92.8593C50.2825 91.1739 52.6161 89.5044 54.7275 85.5754C56.8388 81.6464 56.9499 79.4001 58.4316 77.9237C59.9132 76.4474 61.4743 74.1323 63.3634 72.9126C65.2525 71.6929 70.8907 69.4334 72.6924 67.0918C74.4942 64.7503 73.555 61.8849 71.822 60.861C70.089 59.837 64.4323 59.4666 63.0723 62.3056Z" fill="#263238" stroke="#263238" stroke-width="0.26458" stroke-linecap="round" stroke-linejoin="round"/>
<path d="M47.9542 88.2344C47.5469 89.0918 47.081 89.9202 46.5599 90.7135C45.3534 92.3883 44.5597 93.2879 44.5597 93.2879C44.5597 93.2879 42.5885 93.3329 40.255 93.1265C37.9214 92.9201 36.9556 92.4995 36.9265 93.108C36.8974 93.7165 38.514 95.386 39.6623 95.6771C40.8106 95.9681 42.3081 96.4126 42.6573 96.7592C43.0066 97.1058 43.4511 97.5027 44.0384 97.2487C44.6258 96.9947 46.3747 94.5473 48.3299 92.8619C49.2401 92.0682 50.2323 91.293 51.2403 90.2876C49.9578 89.9623 48.8089 89.2445 47.9542 88.2344Z" fill="white" stroke="#263238" stroke-width="0.26458" stroke-linecap="round" stroke-linejoin="round"/>
<path d="M44.0384 97.2487C44.3542 97.0375 44.6353 96.7787 44.8719 96.4814C43.2844 96.1665 42.4748 95.3701 41.7498 95.1585C41.088 94.9633 40.4553 94.6803 39.8687 94.3171L40.6624 93.1503L40.2602 93.1159C37.9266 92.9096 36.9609 92.4889 36.9318 93.0974C36.9027 93.7059 38.5193 95.3754 39.6676 95.6665C40.8158 95.9575 42.3134 96.402 42.6626 96.7486C43.0119 97.0952 43.4643 97.5027 44.0384 97.2487Z" fill="#0984E3" stroke="#263238" stroke-width="0.26458" stroke-linecap="round" stroke-linejoin="round"/>
<path d="M46.7821 69.7562C47.0904 71.0824 47.5456 72.37 48.1394 73.5952C49.076 75.4684 51.1371 77.4343 52.6373 78.5587C54.1375 79.6832 58.9581 83.9906 61.3473 87.4089C61.6462 87.8376 60.5033 89.2822 59.0983 90.5469C57.6934 91.8116 57.0849 92.2799 57.8336 92.5127C58.5824 92.7455 60.363 92.6529 62.1436 91.1554C63.9243 89.6579 65.0937 88.6736 65.6546 87.4513C65.9351 86.8427 64.3899 86.0913 63.4533 85.2976C62.5167 84.5039 59.0507 79.2572 57.9739 76.831C56.897 74.4048 54.1824 70.9309 52.169 69.7138" fill="#263238"/>
<path d="M46.7821 69.7562C47.0904 71.0824 47.5456 72.37 48.1394 73.5952C49.076 75.4684 51.1371 77.4343 52.6373 78.5587C54.1375 79.6832 58.9581 83.9906 61.3473 87.4089C61.6462 87.8376 60.5033 89.2822 59.0983 90.5469C57.6934 91.8116 57.0849 92.2799 57.8336 92.5127C58.5824 92.7455 60.363 92.6529 62.1436 91.1554C63.9243 89.6579 65.0937 88.6736 65.6546 87.4513C65.9351 86.8427 64.3899 86.0913 63.4533 85.2976C62.5167 84.5039 59.0507 79.2572 57.9739 76.831C56.897 74.4048 54.1824 70.9309 52.169 69.7138" stroke="#263238" stroke-width="0.26458" stroke-linecap="round" stroke-linejoin="round"/>
<path d="M65.652 87.4566C65.9324 86.848 64.3873 86.0966 63.4507 85.3029C62.6569 84.6335 60.0879 80.8183 58.6485 78.1751L55.4736 80.9902C57.4553 82.8238 59.8762 85.287 61.3578 87.409C61.6568 87.8376 60.5138 89.2822 59.1089 90.5469C57.704 91.8116 57.0955 92.2799 57.8442 92.5127C58.593 92.7455 60.3736 92.6529 62.1542 91.1554C63.9349 89.6579 65.0911 88.6736 65.652 87.4566Z" fill="white" stroke="#263238" stroke-width="0.26458" stroke-linecap="round" stroke-linejoin="round"/>
<path d="M64.6889 86.213C64.356 86.7123 64.0367 87.2205 63.7311 87.737C62.8421 89.2345 60.408 91.1554 60.0799 90.8273C59.8825 90.6043 59.7169 90.355 59.5878 90.0865C59.4291 90.24 59.265 90.3961 59.0957 90.5469C57.6908 91.8116 57.0822 92.2799 57.831 92.5127C58.5798 92.7455 60.3604 92.6529 62.141 91.1554C63.9216 89.6579 65.0911 88.6736 65.652 87.4513C65.8213 87.0862 65.3186 86.6655 64.6889 86.213Z" fill="#0984E3" stroke="#263238" stroke-width="0.26458" stroke-linecap="round" stroke-linejoin="round"/>
<path d="M61.4848 90.4992H77.4046V91.248H61.4848V90.4992Z" fill="white" stroke="#263238" stroke-width="0.26458" stroke-linecap="round" stroke-linejoin="round"/>
<path d="M62.9347 70.4123L60.1619 97.0449C60.159 97.0748 60.1623 97.1049 60.1717 97.1334C60.1812 97.1619 60.1965 97.1881 60.2167 97.2103C60.2369 97.2325 60.2616 97.2502 60.289 97.2623C60.3165 97.2744 60.3462 97.2805 60.3762 97.2804C60.4275 97.2803 60.4771 97.2619 60.5159 97.2284C60.5548 97.1949 60.5803 97.1486 60.5879 97.0978L64.7286 70.4123H62.9347ZM75.6716 70.4123L78.4576 97.0449C78.461 97.0746 78.458 97.1048 78.4489 97.1333C78.4398 97.1617 78.4247 97.188 78.4047 97.2102C78.3847 97.2325 78.3603 97.2502 78.3329 97.2623C78.3055 97.2744 78.2759 97.2806 78.246 97.2804C78.1945 97.2809 78.1447 97.2626 78.1057 97.229C78.0668 97.1954 78.0414 97.1488 78.0343 97.0978L73.8936 70.4123H75.6716ZM70.6155 70.4123L70.7451 97.0661C70.7445 97.1227 70.7217 97.1768 70.6816 97.2169C70.6416 97.2569 70.5875 97.2797 70.5308 97.2804C70.476 97.2804 70.4234 97.2592 70.3839 97.2212C70.3444 97.1832 70.3212 97.1314 70.3192 97.0767L68.8296 70.4123H70.6155Z" fill="white" stroke="#263238" stroke-width="0.26458" stroke-linecap="round" stroke-linejoin="round"/>
<path d="M76.558 66.3854H61.8156C61.0893 66.3854 60.5006 66.9741 60.5006 67.7003V69.3778C60.5006 70.104 61.0893 70.6927 61.8156 70.6927H76.558C77.2842 70.6927 77.8729 70.104 77.8729 69.3778V67.7003C77.8729 66.9741 77.2842 66.3854 76.558 66.3854Z" fill="#0984E3"/>
<mask id="mask1_10_2" style="mask-type:luminance" maskUnits="userSpaceOnUse" x="60" y="66" width="18" height="5">
<path d="M76.558 66.3854H61.8156C61.0893 66.3854 60.5006 66.9741 60.5006 67.7003V69.3778C60.5006 70.104 61.0893 70.6927 61.8156 70.6927H76.558C77.2842 70.6927 77.8729 70.104 77.8729 69.3778V67.7003C77.8729 66.9741 77.2842 66.3854 76.558 66.3854Z" fill="white"/>
</mask>
<g mask="url(#mask1_10_2)">
<path opacity="0.2" d="M76.5659 66.3854H62.1516L61.723 67.2849C61.723 67.2849 75.026 67.5178 75.026 68.2851C75.026 69.0523 75.2562 70.0551 72.6448 70.0551C70.5282 70.0551 63.4242 70.1556 60.7943 70.1927C60.8994 70.3244 61.0287 70.4349 61.1753 70.5181L61.9479 70.6927H76.5659C76.9168 70.6927 77.2532 70.5534 77.5013 70.3053C77.7494 70.0572 77.8888 69.7207 77.8888 69.3698V67.6924C77.8846 67.3443 77.7434 67.0119 77.4958 66.7672C77.2481 66.5226 76.914 66.3854 76.5659 66.3854Z" fill="black"/>
</g>
<path d="M76.558 66.3854H61.8156C61.0893 66.3854 60.5006 66.9741 60.5006 67.7004V69.3778C60.5006 70.104 61.0893 70.6928 61.8156 70.6928H76.558C77.2842 70.6928 77.8729 70.104 77.8729 69.3778V67.7004C77.8729 66.9741 77.2842 66.3854 76.558 66.3854Z" stroke="#263238" stroke-width="0.26458" stroke-linecap="round" stroke-linejoin="round"/>
<path d="M47.1552 71.4389C46.8271 70.362 45.4698 68.2084 51.9785 63.7131C55.418 61.3319 62.8898 59.4984 62.8898 59.4984L63.5909 58.7047C63.5909 58.7047 65.6044 60.8213 69.5387 60.6731C73.473 60.525 75.9071 58.7999 76.3754 58.9401C76.8437 59.0804 76.8887 60.2974 76.7035 62.5913C76.5183 64.8852 76.2802 66.0573 74.4546 66.6182C72.629 67.1791 68.6021 67.367 65.6996 67.322C64.2598 67.3179 62.8213 67.2393 61.3896 67.0865C61.3896 67.0865 55.164 71.0209 51.2774 71.3013" fill="#263238"/>
<path d="M47.1552 71.4389C46.8271 70.362 45.4698 68.2084 51.9785 63.7131C55.418 61.3319 62.8898 59.4984 62.8898 59.4984L63.5909 58.7047C63.5909 58.7047 65.6044 60.8213 69.5387 60.6731C73.473 60.525 75.9071 58.7999 76.3754 58.9401C76.8437 59.0804 76.8887 60.2974 76.7035 62.5913C76.5183 64.8852 76.2802 66.0573 74.4546 66.6182C72.629 67.1791 68.6021 67.367 65.6996 67.322C64.2598 67.3179 62.8213 67.2393 61.3896 67.0865C61.3896 67.0865 55.164 71.0209 51.2774 71.3013" stroke="#263238" stroke-width="0.26458" stroke-linecap="round" stroke-linejoin="round"/>
<path d="M61.5775 45.6423C61.2944 45.7297 52.7273 47.4203 51.9785 47.2801C51.2297 47.1399 49.2639 45.4545 48.5601 45.4995C47.8563 45.5445 46.4435 45.7826 46.3138 46.1556C46.1842 46.5287 46.6419 47.796 46.6419 47.796C46.6419 47.796 46.1736 48.4972 46.4064 48.8252C46.6393 49.1533 47.9939 48.3569 47.9939 48.3569C47.9939 48.3569 49.5391 49.4814 50.2402 49.2459C50.9413 49.0104 51.6927 48.7326 51.6927 48.7326C51.6927 48.7326 62.6966 49.3862 62.8369 49.4338C62.9771 49.4814 64.3344 49.7619 64.4746 47.796C64.6148 45.8302 63.2179 45.1264 61.5775 45.6423Z" fill="white" stroke="#263238" stroke-width="0.26458" stroke-linecap="round" stroke-linejoin="round"/>
<path d="M46.6419 47.796L48.5601 46.2032" stroke="#263238" stroke-width="0.26458" stroke-linecap="round" stroke-linejoin="round"/>
<path d="M54.8703 49.0607C54.8703 49.0607 43.4934 52.196 41.6678 51.9711C39.8422 51.7462 39.2866 50.9392 38.858 50.9392C38.4293 50.9392 37.2705 51.5028 36.7413 51.4552C36.2122 51.4076 35.6195 51.2673 35.6195 51.5954C35.6195 51.9235 36.0878 52.4394 36.3683 52.4394C36.6487 52.4394 37.7732 52.3918 37.7732 52.3918C37.7732 52.3918 35.5719 53.0479 35.4766 53.4686C35.4564 53.5673 35.4563 53.669 35.4763 53.7678C35.4964 53.8665 35.5361 53.9601 35.5931 54.0431C35.6502 54.1261 35.7234 54.1968 35.8084 54.2508C35.8934 54.3048 35.9884 54.3412 36.0878 54.3576C36.3116 54.3981 36.5212 54.4956 36.6963 54.6407C36.7913 55.0085 36.9498 55.3568 37.1647 55.6699C37.4451 55.998 38.2865 56.1382 39.2231 55.9504C40.1597 55.7625 41.8001 54.9212 42.1732 54.6857C42.5462 54.4502 53.9258 53.421 54.7698 53.2358C55.6138 53.0506 56.643 53.0479 56.9711 52.4844C57.2992 51.9208 54.8703 49.0607 54.8703 49.0607Z" fill="white"/>
<mask id="mask2_10_2" style="mask-type:luminance" maskUnits="userSpaceOnUse" x="35" y="49" width="23" height="8">
<path d="M54.8703 49.0607C54.8703 49.0607 43.4934 52.196 41.6678 51.9711C39.8422 51.7462 39.2866 50.9392 38.858 50.9392C38.4293 50.9392 37.2705 51.5028 36.7413 51.4552C36.2122 51.4076 35.6195 51.2673 35.6195 51.5954C35.6195 51.9235 36.0878 52.4394 36.3683 52.4394C36.6487 52.4394 37.7732 52.3918 37.7732 52.3918C37.7732 52.3918 35.5719 53.0479 35.4766 53.4686C35.4564 53.5673 35.4563 53.669 35.4763 53.7678C35.4964 53.8665 35.5361 53.9601 35.5931 54.0431C35.6502 54.1261 35.7234 54.1968 35.8084 54.2508C35.8934 54.3048 35.9884 54.3412 36.0878 54.3576C36.3116 54.3981 36.5212 54.4956 36.6963 54.6407C36.7913 55.0085 36.9498 55.3568 37.1647 55.6699C37.4451 55.998 38.2865 56.1382 39.2231 55.9504C40.1597 55.7625 41.8001 54.9212 42.1732 54.6857C42.5462 54.4502 53.9258 53.421 54.7698 53.2358C55.6138 53.0506 56.643 53.0479 56.9711 52.4844C57.2992 51.9208 54.8703 49.0607 54.8703 49.0607Z" fill="white"/>
</mask>
<g mask="url(#mask2_10_2)">
<path d="M41.1122 54.2412C39.1569 54.2412 39.5908 52.286 38.94 52.6141C38.3711 52.8972 36.1513 53.1803 35.5216 53.8973C35.5723 54.0156 35.6511 54.1199 35.7512 54.201C35.8512 54.2821 35.9694 54.3377 36.0957 54.3629C36.3196 54.4034 36.5291 54.5009 36.7043 54.646C36.7992 55.0138 36.9577 55.3621 37.1726 55.6752C37.453 56.0033 38.2944 56.1436 39.231 55.9557C40.1676 55.7678 41.808 54.9265 42.1811 54.691C42.5541 54.4555 53.9337 53.4263 54.7777 53.2411C55.4577 53.0877 56.262 53.0586 56.7171 52.7569L56.9817 52.4923L55.7726 51.3123C55.7726 51.3123 43.0754 54.2412 41.1122 54.2412Z" fill="#407BFF"/>
<path opacity="0.5" d="M41.1122 54.2412C39.1569 54.2412 39.5908 52.286 38.94 52.6141C38.3711 52.8972 36.1513 53.1803 35.5216 53.8973C35.5723 54.0156 35.6511 54.1199 35.7512 54.201C35.8512 54.2821 35.9694 54.3377 36.0957 54.3629C36.3196 54.4034 36.5291 54.5009 36.7043 54.646C36.7992 55.0138 36.9577 55.3621 37.1726 55.6752C37.453 56.0033 38.2944 56.1436 39.231 55.9557C40.1676 55.7678 41.808 54.9265 42.1811 54.691C42.5541 54.4555 53.9337 53.4263 54.7777 53.2411C55.4577 53.0877 56.262 53.0586 56.7171 52.7569L56.9817 52.4923L55.7726 51.3123C55.7726 51.3123 43.0754 54.2412 41.1122 54.2412Z" fill="white"/>
</g>
<path d="M54.8703 49.0607C54.8703 49.0607 43.4934 52.196 41.6678 51.9711C39.8422 51.7462 39.2866 50.9392 38.858 50.9392C38.4293 50.9392 37.2705 51.5028 36.7413 51.4552C36.2122 51.4076 35.6195 51.2673 35.6195 51.5954C35.6195 51.9235 36.0878 52.4394 36.3683 52.4394C36.6487 52.4394 37.7732 52.3918 37.7732 52.3918C37.7732 52.3918 35.5719 53.0479 35.4766 53.4686C35.4564 53.5673 35.4563 53.669 35.4763 53.7678C35.4964 53.8665 35.5361 53.9601 35.5931 54.0431C35.6502 54.1261 35.7234 54.1968 35.8084 54.2508C35.8934 54.3048 35.9884 54.3412 36.0878 54.3576C36.3116 54.3981 36.5212 54.4956 36.6963 54.6407C36.7913 55.0085 36.9498 55.3568 37.1647 55.6699C37.4451 55.998 38.2865 56.1382 39.2231 55.9504C40.1597 55.7625 41.8001 54.9212 42.1732 54.6857C42.5462 54.4502 53.9258 53.421 54.7698 53.2358C55.6138 53.0506 56.643 53.0479 56.9711 52.4844C57.2992 51.9208 54.8703 49.0607 54.8703 49.0607Z" stroke="#263238" stroke-width="0.26458" stroke-linecap="round" stroke-linejoin="round"/>
<path d="M64.4799 37.5885C64.4799 37.5885 63.4507 40.3957 62.141 42.2689C60.8313 44.1422 60.2678 46.1106 61.1091 48.2167C61.3331 48.8194 61.6891 49.3644 62.151 49.8117C62.613 50.2589 63.1691 50.5972 63.7787 50.8017C63.7787 50.8017 63.1226 56.9822 63.3104 58.6226C63.4983 60.263 66.025 62.1812 69.8191 62.3268C73.6132 62.4723 76.8887 61.1097 76.8887 59.7974C76.8887 58.4851 74.2217 51.5107 74.2217 50.0582C74.2217 48.6056 74.4545 44.0654 73.1899 40.0041C71.9252 35.9428 67.4776 34.5908 64.4799 37.5885Z" fill="#0984E3"/>
<mask id="mask3_10_2" style="mask-type:luminance" maskUnits="userSpaceOnUse" x="60" y="35" width="17" height="28">
<path d="M64.4799 37.5885C64.4799 37.5885 63.4507 40.3957 62.141 42.2689C60.8313 44.1422 60.2678 46.1106 61.1091 48.2167C61.3331 48.8194 61.6891 49.3644 62.151 49.8117C62.613 50.2589 63.1691 50.5972 63.7787 50.8017C63.7787 50.8017 63.1226 56.9822 63.3104 58.6226C63.4983 60.263 66.025 62.1812 69.8191 62.3268C73.6132 62.4723 76.8887 61.1097 76.8887 59.7974C76.8887 58.4851 74.2217 51.5107 74.2217 50.0582C74.2217 48.6056 74.4545 44.0654 73.1899 40.0041C71.9252 35.9428 67.4776 34.5908 64.4799 37.5885Z" fill="white"/>
</mask>
<g mask="url(#mask3_10_2)">
<path opacity="0.2" d="M73.1899 39.9749C72.5099 37.7816 70.9039 36.3899 69.0995 36.0406C68.229 36.2338 65.8504 36.7894 65.2578 36.9296C64.9806 37.1272 64.7204 37.3477 64.4799 37.5885C64.4799 37.5885 63.4507 40.3957 62.141 42.269C61.26 43.5257 60.7202 44.8247 60.7123 46.1768C64.1677 46.9944 69.4434 48.3252 68.9142 48.4734C68.1549 48.6903 64.8979 46.9519 65.8742 48.0393C66.8505 49.1268 72.0654 54.1248 70.5441 53.6856C69.0227 53.2464 65.6573 49.6665 66.5277 51.4049C67.3982 53.1432 69.7847 55.9663 69.0254 55.9663C68.266 55.9663 64.2471 51.9472 65.6573 54.3363C67.0675 56.7255 73.4756 60.5275 71.4119 61.07C70.2213 61.3822 67.6945 61.3001 66.2288 61.5462C67.3668 62.0187 68.582 62.2779 69.8138 62.3109C73.6053 62.4511 76.8834 61.0938 76.8834 59.7815C76.8834 58.4692 74.2164 51.4949 74.2164 50.0423C74.2164 48.5898 74.4493 44.0495 73.1899 39.9749Z" fill="black"/>
</g>
<path d="M65.0567 48.9496C65.0567 48.9496 68.4962 54.5058 73.5232 56.0932M64.6598 49.8756C64.6598 49.8756 65.9827 54.2412 69.4222 56.3578M65.3689 46.3779C65.3689 46.3779 68.4777 45.0232 69.753 44.1475M64.0936 46.698C64.0936 46.698 65.2101 46.9361 68.0782 46.698" stroke="#263238" stroke-width="0.26458" stroke-linecap="round" stroke-linejoin="round"/>
<path d="M64.1994 38.2897C63.4774 38.75 62.8168 39.3003 62.2336 39.9274C61.1568 41.0519 55.9578 48.9231 55.9578 48.9231C55.9578 48.9231 57.5029 52.1563 57.9712 52.2489C58.4395 52.3415 66.5886 45.3698 67.3374 44.5232C68.0861 43.6765 68.5544 42.142 68.3216 41.4779" fill="#0984E3"/>
<mask id="mask4_10_2" style="mask-type:luminance" maskUnits="userSpaceOnUse" x="55" y="38" width="14" height="15">
<path d="M64.1994 38.2897C63.4774 38.75 62.8168 39.3003 62.2336 39.9274C61.1568 41.0519 55.9578 48.9231 55.9578 48.9231C55.9578 48.9231 57.5029 52.1563 57.9712 52.2489C58.4395 52.3415 66.5886 45.3698 67.3374 44.5232C68.0861 43.6765 68.5544 42.142 68.3216 41.4779" fill="white"/>
</mask>
<g mask="url(#mask4_10_2)">
<path opacity="0.2" d="M67.3373 44.5179C68.0861 43.6739 68.5544 42.1367 68.3216 41.4726L66.4695 40.0438L65.8769 40.655C65.8769 40.655 65.8372 43.0521 63.7047 44.3459C61.5722 45.6397 60.6646 45.6503 60.3392 47.2774C60.0138 48.9046 61.0986 49.3412 59.7968 49.5581C58.4951 49.7751 57.6246 49.8836 57.6246 50.754C57.6331 51.185 57.6658 51.6152 57.7225 52.0425C57.7844 52.131 57.8696 52.2006 57.9686 52.2436C58.4395 52.3362 66.5886 45.3592 67.3373 44.5179Z" fill="black"/>
</g>
<path d="M64.1994 38.2897C63.4774 38.75 62.8168 39.3003 62.2336 39.9274C61.1568 41.0519 55.9578 48.9231 55.9578 48.9231C55.9578 48.9231 57.5029 52.1563 57.9712 52.2489C58.4395 52.3415 66.5886 45.3698 67.3374 44.5232C68.0861 43.6765 68.5544 42.142 68.3216 41.4779" stroke="#263238" stroke-width="0.26458" stroke-linecap="round" stroke-linejoin="round"/>
<path d="M54.1798 49.3861C54.1798 49.3861 55.6323 52.8521 55.9578 53.2278C56.2832 53.6035 58.0188 53.3681 58.5798 52.9447C59.1407 52.5214 59.0481 51.6827 59.0481 51.6827C59.0481 51.6827 56.8944 47.8886 56.6668 47.714C56.4393 47.5394 56.3388 47.9495 55.3439 48.2775C54.3491 48.6056 53.9919 48.7326 54.1798 49.3861Z" fill="white" stroke="#263238" stroke-width="0.26458" stroke-linecap="round" stroke-linejoin="round"/>
<path d="M56.4621 28.9631C56.4621 28.9631 56.5 30 56.5 30.5C57 31 57.4913 31.5851 57.4913 32.146C57.4913 32.7069 57.4408 33.2248 57.9408 33.7248C58.0811 34.1349 58.5 34.5 58.5 34.5C58.5 34.5 59.5767 35.8915 60 36.5C60.4233 37.1086 60.8438 36.6852 61.5 36.5C62.1562 36.3148 63.2036 35.4718 64 34.5352C64.7964 33.5985 63.4708 30.7411 61.7537 28.8229C60.0366 26.9047 57.4437 26.9496 56.8828 27.5C56.3219 28.0503 56.4621 28.9631 56.4621 28.9631Z" fill="white"/>
<path d="M56.5213 28.7383C56.5213 28.7383 56.4261 30.0956 56.6615 30.5163C56.897 30.937 57.5505 31.3603 57.5505 31.9212C57.5505 32.4821 57.3598 32.5899 57.5 33C57.6402 33.4101 58.1141 34.1225 58.1141 34.1225C58.1141 34.1225 59.5164 35.8555 59.9397 36.464C60.363 37.0726 60.5482 36.8371 61.2044 36.6519C61.8606 36.4667 63.2628 35.247 64.0592 34.3104C64.8556 33.3737 63.53 30.5163 61.8129 28.5981C60.0958 26.6799 57.5029 26.7248 56.942 27.2752C56.3811 27.8255 56.5213 28.7383 56.5213 28.7383Z" stroke="#263238" stroke-width="0.26458" stroke-linecap="round" stroke-linejoin="round"/>
<path d="M55.0688 26.6772V26.8651L54.9841 29.159L57.5109 29.4871L58.0744 28.5028V29.5797C58.854 29.5144 59.6383 29.6266 60.3683 29.9077C61.5854 30.376 63.1305 33.7018 63.0379 35.0591C62.9453 36.4164 61.7732 36.6969 61.9135 38.7632C62.0537 40.8296 65.189 42.8775 67.5702 41.5678C69.9514 40.2581 70.3351 38.5701 71.3166 38.8982C72.2982 39.2262 73.7984 41.2397 74.735 38.3822C75.6716 35.5248 75.2509 33.7018 73.0496 31.3603C70.8483 29.0188 69.118 29.2066 68.8349 27.3334C68.5518 25.4602 67.9459 22.9308 65.9245 21.5126C63.9031 20.0945 61.0086 20.0151 58.5163 21.0919C56.0239 22.1688 55.0688 25.4602 55.0688 26.6772Z" fill="#263238"/>
<mask id="mask5_10_2" style="mask-type:luminance" maskUnits="userSpaceOnUse" x="54" y="20" width="22" height="22">
<path d="M55.0688 26.6772V26.8651L54.9841 29.159L57.5109 29.4871L58.0744 28.5028V29.5797C58.854 29.5144 59.6383 29.6266 60.3683 29.9077C61.5854 30.376 63.1305 33.7018 63.0379 35.0591C62.9453 36.4164 61.7732 36.6969 61.9135 38.7632C62.0537 40.8296 65.189 42.8775 67.5702 41.5678C69.9514 40.2581 70.3351 38.5701 71.3166 38.8982C72.2982 39.2262 73.7984 41.2397 74.735 38.3822C75.6716 35.5248 75.2509 33.7018 73.0496 31.3603C70.8483 29.0188 69.118 29.2066 68.8349 27.3334C68.5518 25.4602 67.9459 22.9308 65.9245 21.5126C63.9031 20.0945 61.0086 20.0151 58.5163 21.0919C56.0239 22.1688 55.0688 25.4602 55.0688 26.6772Z" fill="white"/>
</mask>
<g mask="url(#mask5_10_2)">
<path d="M56.4764 27.7514C56.4597 27.7539 56.4428 27.7539 56.4261 27.7514C56.1615 27.6906 56.1192 27.2223 56.0927 26.0846C56.0927 25.7882 56.0795 25.484 56.061 25.2405V25.1797C55.8361 25.4443 55.3598 26.5687 55.0026 27.5609L54.7539 27.471C55.7117 24.804 56.0239 24.8437 56.1245 24.8596C56.307 24.8834 56.3255 25.1241 56.3335 25.2141C56.352 25.4628 56.3599 25.7724 56.3652 26.0687C56.3652 26.5396 56.3943 27.3122 56.4922 27.4736C56.6202 27.342 56.7209 27.1865 56.7886 27.0159C57.0531 26.4656 57.3177 26.2221 57.5611 26.2221C57.8733 26.2221 58.0374 26.6508 58.1538 26.955C58.1819 27.0301 58.2146 27.1035 58.2517 27.1746C58.3681 27.2064 58.7808 26.7857 59.0004 26.5582L59.1936 26.3624C59.238 26.3045 59.2947 26.2574 59.3598 26.2244C59.4248 26.1914 59.4964 26.1735 59.5693 26.1719C59.7175 26.1957 59.7889 26.3333 59.8656 26.4761C59.9357 26.6306 60.0376 26.7685 60.1646 26.8809C60.2493 26.9471 60.2916 26.9365 60.3101 26.9339C60.5006 26.8862 60.7308 26.373 60.998 25.7803L61.1965 25.3411C61.2679 25.1876 61.4028 24.931 61.5986 24.9495C61.8447 24.968 61.9584 25.3543 62.1278 25.939C62.2311 26.4058 62.4099 26.8527 62.6569 27.2619C62.7178 27.336 62.7998 27.4207 62.8765 27.4128C63.0829 27.3784 63.3105 26.7672 63.448 26.4021C63.509 26.2196 63.5851 26.0426 63.6756 25.8729C63.6957 25.8302 63.7275 25.7941 63.7673 25.7688C63.8071 25.7435 63.8533 25.7301 63.9005 25.73C64.0963 25.73 64.2312 25.9946 64.4138 26.3544C64.5513 26.619 64.7392 26.9921 64.8953 27.0529C64.927 27.0662 64.9376 27.0529 64.9456 27.0529C65.0487 27 65.1361 26.6587 65.2101 26.3862C65.2726 26.0795 65.3814 25.7842 65.5329 25.5104C65.572 25.4462 65.6243 25.391 65.6863 25.3486C65.7484 25.3062 65.8187 25.2775 65.8928 25.2644C66.2394 25.2088 66.6256 25.5078 66.8823 25.7089C66.8691 25.5739 66.84 25.3887 66.8161 25.2273C66.6838 24.3463 66.6468 23.9203 66.8664 23.7986C66.9696 23.743 67.0913 23.7748 67.2289 23.8965C67.467 24.1217 67.6931 24.3593 67.9062 24.6082C68.3904 25.1532 69.1259 25.9734 69.4223 25.8941C69.5043 25.8729 69.5493 25.7459 69.5704 25.6454L69.835 25.6983C69.7794 25.9629 69.6657 26.1057 69.4963 26.1507C69.0704 26.2618 68.4909 25.6559 67.7131 24.7855C67.5021 24.5379 67.2778 24.302 67.041 24.079C67.0219 24.0606 67.0006 24.0446 66.9775 24.0314C66.9592 24.4137 66.9886 24.7967 67.0648 25.1718C67.1601 25.7935 67.1786 25.9655 67.0648 26.0369C67.0385 26.0542 67.0077 26.0635 66.9762 26.0635C66.9447 26.0635 66.9139 26.0542 66.8876 26.0369C66.8303 25.9969 66.7747 25.9545 66.7209 25.9099C66.5119 25.7485 66.1626 25.4813 65.9272 25.5157C65.8891 25.5227 65.853 25.5379 65.8215 25.5603C65.7899 25.5827 65.7637 25.6117 65.7446 25.6454C65.6113 25.8947 65.515 26.162 65.4588 26.4391C65.3557 26.8307 65.2683 27.1693 65.0593 27.2752C65.0179 27.2945 64.9728 27.3046 64.927 27.3046C64.8813 27.3046 64.8362 27.2945 64.7948 27.2752C64.546 27.1773 64.3582 26.8069 64.1756 26.4523C64.1034 26.2877 64.0148 26.1308 63.9111 25.984C63.8289 26.1431 63.7599 26.3085 63.7047 26.4788C63.5089 27.0079 63.2866 27.6006 62.9242 27.6562C62.8311 27.6623 62.7381 27.6422 62.6558 27.5983C62.5736 27.5543 62.5052 27.4882 62.4585 27.4075C62.1889 26.9751 61.9948 26.5 61.8844 26.0025C61.8261 25.7238 61.7243 25.4559 61.5827 25.2088C61.5299 25.2834 61.4847 25.3632 61.4478 25.4469C61.3798 25.5916 61.3136 25.7371 61.2494 25.8835C60.9186 26.6217 60.699 27.1085 60.3816 27.1852C60.3156 27.1985 60.2475 27.1961 60.1827 27.1781C60.1179 27.1602 60.0582 27.1273 60.0085 27.082C59.8534 26.9477 59.7289 26.7817 59.6434 26.5952C59.6161 26.5349 59.5805 26.4788 59.5375 26.4285C59.5375 26.4285 59.4952 26.4285 59.392 26.5423L59.2015 26.7381C58.7623 27.1879 58.4819 27.4577 58.2411 27.4392C58.2009 27.4354 58.1622 27.4224 58.1278 27.4014C58.0934 27.3803 58.0643 27.3516 58.0427 27.3175C57.9928 27.2335 57.9512 27.1449 57.9183 27.0529C57.8442 26.8571 57.7014 26.4947 57.5585 26.4894C57.5162 26.4894 57.3389 26.5291 57.0293 27.1349C56.8018 27.5662 56.6404 27.7514 56.4764 27.7514Z" fill="#575757"/>
<path d="M61.7494 38.3822C61.7494 38.3822 62.4056 35.9401 63.0723 36.7154C63.7391 37.4906 64.2021 37.7287 64.2629 37.0726C64.3238 36.4164 64.2629 35.4639 64.9191 36.3582C65.5753 37.2525 67.1813 38.1441 67.3003 36.7736C67.4194 35.4031 67.5993 33.5563 68.3745 34.5114C69.1497 35.4665 69.8033 36.1783 69.8641 35.6412C69.925 35.1041 70.4594 34.6887 70.6975 35.284C70.9357 35.8793 71.1156 36.4772 71.2928 35.1067C71.4701 33.7362 70.6367 32.2466 71.531 32.6038C72.4252 32.961 72.8539 34.1516 72.8539 33.4981C72.8539 32.8446 71.7797 32.0667 72.7348 32.3048C73.6899 32.5429 73.8063 33.1409 73.9254 32.7837C74.0445 32.4265 73.3962 31.5905 74.2244 31.5905" stroke="#575757" stroke-width="0.26458" stroke-miterlimit="10"/>
</g>
<path d="M55.0688 26.6772V26.8651L54.9841 29.159L57.5109 29.4871L58.0744 28.5028V29.5797C58.854 29.5144 59.6383 29.6266 60.3683 29.9077C61.5854 30.376 63.1305 33.7018 63.0379 35.0591C62.9453 36.4164 61.7732 36.6969 61.9135 38.7632C62.0537 40.8296 65.189 42.8775 67.5702 41.5678C69.9514 40.2581 70.3351 38.5701 71.3166 38.8982C72.2982 39.2262 73.7984 41.2397 74.735 38.3822C75.6716 35.5248 75.2509 33.7018 73.0496 31.3603C70.8483 29.0188 69.118 29.2066 68.8349 27.3334C68.5518 25.4602 67.9459 22.9308 65.9245 21.5126C63.9031 20.0945 61.0086 20.0151 58.5163 21.0919C56.0239 22.1688 55.0688 25.4602 55.0688 26.6772Z" stroke="#263238" stroke-width="0.26458" stroke-linecap="round" stroke-linejoin="round"/>
<path fill-rule="evenodd" clip-rule="evenodd" d="M73.04 3.67999H73.56V10.98H73.04V3.67999Z" fill="#263238"/>
<path d="M48.8 43.96L48.28 46.31L47.34 47.11L48.37 43.87L48.8 43.96Z" fill="#263238"/>
<path fill-rule="evenodd" clip-rule="evenodd" d="M73.4 10.43L73.56 10.98L68.32 12.48L68.17 11.93L73.4 10.43Z" fill="#263238"/>
</g>
</svg>
