<?xml version="1.0" encoding="UTF-8" standalone="no"?>
<svg
   version="1.1"
   viewBox="0 0 157.08 125.82"
   overflow="visible"
   id="svg755"
   sodipodi:docname="faq.svg"
   inkscape:version="1.2.2 (732a01da63, 2022-12-09)"
   xmlns:inkscape="http://www.inkscape.org/namespaces/inkscape"
   xmlns:sodipodi="http://sodipodi.sourceforge.net/DTD/sodipodi-0.dtd"
   xmlns="http://www.w3.org/2000/svg"
   xmlns:svg="http://www.w3.org/2000/svg">
  <sodipodi:namedview
     id="namedview757"
     pagecolor="#ffffff"
     bordercolor="#000000"
     borderopacity="0.25"
     inkscape:showpageshadow="2"
     inkscape:pageopacity="0.0"
     inkscape:pagecheckerboard="0"
     inkscape:deskcolor="#d1d1d1"
     showgrid="false"
     inkscape:zoom="3.7513909"
     inkscape:cx="69.974046"
     inkscape:cy="100.62934"
     inkscape:window-width="1280"
     inkscape:window-height="945"
     inkscape:window-x="-9"
     inkscape:window-y="-9"
     inkscape:window-maximized="1"
     inkscape:current-layer="svg755" />
  <defs
     id="defs49">
    <linearGradient
       id="linearGradient937-5"
       x2="1"
       gradientTransform="matrix(-3e-7 -7.7648 -7.7648 3e-7 129.42 338.71)"
       gradientUnits="userSpaceOnUse">
      <stop
         stop-color="#cf6f70"
         offset="0"
         id="stop2" />
      <stop
         stop-color="#f89888"
         offset="1"
         id="stop4" />
    </linearGradient>
    <linearGradient
       id="linearGradient957-0"
       x2="1"
       gradientTransform="matrix(-3e-7 -7.7648 -7.7648 3e-7 115.53 338.71)"
       gradientUnits="userSpaceOnUse">
      <stop
         stop-color="#cf6f70"
         offset="0"
         id="stop7" />
      <stop
         stop-color="#f89888"
         offset="1"
         id="stop9" />
    </linearGradient>
    <linearGradient
       id="linearGradient1161-5"
       x2="1"
       gradientTransform="matrix(-3e-7,-7.7653,-7.7653,3e-7,388.28,316.31)"
       gradientUnits="userSpaceOnUse">
      <stop
         stop-color="#cf6f70"
         offset="0"
         id="stop12" />
      <stop
         stop-color="#f89888"
         offset="1"
         id="stop14" />
    </linearGradient>
    <linearGradient
       id="linearGradient1181-5"
       x2="1"
       gradientTransform="matrix(-3e-7,-7.7653,-7.7653,3e-7,376.16,316.65)"
       gradientUnits="userSpaceOnUse">
      <stop
         stop-color="#cf6f70"
         offset="0"
         id="stop17" />
      <stop
         stop-color="#f89888"
         offset="1"
         id="stop19" />
    </linearGradient>
    <linearGradient
       id="linearGradient1433-2"
       x2="1"
       gradientTransform="matrix(-3e-7,-7.7585,-7.7585,3e-7,212.43,202.56)"
       gradientUnits="userSpaceOnUse">
      <stop
         stop-color="#cf6f70"
         offset="0"
         id="stop22" />
      <stop
         stop-color="#f89888"
         offset="1"
         id="stop24" />
    </linearGradient>
    <linearGradient
       id="linearGradient1453-2"
       x2="1"
       gradientTransform="matrix(0.82612,-7.72,-7.72,-0.82612,201.4,201.13)"
       gradientUnits="userSpaceOnUse">
      <stop
         stop-color="#cf6f70"
         offset="0"
         id="stop27" />
      <stop
         stop-color="#f89888"
         offset="1"
         id="stop29" />
    </linearGradient>
    <clipPath
       id="clipPath831-1-4">
      <path
         d="m0 500h500v-500h-500z"
         id="path32" />
    </clipPath>
    <clipPath
       id="clipPath967-0-8">
      <path
         d="m0 500h500v-500h-500z"
         id="path35" />
    </clipPath>
    <clipPath
       id="clipPath1191-5-7">
      <path
         d="m0 500h500v-500h-500z"
         id="path38" />
    </clipPath>
    <clipPath
       id="clipPath1463-9-5">
      <path
         d="m0 500h500v-500h-500z"
         id="path41" />
    </clipPath>
    <clipPath
       id="clipPath1711-2-8">
      <path
         d="m0 500h500v-500h-500z"
         id="path44" />
    </clipPath>
    <style
       type="text/css"
       id="style47"><![CDATA[
    * {overflow:visible;}
        .rotate {
    transform-box: fill-box;
}
.rightarm {
    transform-origin: top left;
    transform: rotate(-7deg) translateY(0px);
    animation: rightarm 2s linear infinite alternate;

}

@keyframes rightarm {
    to {transform: rotate(-33deg) translateY(3px);}
}

.midarm {
    transform-origin: bottom left;
    animation: rotate 1.25s linear 1s infinite alternate;
}

@keyframes rotate {
    to {transform: rotate(10deg);}
}

.topqmark {    
    animation: topqmark 1.5s linear infinite alternate;
}

@keyframes topqmark {
    to {transform: translateY(12px);}
}


.leftqmark {
    transform-origin: top right;
    animation: rotate-left 1s linear infinite alternate;
}

@keyframes rotate-left {
    to {transform: rotate(-7deg);}
}

    ]]></style>
  </defs>
  <g
     id="g75">
    <g
       class="midarm rotate"
       id="g73">
      <g
         transform="matrix(.35278 0 0 -.35278 91.899 81.554)"
         id="g71">
        <path
           transform="translate(-21.627 43.705)"
           d="m0 0c-6.385-3.162-11.132-8.232-13.95-14.149-0.497-1.043-0.043-2.292 1.005-2.778l7.151-3.304c1.038-0.481 2.249-0.019 2.748 1.01 1.692 3.487 4.501 6.477 8.266 8.373 8.468 4.266 18.956 1.275 23.901-6.815 5.464-8.937 2.375-20.538-6.678-25.613-2.44-1.369-5.058-2.117-7.675-2.301-1.517-0.108-3.032-0.024-4.512 0.24-4.249 0.757-8.36-1.909-9.447-6.087l-0.801-3.079-3.693-14.251c-0.289-1.109 0.376-2.243 1.486-2.531l7.632-1.986c1.109-0.289 2.242 0.376 2.531 1.486l3.679 14.198c5.628-0.348 11.413 0.855 16.686 3.811 15.098 8.463 20.179 27.98 10.81 42.797-8.265 13.07-25.282 17.842-39.139 10.979"
           fill="#50c7f1"
           id="path61" />
        <path
           transform="translate(-28.3 -42.817)"
           d="m0 0c-1.625 2.899-0.593 6.567 2.307 8.193 2.899 1.625 6.567 0.593 8.192-2.306 1.626-2.9 0.593-6.568-2.307-8.194-2.898-1.625-6.566-0.591-8.192 2.307"
           fill="#5b9dd3"
           id="path63" />
        <path
           transform="translate(-21.171 -42.797)"
           d="m0 0c2.519 1.413 3.416 4.6 2.004 7.119-0.169 0.301-0.364 0.577-0.58 0.831-1.818 1.193-4.219 1.36-6.246 0.223-1.581-0.887-2.602-2.382-2.945-4.027 0.058-0.731 0.266-1.46 0.648-2.141 1.412-2.52 4.599-3.417 7.119-2.005"
           fill="#50c7f1"
           id="path65" />
        <path
           transform="translate(-13.663 -28.08)"
           d="m0 0 3.679 14.198c5.628-0.346 11.413 0.855 16.686 3.811 10.628 5.958 16.282 17.392 15.437 28.809-0.26-7.675-3.469-16.151-12.954-23.118-8.068-5.927-16.554-6.051-20.484-5.701-1.307 0.117-2.495-0.737-2.8-2.014-0.92-3.845-2.681-11.27-2.973-12.954-0.399-2.297-1.505-3.706-6.754-2.531l7.632-1.986c1.109-0.288 2.242 0.377 2.531 1.486"
           fill="#5b9dd3"
           id="path67" />
        <path
           d="m0 0c-2.204-1.095-4.532-1.708-6.859-1.872-1.517-0.107-3.032-0.024-4.512 0.24-4.249 0.757-8.36-1.909-9.447-6.087l-0.801-3.079-3.184-12.286c0.931 2.604 3.044 8.543 4.157 11.882 1.454 4.36 2.707 8.713 8.806 8.232 6.1-0.48 9.661 1.086 11.841 2.969z"
           fill="#84dff7"
           id="path69" />
      </g>
    </g>
  </g>
  <g
     id="g687"
     transform="translate(0,-0.1884919)">
    <g
       transform="matrix(0.35278,0,0,-0.35278,133.77,23.192)"
       id="g685">
      <g
         transform="matrix(2.8346,0,0,-2.8346,-378.33,550.49)"
         id="g681">
        <g
           transform="matrix(0.35278,0,0,-0.35278,-11.098,323.72)"
           id="g679">
          <g
             clip-path="url(#clipPath831-1-4)"
             id="g145">
            <g
               transform="translate(149.86,266.7)"
               id="g79" />
            <g
               transform="translate(83.917,157.95)"
               id="g83" />
            <g
               transform="translate(99.037,156.34)"
               id="g87" />
            <g
               transform="translate(116.79,156.7)"
               id="g91" />
            <g
               transform="translate(120.24,90.919)"
               id="g95" />
            <g
               transform="translate(88.518,216.92)"
               id="g99" />
            <g
               transform="translate(81.159,158.85)"
               id="g103" />
            <g
               transform="translate(123.49,157.14)"
               id="g107" />
            <g
               transform="translate(120,95.442)"
               id="g111" />
            <g
               transform="translate(85.6,95.442)"
               id="g115" />
            <g
               transform="translate(84.852,83.692)"
               id="g119" />
            <g
               transform="translate(150.64,83.692)"
               id="g123" />
            <g
               transform="translate(88.082,83.692)"
               id="g127" />
            <g
               transform="translate(108.58,314.33)"
               id="g131" />
            <g
               transform="translate(108.58,310.96)"
               id="g135" />
            <g
               transform="translate(133.22,331.89)"
               id="g139" />
            <g
               transform="translate(118.8,352.02)"
               id="g143" />
          </g>
          <g
             clip-path="url(#clipPath967-0-8)"
             id="g293">
            <g
               transform="translate(118.8,352.02)"
               id="g153" />
            <g
               transform="translate(103.52,335.01)"
               id="g157" />
            <g
               transform="translate(118.01,298.84)"
               id="g161" />
            <g
               transform="translate(101.85,217.66)"
               id="g165" />
            <g
               transform="translate(101.22,208.75)"
               id="g169">
              <path
                 d="m 0,0 1.896,-2.022 c 2.266,-0.475 4.984,-0.427 6.964,-0.056 2.745,0.515 3.489,1.944 3.489,1.944 0,0 4.175,-0.629 4.633,0.489 0.457,1.118 -0.572,1.227 -2.517,2.2 0,0 -7.054,4.935 -10.527,7.318 L 0.208,6.378 C -1.611,4.674 -1.704,1.818 0,0"
                 fill="#5b9dd3"
                 id="path167" />
            </g>
            <g
               transform="translate(122.91,333.61)"
               id="g173" />
            <g
               transform="translate(113.78,332.67)"
               id="g177" />
            <g
               transform="translate(127.69,332.67)"
               id="g181" />
            <g
               transform="translate(119.64,339.52)"
               id="g185" />
            <g
               transform="translate(126.8,338.58)"
               id="g189" />
            <g
               transform="translate(113.78,319.87)"
               id="g193" />
            <g
               transform="translate(97.952,330.26)"
               id="g197" />
            <g
               transform="translate(100.56,328.27)"
               id="g201" />
            <g
               transform="translate(90.463,298.47)"
               id="g205" />
            <g
               transform="translate(116.6,209.39)"
               id="g209">
              <path
                 d="m 0,0 c -2.612,0.076 -8.718,3.26 -9.254,3.466 0,0 3.535,-2.543 8.589,-3.75 0,0 0.298,0.257 0.665,0.284"
                 fill="#cf6f70"
                 id="path207" />
            </g>
            <g
               transform="translate(185.98,222.42)"
               id="g219">
              <g
                 id="g217" />
            </g>
            <g
               transform="translate(120.76,83.692)"
               id="g223" />
            <g
               transform="translate(117.53,82.892)"
               id="g227" />
            <g
               transform="translate(88.082,82.892)"
               id="g231" />
            <g
               transform="translate(367.97,220.58)"
               id="g235" />
            <g
               transform="translate(384.69,157.49)"
               id="g239" />
            <g
               transform="translate(388.75,202.88)"
               id="g243" />
            <g
               transform="translate(384.73,211.46)"
               id="g247" />
            <g
               transform="translate(379.16,103.63)"
               id="g251" />
            <g
               transform="translate(426.05,103.63)"
               id="g255" />
            <g
               transform="translate(380.29,103.63)"
               id="g259" />
            <g
               transform="translate(426.83,103.63)"
               id="g263" />
            <g
               transform="translate(361.26,289.32)"
               id="g267" />
            <g
               transform="translate(376.8,284.63)"
               id="g271" />
            <g
               transform="translate(395.71,327.19)"
               id="g275" />
            <g
               transform="translate(396.75,301.58)"
               id="g279" />
            <g
               transform="translate(384.93,289.78)"
               id="g283" />
            <g
               transform="translate(386.49,329.22)"
               id="g287" />
            <g
               transform="translate(398.34,313.49)"
               id="g291" />
          </g>
          <g
             clip-path="url(#clipPath1191-5-7)"
             id="g449">
            <g
               transform="translate(377.45,301.58)"
               id="g301" />
            <g
               transform="translate(381.63,310.82)"
               id="g305" />
            <g
               transform="translate(390.01,310.27)"
               id="g309" />
            <g
               transform="translate(377.84,310.6)"
               id="g313" />
            <g
               transform="translate(402.6,310.42)"
               id="g317" />
            <g
               transform="translate(400.86,309.09)"
               id="g321" />
            <g
               transform="translate(382.88,286.16)"
               id="g325" />
            <g
               transform="translate(392.93,215.18)"
               id="g329" />
            <g
               transform="translate(354.34,292.62)"
               id="g333" />
            <g
               transform="translate(395.71,327.19)"
               id="g337" />
            <g
               transform="translate(398.34,313.49)"
               id="g341" />
            <g
               transform="translate(385.81,316.91)"
               id="g345" />
            <g
               transform="translate(378.61,316.35)"
               id="g349" />
            <g
               transform="translate(371.89,301.53)"
               id="g353" />
            <g
               transform="translate(382.83,298.38)"
               id="g357" />
            <g
               transform="translate(355.86,271.52)"
               id="g361" />
            <g
               transform="translate(367,294.72)"
               id="g365" />
            <g
               transform="translate(370.89,103.63)"
               id="g369" />
            <g
               transform="translate(418.32,103.63)"
               id="g373" />
            <g
               transform="translate(416.47,248.54)"
               id="g375" />
            <g
               transform="translate(418.66,95.442)"
               id="g379" />
            <g
               transform="translate(449.3,83.692)"
               id="g383" />
            <g
               transform="translate(419.47,83.692)"
               id="g387" />
            <g
               transform="translate(449.49,82.091)"
               id="g391" />
            <g
               transform="translate(379.62,95.442)"
               id="g395" />
            <g
               transform="translate(348.99,83.692)"
               id="g399" />
            <g
               transform="translate(378.82,83.692)"
               id="g403" />
            <g
               transform="translate(348.8,82.091)"
               id="g407" />
            <g
               transform="translate(230.9,118.37)"
               id="g411" />
            <g
               transform="translate(272.46,132.33)"
               id="g415" />
            <g
               transform="translate(196.39,107.83)"
               id="g419" />
            <g
               transform="translate(230.9,118.37)"
               id="g423" />
            <g
               transform="translate(209.16,116.7)"
               id="g427" />
            <g
               transform="translate(203.53,212.78)"
               id="g431" />
            <g
               transform="translate(200.24,214.74)"
               id="g435" />
            <g
               transform="translate(192.29,184.97)"
               id="g439" />
            <g
               transform="translate(192.29,184.97)"
               id="g443" />
            <g
               transform="translate(199.8,210.73)"
               id="g447" />
          </g>
          <g
             clip-path="url(#clipPath1463-9-5)"
             id="g675">
            <g
               transform="translate(202.89,211.04)"
               id="g457" />
            <g
               transform="translate(208.64,195.3)"
               id="g461" />
            <g
               transform="translate(211.08,196.19)"
               id="g465" />
            <g
               transform="translate(200.91,195)"
               id="g469" />
            <g
               transform="translate(186.33,190.23)"
               id="g473" />
            <g
               transform="translate(188.29,189.26)"
               id="g477" />
            <g
               transform="translate(190.46,171.73)"
               id="g481" />
            <g
               transform="translate(192,151.97)"
               id="g485" />
            <g
               transform="translate(181.17,166.47)"
               id="g489" />
            <g
               transform="translate(175.39,120.06)"
               id="g493" />
            <g
               transform="translate(175.19,116.14)"
               id="g497" />
            <g
               transform="translate(189.94,194.05)"
               id="g501" />
            <g
               transform="translate(190.54,173.74)"
               id="g505" />
            <g
               transform="translate(203.61,184.48)"
               id="g509" />
            <g
               transform="translate(185.89,116.14)"
               id="g513" />
            <g
               transform="translate(270.51,129.7)"
               id="g517" />
            <g
               transform="translate(288.04,124.94)"
               id="g521" />
            <g
               transform="translate(310.71,95.442)"
               id="g525" />
            <g
               transform="translate(341.34,83.692)"
               id="g529" />
            <g
               transform="translate(311.51,83.692)"
               id="g533" />
            <g
               transform="translate(341.53,82.091)"
               id="g537" />
            <g
               transform="translate(226.51,82.091)"
               id="g541" />
            <g
               transform="translate(285.17,95.442)"
               id="g545" />
            <g
               transform="translate(315.8,83.692)"
               id="g549" />
            <g
               transform="translate(285.97,83.692)"
               id="g553" />
            <g
               transform="translate(315.99,82.091)"
               id="g557" />
            <g
               transform="translate(204.6,202.79)"
               id="g561" />
            <g
               transform="translate(210.24,201.89)"
               id="g565" />
            <g
               transform="translate(189.94,194.05)"
               id="g569" />
            <g
               transform="translate(418.66,388.95)"
               id="g573">
              <path
                 d="m 0,0 c -4.925,-2.288 -8.638,-6.06 -10.897,-10.513 -0.399,-0.785 -0.077,-1.745 0.712,-2.134 l 5.385,-2.655 c 0.781,-0.385 1.713,-0.057 2.113,0.718 1.356,2.624 3.552,4.848 6.457,6.221 6.532,3.088 14.464,0.609 18.078,-5.648 3.992,-6.912 1.418,-15.691 -5.577,-19.385 -1.884,-0.996 -3.893,-1.515 -5.89,-1.606 -1.157,-0.053 -2.311,0.04 -3.433,0.269 -3.222,0.657 -6.405,-1.295 -7.312,-4.456 l -0.669,-2.331 -1.668,-5.771 c -0.241,-0.839 0.244,-1.715 1.083,-1.956 l 5.776,-1.658 c 0.84,-0.241 1.716,0.244 1.956,1.083 l 1.657,5.731 c 4.281,-0.372 8.71,0.433 12.785,2.585 11.662,6.159 15.905,20.93 9.049,32.396 C 23.56,1.004 10.687,4.964 0,0"
                 fill="#50c7f1"
                 id="path571" />
            </g>
            <g
               transform="translate(413.35,328.18)"
               id="g577">
              <path
                 d="M 0,0 C -1.183,2.239 -0.326,5.014 1.913,6.197 4.153,7.38 6.928,6.523 8.11,4.284 9.293,2.044 8.437,-0.73 6.197,-1.914 3.957,-3.096 1.183,-2.24 0,0"
                 fill="#5b9dd3"
                 id="path575" />
            </g>
            <g
               transform="translate(418.78,328.06)"
               id="g581">
              <path
                 d="M 0,0 C 1.946,1.028 2.69,3.439 1.662,5.385 1.54,5.618 1.396,5.832 1.237,6.029 -0.125,6.972 -1.951,7.145 -3.518,6.317 -4.738,5.672 -5.545,4.553 -5.837,3.306 -5.807,2.749 -5.663,2.189 -5.385,1.663 -4.356,-0.283 -1.946,-1.028 0,0"
                 fill="#50c7f1"
                 id="path579" />
            </g>
            <g
               transform="translate(424.78,339.13)"
               id="g585">
              <path
                 d="M 0,0 1.656,5.73 C 5.937,5.359 10.367,6.164 14.441,8.315 22.65,12.651 27.177,21.254 26.75,29.967 26.405,24.125 23.799,17.73 16.441,12.603 10.182,8.242 3.715,8.31 0.728,8.651 -0.266,8.765 -1.187,8.137 -1.443,7.17 -2.218,4.258 -2.284,3.651 -2.539,2.374 -2.887,0.632 -3.756,-0.42 -7.732,0.575 l 5.776,-1.658 C -1.116,-1.325 -0.241,-0.839 0,0"
                 fill="#5b9dd3"
                 id="path583" />
            </g>
            <g
               transform="translate(414.31,384.68)"
               id="g589">
              <path
                 d="M 0,0 C 5.579,6.063 15.833,6.331 19.556,5.735 14.607,6.941 9.253,6.545 4.356,4.271 -0.568,1.983 -4.281,-1.789 -6.541,-6.242 -6.939,-7.027 -6.617,-7.987 -5.828,-8.376 l 5.385,-2.655 c 0,0 -2.595,2.029 -3.447,2.924 C -4.74,-7.212 -5.589,-6.074 0,0"
                 fill="#84dff7"
                 id="path587" />
            </g>
            <g
               transform="translate(434.31,355.25)"
               id="g593">
              <path
                 d="m 0,0 c -1.699,-0.792 -3.484,-1.215 -5.261,-1.295 -1.157,-0.053 -2.31,0.039 -3.432,0.269 -3.223,0.657 -6.406,-1.295 -7.313,-4.457 l -0.669,-2.33 -1.243,-4.284 c 0.759,1.966 1.065,1.435 1.977,3.956 1.19,3.294 2.228,6.586 6.865,6.104 4.638,-0.482 7.381,0.643 9.077,2.036 z"
                 fill="#84dff7"
                 id="path591" />
            </g>
            <g
               class="topqmark rotate"
               id="g619">
              <g
                 transform="translate(154.7,430.75)"
                 id="g597">
                <path
                   d="m 0,0 c -4.924,-2.287 -8.637,-6.059 -10.897,-10.513 -0.398,-0.785 -0.077,-1.745 0.713,-2.134 l 5.384,-2.655 c 0.782,-0.385 1.714,-0.056 2.113,0.718 1.356,2.624 3.553,4.848 6.457,6.221 6.532,3.088 14.464,0.609 18.078,-5.648 3.991,-6.911 1.417,-15.691 -5.576,-19.385 -1.885,-0.996 -3.894,-1.515 -5.891,-1.606 -1.157,-0.052 -2.31,0.04 -3.432,0.269 -3.223,0.658 -6.406,-1.295 -7.313,-4.456 l -0.67,-2.331 -1.667,-5.771 c -0.241,-0.839 0.243,-1.715 1.083,-1.956 l 5.776,-1.658 c 0.84,-0.241 1.716,0.244 1.957,1.083 l 1.656,5.731 c 4.281,-0.372 8.711,0.433 12.785,2.585 11.662,6.16 15.905,20.93 9.05,32.396 C 23.56,1.004 10.687,4.964 0,0"
                   fill="#50c7f1"
                   id="path595" />
              </g>
              <g
                 transform="translate(149.38,369.98)"
                 id="g601">
                <path
                   d="M 0,0 C -1.183,2.24 -0.326,5.014 1.914,6.197 4.153,7.38 6.928,6.523 8.111,4.284 9.293,2.044 8.437,-0.73 6.197,-1.914 3.958,-3.096 1.183,-2.24 0,0"
                   fill="#5b9dd3"
                   id="path599" />
              </g>
              <g
                 transform="translate(154.81,369.86)"
                 id="g605">
                <path
                   d="M 0,0 C 1.946,1.028 2.69,3.438 1.663,5.385 1.54,5.617 1.396,5.832 1.237,6.028 -0.125,6.972 -1.951,7.145 -3.517,6.317 -4.739,5.672 -5.544,4.553 -5.837,3.306 -5.807,2.749 -5.663,2.188 -5.385,1.663 -4.357,-0.284 -1.946,-1.028 0,0"
                   fill="#50c7f1"
                   id="path603" />
              </g>
              <g
                 transform="translate(160.81,380.93)"
                 id="g609">
                <path
                   d="M 0,0 1.656,5.73 C 5.937,5.359 10.367,6.164 14.441,8.315 22.65,12.651 27.176,21.254 26.75,29.967 26.405,24.125 23.799,17.73 16.44,12.604 10.182,8.242 3.715,8.31 0.728,8.651 -0.267,8.765 -1.187,8.137 -1.444,7.17 -2.218,4.258 -2.285,3.651 -2.54,2.374 -2.887,0.632 -3.757,-0.42 -7.732,0.575 l 5.775,-1.658 C -1.117,-1.325 -0.241,-0.839 0,0"
                   fill="#5b9dd3"
                   id="path607" />
              </g>
              <g
                 transform="translate(150.34,426.48)"
                 id="g613">
                <path
                   d="M 0,0 C 5.58,6.063 15.833,6.331 19.556,5.735 14.608,6.941 9.253,6.545 4.356,4.271 -0.568,1.984 -4.281,-1.788 -6.541,-6.242 -6.939,-7.027 -6.617,-7.987 -5.828,-8.376 l 5.385,-2.655 c 0,0 -2.595,2.029 -3.446,2.924 C -4.741,-7.211 -5.589,-6.074 0,0"
                   fill="#84dff7"
                   id="path611" />
              </g>
              <g
                 transform="translate(170.34,397.04)"
                 id="g617">
                <path
                   d="m 0,0 c -1.699,-0.792 -3.485,-1.215 -5.261,-1.295 -1.157,-0.053 -2.31,0.04 -3.432,0.269 -3.223,0.657 -6.405,-1.295 -7.313,-4.457 l -0.669,-2.33 -1.242,-4.283 c 0.758,1.965 1.064,1.434 1.976,3.956 1.19,3.294 2.228,6.586 6.865,6.103 4.638,-0.482 7.381,0.644 9.076,2.036 z"
                   fill="#84dff7"
                   id="path615" />
              </g>
            </g>
            <g
               class="leftqmark rotate"
               id="g645">
              <g
                 transform="translate(33.784,364.89)"
                 id="g623">
                <path
                   d="m 0,0 c -2.293,-4.922 -2.703,-10.199 -1.562,-15.062 0.201,-0.856 1.066,-1.383 1.921,-1.172 l 5.828,1.439 c 0.846,0.208 1.347,1.06 1.154,1.91 -0.654,2.88 -0.407,5.996 0.93,8.917 3.006,6.57 10.67,9.784 17.465,7.327 7.506,-2.714 11.193,-11.088 8.224,-18.418 -0.8,-1.976 -2.002,-3.668 -3.471,-5.024 -0.851,-0.786 -1.793,-1.458 -2.799,-2.005 -2.888,-1.574 -4.064,-5.117 -2.722,-8.12 l 0.99,-2.213 2.442,-5.489 c 0.357,-0.797 1.292,-1.154 2.089,-0.798 l 5.487,2.453 c 0.797,0.357 1.154,1.292 0.797,2.089 l -2.424,5.45 c 3.513,2.474 6.383,5.944 8.112,10.214 C 47.413,-6.278 41.142,7.752 28.512,12.106 17.372,15.946 4.976,10.681 0,0"
                   fill="#50c7f1"
                   id="path621" />
              </g>
              <g
                 transform="translate(68.867,314.99)"
                 id="g627">
                <path
                   d="M 0,0 C -2.348,0.951 -3.48,3.625 -2.529,5.973 -1.578,8.32 1.096,9.452 3.443,8.501 5.791,7.551 6.923,4.877 5.973,2.529 5.021,0.182 2.348,-0.951 0,0"
                   fill="#5b9dd3"
                   id="path625" />
              </g>
              <g
                 transform="translate(73.098,318.39)"
                 id="g631">
                <path
                   d="M 0,0 C 0.826,2.04 -0.158,4.363 -2.197,5.189 -2.441,5.288 -2.689,5.359 -2.938,5.408 -4.587,5.251 -6.095,4.208 -6.76,2.566 -7.278,1.286 -7.174,-0.09 -6.594,-1.232 -6.212,-1.639 -5.741,-1.974 -5.189,-2.197 -3.149,-3.023 -0.826,-2.04 0,0"
                   fill="#50c7f1"
                   id="path629" />
              </g>
              <g
                 transform="translate(70.557,330.72)"
                 id="g635">
                <path
                   d="m 0,0 -2.425,5.45 c 3.513,2.473 6.383,5.943 8.113,10.213 3.485,8.605 1.404,18.101 -4.535,24.49 3.5,-4.69 5.627,-11.26 3.302,-19.922 C 2.477,12.863 -2.512,8.748 -5.017,7.085 -5.85,6.532 -6.15,5.458 -5.724,4.554 -4.439,1.827 -4.099,1.32 -3.472,0.18 c 0.857,-1.557 0.87,-2.922 -2.812,-4.722 l 5.486,2.453 C 0,-1.733 0.356,-0.797 0,0"
                   fill="#5b9dd3"
                   id="path633" />
              </g>
              <g
                 transform="translate(33.203,358.82)"
                 id="g639">
                <path
                   d="M 0,0 C 0.361,8.232 8.031,15.042 11.262,16.985 6.701,14.72 2.86,10.967 0.581,6.073 -1.712,1.151 -2.122,-4.126 -0.981,-8.988 c 0.201,-0.857 1.065,-1.384 1.92,-1.173 l 5.829,1.439 c 0,0 -3.292,-0.12 -4.52,0.016 C 1.021,-8.57 -0.361,-8.246 0,0"
                   fill="#84dff7"
                   id="path637" />
              </g>
              <g
                 transform="translate(67.462,349.19)"
                 id="g643">
                <path
                   d="m 0,0 c -0.79,-1.701 -1.883,-3.174 -3.189,-4.38 -0.852,-0.786 -1.793,-1.458 -2.799,-2.006 -2.888,-1.573 -4.064,-5.116 -2.722,-8.119 l 0.99,-2.214 1.809,-4.076 c -0.686,1.992 -0.11,1.783 -1.037,4.299 -1.212,3.286 -2.539,6.473 1.319,9.091 3.857,2.619 5.23,5.247 5.63,7.405 z"
                   fill="#84dff7"
                   id="path641" />
              </g>
            </g>
            <g
               transform="translate(252.77,398.56)"
               id="g649">
              <path
                 d="m 0,0 c -6.545,-9.537 -9.258,-20.481 -8.567,-31.098 0.122,-1.871 1.755,-3.282 3.624,-3.139 l 12.751,0.978 c 1.851,0.142 3.202,1.755 3.094,3.609 -0.362,6.28 1.251,12.743 5.084,18.411 8.623,12.749 25.854,16.814 39.268,9.266 14.819,-8.338 19.628,-27.225 10.817,-41.586 -2.375,-3.871 -5.494,-7.004 -9.056,-9.337 -2.064,-1.353 -4.278,-2.435 -6.583,-3.232 -6.622,-2.292 -10.337,-9.325 -8.57,-16.106 l 1.303,-4.998 3.205,-12.388 c 0.47,-1.801 2.31,-2.88 4.11,-2.411 l 12.388,3.229 c 1.8,0.469 2.879,2.309 2.41,4.11 l -3.182,12.301 c 8.25,3.965 15.497,10.248 20.63,18.614 C 97.419,-29.829 89.167,1.852 64.157,15.431 42.097,27.408 14.203,20.697 0,0"
                 fill="#50c7f1"
                 id="path647" />
            </g>
            <g
               transform="translate(308.98,281.4)"
               id="g653">
              <path
                 d="m 0,0 c -4.6,2.822 -6.04,8.837 -3.219,13.437 2.823,4.599 8.838,6.039 13.437,3.217 4.599,-2.821 6.04,-8.837 3.219,-13.436 C 10.614,-1.381 4.599,-2.822 0,0"
                 fill="#5b9dd3"
                 id="path651" />
            </g>
            <g
               transform="translate(319.06,287.07)"
               id="g657">
              <path
                 d="m 0,0 c 2.452,3.996 1.2,9.224 -2.796,11.675 -0.477,0.293 -0.974,0.53 -1.479,0.719 -3.52,0.25 -7.055,-1.415 -9.029,-4.63 -1.538,-2.509 -1.8,-5.435 -0.983,-8.038 0.66,-0.99 1.532,-1.859 2.612,-2.522 C -7.679,-5.248 -2.452,-3.996 0,0"
                 fill="#50c7f1"
                 id="path655" />
            </g>
            <g
               transform="translate(318.05,313.87)"
               id="g661">
              <path
                 d="M 0,0 -3.183,12.302 C 5.067,16.266 12.314,22.55 17.447,30.915 27.79,47.773 26.75,68.454 16.513,83.964 22.222,72.88 24.385,58.329 16.46,40.945 9.719,26.158 -2.209,19.263 -8.056,16.648 -10,15.778 -11.007,13.627 -10.429,11.577 -8.688,5.398 -8.15,4.213 -7.231,1.596 -5.979,-1.975 -6.43,-4.848 -14.798,-7.338 L -2.41,-4.11 C -0.61,-3.641 0.469,-1.801 0,0"
                 fill="#5b9dd3"
                 id="path659" />
            </g>
            <g
               transform="translate(249.42,386)"
               id="g665">
              <path
                 d="M 0,0 C 3.647,17.17 22.154,28.788 29.623,31.736 19.244,28.578 9.858,22.041 3.351,12.557 -3.194,3.02 -5.907,-7.924 -5.216,-18.541 c 0.122,-1.871 1.754,-3.282 3.624,-3.139 l 12.75,0.978 c 0,0 -6.958,0.904 -9.489,1.621 C -0.863,-18.364 -3.653,-17.199 0,0"
                 fill="#84dff7"
                 id="path663" />
            </g>
            <g
               transform="translate(318.03,353.75)"
               id="g669">
              <path
                 d="m 0,0 c -2.255,-3.296 -5.069,-6.008 -8.238,-8.084 -2.064,-1.352 -4.278,-2.434 -6.583,-3.232 -6.622,-2.292 -10.336,-9.325 -8.57,-16.106 l 1.303,-4.997 2.371,-9.201 c -0.743,4.427 0.396,3.786 -0.671,9.397 -1.392,7.33 -3.062,14.491 5.961,18.64 9.025,4.149 12.831,9.189 14.429,13.582 z"
                 fill="#84dff7"
                 id="path667" />
            </g>
            <g
               transform="translate(54.773,82.091)"
               id="g673">
              <path
                 d="m 0,0 h -23.165 c -10.566,0 62.875,-5.864 223.73,-5.864 160.85,0 234.74,6.264 216.23,6.264 C 398.289,0.4 0.005,0 0.005,0"
                 fill="#b7d7e2"
                 id="path671" />
            </g>
          </g>
          <g
             clip-path="url(#clipPath1711-2-8)"
             id="g677" />
        </g>
      </g>
      <g
         transform="translate(6.6764,-118.6)"
         id="g683" />
    </g>
  </g>
  <g
     id="g705">
    <g
       class="qmark rotate"
       id="g703">
      <g
         transform="matrix(.35278 0 0 -.35278 21.128 47.427)"
         id="g701">
        <path
           transform="translate(2.5427e-7 -1.3875e-6)"
           d="m113.56 53.81c-15.412 1.5859-30.023-2.2374-42.067-9.8542-2.1237-1.3421-2.7359-4.1667-1.3699-6.2733l9.3221-14.371c1.353-2.0867 4.1166-2.641 6.2283-1.3279 7.1546 4.452 15.788 6.6965 24.912 5.8204 20.523-1.9719 36.346-19.633 36.065-40.249-0.31069-22.773-19.443-40.535-41.981-39.374-6.0743 0.31205-11.759 1.9725-16.787 4.6676-2.9125 1.5611-5.6044 3.4715-8.0206 5.6721-6.9402 6.3192-17.592 6.1808-24.436-0.24293l-44.406-41.69c-1.8173-1.7058-1.9065-4.5619-0.20175-6.3782l11.737-12.503c1.7058-1.8163 4.5609-1.9065 6.3782-0.20075l39.276 36.872c9.95-7.1633 21.985-11.66 35.114-12.337 37.585-1.9352 69.56 28.075 69.503 66.194-0.0499 33.624-25.82 62.131-59.267 65.573"
           fill="#50c7f1"
           id="path689" />
        <path
           transform="translate(172.84 -11.843)"
           d="m0 0c-3e-3 5.612-0.737 11.077-2.09 16.313 2.646-19.41-1.02-51.896-30.307-67.127-26.401-13.731-50.629-9.485-66.866 4.279-3.106 2.633-7.727 2.403-10.661-0.42-10.614-10.214-32.966-31.68-35.595-33.836-3.182-2.61-7.344-5.509-12.619-1.29l7.778-8.301c1.704-1.818 4.559-1.911 6.378-0.207l39.312 36.834c9.943-7.173 21.974-11.683 35.102-12.371 37.583-1.972 69.587 28.007 69.568 66.126"
           fill="#5b9dd3"
           id="path691" />
        <path
           transform="translate(-11.528 -109.23)"
           d="m0 0c0.378 7.218 6.537 12.762 13.754 12.383s12.761-6.536 12.383-13.754c-0.379-7.218-6.537-12.762-13.754-12.383s-12.761 6.536-12.383 13.754"
           fill="#5b9dd3"
           id="path693" />
        <path
           transform="translate(13.583 -105.87)"
           d="m0 0c0.019 0.351 0.014 0.697 2e-3 1.042-1.89 4.469-6.189 7.714-11.359 7.985-5.655 0.297-10.645-3.049-12.73-7.98-0.227-6.558 4.834-12.113 11.412-12.459 6.652-0.349 12.326 4.761 12.675 11.412"
           fill="#50c7f1"
           id="path695" />
        <path
           transform="translate(79.491 23.323)"
           d="m0 0c-2.236 6.069-5.328 13.999-4.709 16.322 0.618 2.323 27.737 21.1 65.281 5.443-7.895 4.642-16.842 7.704-26.427 8.7-15.41 1.6-30.025-2.208-42.077-9.813-2.125-1.34-2.74-4.164-1.376-6.273z"
           fill="#84dff7"
           id="path697" />
      </g>
    </g>
  </g>
  <g
     id="g713">
    <g
       transform="matrix(.35278 0 0 -.35278 54.81 74.247)"
       id="g711" />
  </g>
  <g
     id="g723">
    <g
       class="leftarm rotate"
       id="g721">
      <g
         transform="matrix(.35278 0 0 -.35278 21.114 47.419)"
         id="g719" />
    </g>
  </g>
  <g
     id="g753">
    <g
       class="rightarm rotate"
       id="g751">
      <g
         transform="matrix(.35278 0 0 -.35278 136.12 65.033)"
         id="g749">
        <path
           transform="translate(-81.947 -135.44)"
           d="M 0,0 C -2.674,5.14 -0.675,11.473 4.465,14.146 9.604,16.82 15.938,14.82 18.611,9.681 21.285,4.542 19.286,-1.792 14.146,-4.466 9.007,-7.139 2.673,-5.14 0,0"
           fill="#5b9dd3"
           id="path727" />
        <path
           transform="translate(-69.761 -136.38)"
           d="m0 0c4.611 2.399 6.405 8.081 4.007 12.692-0.399 0.766-0.895 1.446-1.454 2.05-3.028 1.832-6.905 2.099-10.275 0.346-3.624-1.885-5.676-5.591-5.64-9.413 0.169-0.567 0.387-1.125 0.671-1.668 2.398-4.611 8.081-6.405 12.691-4.007"
           fill="#50c7f1"
           id="path729" />
        <path
           transform="translate(-68.517 5.0234)"
           d="m0 0c-11.297-5.16-19.844-13.734-25.076-23.889-0.923-1.79-0.2-3.991 1.6-4.892l12.277-6.149c1.783-0.892 3.918-0.154 4.844 1.612 3.138 5.981 8.195 11.038 14.856 14.135 14.985 6.969 33.092 1.186 41.268-13.176 9.03-15.867 3.016-35.911-13.032-44.258-4.326-2.25-8.928-3.41-13.498-3.589-2.647-0.104-5.282 0.124-7.846 0.664-7.363 1.551-14.668-2.869-16.79-10.088l-1.564-5.32-5.463-18.483c-0.563-1.916 0.534-3.926 2.45-4.49l13.188-3.876c1.917-0.563 3.927 0.533 4.49 2.45l5.436 18.391c9.785-0.911 19.929 0.866 29.278 5.729 26.764 13.921 36.68 47.644 21.166 73.967-13.685 23.22-43.07 32.462-67.584 21.262"
           fill="#50c7f1"
           id="path731" />
        <path
           transform="translate(6.1641 -48.268)"
           d="m0 0c-1.087-6.494-9.31-29.291-27.677-37.227-10.941-4.726-23.344-5.196-29.844-5.048-2.675 0.061-5.051-1.684-5.776-4.259-0.898-3.194-2.145-7.547-3.279-11.224-1.932-6.263-4.366-9.474-12.236-7.416l11.344-3.334c1.917-0.563 3.927 0.533 4.49 2.45l5.436 18.391c9.785-0.911 19.93 0.866 29.278 5.729 16.494 8.58 26.577 24.683 28.264 41.938"
           fill="#5b9dd3"
           id="path733" />
        <path
           transform="translate(-53.397 9.3276)"
           d="m0 0c-5.125-0.657-10.221-2.065-15.12-4.304-11.297-5.16-19.844-13.735-25.076-23.889-0.923-1.79-0.2-3.991 1.6-4.892l10.457-5.237c-10.274 6.085-9.029 6.376-1.699 18.349 7.292 11.91 22.334 18.431 29.838 19.973"
           fill="#84dff7"
           id="path735" />
        <path
           transform="translate(-43.783 -77.554)"
           d="m0 0c10.476 0.783 16.561 7.561 18.686 10.594h-1e-3c-1.978-1.782-4.21-3.348-6.682-4.634-4.326-2.25-8.929-3.41-13.498-3.589-2.648-0.103-5.282 0.124-7.847 0.664-7.362 1.551-14.668-2.869-16.79-10.088l-1.563-5.32-4.867-16.462c1e-3 0 3.728 9.359 6.566 16.802 2.837 7.442 5.006 10.081 9.367 11.734s6.153-0.484 16.629 0.299"
           fill="#84dff7"
           id="path737" />
      </g>
    </g>
  </g>
</svg>
