<?xml version="1.0" encoding="UTF-8" standalone="no"?>
<!-- Created with Inkscape (http://www.inkscape.org/) -->

<svg
   xmlns:dc="http://purl.org/dc/elements/1.1/"
   xmlns:cc="http://creativecommons.org/ns#"
   xmlns:rdf="http://www.w3.org/1999/02/22-rdf-syntax-ns#"
   xmlns:svg="http://www.w3.org/2000/svg"
   xmlns="http://www.w3.org/2000/svg"
   xmlns:sodipodi="http://sodipodi.sourceforge.net/DTD/sodipodi-0.dtd"
   xmlns:inkscape="http://www.inkscape.org/namespaces/inkscape"
   version="1.1"
   id="svg1803"
   xml:space="preserve"
   width="232.563"
   height="234.78101"
   viewBox="0 0 232.563 234.78101"
   sodipodi:docname="hand2.svg"
   inkscape:version="0.92.4 (5da689c313, 2019-01-14)"><metadata
     id="metadata1809"><rdf:RDF><cc:Work
         rdf:about=""><dc:format>image/svg+xml</dc:format><dc:type
           rdf:resource="http://purl.org/dc/dcmitype/StillImage" /><dc:title></dc:title></cc:Work></rdf:RDF></metadata><defs
     id="defs1807"><clipPath
       clipPathUnits="userSpaceOnUse"
       id="clipPath1821"><path
         d="M 0,500 H 499.999 V 0 H 0 Z"
         id="path1819"
         inkscape:connector-curvature="0" /></clipPath><clipPath
       clipPathUnits="userSpaceOnUse"
       id="clipPath1893"><path
         d="M 0,500 H 499.999 V 0 H 0 Z"
         id="path1891"
         inkscape:connector-curvature="0" /></clipPath><clipPath
       clipPathUnits="userSpaceOnUse"
       id="clipPath1909"><path
         d="M 0,500 H 499.999 V 0 H 0 Z"
         id="path1907"
         inkscape:connector-curvature="0" /></clipPath><clipPath
       clipPathUnits="userSpaceOnUse"
       id="clipPath1917"><path
         d="M 61.9052,335.167 H 466.8 V 107.844 H 61.9052 Z"
         id="path1915"
         inkscape:connector-curvature="0" /></clipPath><clipPath
       clipPathUnits="userSpaceOnUse"
       id="clipPath1941"><path
         d="M 71.4052,345.334 H 265.36 V 316.445 H 71.4052 Z"
         id="path1939"
         inkscape:connector-curvature="0" /></clipPath><clipPath
       clipPathUnits="userSpaceOnUse"
       id="clipPath1985"><path
         d="m 127.86,276.225 h 155.441 v -72.78 H 127.86 Z"
         id="path1983"
         inkscape:connector-curvature="0" /></clipPath><clipPath
       clipPathUnits="userSpaceOnUse"
       id="clipPath1989"><path
         d="m 127.86,276.225 h 155.441 v -6.78 H 127.86 Z"
         id="path1987"
         inkscape:connector-curvature="0" /></clipPath><clipPath
       clipPathUnits="userSpaceOnUse"
       id="clipPath1993"><path
         d="m 127.86,259.725 h 155.441 v -6.78 H 127.86 Z"
         id="path1991"
         inkscape:connector-curvature="0" /></clipPath><clipPath
       clipPathUnits="userSpaceOnUse"
       id="clipPath1997"><path
         d="m 127.86,243.225 h 155.441 v -6.78 H 127.86 Z"
         id="path1995"
         inkscape:connector-curvature="0" /></clipPath><clipPath
       clipPathUnits="userSpaceOnUse"
       id="clipPath2001"><path
         d="m 127.86,226.725 h 155.441 v -6.78 H 127.86 Z"
         id="path1999"
         inkscape:connector-curvature="0" /></clipPath><clipPath
       clipPathUnits="userSpaceOnUse"
       id="clipPath2005"><path
         d="m 127.86,210.604 h 127.912 v -7.159 H 127.86 Z"
         id="path2003"
         inkscape:connector-curvature="0" /></clipPath><clipPath
       clipPathUnits="userSpaceOnUse"
       id="clipPath2077"><path
         d="m 358.384,290.795 c -7.056,-3.752 -15.246,-8.515 -23.444,-13.593 v 0 c -27.539,-17.058 -43.472,-47.873 -41.4,-80.201 v 0 l 3.075,-47.966 c -1.627,-9.252 46.932,-11.419 56.183,-13.045 v 0 l 82.788,-14.555 c 9.252,-1.626 18.151,4.612 19.777,13.863 v 0 l 12.513,71.17 c 1.626,9.25 -4.612,18.15 -13.863,19.777 v 0 l -62.885,60.042 c -5.38,5.138 -12.399,7.814 -19.498,7.814 v 0 c -4.517,-10e-4 -9.067,-1.084 -13.246,-3.306"
         id="path2075"
         inkscape:connector-curvature="0" /></clipPath><clipPath
       clipPathUnits="userSpaceOnUse"
       id="clipPath2085"><path
         d="M 297.045,288.179 H 525.348 V 95.7518 H 297.045 Z"
         id="path2083"
         inkscape:connector-curvature="0" /></clipPath><clipPath
       clipPathUnits="userSpaceOnUse"
       id="clipPath2153"><path
         d="M 0,500 H 499.999 V 0 H 0 Z"
         id="path2151"
         inkscape:connector-curvature="0" /></clipPath><clipPath
       clipPathUnits="userSpaceOnUse"
       id="clipPath2165"><path
         d="m 361.718,282.461 c -7.057,-3.751 -15.247,-8.514 -23.444,-13.592 v 0 C 310.735,251.81 294.801,220.996 296.873,188.668 v 0 l 3.075,-47.967 c -1.626,-9.251 46.933,-11.418 56.184,-13.045 v 0 l 82.788,-14.555 c 9.251,-1.626 18.15,4.613 19.777,13.863 v 0 l 12.512,71.171 c 1.627,9.25 -4.612,18.15 -13.862,19.777 v 0 l -62.885,60.042 c -5.38,5.137 -12.4,7.813 -19.499,7.813 v 0 c -4.517,0 -9.066,-1.084 -13.245,-3.306"
         id="path2163"
         inkscape:connector-curvature="0" /></clipPath><clipPath
       clipPathUnits="userSpaceOnUse"
       id="clipPath2233"><path
         d="M 0,500 H 499.999 V 0 H 0 Z"
         id="path2231"
         inkscape:connector-curvature="0" /></clipPath><clipPath
       clipPathUnits="userSpaceOnUse"
       id="clipPath2165-2"><path
         d="m 361.718,282.461 c -7.057,-3.751 -15.247,-8.514 -23.444,-13.592 v 0 C 310.735,251.81 294.801,220.996 296.873,188.668 v 0 l 3.075,-47.967 c -1.626,-9.251 46.933,-11.418 56.184,-13.045 v 0 l 82.788,-14.555 c 9.251,-1.626 18.15,4.613 19.777,13.863 v 0 l 12.512,71.171 c 1.627,9.25 -4.612,18.15 -13.862,19.777 v 0 l -62.885,60.042 c -5.38,5.137 -12.4,7.813 -19.499,7.813 v 0 c -4.517,0 -9.066,-1.084 -13.245,-3.306"
         id="path2163-3"
         inkscape:connector-curvature="0" /></clipPath><clipPath
       clipPathUnits="userSpaceOnUse"
       id="clipPath2153-8"><path
         d="M 0,500 H 499.999 V 0 H 0 Z"
         id="path2151-8"
         inkscape:connector-curvature="0" /></clipPath><clipPath
       clipPathUnits="userSpaceOnUse"
       id="clipPath2077-2"><path
         d="m 358.384,290.795 c -7.056,-3.752 -15.246,-8.515 -23.444,-13.593 v 0 c -27.539,-17.058 -43.472,-47.873 -41.4,-80.201 v 0 l 3.075,-47.966 c -1.627,-9.252 46.932,-11.419 56.183,-13.045 v 0 l 82.788,-14.555 c 9.252,-1.626 18.151,4.612 19.777,13.863 v 0 l 12.513,71.17 c 1.626,9.25 -4.612,18.15 -13.863,19.777 v 0 l -62.885,60.042 c -5.38,5.138 -12.399,7.814 -19.498,7.814 v 0 c -4.517,-10e-4 -9.067,-1.084 -13.246,-3.306"
         id="path2075-9"
         inkscape:connector-curvature="0" /></clipPath><clipPath
       clipPathUnits="userSpaceOnUse"
       id="clipPath2085-6"><path
         d="M 297.045,288.179 H 525.348 V 95.7518 H 297.045 Z"
         id="path2083-9"
         inkscape:connector-curvature="0" /></clipPath></defs><sodipodi:namedview
     pagecolor="#ffffff"
     bordercolor="#666666"
     borderopacity="1"
     objecttolerance="10"
     gridtolerance="10"
     guidetolerance="10"
     inkscape:pageopacity="0"
     inkscape:pageshadow="2"
     inkscape:window-width="1024"
     inkscape:window-height="706"
     id="namedview1805"
     showgrid="false"
     inkscape:zoom="0.72902191"
     inkscape:cx="217.44407"
     inkscape:cy="29.944024"
     inkscape:window-x="-8"
     inkscape:window-y="-8"
     inkscape:window-maximized="1"
     inkscape:current-layer="g1811" /><g
     id="g1811"
     inkscape:groupmode="layer"
     inkscape:label="461725-PFTPOD-324"
     transform="matrix(1.3333333,0,0,-1.3333333,0,234.78098)"><g
       transform="translate(-108.54413,124.58198)"
       id="g2147"><g
         id="g2149"
         clip-path="url(#clipPath2153-8)"><g
           id="g2155"
           transform="translate(438.92,113.1016)" /></g></g><g
       transform="translate(-296.81009,-112.97888)"
       id="g2071"
       style="fill:#4d4d4d"><g
         id="g2073"
         clip-path="url(#clipPath2077-2)"
         style="fill:#4d4d4d"><g
           id="g2079"
           style="fill:#4d4d4d"><g
             id="g2081"
             style="fill:#4d4d4d" /><g
             id="g2145"
             style="fill:#4d4d4d"><g
               clip-path="url(#clipPath2085-6)"
               id="g2143"
               style="opacity:0.10000598;fill:#4d4d4d"><g
                 transform="translate(386.7636,167.9773)"
                 id="g2089"
                 style="fill:#4d4d4d"><path
                   d="M 0,0 C 0,0 2.905,27.032 25.125,33.227 L 30.712,19.088 12.648,-4.324 Z"
                   style="fill:#4d4d4d;fill-opacity:1;fill-rule:nonzero;stroke:none"
                   id="path2087"
                   inkscape:connector-curvature="0" /></g><g
                 transform="translate(461.7032,121.8906)"
                 id="g2093"
                 style="fill:#4d4d4d"><path
                   d="m 0,0 21.791,48.189 c 0,0 -9.416,1.885 -52.16,14.594 -23.993,7.133 -33.778,12.42 -38.288,16.575 1.603,10.43 -1.338,21.886 -10.037,32.415 -10.897,13.188 -7.68,29.397 -2.877,39.077 2.571,5.18 4.574,12.556 -0.735,14.846 h -0.001 c -4.863,2.098 -13.188,-1.195 -18.871,-12.743 -8.443,-17.155 -7.78,-29.131 -7.78,-29.131 l -27.437,6.057 17.882,-77.559 c 0,0 20.835,-7.509 33.365,1.323 0.522,0.367 1.03,0.747 1.53,1.133 C -65.236,52.872 0,0 0,0"
                   style="fill:#4d4d4d;fill-opacity:1;fill-rule:nonzero;stroke:none"
                   id="path2091"
                   inkscape:connector-curvature="0" /></g><g
                 transform="translate(466.3036,132.0638)"
                 id="g2097"
                 style="fill:#4d4d4d"><path
                   d="m 0,0 c -5.687,4.581 -65.677,52.611 -83.182,54.425 -0.5,-0.386 -1.009,-0.766 -1.531,-1.134 -12.529,-8.831 -33.364,-1.323 -33.364,-1.323 l -9.613,41.694 -0.995,-2.139 -6.511,3.028 12.082,-52.405 c 0,0 20.836,-7.508 33.365,1.323 0.522,0.368 1.03,0.748 1.531,1.134 C -69.836,42.699 -4.6,-10.173 -4.6,-10.173 Z"
                   style="fill:#4d4d4d;fill-opacity:1;fill-rule:nonzero;stroke:none"
                   id="path2095"
                   inkscape:connector-curvature="0" /></g><g
                 transform="translate(367.4491,212.5181)"
                 id="g2101"
                 style="fill:#4d4d4d"><path
                   d="m 0,0 -50.616,23.544 c -3.947,1.836 -5.674,6.567 -3.838,10.514 l 0.838,1.803 c 1.836,3.946 6.567,5.674 10.514,3.838 L 7.514,16.154 C 11.461,14.318 13.188,9.587 11.352,5.641 L 10.514,3.838 C 8.678,-0.109 3.947,-1.836 0,0"
                   style="fill:#4d4d4d;fill-opacity:1;fill-rule:nonzero;stroke:none"
                   id="path2099"
                   inkscape:connector-curvature="0" /></g><g
                 transform="translate(369.3575,216.6208)"
                 id="g2105"
                 style="fill:#4d4d4d"><path
                   d="m 0,0 -50.616,23.544 c -3.555,1.654 -5.299,5.655 -4.271,9.317 -0.237,-0.347 -0.455,-0.711 -0.637,-1.103 l -0.839,-1.803 c -1.835,-3.946 -0.108,-8.678 3.838,-10.514 L -1.908,-4.103 C 2.038,-5.939 6.77,-4.211 8.605,-0.265 L 9.444,1.538 C 9.626,1.93 9.764,2.331 9.877,2.735 7.738,-0.41 3.555,-1.653 0,0"
                   style="fill:#4d4d4d;fill-opacity:1;fill-rule:nonzero;stroke:none"
                   id="path2103"
                   inkscape:connector-curvature="0" /></g><g
                 transform="translate(362.0801,195.3658)"
                 id="g2109"
                 style="fill:#4d4d4d"><path
                   d="m 0,0 -54.907,25.54 c -3.946,1.836 -5.674,6.567 -3.838,10.514 l 0.839,1.802 c 1.836,3.947 6.567,5.674 10.514,3.838 L 7.514,16.154 C 11.461,14.319 13.188,9.587 11.352,5.641 L 10.514,3.838 C 8.678,-0.109 3.947,-1.836 0,0"
                   style="fill:#4d4d4d;fill-opacity:1;fill-rule:nonzero;stroke:none"
                   id="path2107"
                   inkscape:connector-curvature="0" /></g><g
                 transform="translate(364.0481,199.5967)"
                 id="g2113"
                 style="fill:#4d4d4d"><path
                   d="m 0,0 -54.907,25.54 c -3.532,1.643 -5.278,5.604 -4.291,9.248 -0.252,-0.364 -0.484,-0.748 -0.676,-1.163 l -0.839,-1.802 c -1.836,-3.947 -0.108,-8.678 3.838,-10.514 L -1.968,-4.231 C 1.979,-6.067 6.71,-4.34 8.546,-0.393 L 9.384,1.41 C 9.577,1.824 9.722,2.248 9.838,2.676 7.687,-0.426 3.532,-1.643 0,0"
                   style="fill:#4d4d4d;fill-opacity:1;fill-rule:nonzero;stroke:none"
                   id="path2111"
                   inkscape:connector-curvature="0" /></g><g
                 transform="translate(350.6643,181.5567)"
                 id="g2117"
                 style="fill:#4d4d4d"><path
                   d="m 0,0 -46.698,21.722 c -3.947,1.836 -5.674,6.567 -3.838,10.514 l 0.839,1.802 c 1.835,3.947 6.567,5.674 10.513,3.838 L 7.514,16.154 C 11.461,14.318 13.188,9.587 11.352,5.641 L 10.514,3.838 C 8.678,-0.109 3.947,-1.836 0,0"
                   style="fill:#4d4d4d;fill-opacity:1;fill-rule:nonzero;stroke:none"
                   id="path2115"
                   inkscape:connector-curvature="0" /></g><g
                 transform="translate(352.7218,185.98)"
                 id="g2121"
                 style="fill:#4d4d4d"><path
                   d="m 0,0 -46.698,21.722 c -3.499,1.627 -5.247,5.53 -4.321,9.144 -0.278,-0.388 -0.528,-0.803 -0.736,-1.251 l -0.838,-1.803 c -1.836,-3.946 -0.109,-8.678 3.838,-10.514 L -2.058,-4.423 C 1.889,-6.259 6.621,-4.532 8.456,-0.585 L 9.295,1.217 C 9.503,1.665 9.66,2.124 9.778,2.586 7.61,-0.451 3.499,-1.628 0,0"
                   style="fill:#4d4d4d;fill-opacity:1;fill-rule:nonzero;stroke:none"
                   id="path2119"
                   inkscape:connector-curvature="0" /></g><g
                 transform="translate(341.1349,169.6781)"
                 id="g2125"
                 style="fill:#4d4d4d"><path
                   d="m 0,0 -40.114,18.659 c -3.432,1.597 -4.934,5.711 -3.338,9.143 l 0.791,1.699 c 1.596,3.432 5.71,4.934 9.142,3.337 L 6.595,14.179 c 3.432,-1.596 4.934,-5.71 3.338,-9.143 L 9.143,3.337 C 7.546,-0.095 3.432,-1.596 0,0"
                   style="fill:#4d4d4d;fill-opacity:1;fill-rule:nonzero;stroke:none"
                   id="path2123"
                   inkscape:connector-curvature="0" /></g><g
                 transform="translate(342.5662,172.7551)"
                 id="g2129"
                 style="fill:#4d4d4d"><path
                   d="m 0,0 -40.114,18.659 c -3.199,1.488 -4.719,5.164 -3.618,8.435 -0.13,-0.215 -0.252,-0.437 -0.361,-0.67 l -0.79,-1.699 c -1.596,-3.432 -0.095,-7.546 3.337,-9.143 L -1.431,-3.077 C 2.001,-4.673 6.115,-3.171 7.711,0.26 L 8.502,1.959 C 8.61,2.193 8.701,2.429 8.781,2.667 6.989,-0.282 3.199,-1.488 0,0"
                   style="fill:#4d4d4d;fill-opacity:1;fill-rule:nonzero;stroke:none"
                   id="path2127"
                   inkscape:connector-curvature="0" /></g><g
                 transform="translate(411.2261,197.7693)"
                 id="g2133"
                 style="fill:#4d4d4d"><path
                   d="m 0,0 c 0,0 -6.047,-21.047 -21.719,-30.6 0,0 87.059,-65.292 99.367,-71.017 12.308,-5.725 39.529,51.79 36.193,55.681 C 110.505,-42.045 0,0 0,0"
                   style="fill:#4d4d4d;fill-opacity:1;fill-rule:nonzero;stroke:none"
                   id="path2131"
                   inkscape:connector-curvature="0" /></g><g
                 transform="translate(404.827,169.3372)"
                 id="g2137"
                 style="fill:#4d4d4d"><path
                   d="m 0,0 c 8.627,6.955 13.224,17.6 15.516,24.949 -5.674,2.173 -9.117,3.483 -9.117,3.483 0,0 -6.047,-21.047 -21.719,-30.6 0,0 87.059,-65.292 99.367,-71.017 5.128,-2.385 12.843,6.208 19.859,17.324 C 81.98,-46.114 0,0 0,0"
                   style="fill:#4d4d4d;fill-opacity:1;fill-rule:nonzero;stroke:none"
                   id="path2135"
                   inkscape:connector-curvature="0" /></g><g
                 transform="translate(411.8881,201.2041)"
                 id="g2141"
                 style="fill:#4d4d4d"><path
                   d="M 0,0 C 0,0 30.024,-8.57 29.59,-12.828 27.311,-35.161 8.222,-58.095 3.862,-56.067 c -4.359,2.027 -28.987,22.84 -28.987,22.84 0,0 14.569,3.828 25.125,33.227"
                   style="fill:#4d4d4d;fill-opacity:1;fill-rule:nonzero;stroke:none"
                   id="path2139"
                   inkscape:connector-curvature="0" /></g></g></g></g></g></g><g
       transform="translate(-296.81009,-112.97888)"
       id="g2159"><g
         id="g2161"
         clip-path="url(#clipPath2165-2)"><g
           id="g2167"
           transform="translate(390.097,159.644)"><path
             d="M 0,0 C 0,0 2.905,27.032 25.124,33.227 L 30.712,19.088 12.648,-4.324 Z"
             style="fill:#4d5b9f;fill-opacity:1;fill-rule:nonzero;stroke:none"
             id="path2169"
             inkscape:connector-curvature="0" /></g><g
           id="g2171"
           transform="translate(465.0366,113.5572)"><path
             d="m 0,0 21.791,48.189 c 0,0 -9.416,1.885 -52.16,14.594 -23.993,7.133 -33.778,12.42 -38.288,16.575 1.602,10.43 -1.338,21.886 -10.037,32.415 -10.897,13.188 -7.68,29.397 -2.877,39.078 2.571,5.179 4.574,12.555 -0.736,14.845 v 0 c -4.863,2.098 -13.188,-1.195 -18.871,-12.743 -8.443,-17.155 -7.78,-29.13 -7.78,-29.13 l -30.376,6.469 -9.28,-65.702 c 0,0 50.936,-19.779 63.465,-10.947 0.523,0.368 1.031,0.747 1.531,1.133 C -65.236,52.872 0,0 0,0"
             style="fill:#ffacad;fill-opacity:1;fill-rule:nonzero;stroke:none"
             id="path2173"
             inkscape:connector-curvature="0" /></g><g
           id="g2175"
           transform="translate(350.5683,193.7258)"><path
             d="m 0,0 c 7.709,0.288 15.922,-1.505 22.763,-3.443 1.015,-0.287 2.05,-0.627 3.092,-0.999 -3.05,2.148 -5.786,4.737 -8.104,7.667 C 13.198,8.982 8.759,16.736 6.922,24.662 6.587,25.25 6.255,25.84 5.934,26.438 5.106,27.98 2.86,28.596 1.38,27.632 -4.946,23.512 -6.24,13.496 -4.389,6.677 -3.679,4.059 -2.076,1.816 0,0"
             style="fill:#ff9b9c;fill-opacity:1;fill-rule:nonzero;stroke:none"
             id="path2177"
             inkscape:connector-curvature="0" /></g><g
           id="g2179"
           transform="translate(469.637,123.7305)"><path
             d="m 0,0 c -5.687,4.581 -65.677,52.611 -83.182,54.425 -0.5,-0.386 -1.009,-0.766 -1.531,-1.134 -12.529,-8.831 -33.364,-1.323 -33.364,-1.323 l -9.613,41.694 -0.995,-2.139 -6.511,3.028 -18.018,-40.135 c 0,0 50.936,-19.778 63.465,-10.947 0.522,0.368 1.03,0.748 1.531,1.134 C -69.836,42.699 -4.6,-10.173 -4.6,-10.173 Z"
             style="fill:#ff9b9c;fill-opacity:1;fill-rule:nonzero;stroke:none"
             id="path2181"
             inkscape:connector-curvature="0" /></g><g
           id="g2183"
           transform="translate(355.8756,199.6021)"><path
             d="m 0,0 -40.114,11.807 c -3.728,1.218 -5.757,5.336 -4.511,9.153 l 0.832,2.547 c 1.247,3.817 5.317,5.943 9.044,4.726 L 5.365,16.426 C 9.093,15.208 11.123,11.089 9.876,7.273 L 9.044,4.726 C 7.798,0.909 3.728,-1.218 0,0"
             style="fill:#ffc7c0;fill-opacity:1;fill-rule:nonzero;stroke:none"
             id="path2185"
             inkscape:connector-curvature="0" /></g><g
           id="g2187"
           transform="translate(357.6234,203.7922)"><path
             d="m 0,0 -40.799,12.031 c -3.168,1.034 -4.953,4.531 -4.355,8.131 -0.193,-0.382 -0.366,-0.781 -0.503,-1.202 l -0.599,-1.833 c -1.311,-4.013 0.512,-8.242 4.052,-9.398 L -1.405,-4.302 C 2.134,-5.458 6.102,-3.12 7.413,0.893 L 8.012,2.725 C 8.149,3.147 8.245,3.57 8.315,3.993 6.673,0.734 3.168,-1.035 0,0"
             style="fill:#ffb6b8;fill-opacity:1;fill-rule:nonzero;stroke:none"
             id="path2189"
             inkscape:connector-curvature="0" /></g><g
           id="g2191"
           transform="translate(351.4269,182.8818)"><path
             d="m 0,0 -39.047,11.753 c -3.987,1.388 -6.113,5.786 -4.725,9.773 l 0.634,1.821 c 1.389,3.987 5.787,6.113 9.773,4.725 L 5.683,16.319 C 9.67,14.93 11.796,10.532 10.408,6.545 L 9.773,4.725 C 8.385,0.738 3.987,-1.388 0,0"
             style="fill:#ffc7c0;fill-opacity:1;fill-rule:nonzero;stroke:none"
             id="path2193"
             inkscape:connector-curvature="0" /></g><g
           id="g2195"
           transform="translate(352.983,187.35)"><path
             d="m 0,0 -39.047,11.753 c -3.535,1.231 -5.601,4.827 -5.058,8.405 -0.23,-0.402 -0.431,-0.827 -0.589,-1.279 l -0.634,-1.821 c -1.388,-3.987 0.738,-8.385 4.725,-9.773 L -1.556,-4.468 c 3.987,-1.389 8.385,0.737 9.773,4.724 L 8.851,2.077 C 9.009,2.529 9.115,2.987 9.185,3.445 7.388,0.304 3.535,-1.231 0,0"
             style="fill:#ffb6b8;fill-opacity:1;fill-rule:nonzero;stroke:none"
             id="path2197"
             inkscape:connector-curvature="0" /></g><g
           id="g2199"
           transform="translate(354.751,217.5575)"><path
             d="m 0,0 -33.27,10.152 c -3.857,1.343 -5.914,5.597 -4.57,9.453 l 0.613,1.762 c 1.343,3.856 5.597,5.913 9.454,4.57 L 5.497,15.785 c 3.857,-1.343 5.913,-5.597 4.57,-9.454 L 9.454,4.57 C 8.111,0.714 3.857,-1.343 0,0"
             style="fill:#ffc7c0;fill-opacity:1;fill-rule:nonzero;stroke:none"
             id="path2201"
             inkscape:connector-curvature="0" /></g><g
           id="g2203"
           transform="translate(356.2562,221.8797)"><path
             d="m 0,0 -33.27,10.152 c -3.419,1.19 -5.418,4.669 -4.893,8.13 -0.222,-0.389 -0.417,-0.8 -0.569,-1.237 l -0.614,-1.762 c -1.343,-3.856 0.714,-8.111 4.571,-9.454 l 33.27,-10.151 c 3.857,-1.343 8.111,0.713 9.454,4.57 L 8.562,2.009 C 8.715,2.447 8.817,2.89 8.885,3.333 7.146,0.294 3.419,-1.191 0,0"
             style="fill:#ffb6b8;fill-opacity:1;fill-rule:nonzero;stroke:none"
             id="path2205"
             inkscape:connector-curvature="0" /></g><g
           id="g2207"
           transform="translate(344.4796,168.8887)"><path
             d="m 0,0 -33.787,11.145 c -3.305,1.15 -5.067,4.796 -3.916,8.1 l 0.803,2.307 c 1.151,3.304 4.796,5.067 8.101,3.916 L 4.988,14.323 c 3.304,-1.151 5.067,-4.796 3.916,-8.1 L 8.101,3.916 C 6.95,0.611 3.305,-1.151 0,0"
             style="fill:#ffc7c0;fill-opacity:1;fill-rule:nonzero;stroke:none"
             id="path2209"
             inkscape:connector-curvature="0" /></g><g
           id="g2211"
           transform="translate(345.8596,171.8934)"><path
             d="m 0,0 -34.383,11.352 c -2.927,1.019 -4.498,4.331 -3.72,7.583 -0.103,-0.221 -0.198,-0.447 -0.28,-0.683 l -0.598,-1.716 c -1.207,-3.467 0.375,-7.199 3.516,-8.292 L -1.082,-3.108 c 3.14,-1.094 6.698,0.848 7.905,4.315 L 7.421,2.923 C 7.503,3.158 7.57,3.395 7.626,3.632 6.215,0.6 2.928,-1.019 0,0"
             style="fill:#ffb6b8;fill-opacity:1;fill-rule:nonzero;stroke:none"
             id="path2213"
             inkscape:connector-curvature="0" /></g><g
           id="g2215"
           transform="translate(414.5594,189.436)"><path
             d="m 0,0 c 0,0 -6.047,-21.047 -21.719,-30.6 0,0 87.059,-65.292 99.367,-71.017 12.308,-5.725 39.53,51.79 36.193,55.681 C 110.505,-42.045 0,0 0,0"
             style="fill:#4d5b9f;fill-opacity:1;fill-rule:nonzero;stroke:none"
             id="path2217"
             inkscape:connector-curvature="0" /></g><g
           id="g2219"
           transform="translate(408.1603,161.0039)"><path
             d="m 0,0 c 8.627,6.955 13.224,17.6 15.516,24.949 -5.674,2.173 -9.117,3.483 -9.117,3.483 0,0 -6.047,-21.047 -21.719,-30.6 0,0 87.059,-65.292 99.367,-71.017 5.128,-2.385 12.843,6.208 19.859,17.324 C 81.981,-46.114 0,0 0,0"
             style="fill:#5d4b99;fill-opacity:1;fill-rule:nonzero;stroke:none"
             id="path2221"
             inkscape:connector-curvature="0" /></g><g
           id="g2223"
           transform="translate(415.2214,192.8708)"><path
             d="M 0,0 C 0,0 30.024,-8.571 29.59,-12.828 27.311,-35.161 8.222,-58.095 3.863,-56.067 c -4.36,2.027 -28.987,22.84 -28.987,22.84 0,0 14.568,3.828 25.124,33.227"
             style="fill:#6077bc;fill-opacity:1;fill-rule:nonzero;stroke:none"
             id="path2225"
             inkscape:connector-curvature="0" /></g></g></g></g></svg>