<?xml version="1.0" encoding="UTF-8" standalone="no"?>
<svg xmlns="http://www.w3.org/2000/svg" width="100%" height="100%" viewBox="0 0 191.18 125.4">
    
  <defs>  
    <style type="text/css"><![CDATA[

    .rotate {
    transform-box: fill-box;
}

.chartrect {
    transition: all 1s linear;
}

.chartrect:first-of-type {
    x:531.19;
    y:113.09;
    width:5.44px;
    height:60.7px;
    animation: first 1s linear  infinite alternate;
}
@keyframes first {
    from { y:113.09; height:60.7px;}
    to {height: 41px; y: 133;}
}

.chartrect:nth-of-type(2) {
    x:541.68;
    y:133.71;
    width:5.44px;
    height:40.08px; 
    animation: second 1s linear  infinite alternate;
}
@keyframes second {
    from { y:133.71; height:40.08px;}
    to {y: 122; height: 52px;}
}

.chartrect:nth-of-type(3) {
    x:552.18;
    y:120.64;
    width:5.44px;
    height:53.46px;
    animation: third 1s linear  infinite alternate;
}
@keyframes third {
    from { y:120.64; height:53.46px;}
    to {y: 126; height: 48px;}
}

.chartrect:nth-of-type(4) {
    x:562.67;
    y:115.44;
    width:5.44px;
    height:58.36px;
    animation: fourth 1s linear  infinite alternate;
}
@keyframes fourth {
    from { y:115.44; height:58.36px;}
    to {y: 137; height: 37px;}
}

.chartrect:nth-of-type(5) {
    x:573.16;
    y:134.94;
    width:5.44px;
    height:38.85px;
    animation: fifth 1s linear  infinite alternate;
}
@keyframes fifth {
    from { y:134.94; height:38.85px;}
    to {y: 131; height: 43px;}
}

.chartrect:nth-of-type(6) {
    x:583.66;
    y:142.56;
    width:5.44px;
    height:31.23px;
    animation: sixth 1.2s linear  infinite alternate;
    
    
}
@keyframes sixth {
    from { y:142.56; height:31.23px;}
    to {y: 119; height: 55px;}
}

.chartrect:nth-of-type(7) {
    x:594.15;
    y:119.32;
    width:5.44px;
    height:54.47px;
    animation: sevnth 1s linear  infinite alternate;
}
@keyframes sevnth {
    from { y:119.32; height:54.47px;}
    to {y: 128;height: 46px;}
}

.chartrect:nth-of-type(8) {
    x:604.64;
    y:129.14;
    width:5.44px;
    height:44.65px;
    animation: eighth 1s linear  infinite alternate;
}
@keyframes eighth {
    from { y:129.14; height:44.65px;}
    to {y: 115; height: 59.65px;}
}

.chartrect:nth-of-type(9) {
    x:615.14;
    y:121.29;
    width:5.44px;
    height:52.5px;
    animation: ninth 1s linear  infinite alternate;
}
@keyframes ninth {
    from { y:121.29; height:52.5px;}
    to {y: 128;height: 46px;}
}

.chartrect:nth-of-type(11) {
    x:636.12;
    y:131.22;
    width:5.44px;
    height:42.57px;
    animation: tenth 1s linear  infinite alternate;
}
@keyframes tenth {
    from { y:131.22; height:42.57px;}
    to {height: 56px; y: 118;}
}


.arm {
    transform-box: fill-box;
    transform-origin: bottom;
    animation: arm 2s linear  infinite alternate;
    animtion-delay: 1s;
}

@keyframes arm {
    from {}
    to {
        transform: rotate(20deg) translate(-1px, 2px);
    }
}

.coffie {
    d: path("M10.32 83.69a14.3 14.3 0 01-.22-1.62 1.3 1.3 0 01.9-1.2c.4-.1.83.04 1.24.11a3.29 3.29 0 001.99-.3c.53-.26 1-.66 1.57-.71.38-.03.82.14.92.5a1.26 1.26 0 010 .54c-.12.8.03 1.82.03 2.6-2.15.1-4.38.03-6.53.07");
    animation: coffie 1s linear  infinite alternate;
}

@keyframes coffie {
    from {}
    to {
        d: path("M10.32 82.2a14.3 14.3 0 01-.22-1.62 1.3 1.3 0 01.9-1.2c.4-.1.83.04 1.24.11a3.29 3.29 0 001.99-.3c.53-.26 1-.66 1.57-.71.38-.03.82.14.92.5a0.26 1.26 0 010 2c-.12.8.03 1.82.03 2.6-2.15.1-4.38.03-6.53.07");
    }
}


/*.lamp {
    transform-origin: top;
    transform-box: fill-box;
    animation: lamp 2s linear  infinite alternate;
}

@keyframes lamp {
    0% {transform: rotate(0deg);}
    50% {transform: rotate(-3deg);}
    100% {transform: rotate(3deg);}
}
*/
.bossarm {
    transform-origin: bottom left;
    animation: boss 1s linear  infinite alternate;
    animation-delay: .5s;
}

@keyframes boss {
    from{}
    to{transform: rotate(17deg) translate(-1px, 0px);}
}

.leaf1 {
    transform-origin: top right;
    
    animation: leaf1 2.25s linear  infinite alternate;
}
@keyframes leaf1 {
    0% {transform: rotate(0deg);}
    50% {transform: rotate(10deg);}
    100% {transform: rotate(-6deg);}
}

.leaf2 {
    transform-origin: top right;
    
    animation: leaf2 1s linear  infinite alternate;
    animation-delay: 1s;
}
@keyframes leaf2 {
    from{}
    to {transform: rotate(-10deg);}
}
.leaf3 {
    transform-origin: top left;
    
    animation: leaf3 2s linear  infinite alternate;
    animation-delay: .5s;
}

@keyframes leaf3 {
    0% {transform: rotate(0deg);}
    50% {transform: rotate(-8deg);}
    100% {transform: rotate(8deg);}
}

]]>
     </style>
  </defs>
  <defs/>
  <g transform="matrix(.26458 0 0 .26458 -2.53 -.59)">
    <path fill="#e6505c" d="M295.29 441.42v24.2h74.42v-24.2z"/>
    <path fill="#c3385c" d="M292.17 434.66v6.76h80.14v-6.76h-41.63z"/>
    <path fill="#c3385c" d="M369.71 465.62v-24.2h2.6v-6.76h-41.63v6.14l1.56 24.82z"/>
    <path fill="#263238" d="M305.7 445.32h15.09v3.64H305.7z"/>
    <path fill="#fff" d="M303.76 453.52h19.38v7.69h-19.38z"/>
    <path fill="#e6505c" d="M302.13 410.48v24.2h74.42v-24.2z"/>
    <path fill="#c3385c" d="M299.01 403.71v6.77h80.14v-6.77h-41.63z"/>
    <path fill="#c3385c" d="M376.55 434.68v-24.2h2.6v-6.77h-41.63v6.14l1.56 24.83z"/>
    <path fill="#263238" d="M312.54 414.38h15.09v3.64h-15.09z"/>
    <path fill="#fff" d="M310.6 422.58h19.38v7.69H310.6z"/>
    <path fill="#263238" d="M50.26 292.84s-3.9 2.94-3.9 6.84v19.92h29.06v-20.81s-.41-5.11-3.82-6zM44.52 322.42l4.38-2.82h26.52l4.25 2.82H44.52"/>
    <path fill="#0984e3" d="M43.7 257.61v29.66h36v35.15H44.52v8.43h60.64v-73.24a6.31 6.31 0 00-6.31-6.32H50a6.32 6.32 0 00-6.3 6.32z"/>
    <path fill="#e0e0e0" d="M105.16 258.28c0 .15-13.76.26-30.73.26s-30.73-.11-30.73-.26c0-.15 13.76-.28 30.73-.28s30.73.14 30.73.28z"/>
    <path fill="#e0e0e0" d="M88.1 330.85c-.14 0-.26-17.77-.26-39.68s.12-39.67.26-39.67.26 17.76.26 39.67-.11 39.68-.26 39.68z"/>
    <path fill="#263238" d="M40.44 310l-.36-9a12.19 12.19 0 012-7.33 6.45 6.45 0 015.3-3.21H71.6v2.37H47.78s-4.29.45-4.85 6.32a57.4 57.4 0 000 10.83z"/>
    <path fill="#095fe3" d="M62.49 445.85h10.64v19.18H62.49zM109.51 445.85h10.64v19.18h-10.64zM39.11 330.85h88.13v115H39.11z"/>
    <path fill="#0984e3" d="M22.97 330.85h85.84v115H22.97zM30.56 445.85H41.2v19.18H30.56zM91.74 445.85h10.64v19.18H91.74z"/>
    <path fill="#e0e0e0" d="M102 432.71v-1.98-5.64c0-4.89 0-12-.07-20.77l.12.12-73.67.05.17-.17v28.39l-.17-.17 52.77.08 15.35.05h4.11-4.07l-15.31.05-52.89.07h-.17v-28.64h.17l73.67.05h.12v.12c0 8.83 0 15.94-.06 20.85V432.22c-.07.33-.07.49-.07.49z"/>
    <path fill="#e0e0e0" d="M67.37 418.51a3.57 3.57 0 01-.14-.52 2.14 2.14 0 00-2.79-1.42 2.11 2.11 0 00-1.35 1.94 2.09 2.09 0 003.33 1.67 2.13 2.13 0 00.81-1.14 4.76 4.76 0 01.14-.53 1 1 0 010 .56 2.25 2.25 0 01-.8 1.31 2.35 2.35 0 01-2.24.37 2.37 2.37 0 112.24-4.1 2.26 2.26 0 01.8 1.3 1 1 0 010 .56zM102 398.71v-1.98-5.63c0-4.89 0-12-.07-20.78l.12.12-73.67.06.17-.18v28.39l-.17-.16 52.77.07 15.35.05h4.11-4.07l-15.31.05-52.89.08h-.17v-28.65h.17l73.67.05h.12v.12c0 8.83 0 15.94-.06 20.85V398.23c-.07.32-.07.48-.07.48z"/>
    <path fill="#e0e0e0" d="M67.37 384.52a4.76 4.76 0 01-.14-.53 2.13 2.13 0 00-.81-1.14 2.08 2.08 0 10-2 3.61 2.14 2.14 0 002.81-1.46 4.91 4.91 0 01.14-.52 1 1 0 010 .56 2.26 2.26 0 01-.8 1.3 2.35 2.35 0 01-2.24.38 2.38 2.38 0 010-4.48 2.35 2.35 0 012.24.37 2.28 2.28 0 01.8 1.31 1 1 0 010 .6zM102 365.17v-1.97-5.64c0-4.89 0-12-.07-20.77l.12.12H28.38l.17-.17v28.38l-.17-.16 52.77.08H102 81.27l-52.89.08h-.17v-28.51h.17l73.67.06h.12v.12c0 8.83 0 15.93-.06 20.84V364.69c-.11.31-.11.48-.11.48z"/>
    <path fill="#e0e0e0" d="M67.37 351a4.76 4.76 0 01-.14-.53 2.13 2.13 0 00-.81-1.14 2.08 2.08 0 100 3.34 2.13 2.13 0 00.81-1.14 4.76 4.76 0 01.14-.53 1 1 0 010 .56 2.31 2.31 0 01-.8 1.31 2.35 2.35 0 01-2.24.37 2.37 2.37 0 112.24-4.11 2.31 2.31 0 01.8 1.31 1 1 0 010 .56zM104.28 330.85c0 .14-13.36.26-29.85.26-16.49 0-29.85-.12-29.85-.26s13.36-.26 29.85-.26c16.49 0 29.85.11 29.85.26z"/>
    <path fill="#0984e3" d="M355.82 158.33h77.5v69.34h-77.5z"/>
    <path fill="#e0e0e0" d="M433.32 227.67v-1.29-3.71-14.08c0-12.11-.06-29.42-.09-50.26l.17.18h-77.49l.21-.21v69.34l-.18-.18 56.06.09H431.99h-19.92l-56.17.09h-.18v-.18-69.54h77.89v.17c0 20.88-.07 38.23-.09 50.37 0 6.05 0 10.79-.05 14v3.68c0 .84-.15 1.53-.15 1.53z"/>
    <path fill="#e0e0e0" d="M385.54 170.65c0 .12-4.08.21-9.11.21-5.03 0-9.11-.09-9.11-.21s4.07-.2 9.11-.2c5.04 0 9.11.09 9.11.2zM418.38 175.86c0 .11-11.21.21-25 .21s-25-.1-25-.21c0-.11 11.2-.21 25-.21s25 .09 25 .21zM367.45 184.68h3.27v3.27h-3.27zM375.49 184.68h3.27v3.27h-3.27zM383.67 184.53h3.27v3.27h-3.27zM391.56 184.68h3.27v3.27h-3.27zM399.6 184.68h3.27v3.27h-3.27zM407.64 184.68h3.27v3.27h-3.27z"/>
    <path fill="#ebebeb" d="M415.67 184.68h3.27v3.27h-3.27zM367.45 191.62h3.27v3.27h-3.27z"/>
    <path fill="#e0e0e0" d="M375.49 191.62h3.27v3.27h-3.27z"/>
    <path fill="#ebebeb" d="M383.52 191.62h3.27v3.27h-3.27z"/>
    <path fill="#e0e0e0" d="M391.56 191.62h3.27v3.27h-3.27zM399.6 191.62h3.27v3.27h-3.27zM407.78 191.47h3.27v3.27h-3.27zM415.67 191.62h3.27v3.27h-3.27zM367.45 198.56h3.27v3.27h-3.27zM375.64 198.41h3.27v3.27h-3.27zM383.52 198.56h3.27v3.27h-3.27z"/>
    <path fill="#ebebeb" d="M391.56 198.56h3.27v3.27h-3.27z"/>
    <path fill="#e0e0e0" d="M399.6 198.56h3.27v3.27h-3.27zM407.64 198.56h3.27v3.27h-3.27zM415.67 198.56h3.27v3.27h-3.27zM367.45 205.5h3.27v3.27h-3.27zM375.49 205.5h3.27v3.27h-3.27zM383.52 205.5h3.27v3.27h-3.27zM391.71 205.35h3.27v3.27h-3.27zM399.6 205.5h3.27v3.27h-3.27z"/>
    <path fill="#ebebeb" d="M407.64 205.5h3.27v3.27h-3.27z"/>
    <path fill="#e0e0e0" d="M415.67 205.5h3.27v3.27h-3.27zM367.45 212.44h3.27v3.27h-3.27z"/>
    <path fill="#ebebeb" d="M375.49 212.44h3.27v3.27h-3.27z"/>
    <path fill="#e0e0e0" d="M383.52 212.44h3.27v3.27h-3.27zM391.56 212.44h3.27v3.27h-3.27zM399.6 212.44h3.27v3.27h-3.27zM407.78 212.3h3.27v3.27h-3.27zM415.67 212.44h3.27v3.27h-3.27z"/>
    <path fill="#263238" d="M662.07 210.52v-2.2-6.38-24.23c0-20.87-.07-50.75-.12-86.78l.22.21h-150.3l.26-.26v119.59l-.23-.23 108.58.11 30.76.07h10.25-10.18l-30.71.06-108.73.11h-.23v-.23V90.51H662.43v.22c0 36.09-.09 66-.11 86.91 0 10.43 0 18.6-.06 24.18v6.34c0 1.44-.19 2.36-.19 2.36z"/>
    <rect fill="#e6505c" class='chartrect' />
    <rect fill="#0984e3" class='chartrect' />
    <rect fill="#e6505c" class='chartrect'/>
    <rect fill="#0984e3" class='chartrect'/>
    <rect fill="#e6505c" class='chartrect'/>
    <rect fill="#0984e3" class='chartrect'/>
    <rect fill="#e6505c" class='chartrect'/>
    <rect fill="#0984e3" class='chartrect'/>
    <rect fill="#e6505c" class='chartrect'/>
    <rect fill="#0984e3" class='chartrect' x="625.63" y="138.03" width="5.44" height="35.76"/>
    <rect fill="#e6505c" class='chartrect'/>
    <path fill="#e0e0e0"  d="M643.78 178c0 .12-25.79.22-57.58.22s-57.58-.1-57.58-.22 25.77-.22 57.58-.22 57.58.12 57.58.22zM538.94 182.8a37 37 0 01-8.06 0 35.42 35.42 0 018.06 0zM552.32 183a52.91 52.91 0 01-9.64 0 52.91 52.91 0 019.64 0zM563.73 183a52.91 52.91 0 01-9.64 0 52.91 52.91 0 019.64 0zM575.15 183a52.91 52.91 0 01-9.64 0 52.91 52.91 0 019.64 0zM586.56 183a52.91 52.91 0 01-9.64 0 52.91 52.91 0 019.64 0zM598 183a52.91 52.91 0 01-9.64 0 52.91 52.91 0 019.64 0zM609.38 183a52.91 52.91 0 01-9.64 0 52.91 52.91 0 019.64 0zM620.79 183a52.91 52.91 0 01-9.64 0 52.91 52.91 0 019.64 0zM632.2 183a52.91 52.91 0 01-9.64 0 52.91 52.91 0 019.64 0zM643.62 183a52.91 52.91 0 01-9.64 0 52.91 52.91 0 019.64 0z"/>
    <path fill="#0984e3" d="M506.95 90.22h159.39v4.49H506.95z"/>
    <path fill="#e0e0e0" d="M374.44 215.69l-1.25.18-1.05-3.67 2.11.1zM302.84 307.18v-.54a10.86 10.86 0 1121.71 0v.54z"/>
    <path fill="#e0e0e0" d="M313.67 296.21a.43.43 0 01-.41-.32l-14.39-54.83a.43.43 0 11.84-.22l14.38 54.83a.44.44 0 01-.31.53zM309.87 297.57a.43.43 0 01-.41-.32l-14.39-54.83a.43.43 0 01.84-.22l14.38 54.8a.44.44 0 01-.31.53z"/>
    <path fill="#e0e0e0" d="M294.4 241.49a2.72 2.72 0 102.72-2.71 2.72 2.72 0 00-2.72 2.71z"/>
    <path fill="#e6505c" d="M377.68 222.93l-.43.75-29.35-16.69-50.54 34.86-.49-.71 50.98-35.17z"/>
    <path fill="#e6505c" d="M299.6 243.03l50.2-34.76.48.7-50.2 34.76z"/>
    <path fill="#e6505c" d="M346.25 207.84a2.44 2.44 0 102.44-2.45 2.44 2.44 0 00-2.44 2.45z"/>
    <path fill="#e0e0e0" d="M223.46 76.35h4.91v105.54h-4.91z"/>
    <rect width="70.46" height="104.87" x="152.25" y="77.17" fill="#f5f5f5" rx=".07"/>
    <path fill="#ebebeb" d="M223.46 182.85h-72a.07.07 0 01-.07-.07V76.42a.07.07 0 01.07-.07h72a.08.08 0 01.07.07v106.36a.08.08 0 01-.07.07zm-70.32-1.63h68.68a.07.07 0 00.07-.07V78.06a.08.08 0 00-.07-.08h-68.68a.08.08 0 00-.07.08v103.09a.07.07 0 00.07.07z"/>
    <rect width="56.39" height="91.86" x="159.35" y="83.64" fill="#0984e3" rx=".07"/>
    <rect width="31.66" height="37.11" x="171.65" y="109.68" fill="#e6505c" rx=".06"/>
    <path fill="#e0e0e0" d="M200.81 142.25c0 .12-1.53.8-4.5.46a11 11 0 01-5.05-2 10.3 10.3 0 01-3.93-6.18 8.88 8.88 0 013-8.44 8 8 0 012.28-1.34 6.11 6.11 0 012.85-.32 5 5 0 012.85 1.24 3.72 3.72 0 011.12 3.32 5.48 5.48 0 01-1.56 2.85 10.39 10.39 0 01-2.39 1.75 13.13 13.13 0 01-5.69 1.63 11.27 11.27 0 01-6.06-1.38 11 11 0 01-4.47-4.63 9.46 9.46 0 01-.8-6.48 9.67 9.67 0 013.42-5.34 8.57 8.57 0 012.86-1.44 7.15 7.15 0 013.22-.1 5.27 5.27 0 012.93 1.65 4.86 4.86 0 011.11 3.1 6 6 0 01-.77 3 7.87 7.87 0 01-1.8 2.17 12.16 12.16 0 01-4.49 2.39 11.54 11.54 0 01-4.72.36 9.62 9.62 0 01-4.11-1.57 8.91 8.91 0 01-3.92-6.22 7.5 7.5 0 011.46-5.32 6.36 6.36 0 012.68-2.15c.74-.28 1.17-.27 1.18-.2.01.07-.33.26-.93.66a7 7 0 00-2.09 2.25 6.65 6.65 0 00-.86 4.55 7.49 7.49 0 003.49 4.89 8.63 8.63 0 007.2.68 10 10 0 003.6-2 4.41 4.41 0 001.68-3.37 2.43 2.43 0 00-2.17-2.39 4.69 4.69 0 00-2.07.09 5.82 5.82 0 00-2 1 7.12 7.12 0 00-2.47 3.92 6.87 6.87 0 00.61 4.71 8.53 8.53 0 003.4 3.54 8.82 8.82 0 004.69 1.09 10.72 10.72 0 004.61-1.26 8 8 0 001.84-1.3 3.08 3.08 0 00.93-1.52 1.3 1.3 0 00-.37-1.22 2.74 2.74 0 00-1.53-.67 3.71 3.71 0 00-1.79.15 6 6 0 00-1.68.91 7 7 0 00-2.18 3 6.84 6.84 0 00-.36 3.45 8.9 8.9 0 003 5.35 10.74 10.74 0 004.34 2.16c2.78.6 4.39.27 4.41.52z"/>
  </g>
  <path fill="#263238" d="M190.4 122.45c0 .03-42.23.07-94.31.07-52.09 0-94.33-.03-94.33-.07 0-.05 42.23-.07 94.33-.07s94.3.04 94.3.07z"/>
  <path fill="#b78876" d="M116.82 34.83a3.9 3.9 0 014.21 3.65c.1 1.82.2 3.78.2 4.77-.03 2.11-2.15 2.45-2.15 2.45s.3 3.68.27 4.27l-5.61.27-.51-11.33a3.9 3.9 0 013.6-4.07z"/>
  <path fill="#aa6550" d="M119.08 45.66a4.91 4.91 0 01-2.77-.8s.66 1.53 2.77 1.33z"/>
  <path fill="#b78876" d="M113.42 39.63c-.03-.01-1.45-.43-1.4 1.02.04 1.45 1.48 1.1 1.49 1.06l-.09-2.08z"/>
  <path fill="#aa6550" d="M113.05 41.17l-.07.04a.24.24 0 01-.2 0 .63.63 0 01-.3-.55.85.85 0 01.06-.37.3.3 0 01.19-.2.13.13 0 01.15.07c.02.04 0 .07.02.07 0 0 .03-.03.01-.09a.16.16 0 00-.06-.09.19.19 0 00-.14-.03.35.35 0 00-.26.24.88.88 0 00-.08.4.66.66 0 00.4.62.26.26 0 00.22-.05c.05-.01.06-.06.06-.06z"/>
  <path fill="#263238" d="M120.49 39.83a.3.3 0 01-.3.3.29.29 0 01-.3-.26.3.3 0 01.28-.3.3.3 0 01.32.26zM120.48 39.24c-.04.04-.27-.13-.6-.13-.32 0-.56.16-.6.12-.03-.04.03-.09.13-.16a.83.83 0 01.48-.15.8.8 0 01.47.15c.1.08.14.15.12.17zM117.28 39.83a.3.3 0 01-.29.3.3.3 0 01-.31-.26.3.3 0 01.29-.3.3.3 0 01.31.26zM117.27 39.3c-.03.04-.26-.13-.59-.13-.33 0-.56.16-.6.12-.03-.04.02-.08.13-.16a.83.83 0 01.48-.15.8.8 0 01.47.15c.1.08.13.15.11.17zM118.46 41.71a2.2 2.2 0 01.53-.1c.08 0 .16-.02.17-.07a.44.44 0 00-.05-.25l-.25-.63a10.78 10.78 0 01-.55-1.66 10.9 10.9 0 01.68 1.6l.24.65a.49.49 0 01.04.32.2.2 0 01-.14.13.57.57 0 01-.14.01 2.06 2.06 0 01-.53 0zM117.5 41.94c.05 0 .05.35.36.6.3.25.67.21.68.27 0 .05-.09.07-.25.07a.88.88 0 01-.57-.2.78.78 0 01-.26-.5c-.03-.15.01-.24.04-.24zM117.36 38.02c-.03.09-.36.05-.74.1-.38.04-.7.15-.74.06-.02-.03.03-.11.15-.2a1.3 1.3 0 011.13-.13c.14.06.21.13.2.17zM120.36 38.3c-.06.08-.28 0-.55 0s-.5.06-.55-.02c-.03-.04 0-.11.1-.18a.76.76 0 01.46-.12.75.75 0 01.44.15c.09.05.12.13.1.18z"/>
  <path fill="#263238" d="M113.28 39.59a2.25 2.25 0 000 .66.77.77 0 00.37.53c.37.19.83-.1.99-.47a2.43 2.43 0 00.08-1.2 5.82 5.82 0 01.02-1.66 2.38 2.38 0 01.8-1.42 1.5 1.5 0 011.56-.23 8.6 8.6 0 01.82.61 1.28 1.28 0 00.88.22.83.83 0 00.67-.56.9.9 0 00-.34-.89 2.03 2.03 0 00-.93-.37 4.99 4.99 0 00-2.75.22 3.6 3.6 0 00-2 1.85c-.42.99-.13 1.78-.19 2.88"/>
  <path fill="#e0e0e0" d="M119.24 47.93c-1.52 1.15-4.13 1.22-5.63.04 0 0-1.14.27-1.81.39a5.35 5.35 0 00-4.1 3.4l2.67 6.16.51 5.86-1.48 5.24a.9.9 0 00.76 1.15l13.24.2.22-.1a2.47 2.47 0 00.36-1.68c-.58-2.51-.18-10-.3-12.29 1.76 1.7 3.64 3.21 5.32 3.61v-5.6l-6.26-5.6c-.68-.49-1.84-.55-2.72-.66h-.07c-.34-.04-.5-.1-.71-.12z"/>
  <path fill="#ff725e" d="M113.7 47.82h.01z"/>
  <path fill="#e0e0e0" d="M119.96 48.01l-1.17 1.64-2.17.45-3.44-1.75.31-2.12 2.89 1.06.81 1.43.5-1.57 1.59-.55z"/>
  <path fill="#263238" d="M117.24 49.05s-.04-.02-.1-.09a3.15 3.15 0 01-.27-.28 4.25 4.25 0 01-.7-1.2h.1l-.66 1.68-.33.83-.04.08-.07-.06-1.44-1.41-.41-.42a.86.86 0 01-.14-.17.9.9 0 01.17.14l.44.39 1.47 1.38-.1.02.33-.83.68-1.68.06-.13.05.14a4.76 4.76 0 00.64 1.2c.2.25.33.4.32.41zM119.96 48.01a2.14 2.14 0 01-.34.47 4.7 4.7 0 01-1.1.97l-.07.04-.03-.07-.32-.83-.46-1.2h.11c-.09.48-.2.87-.28 1.14a2.48 2.48 0 01-.13.44 1.67 1.67 0 01.06-.45c.06-.28.16-.68.24-1.15l.04-.21.07.2c.13.36.3.76.48 1.2l.31.82-.09-.03a5.21 5.21 0 001.1-.91 4.76 4.76 0 01.4-.43zM118.29 70.62l.01-.21a54.67 54.67 0 00.16-1.63c0-.2.02-.4.04-.63l.03-.7c.04-.98.04-2.15.02-3.46-.03-1.3-.11-2.72-.21-4.23a186.04 186.04 0 00-1-9.97l-.07-.63a1.27 1.27 0 01-.01-.23 1.3 1.3 0 01.04.22l.09.63.3 2.31c.25 1.96.56 4.66.78 7.66.1 1.5.17 2.93.2 4.23.02 1.3 0 2.48-.05 3.46l-.04.7c0 .23-.04.43-.05.63-.04.4-.07.73-.11 1l-.1.63a1.27 1.27 0 01-.03.22z"/>
  <path fill="#26326d" d="M121.33 114.95l-.2 4.8s4.81 1.83 4.86 2.72l-9.33-.06v-7.5z"/>
  <path fill="#e0e0e0" d="M118.24 119.33a.38.38 0 00-.26.44.37.37 0 00.43.26.4.4 0 00.28-.46.38.38 0 00-.48-.23"/>
  <path fill="#fff" d="M116.66 122.41l.03-.75 8.94.33s.41.18.36.48z" opacity=".6"/>
  <path fill="#263238" d="M121.28 119.71c0 .05-.23.06-.46.2-.22.15-.34.35-.38.33-.05-.02.02-.28.3-.46.28-.17.55-.11.54-.07zM122.25 120.12c0 .05-.18.12-.34.31-.15.2-.2.4-.25.4-.04 0-.07-.27.13-.5.2-.23.46-.25.46-.2zM122.8 121.3c-.04 0-.1-.22.02-.47.12-.25.33-.35.35-.31.02.04-.11.17-.2.38-.1.2-.12.4-.17.4zM121.2 118.61c-.02.04-.23-.02-.48 0-.26.02-.46.1-.49.06-.02-.04.17-.2.48-.22.3-.01.51.12.5.16zM121.22 117.64a.89.89 0 01-.46 0 2.14 2.14 0 01-.5-.15 2.4 2.4 0 01-.26-.15.63.63 0 01-.14-.1.2.2 0 01-.02-.25.26.26 0 01.2-.1.56.56 0 01.18.02 1.57 1.57 0 01.29.1 1.6 1.6 0 01.43.29c.21.2.29.37.26.38-.02 0-.12-.13-.34-.3a1.89 1.89 0 00-.42-.23 1.66 1.66 0 00-.26-.09c-.1-.02-.18-.03-.21.02-.03.04 0 .02 0 .05a.44.44 0 00.1.08 1.97 1.97 0 00.25.14 2.7 2.7 0 00.45.18 2.98 2.98 0 01.45.1z"/>
  <path fill="#263238" d="M121.17 117.7a.76.76 0 01-.13-.45 1.55 1.55 0 01.07-.51 1.52 1.52 0 01.12-.28.38.38 0 01.3-.24.22.22 0 01.2.13.7.7 0 01.04.17.97.97 0 010 .32 1.07 1.07 0 01-.2.48c-.19.24-.38.3-.38.28 0-.01.14-.1.28-.34a1.1 1.1 0 00.16-.44.93.93 0 000-.26c-.02-.1-.05-.18-.1-.17a.34.34 0 00-.16.15 1.55 1.55 0 00-.11.26 1.64 1.64 0 00-.1.47c-.02.25.03.43 0 .43z"/>
  <path fill="#26326d" d="M105.22 113.54l-1.51 6.01-2.57 4.41a.64.64 0 00.26.9.64.64 0 00.58 0c1.16-.63 5.4-2.94 5.48-3.38.1-.53 2.02-6.25 2.02-6.25z"/>
  <path fill="#fff" d="M101.4 124.86l6.17-3.8-.07.26a.95.95 0 01-.38.53c-.5.34-1.91 1.26-5.12 3a.64.64 0 01-.6 0zM106.88 118.8a.38.38 0 00-.23.45.37.37 0 00.44.24.4.4 0 00.25-.49.38.38 0 00-.5-.2" opacity=".6"/>
  <path fill="#263238" d="M103.5 122.62a1.98 1.98 0 00-.4-.61 1.9 1.9 0 00-.65-.32c0-.02.08-.04.23-.02a1.02 1.02 0 01.8.72c.05.14.03.23.01.23zM102.85 123.3c-.04.02-.18-.23-.46-.4a4.99 4.99 0 00-.57-.24.7.7 0 01.64.12c.31.2.42.52.39.52zM104.57 121.81a6.7 6.7 0 00-.67-.67 6.82 6.82 0 00-.83-.45 1.74 1.74 0 011.5 1.12zM105.18 120.02c-.02.03-.32-.2-.74-.33-.42-.14-.8-.13-.8-.16a1.23 1.23 0 01.85.03 1.24 1.24 0 01.7.46zM105.68 118.27a3.17 3.17 0 00-.76-.37 3.05 3.05 0 00-.85-.02c0-.01.08-.07.24-.11a1.36 1.36 0 01.64 0 1.38 1.38 0 01.57.29c.11.1.16.2.16.2zM105.01 117.57a.51.51 0 01.06-.23 1.59 1.59 0 01.34-.53.7.7 0 01.4-.26.26.26 0 01.26.13.41.41 0 01.01.3.9.9 0 01-.97.59 1.04 1.04 0 01-.85-.8.36.36 0 01.07-.3.26.26 0 01.29-.05.88.88 0 01.33.31 1.78 1.78 0 01.28.58.56.56 0 01.04.23 2.9 2.9 0 00-.4-.75.81.81 0 00-.3-.26.13.13 0 00-.15.03.24.24 0 00-.03.2.93.93 0 00.73.68.78.78 0 00.85-.5.3.3 0 000-.2.14.14 0 00-.15-.07.65.65 0 00-.33.2 2.38 2.38 0 00-.48.7z"/>
  <path fill="#003260" d="M115.48 49.48l.5-1.23.65.34-.12 1.1z"/>
  <path fill="#26326d" d="M117.78 49.56l-.3-1.04.5-.43.45 1.15zM116.75 49.97l-.3 13.04 2.2 2.18 1.07-2.9-2.12-12.4z"/>
  <path fill="#26326d" d="M116.77 48.2l.52-.1a.36.36 0 01.4.18l.28.51a.37.37 0 01.03.24l-.1.58a.36.36 0 01-.3.29l-.64.12a.37.37 0 01-.4-.19l-.3-.62a.38.38 0 010-.31l.23-.5a.36.36 0 01.28-.2z"/>
  <path fill="#263238" d="M117.68 48.33a1.28 1.28 0 01-.17.2c-.1.13-.26.3-.43.49l-.44.46a1.37 1.37 0 01-.2.19 1.28 1.28 0 01.17-.21l.44-.48.44-.47a1.53 1.53 0 01.2-.18zM117.04 48.93a1.51 1.51 0 01-.3-.27 1.42 1.42 0 01-.27-.29 1.56 1.56 0 01.3.27 1.8 1.8 0 01.27.29zM117.77 49.77a6.97 6.97 0 01.16-.76.74.74 0 00-.16-.49.42.42 0 01-.07-.21l.1.2c.04.05.09.12.13.2a.5.5 0 01.05.3c-.04.22-.1.4-.13.54a1.04 1.04 0 01-.08.22zM123.41 70.32l-.92 47.9a.59.59 0 01-.6.57l-5.58-.05a.59.59 0 01-.58-.6l.86-41.2-7.26 40.91a1.06 1.06 0 01-1.07.87l-4.68-.16a1.06 1.06 0 01-1-1.21l7.34-47.21z"/>
  <path fill="#455a64" d="M105.85 116.19l.01-.12.05-.33.2-1.26c.2-1.1.46-2.7.78-4.65l2.56-15.33c1-5.99 1.86-11.42 2.48-15.35l.73-4.65.2-1.27.05-.32.03-.12a.89.89 0 010 .12c0 .08-.03.19-.05.33l-.17 1.27-.69 4.66c-.6 3.93-1.45 9.36-2.44 15.34a2067.53 2067.53 0 01-3.7 21.56l-.04.12zM120.15 116.36c-.04 0 .03-9.75.14-21.77.11-12.02.24-21.76.26-21.76.03 0-.02 9.74-.14 21.77-.11 12.02-.23 21.76-.26 21.76zM122.65 116.53c0 .03-1.52.06-3.4.06-1.87 0-3.4-.03-3.4-.06 0-.04 1.53-.07 3.4-.07 1.88 0 3.4.03 3.4.07zM109.67 116.27a.98.98 0 01-.27.02l-.74.03-2.45.06c-.96.02-1.83.03-2.45.02-.32 0-.57 0-.75-.02a.96.96 0 01-.26-.02 1.15 1.15 0 01.26-.03l.75-.02 2.45-.06a94.71 94.71 0 013.2 0 1.24 1.24 0 01.26.02zM117.56 70.9a4.98 4.98 0 01-.01.83l-.14 2-.1 1.1a2.12 2.12 0 01-.3.86 1.23 1.23 0 01-.46.42.42.42 0 01-.21.06 1.38 1.38 0 00.58-.53 2.14 2.14 0 00.27-.83c.04-.33.05-.7.09-1.1l.18-1.98a5.2 5.2 0 01.1-.83z"/>
  <path d="M110.37 66.34a2.5 2.5 0 002.17.62c.55-.11 1.06-.41 1.63-.37.6.04 1.11.47 1.67.72 1.04.47 2.26.32 3.36.02.51-.13 1.04-.31 1.37-.73a2.44 2.44 0 00.42-1.13 11.67 11.67 0 00.16-2.25 2.15 2.15 0 00-.36-1.34 1.53 1.53 0 00-1-.5 3.9 3.9 0 00-1.16.06A18.98 18.98 0 00110.3 65" opacity=".3"/>
  <path fill="#e0e0e0" d="M115.74 63.85s-7.01 3.13-7.72 3.3c-2.37.53-5.07-1.72-4.32-4.26.28-.95 4.05-11.43 4.05-11.43l3.58 4.96-1.52 5.07 3.97-.26z"/>
  <path fill="#263238" d="M113.47 61.26a1.35 1.35 0 01-.28.04l-.77.06c-.65.05-1.56.12-2.6.18h-.09l.03-.08.23-.8c.35-1.18.68-2.25.93-3.02l.29-.92a2.02 2.02 0 01.12-.33 1.98 1.98 0 01-.08.35l-.26.92c-.22.78-.53 1.86-.9 3.04l-.23.8-.06-.09 2.6-.13.77-.03a1.45 1.45 0 01.3.01zM114.94 64.26c.02.03-1.52.7-3.43 1.48-1.92.79-3.47 1.4-3.49 1.37a54.9 54.9 0 013.44-1.48 76.12 76.12 0 013.48-1.37z"/>
  <path fill="#455a64" d="M114.1 61.03l-.55-2.7a.35.35 0 01.34-.4l6.97.03a.35.35 0 01.34.38l-.72 6.16a.48.48 0 01-.48.43l-4.54-.04a.48.48 0 01-.47-.36z"/>
  <path fill="#b78876" d="M113.49 59.61a.73.73 0 01.69.47 1.57 1.57 0 00.46.74c.34.19.93.34 1.24.19.32-.16 1.56-1.27 1.77-1.15.22.13.4.4.2.65-.22.25-1.38 1-1.16 1.25.22.24 2.65-.85 3.02-.75.37.1.59.32.37.47-.22.15-1.86.77-1.96 1 0 0 2.49-.66 2.58-.5.1.15.25.4 0 .5-.25.09-2.4.64-2.58.74a4.57 4.57 0 01-.96.26c-.06 0-.55.17-1 .32a2.2 2.2 0 01-1.55-.04l-.25-.1a.99.99 0 01-.61-.98l.05-.84-.26-.7z"/>
  <path fill="#fafafa" d="M117.67 58.96a.26.26 0 11-.26-.27.26.26 0 01.26.27z"/>
  <g transform="matrix(.26458 0 0 .26458 -2.53 -.59)">
    <path fill="#455a64" d="M567.5 307.35h-78.86v-2.94h75.93a2.94 2.94 0 012.93 2.94z"/>
    <rect width="60.42" height="45.7" x="488.64" y="261.02" fill="#455a64" rx="3.34"/>
    <path fill="#fafafa" d="M491.16 263.2h55.38v40.7h-55.38z"/>
    <path fill="#263238" d="M546.53 303.9v-.75-2.18-8.25-29.52l.06.05h-55.37l.08-.07v40.7l-.07-.06H542.61h-51.45v-.06-40.77h55.44V303.01c0 .49-.07.89-.07.89z"/>
    <path fill="#e0e0e0" d="M538.25 274.15h-38.21l.07-.07v18.79l-.07-.07h35.11-8L500 293h-.07v-18.92h38.28z"/>
    <path fill="#e0e0e0" d="M538.25 277.31s-8.57.07-19.13.07c-10.56 0-19.12 0-19.12-.07s8.56-.06 19.12-.06 19.13.03 19.13.06zM538 279.83s-8.56.07-19.12.07-19.13 0-19.13-.07 8.56-.06 19.13-.06c10.57 0 19.12.03 19.12.06zM538.25 282.49s-8.57.07-19.13.07c-10.56 0-19.12 0-19.12-.07s8.56-.07 19.12-.07 19.13.03 19.13.07zM538.25 285.08s-8.57.07-19.13.07c-10.56 0-19.12 0-19.12-.07s8.56-.07 19.12-.07 19.13-.01 19.13.07zM538.25 287.67s-8.57.07-19.13.07c-10.56 0-19.12 0-19.12-.07s8.56-.07 19.12-.07 19.13.03 19.13.07zM500 290.26s8.56-.07 19.12-.07 19.13 0 19.13.07-8.56.06-19.13.06c-10.57 0-19.12-.03-19.12-.06z"/>
    <path fill="#e0e0e0" d="M507.57 293.23s-.06-4.27-.06-9.54 0-9.54.06-9.54.07 4.27.07 9.54-.03 9.54-.07 9.54zM515.24 293.23s-.07-4.27-.07-9.54 0-9.54.07-9.54.07 4.27.07 9.54-.03 9.54-.07 9.54zM522.91 293.23s-.07-4.27-.07-9.54 0-9.54.07-9.54.07 4.27.07 9.54.02 9.54-.07 9.54zM530.58 293.23s-.07-4.27-.07-9.54 0-9.54.07-9.54.07 4.27.07 9.54-.03 9.54-.07 9.54zM538.25 293.23s-.07-4.27-.07-9.54 0-9.54.07-9.54.07 4.27.07 9.54-.03 9.54-.07 9.54z"/>
    <path fill="#ff725e" d="M538.25 277.31a2.21 2.21 0 01-.29.23l-.86.61-3.21 2.21c-2.73 1.88-6.56 4.48-10.9 7.42h-.12l-3.26-1.09-4.41-1.49h.12l-7.69 5.15-5.55 1.92-1.52.51-.4.13h-.14a.5.5 0 01.13-.06l.39-.16 1.5-.56 5.52-2 7.66-5.2h.11l4.42 1.49 3.25 1.1h-.11c4.35-2.94 8.19-5.51 10.95-7.34l3.26-2.15.88-.57a2.46 2.46 0 01.27-.15z"/>
    <circle cx="507.57" cy="290.26" r=".47" fill="#ff725e"/>
    <circle cx="515.24" cy="285.08" r=".47" fill="#ff725e"/>
    <circle cx="522.91" cy="287.62" r=".47" fill="#ff725e"/>
    <circle cx="530.66" cy="282.51" r=".47" fill="#ff725e"/>
    <path fill="#455a64" d="M538.25 290.26l-.15-.08-.41-.26-1.55-1-5.62-3.7h.12l-7.64 5.14-.1.07-.08-.1-4-5.43-3.63-4.92h.2l-7.7 7.74-5.7 1.85-1.56.49-.41.12h-.14l.13-.06.4-.15 1.54-.54 5.67-1.94 7.65-7.79.11-.11.09.12 3.64 4.92c1.41 1.89 2.76 3.73 4 5.44h-.18l7.68-5.11h.12l5.57 3.78 1.52 1.05.39.28z"/>
    <circle cx="515.24" cy="279.9" r=".47" fill="#455a64"/>
    <circle cx="507.57" cy="287.67" r=".47" fill="#455a64"/>
    <circle cx="522.91" cy="290.26" r=".47" fill="#455a64"/>
    <circle cx="530.58" cy="285.55" r=".47" fill="#455a64"/>
    <path fill="#e0e0e0" d="M504.37 295.08a2 2 0 01-.74.07 2 2 0 01-.74-.07 2.31 2.31 0 01.74-.07 2.26 2.26 0 01.74.07zM512.21 295.08a3.95 3.95 0 01-1.48 0 3.95 3.95 0 011.48 0zM520.05 295.08a3.95 3.95 0 01-1.48 0 3.95 3.95 0 011.48 0zM527.89 295.08a2 2 0 01-.74.07 2 2 0 01-.74-.07 2.26 2.26 0 01.74-.07 2.31 2.31 0 01.74.07zM535.72 295.08a2 2 0 01-.74.07 1.94 1.94 0 01-.73-.07 2.22 2.22 0 01.75-.08 2.26 2.26 0 01.72.08zM498.92 292.84a1.63 1.63 0 01-.6.06 1.56 1.56 0 01-.59-.06 1.27 1.27 0 01.59-.07 1.33 1.33 0 01.6.07zM498.92 289.83a1.63 1.63 0 01-.6.06 1.56 1.56 0 01-.59-.06 1.27 1.27 0 01.59-.07 1.33 1.33 0 01.6.07zM498.92 286.82a1.63 1.63 0 01-.6.06 1.56 1.56 0 01-.59-.06 1.27 1.27 0 01.59-.07 1.33 1.33 0 01.6.07zM498.92 283.81a1.63 1.63 0 01-.6.06 1.56 1.56 0 01-.59-.06 1.27 1.27 0 01.59-.07 1.33 1.33 0 01.6.07zM498.92 280.8a1.63 1.63 0 01-.6.06 1.56 1.56 0 01-.59-.06 1.27 1.27 0 01.59-.07 1.33 1.33 0 01.6.07zM498.92 277.79a1.63 1.63 0 01-.6.06 1.56 1.56 0 01-.59-.06 1.27 1.27 0 01.59-.07 1.33 1.33 0 01.6.07zM498.92 274.78a1.63 1.63 0 01-.6.06 1.56 1.56 0 01-.59-.06 1.27 1.27 0 01.59-.07 1.33 1.33 0 01.6.07z"/>
    <path fill="#ff725e" d="M499.8 267.64h10.99v.78H499.8z"/>
    <path fill="#263238" d="M530.41 269.92s-6.87.07-15.34.07c-8.47 0-15.35 0-15.35-.07s6.87-.07 15.35-.07 15.34.03 15.34.07zM519.2 298.84s-4.19.07-9.36.07c-5.17 0-9.35 0-9.35-.07s4.18-.07 9.35-.07 9.36.03 9.36.07zM505 300.25a14.16 14.16 0 01-2 .07 14 14 0 01-2-.07 17.36 17.36 0 012-.06 17.62 17.62 0 012 .06zM536.16 298.59s-3 .07-6.65.07c-3.65 0-6.65 0-6.65-.07s3-.07 6.65-.07c3.65 0 6.65.03 6.65.07zM528.93 299.51a36.08 36.08 0 01-4.16 0 30.94 30.94 0 014.16 0zM209.69 465.03h-7.64l16.52-146.14 14.02 4.94z"/>
    <path fill="#455a64" d="M195 307.18h422.75v18.49H195z"/>
    <path fill="#263238" d="M284.56 307.46a2 2 0 01-.14.2l-.44.55a8.76 8.76 0 01-2.13 1.7 11.75 11.75 0 01-4.08 1.37 28.58 28.58 0 01-5.7.25 54.62 54.62 0 01-6.85-.79 61.66 61.66 0 00-7.81-.93c-5.54-.2-11.56 1.25-17.58 3.41-6.02 2.16-11.67 4.61-17.06 6.1a46.67 46.67 0 01-7.78 1.54 32.49 32.49 0 01-6.91 0 23.65 23.65 0 01-9.48-3 14.9 14.9 0 01-2.93-2.19s.08 0 .21.13l.56.42a19.72 19.72 0 002.26 1.46 23.89 23.89 0 009.42 2.84 32 32 0 006.83-.05 47.13 47.13 0 007.69-1.57c5.35-1.51 11-4 17-6.13s12.13-3.62 17.76-3.4a61 61 0 017.87 1 56.67 56.67 0 006.8.84 28.4 28.4 0 005.64-.17 12.2 12.2 0 004-1.25 10.86 10.86 0 002.85-2.33z"/>
    <path fill="#263238" d="M238.31 307.74a11.7 11.7 0 01-1.28 1.09 29.41 29.41 0 01-3.85 2.48 33.65 33.65 0 01-6.31 2.57 34.76 34.76 0 01-8.24 1.29 31.55 31.55 0 01-14.74-3 9.37 9.37 0 01-3.55-2.91 5.14 5.14 0 01-.59-1.12c-.08-.27-.12-.41-.1-.42a10.38 10.38 0 00.85 1.42 9.7 9.7 0 003.56 2.7 32.81 32.81 0 0014.55 2.85A33.9 33.9 0 00233 311a34.43 34.43 0 003.9-2.32 10.15 10.15 0 011.41-.94zM337.51 319.45l.65.24a13.12 13.12 0 001.95.52 11.54 11.54 0 007.4-1.16v.24a17.62 17.62 0 00-9.17-3.58 17.87 17.87 0 00-11.93 3.1 2 2 0 00-.93 1.2 1.29 1.29 0 00.79 1.19 5.51 5.51 0 001.64.58l1.8.41c2.42.54 4.92 1.07 7.51 1.45a44.66 44.66 0 008 .54 30.08 30.08 0 004.1-.39c.68-.12 1.36-.25 2-.43a10.54 10.54 0 002-.64 6.48 6.48 0 002.56-1.85 2.91 2.91 0 00.49-2.84 4.78 4.78 0 00-2-2.24 16.13 16.13 0 00-2.8-1.37 38.6 38.6 0 00-11.79-2.42 48.61 48.61 0 00-20 3.11 49.19 49.19 0 00-12.06 6.59 52 52 0 00-2.92 2.36l-.75.64-.26.2s.07-.09.23-.24l.71-.67c.61-.61 1.59-1.43 2.86-2.45a48.84 48.84 0 0132.26-10 38.74 38.74 0 0111.9 2.44 16.2 16.2 0 012.9 1.42 5.29 5.29 0 012.22 2.49 3.45 3.45 0 01-.57 3.34 7 7 0 01-2.76 2 11 11 0 01-2.06.67c-.69.18-1.38.31-2.08.43a29.42 29.42 0 01-4.17.4 44.67 44.67 0 01-8.07-.56c-2.6-.39-5.11-.93-7.53-1.48l-1.8-.42a5.92 5.92 0 01-1.78-.63 2.4 2.4 0 01-.74-.65 1.48 1.48 0 01-.27-1 2.34 2.34 0 011.12-1.52 18.21 18.21 0 0112.23-3.11 17.86 17.86 0 019.32 3.73l.17.14-.19.1a11.56 11.56 0 01-7.56 1.06 8.42 8.42 0 01-2.62-.94zM391.91 307.94a2.7 2.7 0 01.41.93 6.83 6.83 0 01.28 2.77 13.71 13.71 0 01-4.11 8.07 20.85 20.85 0 01-3.85 3.27 17.34 17.34 0 01-3.71 1.8 18.13 18.13 0 01-2.69.67 4.25 4.25 0 01-1 .09c0-.1 1.42-.3 3.57-1.11a18.33 18.33 0 003.58-1.85 22.25 22.25 0 003.73-3.23 14 14 0 004.13-7.75 10.16 10.16 0 00-.34-3.66zM467.82 324.7a22.58 22.58 0 00-1.94-1.89 13.72 13.72 0 00-6.61-3 14.58 14.58 0 00-5 .14 21.85 21.85 0 01-5.9.55c-2.17-.2-4.12-1.51-5.88-2.89a20.08 20.08 0 00-5.9-3.5 21.7 21.7 0 00-13.11-.2 31.44 31.44 0 00-9.7 4.91 53.9 53.9 0 00-5.62 4.8l-1.43 1.42a5 5 0 01-.52.48 2.9 2.9 0 01.44-.55c.3-.35.76-.86 1.37-1.49a47.26 47.26 0 015.54-4.95 31.1 31.1 0 019.79-5.08 21.93 21.93 0 0113.42.17 20.4 20.4 0 016 3.59c1.76 1.37 3.59 2.61 5.62 2.81a21.9 21.9 0 005.78-.49 15 15 0 015.16-.09 13.63 13.63 0 016.68 3.19 8.9 8.9 0 011.81 2.07zM535.6 307.36a3.44 3.44 0 01-.46.63 21.83 21.83 0 01-1.45 1.72 38.87 38.87 0 01-6.17 5.48 49.78 49.78 0 01-10.7 5.94 43.66 43.66 0 01-6.91 2.2 35.23 35.23 0 01-7.72 1 38.06 38.06 0 01-14.66-3 49.09 49.09 0 01-10.65-6 41.59 41.59 0 01-6.13-5.53c-.68-.7-1.12-1.32-1.45-1.71a5.46 5.46 0 01-.46-.63 5.07 5.07 0 01.55.56c.35.37.81 1 1.51 1.65a45.4 45.4 0 006.2 5.37 49.86 49.86 0 0010.61 5.89 38.09 38.09 0 0014.47 3 35.08 35.08 0 007.62-1 44.48 44.48 0 006.84-2.15 50.49 50.49 0 0010.67-5.79 42.56 42.56 0 006.24-5.32c.7-.67 1.15-1.28 1.51-1.65a4.62 4.62 0 01.54-.66z"/>
    <path fill="#263238" d="M525.92 307.18s-.12.12-.36.29c-.24.17-.61.44-1.1.75a45 45 0 01-4.23 2.39 45.68 45.68 0 01-6.69 2.73 30 30 0 01-8.73 1.49 36 36 0 01-15.5-3.92 34.93 34.93 0 01-4.2-2.46c-.48-.32-.82-.6-1.06-.79a1.61 1.61 0 01-.35-.3 14.53 14.53 0 011.52.92 45.51 45.51 0 004.25 2.3 37.35 37.35 0 0015.34 3.73 30.39 30.39 0 008.59-1.43 48.79 48.79 0 006.67-2.6 56.2 56.2 0 004.29-2.24 13.22 13.22 0 011.56-.86zM568.9 309.08h-.49L567 309l-1-.07h-4.09l-1.68.1-1.81.21c-1.26.11-2.58.4-4 .64a59.93 59.93 0 00-8.84 2.63 63.24 63.24 0 00-8.28 4.07c-1.19.78-2.36 1.45-3.36 2.22l-1.49 1.07-1.26 1.13c-.85.65-1.55 1.32-2.18 1.9l-.89.8-.69.71-1 1a2 2 0 01-.37.32s.09-.15.29-.39l.91-1 .67-.76.85-.83c.62-.6 1.31-1.3 2.16-2l1.3-1.09c.47-.36 1-.72 1.48-1.1 1-.79 2.17-1.49 3.36-2.28a58.38 58.38 0 018.34-4.14 57.34 57.34 0 018.93-2.62c1.42-.23 2.75-.51 4-.6l1.83-.19 1.7-.05a25.26 25.26 0 012.92 0l1.2.05 1 .12 1.38.19a1.33 1.33 0 01.52.04zM587 305.45v.35a7.85 7.85 0 01-.09 1 14.11 14.11 0 01-1 3.55 20.74 20.74 0 01-7.89 9.06 41.42 41.42 0 01-11.12 4.75c-1.49.42-2.7.72-3.54.92a7.91 7.91 0 01-1.32.25 6.4 6.4 0 011.26-.45l3.49-1.08a44.84 44.84 0 0010.98-4.8 19.06 19.06 0 009.23-13.55zM475.42 324.33a19.7 19.7 0 00-2.33-2.77 21.55 21.55 0 00-8.52-4.76 46.62 46.62 0 00-6.65-1.47c-2.42-.38-5-.69-7.77-1.16a65.47 65.47 0 01-8.44-2.11 54.26 54.26 0 00-9-2.18 37.51 37.51 0 00-17.55 2.42 63.85 63.85 0 00-7.13 3.21 152.14 152.14 0 00-6 3.25c-3.64 2.06-6.54 3.81-8.53 5l-2.3 1.41-.6.36c-.14.08-.21.12-.22.11a.86.86 0 01.19-.15l.57-.41c.51-.35 1.26-.85 2.25-1.49 2-1.27 4.83-3.07 8.45-5.18 1.82-1.05 3.81-2.17 6-3.31a62.15 62.15 0 017.17-3.28 37.53 37.53 0 0117.77-2.48 54.88 54.88 0 019.09 2.2 66 66 0 008.37 2.13c2.72.48 5.33.8 7.76 1.21a44.61 44.61 0 016.69 1.54 21.07 21.07 0 018.55 5 10.83 10.83 0 012.18 2.91zM380.2 307.46a4.4 4.4 0 01-.06 1.18 14.19 14.19 0 01-.83 3.12 17.87 17.87 0 01-6.5 8.31 43.18 43.18 0 01-9.63 4.43c-1.29.43-2.34.74-3.07.93a5.34 5.34 0 01-1.16.24 5.4 5.4 0 011.1-.44l3-1.07a50.39 50.39 0 009.47-4.52 18.57 18.57 0 006.44-8 25.72 25.72 0 001.24-4.18zM282.06 325.67a7.11 7.11 0 011-1c.68-.62 1.71-1.46 3-2.46a86.92 86.92 0 0110.78-7c4.39-2.42 8.5-4.35 11.48-5.71 1.49-.69 2.7-1.23 3.54-1.59a6.81 6.81 0 011.33-.51 7.23 7.23 0 01-1.24.69l-3.48 1.74c-2.93 1.45-7 3.43-11.38 5.84a104.9 104.9 0 00-10.81 6.78c-1.33 1-2.39 1.76-3.1 2.33a7.81 7.81 0 01-1.12.89zM302 308.21c0 .06-1-.12-2.73 0a19.27 19.27 0 00-7.05 2.14 65.5 65.5 0 00-9.17 6.15 46.31 46.31 0 01-5.51 3.58 31.26 31.26 0 01-6.6 2.54 61.33 61.33 0 01-13.51 1.62c-4.18.12-7.93 0-11.08.17a55.91 55.91 0 00-7.41.72c-.86.16-1.53.29-2 .4a3.74 3.74 0 01-.7.13 2.79 2.79 0 01.67-.23c.44-.14 1.11-.3 2-.5a48.57 48.57 0 017.44-.89c3.16-.18 6.92-.13 11.08-.28a62.51 62.51 0 0013.39-1.65 30.94 30.94 0 006.49-2.48 47.54 47.54 0 005.47-3.52A63.22 63.22 0 01292 310a18.85 18.85 0 017.2-2 12 12 0 012 .07 3.37 3.37 0 01.8.14z"/>
    <path fill="#263238" d="M565.63 307.11c0 .14-17.67.26-39.45.26s-39.47-.12-39.47-.26 17.67-.26 39.47-.26c21.8 0 39.45.15 39.45.26zM343.39 298.88h56.97v8.51h-56.97z"/>
    <path fill="#e0e0e0" d="M343.39 300.85h15.06v4.58h-15.06z"/>
    <path fill="#e6505c" d="M348.47 290.37h56.97v8.51h-56.97z"/>
    <path fill="#e0e0e0" d="M366.81 292.41h38.64v4.26h-38.64z"/>
    <path fill="#263238" d="M396.94 290.36h-56.97v-8.51h56.97z"/>
    <path fill="#e0e0e0" d="M396.94 288.4h-15.06v-4.58h15.06z"/>
  </g>
  <g>
    <path fill="#50c7f1" d="M140.39 114l1.8 4.46s-3.94 3.33-3.7 4.18l8.78-3.17-2.5-7.08z"/>
    <path fill="#e0e0e0" d="M144.76 117.1a.38.38 0 01.4.32.37.37 0 01-.32.4.4.4 0 01-.41-.35c0-.18.18-.4.37-.37"/>
    <path fill="#fff" d="M147.28 119.47l-.28-.7-8.31 3.3s-.33.32-.19.57z" opacity=".6"/>
    <path fill="#263238" d="M142.03 118.48c.01.04.23 0 .5.05.26.04.43.2.47.16.03-.03-.12-.26-.44-.32s-.56.06-.53.1zM141.24 119.18c0 .05.22.05.43.18s.32.3.37.29c.04-.02-.02-.27-.29-.43-.26-.16-.52-.08-.5-.04zM141.12 120.47c.04 0 .02-.24-.17-.43-.2-.2-.43-.22-.44-.18 0 .05.17.13.32.29.16.16.25.33.29.32zM141.73 117.42c.03.03.2-.1.45-.17s.47-.06.48-.1c0-.05-.23-.14-.53-.05-.3.09-.44.28-.4.32zM141.38 116.5a.86.86 0 00.44-.16 2.03 2.03 0 00.41-.31 2.83 2.83 0 00.2-.22.67.67 0 00.1-.16.2.2 0 00-.06-.23.24.24 0 00-.23-.03.63.63 0 00-.15.08 1.94 1.94 0 00-.24.2 1.7 1.7 0 00-.31.4.8.8 0 00-.13.45c.02 0 .08-.16.23-.39a1.72 1.72 0 01.3-.36 1.44 1.44 0 01.23-.17c.09-.06.16-.09.2-.05.04.03.02.01 0 .05a.43.43 0 01-.07.11 2.54 2.54 0 01-.18.22 2.65 2.65 0 01-.37.31 3.33 3.33 0 00-.37.26z"/>
    <path fill="#263238" d="M141.46 116.54a.76.76 0 00-.04-.47 1.59 1.59 0 00-.23-.46 1.4 1.4 0 00-.21-.22.39.39 0 00-.36-.12.23.23 0 00-.14.19.63.63 0 000 .17 1.04 1.04 0 00.1.3 1.07 1.07 0 00.36.39c.26.16.45.15.45.13a3.6 3.6 0 01-.38-.22 1.07 1.07 0 01-.3-.37.93.93 0 01-.08-.26c-.02-.1 0-.19.03-.19a.26.26 0 01.2.09 1.5 1.5 0 01.2.2 1.68 1.68 0 01.25.4c.11.26.13.44.15.44z"/>
    <path fill="#50c7f1" d="M148.65 113.19l1.8 4.46s-3.93 3.33-3.68 4.18l8.78-3.17-2.52-7.06z"/>
    <path fill="#e0e0e0" d="M153.02 116.28a.38.38 0 01.4.32.37.37 0 01-.31.4.4.4 0 01-.42-.34c0-.2.19-.4.37-.38"/>
    <path fill="#fff" d="M155.55 118.65l-.29-.7-8.3 3.3s-.33.32-.19.58z" opacity=".6"/>
    <path fill="#263238" d="M150.29 117.65c.02.04.24-.01.5.05.26.06.44.2.47.17.03-.04-.12-.27-.44-.33-.32-.05-.56.07-.53.11zM149.5 118.37c0 .04.22.05.43.17.22.13.33.31.37.3.04-.03-.02-.27-.28-.43-.27-.16-.53-.09-.52-.04zM149.38 119.66c.04 0 .03-.24-.17-.44s-.43-.22-.43-.17c0 .04.16.12.32.28.15.16.24.34.28.33zM150 116.59c.02.03.2-.1.45-.17s.46-.06.47-.1c0-.05-.23-.14-.53-.05-.3.09-.43.3-.4.32zM149.65 115.68a.85.85 0 00.43-.16 2.03 2.03 0 00.41-.3 2.43 2.43 0 00.2-.23.57.57 0 00.1-.15.2.2 0 00-.06-.24.24.24 0 00-.22-.03.57.57 0 00-.16.08 1.78 1.78 0 00-.24.2 1.7 1.7 0 00-.3.4.81.81 0 00-.14.46c.03 0 .08-.16.23-.4a1.79 1.79 0 01.31-.36 1.51 1.51 0 01.23-.17c.08-.05.16-.08.2-.05.04.03.02.02 0 .05a.39.39 0 01-.07.11 2.54 2.54 0 01-.19.22 2.67 2.67 0 01-.36.32 4.15 4.15 0 00-.37.25z"/>
    <path fill="#263238" d="M149.72 115.72a.75.75 0 00-.03-.46 1.52 1.52 0 00-.24-.46 1.4 1.4 0 00-.2-.23.39.39 0 00-.37-.12.22.22 0 00-.14.19.72.72 0 000 .18 1.04 1.04 0 00.11.3 1.07 1.07 0 00.35.38c.27.16.45.15.45.14a3.4 3.4 0 01-.38-.23 1.1 1.1 0 01-.29-.36.92.92 0 01-.08-.27c-.02-.1 0-.19.02-.19a.26.26 0 01.2.1 1.54 1.54 0 01.2.19 1.69 1.69 0 01.25.4c.12.27.13.45.15.44z"/>
    <path fill="#ffbe9d" d="M154.7 55.35l-.83 6.88 1.3 3.18-5.16.18-1.06-2.48s-2.55-.28-2.64-1.92c-.07-1.06 1.62-8.66 1.62-8.66z"/>
    <path fill="#263238" d="M153.04 63.53c.61-.42.92-.7 1.19-1.38.26-.68.44-1.4.74-2.07.3-.67.8-1.34 1.1-2.04.3-.7.47-1.54.17-2.24 0 0-.12-.91-1.33-1.24 0 0-.69-1.93-2.27-2.1-2.15-.25-2.08-.89-3.48-1.42a1.36 1.36 0 00-1.83.65s-.86.4-1.06 1.2v.01a1.89 1.89 0 00.88 2.07l.27.15a1.8 1.8 0 01.66.53c.23.36.18.82.08 1.23a3.34 3.34 0 00-.2 1.25c.02.14.1.32.25.3.15 0 .21-.23.27-.4.15-.47.85-.71 1.22-.26a.76.76 0 01.03.96c-.24.3-.65.5-.8.87-.26.61.39 1.32.6 1.74a2.46 2.46 0 00.27.42 6.11 6.11 0 001.8 1.57 1.65 1.65 0 001.68.08"/>
    <path fill="#ffbe9d" d="M131.82 71.83c-.9-.39-1.48-.74-2.1-.96-.74-.26-1.03-.44-.97-.57.08-.19.04-.12 1.47.18 0 0-2.04-.45-1.52-.7.23-.1 1.93.25 1.93.25-1.4-.16-1.89-.44-1.86-.65.06-.3 2.12.14 2.12.14a15.75 15.75 0 01-1.83-.45c-.26-.14.07-.26.38-.3.3-.04 2.35.03 2.93.02a.34.34 0 00.38-.36c-.17-.82.13-1.56.31-1.72a.26.26 0 01.4.29 3.11 3.11 0 000 .85 2 2 0 00.19.66c.11.24.22.43.32.6l2.88 3.16-1.24 2.99z"/>
    <path fill="#eb996e" d="M131.08 70.68a3.97 3.97 0 01-.98-.16 3.83 3.83 0 01-.96-.3 3.82 3.82 0 01.99.17 3.73 3.73 0 01.95.3zM131.25 70.15a4.45 4.45 0 01-1.06-.12 4.3 4.3 0 01-1.04-.25 8.51 8.51 0 012.1.37zM131.43 69.59a3.8 3.8 0 01-1.01-.1 3.84 3.84 0 01-.99-.22 4.09 4.09 0 011.01.1 3.84 3.84 0 01.99.22z"/>
    <path fill="#263238" d="M150.71 85.27l-12.33 1.85a6 6 0 00-4.13 2.65 6 6 0 00-.74 4.96l6.51 20.77 5.88-2.21-3.61-18.36 19.08-1.28v-8.38l-10.66-.4"/>
    <path fill="#263238" d="M159.4 85.27l-12.34 1.85a6 6 0 00-4.13 2.65 6 6 0 00-.73 4.98l5.68 19.53 6.56-1.73-3.46-17.62 12.74-.86V85.7l-4.33-.82"/>
    <path fill="#50c7f1" d="M134.89 69.89c.26-.04 8.63 6.5 8.63 6.5l-5.34 2.14-5.43-5.38s-.34-2.92 2.14-3.26z"/>
    <path fill="#50c7f1" d="M161.98 67.32c-1.4-2.02-3.77-2.72-4.6-2.9a2.42 2.42 0 00-.52-.07h-7.14a5 5 0 00-3.46 1.38 17.14 17.14 0 00-2.74 3.53l-3.59 5-2.2 3.7.44.57a3.7 3.7 0 004.43 1.13 4.6 4.6 0 001.76-1.7c.9-1.33 1.85-2.76 2.46-3.85l3.6 10.29-1.92 1.22 8.11 3.28 8.45-3.61-2.34-8.32s3.7.36 4.04-1.09c.34-1.45-3.07-6.09-4.78-8.56z"/>
    <path fill="#fafafa" d="M161.15 71.1a33.67 33.67 0 011.68 3.11c.07.14.27.02.21-.12a26.56 26.56 0 00-1.76-3.08c-.05-.08-.18 0-.13.08zM162.83 70.5a33.67 33.67 0 011.69 3.1c.07.15.26.03.2-.11a26.34 26.34 0 00-1.75-3.08c-.05-.08-.19 0-.14.08zM159.52 71.33c.36 1.38.64 2.78.87 4.2.03.2.33.1.3-.09a27.7 27.7 0 00-1.03-4.15.07.07 0 00-.13.04zM155.7 71.73a16.75 16.75 0 01.7 4.15c0 .2.31.2.3 0a13.83 13.83 0 00-.85-4.2c-.03-.09-.18-.05-.15.05zM158.83 75.09a18.66 18.66 0 01-.92-3.92c-.02-.18-.3-.2-.3 0a7.86 7.86 0 001.07 3.97c.04.07.18.03.15-.07zM154 71.84a17.82 17.82 0 00.57 3.95c.05.18.31.1.27-.08-.25-1.3-.49-2.59-.7-3.9 0-.08-.16-.06-.15.03zM151.95 72.07c.35 1.45.62 2.91.88 4.37.02.14.27.11.25-.03a23.55 23.55 0 00-1.02-4.37.06.06 0 00-.11.03zM150.08 72.4a17.29 17.29 0 00.44 4.05c.04.14.23.08.22-.06a37.2 37.2 0 01-.49-3.97.09.09 0 00-.17 0zM144.1 76.1c1.11-1.05 2.1-2.38 3.03-3.6.08-.1-.1-.25-.2-.14-1 1.15-2.1 2.38-2.9 3.69-.03.04.04.1.07.05zM142.78 74.93a12.73 12.73 0 002.6-3.2c.07-.14-.13-.27-.22-.13-.77 1.13-1.64 2.16-2.48 3.23a.07.07 0 00.09.1zM143.57 71.08c-.75.84-1.52 1.66-2.22 2.53-.1.11.06.28.16.17.75-.84 1.44-1.74 2.15-2.61.05-.06-.03-.15-.09-.09zM148.17 72.6c.32 1.35.5 2.71.8 4.06.03.13.24.1.23-.03a30.55 30.55 0 00-.85-4.07.1.1 0 00-.18.05z"/>
    <path d="M159 75.5a1.96 1.96 0 00-1.52.75 4.67 4.67 0 00-.8 1.56 16.2 16.2 0 00-.83 5.5c0 .57.02 1.23-.42 1.6-.37.32-.91.3-1.37.47-.73.29-1.35 1.26-1.14 2.01l4.1 1.55z" opacity=".3"/>
    <path fill="#263238" d="M154.41 84.11a1.41 1.41 0 01-.46.18 5.34 5.34 0 01-1.19.19 5.3 5.3 0 01-1.2-.08 1.46 1.46 0 01-.48-.14c0-.04.75.12 1.68.08a16.08 16.08 0 001.65-.23z"/>
    <path fill="#455a64" d="M141.33 95.27h-1.6l-3.24 27.22h1.4zM154.26 95.27h-1.6l2.98 27.22h1.53zM168.7 95.27l2.48 27.22h1.7l-2.83-27.22H168M160.41 71.89h12.03a1.87 1.87 0 011.85 2.13l-2.85 19.87a1.61 1.61 0 01-1.59 1.38h-15.58z"/>
    <path fill="#455a64" d="M138.13 95.27c.03-.3 0-1.8 0-1.8l14.91.26a2.3 2.3 0 002.3-1.92l2.98-18.16a2.12 2.12 0 012.1-1.78l-3.25 20.45a3.48 3.48 0 01-3.44 2.94z"/>
    <path fill="#263238" d="M160.41 71.89a.16.16 0 010 .06l-.02.18-.1.7-.39 2.6-1.32 8.51c-.26 1.67-.53 3.25-.75 4.7l-.33 2.04a13.85 13.85 0 01-.36 1.77 4.83 4.83 0 01-.62 1.37 3.42 3.42 0 01-.77.82 2.6 2.6 0 01-.62.35 1.16 1.16 0 01-.24.07 3.13 3.13 0 00.83-.46 4.1 4.1 0 001.32-2.18 14.6 14.6 0 00.35-1.76l.31-2.05.75-4.69c.52-3.32 1.02-6.32 1.37-8.51l.43-2.58.13-.7.03-.18a.33.33 0 010-.06zM161.08 72.02a5.85 5.85 0 01-.73-1.03 5.53 5.53 0 01-.6-1.1 5.93 5.93 0 01.72 1.03 5.64 5.64 0 01.6 1.1zM138.38 76.4a10.7 10.7 0 01.94-1.44 11.31 11.31 0 011.04-1.38 10.9 10.9 0 01-.93 1.46 11.31 11.31 0 01-1.05 1.37zM148.44 71.6a1.96 1.96 0 01-.16.31 76.1 76.1 0 01-4.41 6.78 1.63 1.63 0 01-.22.27 1.62 1.62 0 01.17-.3l.53-.78c.45-.66 1.06-1.57 1.72-2.59l1.66-2.61.51-.8a1.45 1.45 0 01.2-.27z"/>
  </g>
  <g>
    <path fill="#263238" d="M76.34 40.91c-.54-.8-.2-2.02.61-2.55a2.46 2.46 0 012.74.2c.78.58 1 1.6.87 2.47-.1.65-1.11 1.98-2.08 1.4"/>
    <path fill="#263238" d="M70.51 46.41c-2.15-4.16 2.35-6.53 4.9-5.95 2.4.55 3.47 1.68 3.94 3.24a7.83 7.83 0 010 4.81c-.27.76-.8 1.54-1.6 1.68"/>
    <path fill="#ffbe9d" d="M77.04 42.76a.8.8 0 01.76.77l.08 10.88c.05 1.28-1.78 2.1-3.16 2.14-1.38.04-1.46-.64-1.54-1.86L73 51.91s-1.76-.2-2.24-2.47c-.24-1.13-.26-3-.26-4.52.02-1.38.84-3.1 2.21-3.03z"/>
    <path fill="#263238" d="M71.11 46.3a.3.3 0 00.3.29.28.28 0 00.29-.28.3.3 0 00-.3-.28.28.28 0 00-.29.27zM70.96 45.86c.04.04.25-.13.57-.15.31-.02.55.13.58.1.04-.05-.02-.1-.13-.16a.8.8 0 00-.47-.12.78.78 0 00-.45.17c-.09.08-.12.15-.1.16zM74.08 46.16a.3.3 0 00.3.28.28.28 0 00.28-.28.3.3 0 00-.3-.28.28.28 0 00-.28.28zM74.06 45.77c.04.03.25-.14.57-.16.32-.01.55.14.59.1.03-.05-.03-.1-.13-.16a.81.81 0 00-.48-.12.8.8 0 00-.45.17c-.09.08-.12.15-.1.17zM73.03 48.16a2.05 2.05 0 00-.52-.06c-.09 0-.16-.02-.18-.08a.42.42 0 01.04-.24l.21-.62a11 11 0 00.45-1.63 10.33 10.33 0 00-.58 1.59l-.2.62a.47.47 0 00-.02.32.2.2 0 00.14.11.53.53 0 00.13.02 2.05 2.05 0 00.53-.03z"/>
    <path fill="#eb996e" d="M73 51.9a5.8 5.8 0 003.02-.97s-.66 1.61-2.96 1.51zM73.2 48.92a.56.56 0 01.5-.24.53.53 0 01.37.17.34.34 0 01.05.38.38.38 0 01-.41.12 1.17 1.17 0 01-.42-.22.31.31 0 01-.1-.09.1.1 0 010-.11"/>
    <path fill="#263238" d="M73.97 48.33c-.05 0-.03.35-.31.6-.28.26-.65.24-.65.29 0 .05.09.06.24.06a.85.85 0 00.53-.22.74.74 0 00.24-.5c.02-.15-.02-.23-.05-.23zM73.9 45.22c.03.09.34.03.71.06.37.02.68.1.72.03.03-.04-.03-.12-.16-.2a1.2 1.2 0 00-.53-.15 1.21 1.21 0 00-.55.09c-.16.06-.21.14-.2.17zM71.02 44.94c.06.07.27-.01.53-.03.27-.01.49.03.53-.05.02-.04-.02-.1-.11-.17a.77.77 0 00-.45-.1.74.74 0 00-.41.17c-.09.08-.1.16-.09.18z"/>
    <path fill="#263238" d="M71.16 42.04a2.2 2.2 0 00.92 2.11 4.27 4.27 0 001.3.51l.87.24a7.14 7.14 0 001.97.34c-.04.75-.12 1.25.28 1.88.36.57.88.97 1.56.8a22.29 22.29 0 00.26-4.47 2.1 2.1 0 00-.22-1.11c-.34-.53-1.06-.64-1.7-.69l-2.67-.2a5.4 5.4 0 00-1.3 0 1.8 1.8 0 00-1.14.6"/>
    <path fill="#455a64" d="M79.76 45.26h-.11a.73.73 0 01-.28-.06 1.17 1.17 0 01-.37-.27 5.93 5.93 0 01-.38-.46 2.16 2.16 0 00-.53-.49 2.83 2.83 0 00-.74-.34 6.35 6.35 0 00-1.89-.2 8.55 8.55 0 01-1.9-.14 2.74 2.74 0 01-1.39-.73 2.12 2.12 0 01-.36-.5 1.6 1.6 0 01-.15-.42 1.17 1.17 0 01-.02-.39 3.26 3.26 0 00.05.38 1.66 1.66 0 00.16.42 2.07 2.07 0 00.37.46 2.69 2.69 0 001.35.7 8.82 8.82 0 001.9.12 6.27 6.27 0 011.9.22 2.85 2.85 0 01.76.36 2.23 2.23 0 01.53.5c.13.18.25.35.37.48a1.26 1.26 0 00.35.26.93.93 0 00.38.1z"/>
    <path fill="#455a64" d="M79.4 43.86a.71.71 0 00-.05-.32 1.32 1.32 0 00-.69-.56 4.5 4.5 0 00-1.3-.35 11.69 11.69 0 00-1.66 0 7.75 7.75 0 01-1.68-.06 3.35 3.35 0 01-1.28-.5 2.2 2.2 0 01-.65-.66 1.99 1.99 0 01-.12-.22.4.4 0 01-.03-.08l.18.29a2.27 2.27 0 00.65.62 3.42 3.42 0 001.26.47 8.1 8.1 0 001.66.05 11.1 11.1 0 011.68 0 4.48 4.48 0 011.32.37 1.32 1.32 0 01.69.61.53.53 0 01.03.27.24.24 0 01-.02.07zM80.4 39.48a.34.34 0 01.03.15.95.95 0 01-.07.42 2.38 2.38 0 01-.96 1.02 2.2 2.2 0 01-.72.28 2.16 2.16 0 01-.63.01 3.02 3.02 0 01-.42-.07.56.56 0 01-.15-.05c0-.02.22.04.57.06a2.28 2.28 0 00.61-.04 2.17 2.17 0 00.7-.26 2.47 2.47 0 00.94-.97 1.13 1.13 0 00.1-.55zM79.57 38.47a.47.47 0 010 .15 2.25 2.25 0 01-.08.41 2.74 2.74 0 01-.69 1.19 2.78 2.78 0 01-1.18.7 2.23 2.23 0 01-.4.08.43.43 0 01-.16 0c0-.02.21-.03.54-.15A2.86 2.86 0 0079.43 39c.1-.31.12-.53.14-.53zM79.34 48.36a.8.8 0 010-.12v-.34a3.9 3.9 0 00-.23-1.24 2.44 2.44 0 00-.45-.74 2.03 2.03 0 00-.81-.55c-.66-.25-1.46-.2-2.28-.24a6.99 6.99 0 01-2.28-.44 3.79 3.79 0 01-1.54-1.09 2.87 2.87 0 01-.6-1.12 2.06 2.06 0 01-.05-.35.53.53 0 010-.12s.01.17.1.46a2.95 2.95 0 00.6 1.1 3.82 3.82 0 001.53 1.05 7 7 0 002.25.42c.81.04 1.62 0 2.3.26a2.03 2.03 0 01.84.58 2.43 2.43 0 01.45.77 3.7 3.7 0 01.21 1.26v.34c0 .08-.03.11-.04.11z"/>
    <path fill="#ff725e" d="M78.82 42.48a3.99 3.99 0 01-.33-.35 5.48 5.48 0 00-1.87-1.3 3.85 3.85 0 01-.44-.17 1.79 1.79 0 01.46.12 4.54 4.54 0 011.9 1.32 1.83 1.83 0 01.28.38z"/>
    <path fill="#ffbe9d" d="M77.56 46.55c.03-.02 1.2-.6 1.27.76.09 1.37-1.3 1.17-1.32 1.13-.01-.04.05-1.9.05-1.9z"/>
    <path fill="#eb996e" d="M77.9 47.9l.07.03a.24.24 0 00.18 0 .59.59 0 00.24-.53.8.8 0 00-.09-.34.26.26 0 00-.19-.17.12.12 0 00-.14.07c-.01.04 0 .07 0 .07-.02 0-.04-.02-.03-.08a.14.14 0 01.05-.09.18.18 0 01.13-.04.34.34 0 01.26.2.82.82 0 01.1.37.62.62 0 01-.3.61.26.26 0 01-.22-.02c-.06-.05-.06-.08-.06-.09z"/>
    <path fill="#ffbe9d" d="M57.44 58.77s-.92-1.8-1.15-1.97c-.23-.18-2.28-.9-2.46-.84-.17.06-2.64.53-2.35.81.3.28 2.01-.05 2.01-.05l.23.11s-1.48.26-1.8.45c-.3.18-.18.53.1.49.27-.04 1.56-.3 1.64-.27.07.04-1.4.37-1.56.47-.22.13-.23.52.04.5.16-.02 1.55-.4 1.55-.4a12.17 12.17 0 00-1.2.54.2.2 0 00.2.34c.18-.03.95-.42 1.18-.47 0 0 .2.05.4.47.2.41 1.56 1.45 1.56 1.45z"/>
    <path fill="#ffbe9d" d="M56.88 58.8a.5.5 0 01-.58 0c-.18-.1-.31-.26-.48-.37-.51-.35-1.24-.25-1.73-.62-.07-.05-.14-.14-.1-.22.04-.08.13-.08.2-.08l2.05.02"/>
    <path fill="#eb996e" d="M56.24 57.54a.84.84 0 00-.22-.03l-.6-.02-.9-.02h-.26a.4.4 0 00-.3.06.17.17 0 00-.03.2.35.35 0 00.1.12 1.29 1.29 0 00.27.16 7.37 7.37 0 001.06.28 1.52 1.52 0 01.42.19c.12.07.22.17.32.26a.72.72 0 00.58.2c.15-.04.2-.12.2-.12a.58.58 0 01-.2.07.7.7 0 01-.54-.21 4.05 4.05 0 00-.32-.27 1.7 1.7 0 00-.44-.2 8.82 8.82 0 01-1.02-.32 1.22 1.22 0 01-.24-.14c-.07-.05-.1-.12-.06-.15.03-.03.12-.04.21-.03H55.43c.26 0 .46 0 .6-.02a.94.94 0 00.2-.01zM51.48 56.78a1.15 1.15 0 00.46.12 2.62 2.62 0 00.5.01l.62-.09.46-.08h-.03a6.97 6.97 0 001.06.32 6.35 6.35 0 00-1.03-.42h-.02l-.46.07-.6.1a2.88 2.88 0 01-.5 0 4.19 4.19 0 00-.46-.03z"/>
    <path fill="#50c7f1" d="M64.65 110.74l2.22 4.13s-3.44 3.64-3.11 4.44l8.15-4-3.2-6.58z"/>
    <path fill="#e0e0e0" d="M69.22 113.27a.37.37 0 01.42.26.35.35 0 01-.27.42.4.4 0 01-.44-.29.37.37 0 01.32-.4"/>
    <path fill="#b9e9f9" d="M71.91 115.3l-.36-.66-7.67 4.1s-.29.34-.12.57z" opacity=".6"/>
    <path fill="#263238" d="M66.72 114.89c.02.04.22-.04.48 0s.45.15.48.11c.03-.03-.15-.23-.46-.26-.32-.03-.53.12-.5.15zM66.03 115.66c0 .05.22.03.44.13.21.1.34.27.38.24.04-.02-.04-.26-.32-.38-.27-.11-.51-.02-.5.01zM66.06 116.93c.03 0 0-.24-.22-.4-.21-.17-.44-.17-.44-.12 0 .04.17.1.35.24.17.14.26.3.3.28zM66.31 113.9c.04.02.2-.12.43-.22.23-.1.44-.11.44-.16 0-.04-.23-.1-.5.02-.28.11-.4.33-.37.35zM65.88 113.05a.87.87 0 00.4-.2 2.15 2.15 0 00.37-.34 1.83 1.83 0 00.17-.24.6.6 0 00.08-.16.2.2 0 00-.09-.22.24.24 0 00-.21 0 .56.56 0 00-.15.1 1.61 1.61 0 00-.21.2 1.56 1.56 0 00-.26.44.75.75 0 00-.08.45c.02 0 .05-.16.17-.4a1.82 1.82 0 01.27-.39 1.5 1.5 0 01.2-.19c.07-.06.14-.1.19-.07.04.02.02.02.01.05a.43.43 0 01-.06.11 2.48 2.48 0 01-.15.23 2.62 2.62 0 01-.32.35c-.2.18-.34.26-.33.28z"/>
    <path fill="#263238" d="M65.96 113.08a.7.7 0 00-.09-.44 1.5 1.5 0 00-.26-.42 1.4 1.4 0 00-.23-.2.38.38 0 00-.36-.08.21.21 0 00-.12.2.6.6 0 00.04.17.99.99 0 00.13.26 1.06 1.06 0 00.38.34.6.6 0 00.45.09 4.04 4.04 0 01-.39-.18 1 1 0 01-.32-.32.98.98 0 01-.1-.24c-.04-.1-.04-.18 0-.2a.26.26 0 01.2.07 1.5 1.5 0 01.21.17 1.59 1.59 0 01.28.38c.12.24.16.4.18.4z"/>
    <path fill="#50c7f1" d="M66.82 114.31l-.84 4.61s-4.97.7-5.21 1.53l8.88 1.96 1.61-7.13z"/>
    <path fill="#e0e0e0" d="M68.8 119.14a.37.37 0 01.17.47.35.35 0 01-.47.17.4.4 0 01-.16-.5.37.37 0 01.5-.12"/>
    <path fill="#fff" d="M69.65 122.4l.13-.72-8.56-1.62s-.44.09-.45.38z" opacity=".6"/>
    <path fill="#263238" d="M65.84 118.85c0 .04.2.1.39.3.18.18.26.39.3.38.03 0 .03-.26-.2-.5-.22-.23-.49-.23-.49-.18zM64.82 119.03c-.01.03.16.15.27.37.11.21.1.42.15.42.04.01.12-.23-.01-.5-.14-.26-.4-.33-.4-.3zM64.05 120.02c.04.02.15-.18.09-.44-.06-.27-.24-.4-.27-.37-.02.03.07.18.12.4.04.22.02.4.06.41zM66.15 117.82c0 .04.22.03.47.1.24.06.41.18.44.15.03-.03-.12-.22-.4-.3-.29-.08-.52 0-.5.05zM66.34 116.89a.86.86 0 00.45.1 2 2 0 00.5-.04 2.08 2.08 0 00.28-.08.56.56 0 00.15-.08.2.2 0 00.08-.23.26.26 0 00-.17-.14.57.57 0 00-.18 0 1.52 1.52 0 00-.3.02 1.62 1.62 0 00-.46.18c-.25.15-.36.3-.34.3.01.02.14-.09.39-.2a1.68 1.68 0 01.72-.16c.1 0 .18.02.2.06 0 .05 0 .03-.03.05a.38.38 0 01-.11.05 2.31 2.31 0 01-.27.09 2.41 2.41 0 01-.46.08 2.9 2.9 0 00-.45 0z"/>
    <path fill="#263238" d="M66.38 116.96c.02 0 .14-.12.22-.4a1.53 1.53 0 00.04-.5 1.5 1.5 0 00-.05-.3.38.38 0 00-.24-.28.22.22 0 00-.21.08.67.67 0 00-.08.16 1.1 1.1 0 00-.07.3 1.04 1.04 0 00.1.5c.11.26.28.35.3.34a3.48 3.48 0 01-.2-.39 1.09 1.09 0 01-.06-.45.92.92 0 01.07-.26c.03-.09.09-.16.12-.14.03.01.1.1.12.18a1.43 1.43 0 01.06.26 1.55 1.55 0 010 .46c-.06.28-.14.43-.12.44zM70.9 71.88L57.26 89.45a6.35 6.35 0 00-1 5.96l9.87 20.16 3.31-5.64-5.66-15.92 7.38-8.87 3.3-13.6z"/>
    <path fill="#263238" d="M65.59 118.23l6.1-42.64.31-3.82 7.5-.39s2.61 4.08 2.73 6.58c.13 2.5-6.81 19.97-6.81 19.97l-1 6.97-4.19 14.75z"/>
    <path fill="#455a64" d="M71.94 72.57c.04 0-1.35 10.23-3.1 22.84-1.76 12.6-3.21 22.83-3.25 22.82-.04 0 1.35-10.23 3.1-22.84 1.76-12.61 3.21-22.83 3.25-22.82zM63.75 94.03c-.02.02-.17-.11-.45-.26a2.83 2.83 0 00-2.38-.1c-.29.13-.45.25-.46.23a1.17 1.17 0 01.43-.3 2.58 2.58 0 012.46.1 1.12 1.12 0 01.4.33zM79.94 73.99l-.17.1a2.47 2.47 0 01-.48.17 3.36 3.36 0 01-.75.1 3.9 3.9 0 01-.94-.1 4.04 4.04 0 01-.88-.31 3.57 3.57 0 01-.63-.43 2.65 2.65 0 01-.36-.37c-.08-.1-.11-.15-.1-.15 0-.01.18.19.52.44a3.86 3.86 0 00.64.4 4.35 4.35 0 00.85.3 4.26 4.26 0 00.9.1 3.69 3.69 0 00.73-.08c.41-.08.66-.2.67-.17zM58.06 99.06a2.8 2.8 0 01-.24-.42l-.6-1.17a17.15 17.15 0 01-.77-1.78 9.6 9.6 0 01-.33-1.1 6.13 6.13 0 01-.17-1.23 5.14 5.14 0 01.11-1.24 6.79 6.79 0 01.36-1.1 9.64 9.64 0 01.96-1.69c.31-.45.6-.79.8-1.04l.22-.26a.42.42 0 01.09-.1 3.53 3.53 0 01-.28.4c-.18.25-.45.6-.75 1.06a9.97 9.97 0 00-.93 1.69 6.88 6.88 0 00-.34 1.08 5.14 5.14 0 00-.1 1.2 6.11 6.11 0 00.16 1.2 9.07 9.07 0 00.32 1.1c.24.68.51 1.28.74 1.78l.56 1.18.14.32a.5.5 0 01.05.12z"/>
    <path fill="#50c7f1" d="M64.21 61.92l-6.57-3.63-2.3 2.3 8.54 5.84 3.8-.06 3.25-6.4-1.65-3.88z"/>
    <path fill="#50c7f1" d="M67.43 60.4l2.82 11.87 9.46-.8 1.21-9.35 2.54-3.99s-.63-3.75-4.79-3.78L78 52.77l-4.99.41-.6 1.46s-4.1.29-4 4.02z"/>
    <path d="M69.82 70.49a4.95 4.95 0 004.23-.81 1.5 1.5 0 01.57-.33 1.37 1.37 0 01.67.1 12.5 12.5 0 003.14.56 2.2 2.2 0 001.1-.14.85.85 0 00.5-.9 29.1 29.1 0 00-4.92-1.32 6.74 6.74 0 00-2.64-.08c-.86.2-1.66.71-2.41 1.21a1.06 1.06 0 00-.49.5c-.15.43.3.9.2 1.34" opacity=".3"/>
    <path fill="#50c7f1" d="M76.92 57.98c.26.24 3.78 6.27 3.78 6.27l-5.62 1.23-.2 2.77 5.53.8 2.49.26a3.2 3.2 0 002.88-1.24 3.2 3.2 0 00.4-3.2l-2.88-7.3z"/>
    <path fill="#263238" d="M82.25 64.24c0 .03-1.59.35-3.57.7-1.99.34-3.6.58-3.6.55 0-.04 1.59-.35 3.57-.7 1.99-.34 3.6-.6 3.6-.55z"/>
    <path fill="#263238" d="M80.92 64.46a1.76 1.76 0 01-.15-.3l-.37-.84a192.87 192.87 0 01-1.76-4.33 2.8 2.8 0 01-.25-1.35 1.37 1.37 0 01.4-.82 1.08 1.08 0 01.21-.15.26.26 0 01.09-.04 3.17 3.17 0 00-.25.22 1.37 1.37 0 00-.35.8 2.78 2.78 0 00.27 1.29l.62 1.53a200.48 200.48 0 011.44 3.66 1.32 1.32 0 01.1.33zM83.8 69.34a1.51 1.51 0 01-.35.01c-.23 0-.56 0-.97-.03-.81-.04-1.93-.14-3.17-.31-1.24-.18-2.34-.37-3.14-.5l-.95-.18a1.57 1.57 0 01-.34-.08 2.05 2.05 0 01.35.03l.95.13 3.15.46c1.22.17 2.34.29 3.15.35l.96.08a1.87 1.87 0 01.36.04zM69.14 65.6a3.44 3.44 0 00-.15-1c-.08-.31-.22-.66-.33-1.08a2.12 2.12 0 01-.07-.67 2.8 2.8 0 01.15-.71 11.27 11.27 0 011.2-2.2l.4-.62a1.44 1.44 0 01.15-.23.87.87 0 01-.1.26l-.38.66a13.6 13.6 0 00-1.14 2.18 2.74 2.74 0 00-.15.67 1.94 1.94 0 00.07.64c.09.4.22.76.3 1.07a2.7 2.7 0 01.1.76 1.12 1.12 0 01-.03.2c0 .04-.01.07-.02.07zM73.77 54.85a2.65 2.65 0 01-.02-.86 2.71 2.71 0 01.12-.86 2.81 2.81 0 01.02.86 2.85 2.85 0 01-.12.86zM75.62 54.68a5.25 5.25 0 01-.26-1.68 2.63 2.63 0 01.2.83 2.73 2.73 0 01.06.85zM77.22 54.37a3.83 3.83 0 01-.4-1.38 3.83 3.83 0 01.4 1.38z"/>
    <path d="M78.54 58.8c.03 1.82.36 3.32.38 5.13a1.16 1.16 0 00.1.51c.2.4.66.27 1.1.25a4.16 4.16 0 00.67-.14.59.59 0 00-.06-.4c-.73-1.88-1.46-3.46-2.19-5.34" opacity=".3"/>
    <path fill="#263238" d="M58.57 62.4L61.29 65l4.38 4.23 7.55-.38-6.1-6.9z"/>
    <path fill="#e0e0e0" d="M59.76 62.31s-1.97.88.04 2.38c2 1.5 4.76 2.08 5.17 3.18a1.85 1.85 0 01-.26 1.85l5.78-.26s1.72-1.49.44-2.8c-1.28-1.33-4.64-3.22-5.03-3.75-.4-.52.54-.92.54-.92z"/>
    <path fill="#455a64" d="M64.48 62.09l-2.89.14-.23-.27 3.12-.2z"/>
    <path fill="#fafafa" d="M65.39 63.1a3.8 3.8 0 01-.78.13 42.18 42.18 0 01-3.78.19 3.35 3.35 0 01-.8-.07 7.35 7.35 0 01.8-.03c.48 0 1.15-.04 1.89-.08l1.89-.11a5.5 5.5 0 01.78-.02zM66 63.97a23.75 23.75 0 01-2.53.2 23.96 23.96 0 01-2.53.04 22.45 22.45 0 012.53-.19 23.5 23.5 0 012.53-.05zM67.34 64.7a3.66 3.66 0 01-.72.13 32.9 32.9 0 01-3.54.28 3.65 3.65 0 01-.73-.02 4.1 4.1 0 01.73-.08l1.76-.13 1.77-.14a4.27 4.27 0 01.73-.03zM68.25 65.7a17.5 17.5 0 01-2.16.24 17.34 17.34 0 01-2.18.1 17.33 17.33 0 012.17-.24 16.74 16.74 0 012.17-.1zM69.6 66.58a16.55 16.55 0 01-2.08.3 16.25 16.25 0 01-2.1.14 16.36 16.36 0 012.08-.28 15.7 15.7 0 012.1-.16zM70.24 67.84a2.84 2.84 0 01-.62.1 23.76 23.76 0 01-3.05.16 2.73 2.73 0 01-.64-.04 3.39 3.39 0 01.63-.06l1.53-.07 1.52-.08a2.91 2.91 0 01.63 0z"/>
    <path fill="#ffbe9d" d="M74.89 68.2l-1.43-.22-5.35.13s-.27-.08-.03-.23a37.5 37.5 0 012.08-.56l-2.82.23a3.7 3.7 0 011.07-1.3c.69-.46 2-.76 2-.76l-.85-.65s2.8-.36 3.15-.04c.36.31.8.81.8.81l1.54-.01"/>
    <path fill="#eb996e" d="M71.14 67.16c0 .04-.84.07-1.87.17-1.03.1-1.87.23-1.88.19a2.02 2.02 0 01.53-.14 14.75 14.75 0 012.66-.26 2.1 2.1 0 01.56.04zM70.98 66.47a9.88 9.88 0 01-1.6.3 9.26 9.26 0 01-1.63.15 9.88 9.88 0 011.6-.3 9.56 9.56 0 011.63-.15z"/>
  </g>
  <g>
    <path fill="#aa6550" d="M37.02 58.52l-3.74 2.1 2.2 4.7a3.5 3.5 0 003.7 2.22v-5.11l-.04.02s-1.95-3.8-2.12-3.93z"/>
    <path fill="#995037" d="M38.6 65.03a4.35 4.35 0 01.08-1.39 4.26 4.26 0 01.4-1.34c.04 0-.13.61-.27 1.36-.13.75-.17 1.37-.21 1.37z"/>
    <path fill="#455a64" d="M18.95 52.43l-3.39-.25-.24.79h3.83z"/>
    <path fill="#263238" d="M15.2 54.68h4.07l-.06-.05h-3.95z"/>
    <path fill="#263238" d="M18.6 59.06l.83-5.98h-4.38l.81 5.98s1.67.24 2.74 0z"/>
    <path fill="#455a64" d="M19.47 53.17H15v-.07a.36.36 0 01.36-.36h3.75a.36.36 0 01.36.36z"/>
    <path fill="#e0e0e0" d="M19.27 54.68l-.31 2.34H15.5l-.31-2.34z"/>
    <path fill="#263238" d="M17.72 56.23c.22-.4.34-.89-.1-1.17 0 0-.43-.27-.9.24-.36.4-.53.86-.23 1.22.35.43 1 .1 1.23-.3zm-.7-.07a.96.96 0 00-.37.44c-.04-.28.08-.44.5-.76a1.08 1.08 0 00.43-.73c.23.54-.27.85-.56 1.05zM15.43 52.6l.08-.26.75.11v.16z"/>
    <path fill="#aa6550" d="M15.56 67.98s-.76-.9-.56-7.3l-.05-3.44 2.99-.9L20 67.95z"/>
    <path fill="#aa6550" d="M17.84 56.56a1.97 1.97 0 01.65-.9 1.62 1.62 0 01.9-.34s-.08-.46-.85-.36c-.76.1-.96.6-1.9.36l-1.09 1.94z"/>
    <path fill="#aa6550" d="M16.84 55.47c-.04-.11-1.59-1.35-1.59-1.35s-.8.03-.5.75a.65.65 0 00-.3.97s-.34.25-.1.95a6.42 6.42 0 00.68 1.32zM17.26 62.31l-1.73 4.15a2.35 2.35 0 001.52 2.95A2.35 2.35 0 0020 67.94l1.39-4.1z"/>
    <path fill="#995037" d="M15.68 66.12a2.2 2.2 0 01.14-.57 14.65 14.65 0 011.07-2.64 2.23 2.23 0 01.3-.52 2.83 2.83 0 01-.21.55l-.55 1.3c-.2.52-.38 1-.53 1.33a2.96 2.96 0 01-.22.55z"/>
    <path fill="#995037" d="M16.9 63.03c0 .04-.29.08-.58.29-.3.2-.45.47-.49.45-.03-.02.07-.34.4-.56a.81.81 0 01.68-.18z"/>
    <path fill="#263238" d="M24.27 40.88c.18.5-.41.92-.93 1.04-.51.12-1.13.2-1.37.66-.2.41 0 .93-.18 1.35-.35.8-1.78.63-2.06 1.45-.2.57.34 1.15.26 1.74-.05.52-.53.86-.93 1.17-.4.3-.85.74-.78 1.25.07.59.8 1 .73 1.59-.07.59-.85.85-.97 1.42-.13.68.72 1.12 1 1.76.2.48.08 1.11.43 1.5.35.4 1.02.33 1.55.23l5.29-1.13c-.36-.83-.02-1.81.49-2.57.51-.75 1.19-1.39 1.63-2.19.43-.8.58-1.86 0-2.57M33.59 45.12a5.87 5.87 0 00-.18-.84.8.8 0 00-.2-.34c-.11-.1-.25-.04-.33.1a2.56 2.56 0 000 2.15c.08.14.22.2.32.1a.84.84 0 00.21-.34 6.04 6.04 0 00.18-.83.63.63 0 01.02.23 2.34 2.34 0 01-.1.63.93.93 0 01-.23.4.3.3 0 01-.29.07.48.48 0 01-.22-.2 2.58 2.58 0 010-2.28.46.46 0 01.22-.19.29.29 0 01.29.07.9.9 0 01.23.4 2.34 2.34 0 01.1.63.65.65 0 01-.02.24z"/>
    <path fill="#263238" d="M24.95 50c-.96-1.63-1.23-3.78-1.48-5.65-.11-.88-.31-2.11.3-2.68.67-.58.73-1.5 1.5-1.94a2.34 2.34 0 012.5.02"/>
    <path fill="#aa6550" d="M27.6 55.73a2.6 2.6 0 002.8-2.49l.11-2.84s2.15-.19 2.3-2.3c.17-2.12.11-7.02.11-7.02a7.4 7.4 0 00-7.47.46l.12 7.47v4.01c0 1.33.69 2.6 2.03 2.7z"/>
    <path fill="#263238" d="M30.71 45.5a1.08 1.08 0 00-1.45-.33 1.23 1.23 0 00-.41 1.54 1.63 1.63 0 001.04.8.81.81 0 01.63.87c-.06.53-.95.73-1.35 1.17-.62.69-1.98.97-2.9 1.08-.93.1-.8.11-1.33-.63a2.87 2.87 0 01-.51-1.72l-.08-4.7a6.75 6.75 0 01.1-1.68 2.26 2.26 0 01.9-1.39c.52-.34 1.17-.36 1.76-.55.73-.24 1.36-.72 2.05-1.07.68-.35 1.53-.56 2.22-.21.5.26.82.75 1.3 1.02.69.4 1.62.3 1.95 1.32a1.71 1.71 0 01-.02 1.08c-.46 1.37-2.16 1.92-3.39 1.33-.02.23.2.75-.04 1.48-.08.23-.1.6-.48.6"/>
    <path fill="#995037" d="M30.33 46.82l-.03.09a.32.32 0 01-.24.11.58.58 0 01-.54-.58.61.61 0 01.15-.45.66.66 0 01.34-.2c.21-.04.34.04.33.06-.01.01-.13 0-.3.05a.53.53 0 00-.37.53.5.5 0 00.4.49c.17 0 .25-.12.26-.1z"/>
    <path fill="#263238" d="M33.6 45.01a7.74 7.74 0 01-1.44.3 7.8 7.8 0 01-1.44.17 7.94 7.94 0 011.42-.3 7.8 7.8 0 011.45-.17zM25.12 52.07a.62.62 0 00.73.3 1.78 1.78 0 00.72-.5 1.85 1.85 0 01.7-.49c.57-.17 1.26.21 1.74-.14.43-.32.37-1.04.8-1.37.22-.18.52-.2.76-.37.43-.32.36-1.03 0-1.42-.36-.4-.9-.56-1.42-.7l-4.55 1.94z"/>
    <path fill="#455a64" d="M30.54 43.83l-.04.02a.91.91 0 01-.12.07 2.67 2.67 0 01-.5.18 5.91 5.91 0 01-.82.13 8.83 8.83 0 00-1.1.15 2.06 2.06 0 00-1.12.62c-.3.35-.42.87-.65 1.37a1.79 1.79 0 01-.53.66 2.78 2.78 0 01-.8.4c-.56.18-1.17.3-1.64.69a1.15 1.15 0 00-.42.74 5.21 5.21 0 000 .89 1.45 1.45 0 01-.8 1.47c-.47.28-.97.43-1.37.68a1.59 1.59 0 00-.49.45 1.18 1.18 0 00-.18.58 3.94 3.94 0 00.15 1.08 2.8 2.8 0 01.07.84 1.16 1.16 0 01-.15.5.53.53 0 01-.12.15 1.25 1.25 0 00.22-.66 2.84 2.84 0 00-.1-.81 4.02 4.02 0 01-.17-1.1 1.29 1.29 0 01.2-.64 1.7 1.7 0 01.52-.49c.42-.26.92-.42 1.37-.7a1.5 1.5 0 00.57-.54 1.52 1.52 0 00.15-.8 5.47 5.47 0 010-.92 1.32 1.32 0 01.46-.83c.51-.42 1.15-.53 1.7-.72a2.58 2.58 0 00.75-.36 1.64 1.64 0 00.5-.62c.23-.48.35-1 .68-1.39a2.17 2.17 0 011.2-.63 8.6 8.6 0 011.1-.13 6.25 6.25 0 00.82-.11 4 4 0 00.66-.22z"/>
    <path fill="#455a64" d="M29.3 44.59c0 .01-.16 0-.44.06a2 2 0 00-1.02.61 1.85 1.85 0 00-.4.71 3.14 3.14 0 00-.1.96A2.49 2.49 0 0127.2 48a1.1 1.1 0 01-.4.45 4.6 4.6 0 01-.53.28 1.34 1.34 0 00-.45.32.8.8 0 00-.18.5c-.02.35.06.74-.12 1.08a1.81 1.81 0 01-.7.7c-.27.16-.54.27-.75.41a1.83 1.83 0 00-.53.44 1.2 1.2 0 00-.23.45 1.06 1.06 0 000 .44.24.24 0 01-.05-.1.75.75 0 01-.01-.35 1.2 1.2 0 01.22-.5 1.85 1.85 0 01.53-.46c.22-.15.48-.27.73-.43a1.67 1.67 0 00.66-.66c.15-.3.08-.65.1-1.04a.93.93 0 01.2-.56 1.46 1.46 0 01.5-.36c.36-.18.72-.33.87-.67a2.38 2.38 0 00.15-1.02 3.25 3.25 0 01.1-1 1.92 1.92 0 01.45-.73 2 2 0 011.08-.6 1.59 1.59 0 01.34-.03.34.34 0 01.13.02z"/>
    <path fill="#e0e0e0" d="M22.01 71.14l1.48-4.3-1.03-5.2-.8 2.3-4.96-1.82 3.37-6.76c1.47-3.09 5.38-3.09 5.38-3.09l4.99.13a5.45 5.45 0 014.28 1.66c1.42 1.44 4.68 7.73 4.68 7.73l-5.25 1.63-1.03-1.94.3 4.08 1.03 6.23z"/>
    <path fill="#ff725e" d="M34.53 53.88c0 .04-3.02.07-6.75.07-3.74 0-6.76-.03-6.76-.07 0-.03 3.02-.07 6.76-.07 3.73 0 6.75.04 6.75.07z"/>
    <path fill="#263238" d="M32.42 53.73c0 .02-.14.03-.37.12a1.69 1.69 0 00-.76.68A2.26 2.26 0 0031 56a5.77 5.77 0 00.58 1.8c.58 1.23 1.09 2.36 1.45 3.17l.43.97a1.9 1.9 0 01.14.37 2 2 0 01-.2-.34l-.46-.95c-.4-.8-.92-1.93-1.5-3.18a5.7 5.7 0 01-.59-1.85 2.34 2.34 0 01.36-1.54 1.66 1.66 0 01.83-.68.92.92 0 01.29-.06l.1.02zM23.54 67.08c-.04 0-.64-2.69-1.32-6.03-.69-3.33-1.24-6.05-1.2-6.06.04 0 .64 2.7 1.32 6.03.69 3.34 1.24 6.05 1.2 6.06zM31.02 63.03a1.22 1.22 0 010 .36 3.41 3.41 0 01-.24.95 4.62 4.62 0 01-2.17 2.33 6.4 6.4 0 01-3.15.63 7.37 7.37 0 01-.97-.1 1.52 1.52 0 01-.34-.08c0-.03.5.06 1.32.07a6.7 6.7 0 003.07-.66 4.69 4.69 0 002.15-2.23 5.17 5.17 0 00.33-1.27z"/>
    <path fill="#ff725e" d="M36.22 56.12c0 .04-3.7.07-8.26.07s-8.27-.03-8.27-.07c0-.04 3.7-.07 8.27-.07 4.56 0 8.26.03 8.26.07zM37.45 58.2c0 .04-4.2.07-9.35.07-5.17 0-9.35-.03-9.35-.07 0-.04 4.18-.07 9.35-.07a291 291 0 019.35.07zM38.27 60.1c0 .04-4.6.07-10.27.07s-10.27-.03-10.27-.06c0-.04 4.6-.07 10.27-.07s10.27.03 10.27.07zM22.1 62.43a4.5 4.5 0 01-.71-.2l-1.71-.48c-.67-.18-1.29-.32-1.73-.43a4.14 4.14 0 01-.72-.18 3.84 3.84 0 01.74.09 23.56 23.56 0 013.45.92 3.44 3.44 0 01.68.28zM33.23 62.1a2.41 2.41 0 01-.42 0h-1.16l-3.8-.03h-4.97a2.32 2.32 0 01-.42-.02 2.93 2.93 0 01.42-.04l1.16-.04a112.16 112.16 0 018.77.09 2.65 2.65 0 01.42.03zM39.06 61.14h-.03l-.16.03-.6.1a124.66 124.66 0 01-3.93.6 4.99 4.99 0 01-.83.08 4.92 4.92 0 01.81-.17 74.3 74.3 0 014.54-.65 1.32 1.32 0 01.17 0l.05.01c.02.02-.02 0-.02 0zM30.79 63.94c0 .04-1.76.07-3.93.07s-3.93-.03-3.93-.07c0-.04 1.76-.07 3.93-.07s3.93.03 3.93.07zM33.33 64.57a6.68 6.68 0 01-1.34.07 6.68 6.68 0 01-1.34-.07 6.46 6.46 0 011.34-.06 6.46 6.46 0 011.34.06zM29.07 66.25a4.85 4.85 0 01-.83.06 45.2 45.2 0 01-4-.1 4.67 4.67 0 01-.81-.1 5.09 5.09 0 01.82 0l2 .06 2 .03a5.05 5.05 0 01.82.05zM33.54 66.8a25.86 25.86 0 01-2.7.08 25.86 25.86 0 01-2.69-.07 26.77 26.77 0 012.7-.07 26.77 26.77 0 012.7.07zM33.95 68.76a2.43 2.43 0 01-.44.02h-1.18c-1 0-2.38-.04-3.9-.09-1.51-.04-2.9-.1-3.89-.17l-1.18-.08a3.14 3.14 0 01-.43-.06 2.29 2.29 0 01.43 0l1.18.05 3.9.13 3.9.12 1.17.05a2.47 2.47 0 01.44.03zM34.31 70.97a3.12 3.12 0 01-.47 0l-1.28-.05a372.93 372.93 0 01-8.47-.47l-1.28-.1a3.79 3.79 0 01-.47-.05 2.82 2.82 0 01.47 0l1.28.05a378.31 378.31 0 018.47.48l1.28.1a2.77 2.77 0 01.47.04z"/>
    <path d="M23.9 66.75c.94.7 2.32.47 3.47.27a5.03 5.03 0 003.02-1.64 2.02 2.02 0 00.56-1.43c-.04-.52-.5-1.02-1.03-.96-.6.07-.88.74-1.17 1.27a4.63 4.63 0 01-4.82 2.27s-.19.09-.02.22zM31.02 56.6c.3 2.35.68 4.28 1.17 6.6.24 1.14.53 2.33 1.32 3.19l-.45-5.21z" opacity=".2"/>
    <path fill="#263238" d="M24.35 51.7a1.7 1.7 0 00-.8 2.52.81.81 0 01.22.47c-.02.41-.7.43-.9.79a.65.65 0 00.17.76 5.72 5.72 0 00.7.47.85.85 0 01.43.68c.23 0 .37-.3.34-.53a2.26 2.26 0 00-.3-.65.68.68 0 01-.02-.67c.15-.22.47-.23.72-.33a1 1 0 00.53-1.3c-.15-.33-.5-.68-.33-1 .1-.19.31-.27.5-.36a1.3 1.3 0 00.16-2.16"/>
    <path fill="#aa6550" d="M25.96 92.52l-6.42-.58-1.47 27.35 4.5 1.09z"/>
    <path fill="#50c7f1" d="M22.58 120.36l-4.65-1.18-.76 3.38h5.18z"/>
    <path fill="#263238" d="M22.46 122.07a3.82 3.82 0 01-.75.04c-.47 0-1.12 0-1.83-.03l-1.82-.08a4.02 4.02 0 01-.75-.06 3.74 3.74 0 01.75-.04c.47 0 1.11 0 1.83.04l1.82.07a4.2 4.2 0 01.75.06z"/>
    <path fill="#263238" d="M20.26 119.84a4.2 4.2 0 010 1.1 4.13 4.13 0 01-.14 1.08 4.13 4.13 0 010-1.1 4.23 4.23 0 01.14-1.08z"/>
    <path fill="#fff" d="M17.17 122.56h5.18l.05-.49-5.14-.13-.1.56" opacity=".6"/>
    <path fill="#aa6550" d="M40.1 113.3l-4.24-.4 1.1 8.24 3.99-.28z"/>
    <path fill="#50c7f1" d="M40.99 119.97s4.5 1.51 4.56 2.33l-8.58.25-.07-2.24.31.06a6.38 6.38 0 003.78-.4z"/>
    <path fill="#fff" d="M37.9 120.7a.35.35 0 00-.23.4.34.34 0 00.4.24.37.37 0 00.24-.43.35.35 0 00-.44-.2M36.97 122.55v-.7l8.22.02s.39.16.35.43z" opacity=".6"/>
    <path fill="#263238" d="M41.13 119.92c0 .04-.21.07-.42.2-.2.15-.3.33-.34.31-.04-.01.02-.26.26-.42.25-.16.5-.13.5-.1zM42.04 120.27c0 .04-.17.11-.31.3-.14.17-.17.36-.21.36-.05 0-.08-.24.1-.45.17-.22.41-.25.42-.21zM42.58 121.33c-.04 0-.1-.2 0-.43.1-.24.3-.33.31-.3.02.04-.1.16-.18.35-.08.2-.1.37-.13.38z"/>
    <path fill="#263238" d="M41.03 119.9a.83.83 0 01-.43 0 1.96 1.96 0 01-.45-.13 2.46 2.46 0 01-.25-.12.5.5 0 01-.13-.1.19.19 0 01-.03-.22.23.23 0 01.18-.1.53.53 0 01.16.02 1.37 1.37 0 01.27.08 1.56 1.56 0 01.4.25c.2.18.28.33.27.34-.02 0-.12-.11-.33-.27a1.62 1.62 0 00-.39-.2 1.43 1.43 0 00-.25-.07c-.09-.02-.16-.02-.19.02-.02.05 0 .02 0 .05a.55.55 0 00.1.07 2.42 2.42 0 00.23.12 2.53 2.53 0 00.42.15 2.76 2.76 0 01.42.1z"/>
    <path fill="#263238" d="M40.98 119.96a.7.7 0 01-.13-.41 1.4 1.4 0 01.05-.47 1.6 1.6 0 01.1-.27.35.35 0 01.26-.22.2.2 0 01.19.11.58.58 0 01.04.16.89.89 0 010 .28.97.97 0 01-.17.45c-.16.23-.33.29-.33.27a2.91 2.91 0 00.25-.32.99.99 0 00.12-.41.86.86 0 00-.01-.25c-.02-.09-.06-.16-.09-.15a.33.33 0 00-.15.14 1.39 1.39 0 00-.1.24 1.51 1.51 0 00-.07.43c.01.26.06.41.04.42z"/>
    <path fill="#50c7f1" d="M22.01 71.14s-3.17 5.29-3.17 8.45l-.8 38.52 5.48.8 3.85-37.64s8.76 38.13 9.05 38.13c.3 0 4.85-.81 4.85-.81l-6.9-47.28z"/>
    <path fill="#263238" d="M30.84 82.12c0 .04-1.67-.33-3.72-.83-2.04-.5-3.7-.94-3.68-.98.01-.04 1.67.33 3.72.83 2.04.5 3.7.94 3.68.98zM24.04 80.62a.67.67 0 010 .1L24 81l-.17 1.09c-.15.94-.37 2.3-.62 4a289.03 289.03 0 00-2.72 26.53c-.1 1.7-.16 3.08-.2 4.04l-.05 1.1-.02.28a.6.6 0 010 .1.58.58 0 010-.1v-.28c0-.27 0-.63.03-1.1a249.08 249.08 0 013.54-34.57l.2-1.09.05-.28a.48.48 0 010-.1zM31.96 81.26c.04 0 1.56 8.45 3.4 18.88 1.85 10.43 3.32 18.9 3.28 18.91-.04.01-1.56-8.45-3.4-18.88-1.85-10.44-3.32-18.9-3.28-18.9z"/>
    <path fill="#455a64" d="M18.37 49.42a1.34 1.34 0 01.2.23 3.06 3.06 0 01.4.73 1.5 1.5 0 01.09.57 1.21 1.21 0 01-.22.63c-.13.2-.3.38-.45.57a1.19 1.19 0 00-.26.66 1.32 1.32 0 00.2.69 6.32 6.32 0 00.4.58 2.85 2.85 0 01.34.57 1.47 1.47 0 01.1.57 2.07 2.07 0 00.04.45.65.65 0 00.16.3.5.5 0 00.27.12s-.12.05-.29-.09a.7.7 0 01-.2-.3 2.12 2.12 0 01-.06-.47 1.39 1.39 0 00-.12-.53 2.7 2.7 0 00-.33-.53 5.92 5.92 0 01-.41-.6 1.44 1.44 0 01-.23-.76 1.29 1.29 0 01.28-.74c.16-.2.32-.37.45-.56a1.19 1.19 0 00.14-1.1 3.56 3.56 0 00-.36-.73 1.44 1.44 0 01-.14-.26z"/>
  </g>
  <g>
    <path fill="#263238" d="M169.04 109.66h15.3v2.1h-15.3z"/>
    <path fill="#263238" d="M184.37 111.79h-15.36v-2.16h15.36zm-15.3-.05h15.25v-2.05h-15.26z"/>
    <path fill="#263238" d="M182.94 111.76l-12.48-.7 2.2 10.87h8.15z"/>
    <path fill="#263238" d="M182.94 120.9h-12.48l1.17 1.62h9.91zM176.12 111.38c-.04 0-.07-5.03-.1-11.25 0-6.21 0-11.24.03-11.24s.07 5.02.09 11.24c.01 6.22 0 11.25-.02 11.25zM179.53 98.78a.8.8 0 01-.05.12l-.13.32-.1.23-.1.29-.12.33c-.05.11-.07.24-.11.37a15.1 15.1 0 00-.43 1.88 22.98 22.98 0 00-.24 2.34 31.72 31.72 0 00.12 4.28l.14 1.3.04.35a.53.53 0 010 .12.5.5 0 01-.03-.12l-.06-.35c-.05-.3-.11-.74-.17-1.29a28.16 28.16 0 01-.15-4.3 21.7 21.7 0 01.24-2.35 14.37 14.37 0 01.46-1.88c.04-.13.07-.26.12-.37l.13-.33.1-.28.11-.24.16-.31a.43.43 0 01.07-.11z"/>
    <path fill="#263238" d="M179.14 94.7a1.14 1.14 0 01-.05.17l-.16.47-.12.34-.12.4c-.1.3-.2.62-.29 1l-.15.58c-.06.2-.1.42-.15.64-.1.43-.18.91-.28 1.4a42.42 42.42 0 00-.46 10.3l.05.79.04.5a.8.8 0 010 .17 1.12 1.12 0 01-.03-.18l-.05-.49-.08-.78-.07-1.03a42.2 42.2 0 01.07-6.01c.1-1.17.26-2.28.43-3.28.1-.5.18-.97.3-1.41l.14-.64.16-.58c.1-.37.2-.7.3-1l.13-.4c.04-.12.1-.23.13-.34l.18-.46a.72.72 0 01.08-.16zM175.15 112.27a.18.18 0 010-.06l-.02-.17-.04-.67-.16-2.45c-.13-2.07-.32-4.93-.67-8.08-.18-1.57-.38-3.07-.6-4.42l-.33-1.92-.33-1.66c-.1-.51-.22-.97-.3-1.37a38.32 38.32 0 00-.41-1.68l-.04-.17a.16.16 0 010-.05.53.53 0 01.02.05l.05.17.18.64c.07.27.17.63.26 1.03.1.4.22.85.32 1.36l.35 1.67.34 1.91c.22 1.36.43 2.85.6 4.43a145.27 145.27 0 01.77 10.54l.02.67v.17a.22.22 0 01-.01.06z"/>
    <path fill="#509bf1" d="M170.64 85.6l-1 1.82c-.03.04-.06.1-.11.1s-.1-.05-.12-.1l-2.67-4.1.61-.34z"/>
    <path fill="#50c7f1" d="M176.06 88.88l-9.1-5.36a.43.43 0 01-.22-.23.42.42 0 01.16-.36 6.27 6.27 0 014.87-1.91 5.56 5.56 0 014.4 2.73 5 5 0 01-.1 5.13"/>
    <path fill="#263238" d="M168.26 81.8a.47.47 0 01.12-.01l.35-.02a6.85 6.85 0 011.26.1 7.43 7.43 0 013.73 1.8 7.5 7.5 0 012.16 3.53 6.97 6.97 0 01.23 1.25l.01.34a.43.43 0 010 .12l-.05-.46a7.67 7.67 0 00-2.42-4.7 7.73 7.73 0 00-4.92-1.94 4.57 4.57 0 01-.47 0z"/>
    <path fill="#263238" d="M174.82 85.18a2.35 2.35 0 01-.46.2c-.29.12-.7.27-1.15.41-.45.14-.87.27-1.17.33a2.32 2.32 0 01-.5.1 2.43 2.43 0 01.48-.17l1.16-.36 1.16-.38a2.25 2.25 0 01.48-.13zM173.39 81.33a6.45 6.45 0 01.05 2.03 6.45 6.45 0 01-.05-1.01 6.18 6.18 0 010-1.02zM166.87 83.41a4.6 4.6 0 01.66-.23c.42-.13 1-.29 1.64-.44.64-.16 1.22-.27 1.65-.35a3.88 3.88 0 01.7-.1 5.54 5.54 0 01-.68.18 70.89 70.89 0 00-3.29.78 4.68 4.68 0 01-.68.16z"/>
    <path fill="#455a64" d="M184.37 111.75c0 .03-3.44.06-7.67.06-4.24 0-7.68-.03-7.68-.06s3.44-.05 7.68-.05c4.23 0 7.67.02 7.67.05zM181.98 116.18c0 .03-2.32.05-5.18.05-2.85 0-5.17-.02-5.17-.05 0-.03 2.32-.06 5.17-.06 2.86 0 5.18.03 5.18.06zM182.07 116.81c0 .03-2.32.06-5.18.06-2.85 0-5.17-.03-5.17-.06s2.32-.05 5.17-.05c2.86 0 5.18.02 5.18.05zM182.07 115.66c0 .03-2.4.05-5.35.05-2.96 0-5.36-.02-5.36-.05 0-.03 2.39-.06 5.36-.06s5.35.03 5.35.06z"/>
  </g>
  <g class="arm">
    <path fill="#455a64" d="M44.75 51.45l-.23.8 3.82-.06-.2-.54z"/>
    <path fill="#263238" d="M47.9 58.29l.71-6-4.36.07.9 5.97s1.67.21 2.74-.04z"/>
    <path fill="#455a64" d="M48.67 52.38l-4.47.07v-.07a.35.35 0 01.35-.36l3.75-.06a.36.36 0 01.37.36z"/>
    <path fill="#e0e0e0" d="M48.21 56.24l-3.44.05-.35-2.33 4.07-.06z"/>
    <path fill="#263238" d="M46.96 55.46c.22-.4.33-.89-.12-1.16 0 0-.43-.26-.88.25-.36.4-.52.87-.23 1.23.36.43 1.01.08 1.23-.32zm-.7-.05a.92.92 0 00-.36.44c-.05-.28.07-.44.48-.77a1.06 1.06 0 00.43-.73c.23.53-.25.85-.55 1.06zM44.7 51.62l.74.1v.15l-.82.01z"/>
    <path fill="#aa6550" d="M48.58 53.6c-.17 0-.37.09-.5.3l-2.04 1.83s-6.03 6.25-6.83 6.7l-.24.19.08 4.95a3.5 3.5 0 002.43-1.25l6.18-7.51 1.25-1.43a3.32 3.32 0 00.48-1.3 2.28 2.28 0 00-.06-.85.87.87 0 00-.05-.66.5.5 0 00-.34-.22c.16-.43-.07-.73-.36-.74z"/>
    <path fill="#aa6550" d="M45.86 55.77a1.49 1.49 0 00-.6-.78 1.62 1.62 0 00-.89-.34s.07-.46.84-.37c.76.09.97.58 1.9.33l.22.88z"/>
    <path fill="#995037" d="M49.04 54.03c.04.01-.07.29-.31.53-.25.25-.53.38-.53.35 0-.03.2-.2.44-.44.22-.24.37-.46.4-.44zM49.35 55.02c.04 0-.02.2-.17.4-.15.18-.33.28-.36.25-.02-.03.11-.17.25-.34.14-.18.25-.33.28-.31z"/>
  </g>
  <g class="lamp">
    <path fill="#263238" stroke="#000" stroke-width=".01" d="M99.55 24.2a5.63 5.63 0 00-.08.68 3.4 3.4 0 00.43 1.79c.18.35.41.72.6 1.16a2.58 2.58 0 01.15 1.5 2.7 2.7 0 01-.82 1.46 2.48 2.48 0 01-1.66.64 2.63 2.63 0 01-1.7-.58 2.65 2.65 0 01-.75-2.92 4.88 4.88 0 01.7-1.12 4.53 4.53 0 00.57-.9 2.1 2.1 0 00.18-.77 1.44 1.44 0 00-.16-.66.57.57 0 01.1.16 1.3 1.3 0 01.11.5 2.08 2.08 0 01-.16.8 4.43 4.43 0 01-.56.92 4.85 4.85 0 00-.67 1.1 2.52 2.52 0 00.73 2.79 2.5 2.5 0 001.6.54 2.36 2.36 0 001.6-.6 2.6 2.6 0 00.79-1.37 2.47 2.47 0 00-.14-1.44c-.17-.43-.4-.8-.58-1.16a3.37 3.37 0 01-.4-1.85 2.88 2.88 0 01.09-.51.69.69 0 01.03-.17z"/>
    <path fill="#e6505c" d="M84.75 24.46h26.12L100 20.58h-3.7z"/>
    <path fill="#263238" d="M98.6 24.44a4.07 4.07 0 01-.07.49 13.29 13.29 0 00-.13 1.32 10.75 10.75 0 00.08 1.96.45.45 0 00.1.22.22.22 0 00.21.07c.14-.03.22-.24.19-.41a.83.83 0 00-1.63-.03.37.37 0 00.22.42.33.33 0 00.38-.22 1.59 1.59 0 00.08-.53l.03-.51a8.98 8.98 0 00-.04-.92 8.8 8.8 0 00-.23-1.32c-.07-.3-.12-.47-.1-.47a.57.57 0 01.04.11l.12.35a7.86 7.86 0 01.26 1.32 8.95 8.95 0 01.06.93l-.02.52a1.71 1.71 0 01-.1.55.53.53 0 01-.2.25.38.38 0 01-.33.05.5.5 0 01-.3-.56.96.96 0 011.9.02.64.64 0 01-.05.33.37.37 0 01-.26.24.35.35 0 01-.33-.11.58.58 0 01-.13-.29 10.05 10.05 0 01-.07-2 10.26 10.26 0 01.18-1.32l.09-.35a.4.4 0 01.05-.11zM98.17.73a1.19 1.19 0 010 .2 82.7 82.7 0 00.03 2.67c.01 1.79.03 4.23.03 6.94.01 2.7-.01 5.14-.02 6.93l-.02 2.12-.01.57a1.19 1.19 0 01-.01.2.91.91 0 01-.02-.2l-.01-.57c0-.52 0-1.23-.03-2.12l-.01-6.93c-.02-2.7.01-5.15.01-6.94 0-.88.02-1.59.03-2.1l.01-.57a.91.91 0 01.02-.2z"/>
    <path fill="#e6505c" d="M97.02 17.37h2.39l.6 3.2h-3.7z"/>
    <path fill="#f3f3f38c" fill-rule="evenodd" stroke="#000" stroke-width=".0026458" d="M97.68 31.24a2.4 2.4 0 01-1.97-2.4c0-.31.03-.55.12-.78.1-.3.34-.73.6-1.08.38-.5.62-.92.73-1.27.05-.18.06-.23.06-.52 0-.3 0-.34-.05-.46a1.2 1.2 0 00-.13-.26l.77-.01h.77l-.03.07c-.02.04-.05.19-.08.33a9.4 9.4 0 00-.2 1.82c-.02.49-.02.54-.06.54-.03 0-.04-.04-.05-.35a8.1 8.1 0 00-.45-2.33c-.05-.1-.04 0 .04.32.18.72.26 1.26.28 1.93l.01.45h-.08c-.38.06-.76.5-.76.88 0 .33.32.58.58.46.26-.1.35-.33.38-.89.01-.26.02-.3.05-.3.05 0 .05.03.09.45.03.38.05.48.13.6.06.1.2.2.31.2.08 0 .22-.08.27-.15.28-.35 0-1.02-.5-1.2l-.1-.04-.01-.22a12.32 12.32 0 01.19-2.4l.02-.17h.43c.37 0 .44 0 .43.03-.04.09-.07.5-.06.77.03.6.14.94.58 1.8.35.68.44.9.5 1.16.29 1.1-.26 2.3-1.27 2.8-.36.18-.57.23-1 .24-.27 0-.42 0-.54-.02z"/>
  </g>
  <g class="bossarm rotate">
    <path fill="#b78876" d="M135.03 47.78c.56-.8.87-1.41 1.26-1.93.5-.63.65-.92.53-1-.11-.09-.1-.08-1.14.94 0 0 1.48-1.47.91-1.4-.25.03-1.5 1.23-1.5 1.23 1.1-.87 1.36-1.38 1.22-1.53-.2-.23-1.7 1.24-1.7 1.24s1.17-1.1 1.32-1.36c.16-.25-.2-.19-.48-.05-.27.13-1.97 1.28-2.47 1.58a.34.34 0 01-.5-.1c-.3-.8-.96-1.25-1.2-1.29a.26.26 0 00-.18.46 3.07 3.07 0 01.45.73 1.97 1.97 0 01.19.65c.03.27.04.5.05.68l-.76 4.2 2.65 1.86z"/>
    <path fill="#aa6550" d="M135.05 46.42a7.36 7.36 0 001.4-1.43 7.78 7.78 0 00-1.4 1.43zM134.62 46.06a4.55 4.55 0 00.84-.67 4.48 4.48 0 00.74-.77 8.6 8.6 0 00-1.58 1.44zM134.17 45.68a7.77 7.77 0 001.52-1.33 3.83 3.83 0 00-.8.62 3.7 3.7 0 00-.72.7z"/>
    <path fill="#e0e0e0" d="M131.35 48.16l-2.29 6.2-.06-.05v5.6c.8.2 1.56.13 2.24-.29 1.74-1.09 3.58-10.62 3.58-10.62z"/>
    <path fill="#263238" d="M128.99 56.77a6 6 0 01-.07-1.26 6 6 0 01.07-1.26 6 6 0 01.07 1.26 6 6 0 01-.07 1.26z"/>
    <path fill="#263238" d="M129.87 56.92c0 .12-.17-.21-.56-1.3a5.78 5.78 0 01-.35-1.36 11.3 11.3 0 01.47 1.32 12.24 12.24 0 01.44 1.34z"/>
  </g>
  <g>
    <path fill="#c87137" class="coffie" />
  </g>
  <g>
    <path fill="#e6505c" d="M95.4 56.5l-.63 3.45-1.61 4.56 9.05-1.3-3.65-3.99-1.53-2.95-1.63.23"/>
  </g>
  <g class="leaf2 rotate">
    <path fill="#50c7f1" d="M176.81 91.72c.11-.71-.45-1.41-1.14-1.6a2.38 2.38 0 00-2.01.5 5.7 5.7 0 00-1.34 1.67 13.2 13.2 0 00-1.81 4.88 7.85 7.85 0 00.92 5.07c.15.24.35.5.64.51a.9.9 0 00.43-.13 11.61 11.61 0 005.86-7.6 3.6 3.6 0 00.02-1.95c-.22-.63-.9-1.4-1.56-1.35"/>
    <path fill="#263238" d="M171.67 102.8a.66.66 0 01.03-.11l.08-.35c.07-.3.17-.74.33-1.28a31.53 31.53 0 011.5-4.08 32.95 32.95 0 012.87-4.88l.21-.28a.8.8 0 01.09-.1.57.57 0 01-.07.12l-.2.3c-.18.25-.43.62-.72 1.09-.29.47-.64 1.03-1 1.67a31.54 31.54 0 00-1.98 4.33c-.24.7-.46 1.32-.62 1.85l-.36 1.27-.09.35a.42.42 0 01-.07.1z"/>
    <path fill="#263238" d="M173.7 96.92a2.46 2.46 0 01-.46.3 22.05 22.05 0 01-2.32 1.16 2.58 2.58 0 01-.5.19 2.75 2.75 0 01.47-.27l1.16-.58 1.16-.59a2.85 2.85 0 01.48-.21zM175.9 99.88a4.27 4.27 0 01-.24-.6l-.54-1.51c-.2-.58-.41-1.08-.57-1.49a4.57 4.57 0 01-.21-.62 3.74 3.74 0 01.28.6c.17.37.37.9.59 1.48.22.58.4 1.12.52 1.5a4.03 4.03 0 01.17.64zM176.27 92.44c0 .03-1.08.41-2.43.86a30.7 30.7 0 01-2.47.75c-.01-.02 1.08-.4 2.43-.86 1.35-.44 2.46-.78 2.47-.75zM178.15 95.94a18.2 18.2 0 01-1.07-1.66 17.73 17.73 0 01-.97-1.72 18.12 18.12 0 011.07 1.66 17.73 17.73 0 01.97 1.72z"/>
  </g>
  <g class="leaf3 rotate">
    <path fill="#50c7f1" d="M180.23 98.49c-.79-.21-1.72.55-1.88 1.35-.16.8.14 1.6.49 2.33a11.9 11.9 0 003.24 4.24 8.02 8.02 0 004.95 1.82c-.33-1.54.1-3.14-.1-4.7a6.13 6.13 0 00-5.42-5.38c-.5-.05-1.08-.13-1.28.33"/>
    <path fill="#263238" d="M182.98 106.96a2.37 2.37 0 01.07-.53 15.61 15.61 0 01.7-2.47 2.38 2.38 0 01.21-.48 2.59 2.59 0 01-.14.5 41.89 41.89 0 00-.7 2.47 2.73 2.73 0 01-.14.51zM186.89 103.18a2.97 2.97 0 01-.56-.13l-1.32-.32c-.53-.12-1-.2-1.32-.27a3.01 3.01 0 01-.56-.12 2.75 2.75 0 01.57.05 16.87 16.87 0 012.67.6 2.87 2.87 0 01.52.2z"/>
    <path fill="#263238" d="M187.03 108.24a.62.62 0 01-.1-.05 1.85 1.85 0 01-.3-.2 3.08 3.08 0 01-.78-1.04l-.4-.79-.42-.93a9.44 9.44 0 00-.53-1 7.74 7.74 0 00-.71-.97c-.53-.63-1.11-1.17-1.61-1.7a11.14 11.14 0 01-1.23-1.47 5.45 5.45 0 01-.6-1.14 4.65 4.65 0 01-.1-.34.34.34 0 01-.03-.12l.17.44a6.07 6.07 0 00.62 1.12 11.58 11.58 0 001.24 1.45c.5.52 1.08 1.06 1.62 1.7a7.53 7.53 0 01.72.98 8.9 8.9 0 01.53 1l.42.94c.13.3.26.56.38.8a3.2 3.2 0 00.74 1.04c.23.2.38.27.37.28z"/>
    <path fill="#263238" d="M180.07 104.28a3.22 3.22 0 01.09-.61 21.73 21.73 0 01.75-2.87 3.1 3.1 0 01.22-.58 4.03 4.03 0 01-.15.6l-.4 1.43-.35 1.43a3.5 3.5 0 01-.16.6zM185.09 99.89a21.17 21.17 0 01-2.19-.17 26.8 26.8 0 01-2.17-.29 20.85 20.85 0 012.18.18c1.2.12 2.18.25 2.18.28z"/>
  </g>
  <g class="leaf4">
    <path fill="#50c7f1" d="M179.02 95l.82-.07a4.08 4.08 0 001.66-.5 6.6 6.6 0 01.78-.4c1.01-.4 2.14-.33 3.24-.39a13.42 13.42 0 005.15-1.32.5.5 0 00.23-.2c.17-.31-.14-.59-.41-.75a16.97 16.97 0 00-4.37-2.14c-1.57-.43-3.35-.35-4.69.57-1.57 1.08-2.14 3.3-2.4 5.2"/>
    <path fill="#263238" d="M190.92 92.02a.64.64 0 01-.14-.06l-.4-.2c-.33-.19-.81-.45-1.43-.74a13.53 13.53 0 00-2.22-.85 7.33 7.33 0 00-2.89-.24 4.93 4.93 0 00-2.63 1.13 5.87 5.87 0 00-1.37 1.93 15.83 15.83 0 00-.6 1.5l-.14.4a.68.68 0 01-.06.15 1.15 1.15 0 01.04-.15l.12-.42a13.1 13.1 0 01.57-1.52 5.82 5.82 0 011.37-1.97 4.97 4.97 0 012.68-1.16 7.36 7.36 0 012.93.24 13.03 13.03 0 012.23.89c.61.3 1.1.57 1.43.76l.38.23a.8.8 0 01.13.08z"/>
    <path fill="#263238" d="M188.95 93.08c-.02.02-1.1-.67-2.4-1.56a38.3 38.3 0 01-2.34-1.64c.01-.03 1.09.67 2.4 1.55 1.3.89 2.35 1.62 2.34 1.65zM187.91 89.78a2.65 2.65 0 01-.83.17 2.52 2.52 0 01-.86-.01 5.56 5.56 0 01.85-.1 4.74 4.74 0 01.84-.06zM183.1 88.92a5.56 5.56 0 01-.8 1.35 2.86 2.86 0 01.35-.7 2.96 2.96 0 01.45-.65zM184.06 93.71a2.84 2.84 0 01-.53-.28 16.6 16.6 0 01-1.18-.8c-.45-.32-.84-.63-1.12-.85a3.17 3.17 0 01-.45-.38 3.11 3.11 0 01.5.32l1.14.83 1.15.81a3.6 3.6 0 01.49.35z"/>
  </g>
  <g class="leaf1 rotate">
    <path fill="#50c7f1"  d="M172.23 89.75c-.8-.6-1.6-.71-2.59-.67a7.94 7.94 0 00-2.84.73 8.75 8.75 0 00-3.9 3.07 5.1 5.1 0 00-.54 4.78.67.67 0 00.31.38.74.74 0 00.51-.04c1.75-.57 3.5-1.14 5.11-2.04a9.65 9.65 0 003.93-3.75 3.24 3.24 0 00.41-1.24 1.55 1.55 0 00-.4-1.22"/>
    <path fill="#263238" d="M172.25 89.57a.72.72 0 01-.13.05l-.36.12-.27.1-.3.11c-.23.09-.48.18-.75.31l-.43.2c-.15.06-.3.15-.46.23-.31.15-.63.35-.97.55a17 17 0 00-2.07 1.54 17.27 17.27 0 00-1.78 1.85c-.25.31-.49.6-.68.9l-.29.42-.25.4c-.16.25-.28.49-.4.7l-.16.29-.12.25-.17.35a.77.77 0 01-.07.12.7.7 0 01.05-.13c.04-.1.1-.21.15-.36l.12-.26.15-.3c.11-.21.23-.46.39-.71l.24-.4.28-.43c.2-.3.44-.6.68-.91a16.52 16.52 0 011.79-1.88 16.24 16.24 0 012.08-1.53c.35-.2.67-.4 1-.55l.45-.23.43-.19c.27-.13.53-.21.76-.3l.32-.11.26-.08.37-.1a.44.44 0 01.14-.02zM166.13 92.88a18.2 18.2 0 01-1.9.61 18.4 18.4 0 01-1.94.5 19.05 19.05 0 011.9-.6 18.17 18.17 0 011.94-.51z"/>
    <path fill="#263238" d="M166.05 97.08a2.95 2.95 0 01-.04-.6v-1.43c0-.56.05-1.06.08-1.43a2.98 2.98 0 01.07-.59 3.51 3.51 0 010 .6c0 .4-.02.88-.04 1.42l-.04 1.44a3.2 3.2 0 01-.03.59zM169.65 95.24c-.03 0-.12-1.02-.21-2.3-.1-1.27-.14-2.3-.1-2.3.03 0 .12 1.02.21 2.3.09 1.27.13 2.3.1 2.3z"/>
    <path fill="#263238" d="M165.17 90.53a3.59 3.59 0 01.61-.01 43.1 43.1 0 012.94.1 3.23 3.23 0 01.61.05 3.3 3.3 0 01-.61.02 50.03 50.03 0 01-2.94-.1 3.17 3.17 0 01-.6-.06z"/>
  </g>
</svg>