<?xml version="1.0" encoding="UTF-8" standalone="no"?>
<!-- Created with Inkscape (http://www.inkscape.org/) -->

<svg
   xmlns:dc="http://purl.org/dc/elements/1.1/"
   xmlns:cc="http://creativecommons.org/ns#"
   xmlns:rdf="http://www.w3.org/1999/02/22-rdf-syntax-ns#"
   xmlns:svg="http://www.w3.org/2000/svg"
   xmlns="http://www.w3.org/2000/svg"
   xmlns:sodipodi="http://sodipodi.sourceforge.net/DTD/sodipodi-0.dtd"
   xmlns:inkscape="http://www.inkscape.org/namespaces/inkscape"
   width="114.312mm"
   height="101.018mm"
   viewBox="0 0 114.312 101.018"
   version="1.1"
   id="svg1340"
   inkscape:version="0.92.4 (5da689c313, 2019-01-14)"
   sodipodi:docname="influncer.svg">
  <defs
     id="defs1334" />
  <sodipodi:namedview
     id="base"
     pagecolor="#ffffff"
     bordercolor="#666666"
     borderopacity="1.0"
     inkscape:pageopacity="0.0"
     inkscape:pageshadow="2"
     inkscape:zoom="0.49497475"
     inkscape:cx="157.22044"
     inkscape:cy="281.1931"
     inkscape:document-units="mm"
     inkscape:current-layer="layer1"
     showgrid="false"
     inkscape:window-width="1024"
     inkscape:window-height="706"
     inkscape:window-x="-8"
     inkscape:window-y="-8"
     inkscape:window-maximized="1" />
  <metadata
     id="metadata1337">
    <rdf:RDF>
      <cc:Work
         rdf:about="">
        <dc:format>image/svg+xml</dc:format>
        <dc:type
           rdf:resource="http://purl.org/dc/dcmitype/StillImage" />
        <dc:title></dc:title>
      </cc:Work>
    </rdf:RDF>
  </metadata>
  <g
     inkscape:label="Layer 1"
     inkscape:groupmode="layer"
     id="layer1"
     transform="translate(0,-195.982)">
    <g
       id="g3415"
       transform="matrix(0.26458333,0,0,0.26458333,-9.4960827,181.51506)">
      <g
         id="freepik--background-simple--inject-60" />
      <g
         id="freepik--Shadow--inject-60" />
      <g
         id="freepik--Plant--inject-60">
        <g
           id="freepik--plant--inject-60">
          <path
             id="path2907"
             style="fill:#263238"
             d="m 455,298 a 18,18 0 0 0 -8.79,5.38 38,38 0 0 0 -5.31,7.22 c -1,1.65 -1.83,3.36 -2.63,5.09 -0.52,1.13 -0.92,2.54 -1.41,3.83 -0.71,1.15 -1.42,2.33 -2,3.43 2.12,-7.65 9,-21.73 9.09,-25.73 0.14,-4.36 -4,2.12 -6.36,11 a 123.73,123.73 0 0 0 -3,15.27 c -0.24,0.46 -0.45,0.89 -0.64,1.3 -0.43,0.89 -1.16,2.4 -2.13,4.38 2.13,-6.5 2.9,-14.21 1.62,-15.17 -1.86,-1.38 -2.53,2 -2.52,8.26 a 54.15,54.15 0 0 1 -2.19,13.19 c -1.17,2.31 -2.48,4.86 -3.88,7.55 1.47,-4.68 2.32,-11.42 3.12,-16.47 1.17,-7.35 0.67,-9.64 -1.71,-6.11 -2.38,3.53 -2,8.65 -1.4,14.91 A 26,26 0 0 1 422.74,347 c -1.79,3.4 -3.69,6.92 -5.61,10.38 a 35.36,35.36 0 0 0 3.05,-11.22 c 0.83,-8.49 -0.26,-16.29 -2.23,-14.08 -1.97,2.21 -0.8,8.12 -1.06,15.31 a 81.89,81.89 0 0 1 -1.47,13 l -0.6,1.06 a 35.5,35.5 0 0 0 0.62,-11.12 c 0.39,-1.42 0.25,-2.33 -0.22,-2.76 -0.07,-1.6 0.06,-4 -0.62,-5.23 -1.72,-3.07 -3.6,1.06 -3.62,2.69 a 27.4,27.4 0 0 0 0.26,3.73 9.75,9.75 0 0 0 -1.72,2.12 c -0.26,0.44 -0.53,0.92 -0.82,1.45 0,-0.51 0.06,-1.06 0.08,-1.55 a 7.61,7.61 0 0 0 -0.84,-4 25.1,25.1 0 0 0 2.21,-6.52 3.51,3.51 0 0 0 -0.15,-2.26 1.84,1.84 0 0 0 -2.44,-0.92 3.07,3.07 0 0 0 -0.31,0.17 c -3.26,1.73 -4.13,5.89 -4.51,9.23 A 56,56 0 0 1 401,355 c -0.67,2.51 -1.26,4.78 -1.64,6.36 a 45.31,45.31 0 0 0 -1.06,-5 c -0.37,-1.37 -0.72,-2.69 -1.06,-4 a 26.56,26.56 0 0 1 2.63,-13.44 c 3.86,-7.94 6.65,-11.68 4,-11.81 -2.65,-0.13 -6.56,4 -7.11,10.54 a 72,72 0 0 0 -0.25,11.93 c -0.85,-3 -1.69,-5.91 -2.56,-8.83 a 19.27,19.27 0 0 1 0.48,-9.71 c 1.82,-5.39 7.26,-15 4.4,-14.21 -2.86,0.79 -6.3,6.31 -6.69,12.19 a 32.21,32.21 0 0 0 1,9.12 q -0.93,-3.06 -2,-6.36 c -0.3,-1 -0.62,-2 -0.93,-3 a 1.25,1.25 0 0 0 -0.08,-0.53 14.89,14.89 0 0 1 1.57,-8.84 c 2.74,-4.92 7.83,-9.15 4.83,-10.28 -3,-1.13 -7.53,6.87 -7.8,10.87 a 19.21,19.21 0 0 0 0.36,4.54 l -0.37,-0.93 c -0.65,-2.3 -1.28,-4.57 -1.83,-6.58 a 18.53,18.53 0 0 1 1.74,-8.61 c 2.68,-6.14 6.08,-13.15 2.61,-11.37 -2.8,1.45 -5.82,9.72 -5.23,16.71 -0.23,-0.92 -0.45,-1.7 -0.62,-2.34 -0.45,-4 -1.31,-13.42 0,-19 0.86,-3.74 2.27,-7.29 2.7,-11.14 A 2.4,2.4 0 0 0 388,280 c -0.94,-2.32 -4,2.2 -4.46,2.94 a 18,18 0 0 0 -2.75,9.95 38.06,38.06 0 0 0 1.06,8.89 q 0.64,2.79 1.55,5.52 c 0.38,1.17 1.06,2.48 1.58,3.75 0.26,1.33 0.55,2.68 0.86,3.89 -3.67,-7.1 -8.32,-22.09 -10.92,-25.14 -2.87,-3.27 -1.48,4.34 2.82,12.39 a 124.86,124.86 0 0 0 8.26,13.29 c 0.14,0.5 0.28,1 0.42,1.39 0.29,0.94 0.79,2.55 1.43,4.66 -2.92,-6.17 -7.58,-12.37 -9.17,-12.2 -2.29,0.26 -0.47,3.19 3.8,7.76 a 54.13,54.13 0 0 1 7.35,11.12 c 0.72,2.5 1.51,5.24 2.32,8.16 -2.13,-4.42 -6.11,-9.93 -9,-14.16 -4.16,-6.17 -6.09,-7.51 -5.42,-3.31 0.67,4.2 4.46,7.67 9.17,11.86 a 26.23,26.23 0 0 1 6.38,10 c 1,3.7 2,7.57 3,11.42 a 35.53,35.53 0 0 0 -5.42,-10.3 c -5.2,-6.79 -11.32,-11.74 -11.25,-8.79 0.07,2.95 4.95,6.49 9.69,11.89 a 78.91,78.91 0 0 1 7.77,10.5 c 0.1,0.38 0.19,0.77 0.28,1.15 -2.12,-3.89 -5.51,-7.06 -8.8,-10 -1.16,-1.06 -2.91,-3.29 -4.4,-3.77 -3.34,-1.06 -1.9,3.24 -0.8,4.44 3.57,3.9 8.6,6.31 11.9,10.42 a 35.7,35.7 0 0 1 3.33,4.92 c 0.23,1.35 0.4,2.61 0.54,3.79 q -1.9,-1.8 -4,-3.4 c -4,-2.71 -6.37,-6.44 -9.48,-10 -0.93,-1.06 -2.51,-2.38 -4,-2.45 -2.12,-0.09 -2.75,2.13 -2.12,3.88 2.45,7.21 11.67,7.53 17.08,11.28 a 15.56,15.56 0 0 1 2.72,2.21 44.09,44.09 0 0 1 0.18,6.7 h -12.4 v 5.17 h 3.68 l 3,18.4 h 24.79 l 3,-18.4 h 3.68 v -5.17 h -18.59 c 0.85,-1.06 1.76,-2.12 2.68,-3.33 l 3.92,0.12 c 0,0 13.63,0.59 18.63,-2.13 5,-2.72 0.54,-5.3 -4.25,-3.91 -4.79,1.39 -14.19,5.6 -16.27,5.6 l -1.76,-0.05 c 1,-1.27 2,-2.58 2.88,-3.92 a 93.33,93.33 0 0 0 11.05,-3.52 c 3.91,-1.55 8.49,-2.8 11.82,-5.43 a 3.58,3.58 0 0 0 1.4,-1.78 1.85,1.85 0 0 0 -1.17,-2.33 2,2 0 0 0 -0.33,-0.08 c -3.57,-1 -7.05,1.48 -9.55,3.66 a 56.4,56.4 0 0 1 -7,5.06 c -2.21,1.36 -4.19,2.64 -5.53,3.51 1,-1.47 1.9,-2.94 2.67,-4.37 0.67,-1.26 1.32,-2.46 1.93,-3.63 a 26.77,26.77 0 0 1 11.1,-8 c 8.24,-3.18 12.81,-4 11,-5.91 -1.81,-1.91 -7.54,-1.56 -12.4,2.85 a 71.67,71.67 0 0 0 -8.34,8.55 c 1.45,-2.8 2.81,-5.48 4.16,-8.2 a 19.38,19.38 0 0 1 7,-6.78 c 5,-2.68 15.52,-6 12.91,-7.37 -2.61,-1.37 -8.91,0.3 -13.19,4.34 a 32.14,32.14 0 0 0 -5.5,7.36 c 0.94,-1.93 1.9,-3.92 2.91,-6 0.43,-0.92 0.9,-1.86 1.38,-2.84 0.1,-0.15 0.21,-0.29 0.3,-0.45 a 14.86,14.86 0 0 1 7.19,-5.38 c 5.31,-1.73 12,-1.35 10.54,-4.25 -1.46,-2.9 -10.22,-0.12 -13.15,2.63 a 20.35,20.35 0 0 0 -2.84,3.57 c 0.13,-0.3 0.26,-0.62 0.38,-0.94 1.06,-2.12 2.12,-4.24 3.18,-6 a 18.28,18.28 0 0 1 7.14,-5.11 c 6.15,-2.65 13.43,-5.46 9.67,-6.53 -3,-0.86 -10.9,3.12 -15.22,8.64 l 1.14,-2.12 c 2.4,-3.25 8.2,-10.72 13,-13.93 3.18,-2.13 6.63,-3.79 9.55,-6.31 a 2.58,2.58 0 0 0 0.76,-0.91 c 0.78,-2.44 -4.51,-1.2 -5.45,-1.03 z m -55.48,64.33 c 0.8,-1.22 2.21,-3.47 3.77,-6.36 a 41.18,41.18 0 0 0 1.64,3.87 c -1.44,3 -2.76,5.54 -3.52,6.2 l -1.32,1.16 c -0.09,-1.58 -0.32,-3.2 -0.55,-4.83 z m 9,8.59 a 41.46,41.46 0 0 1 -3.12,3.68 h -4.8 c -0.07,-2 -0.21,-4.39 -0.44,-7 l 2.95,-2.6 c 0,0 1.29,-1.06 3,-2.77 a 24.69,24.69 0 0 1 1.94,5.18 14.6,14.6 0 0 1 0.51,3.59 z m 4,-10.21 a 35.44,35.44 0 0 1 -0.92,5.88 c -0.75,1.15 -1.49,2.19 -2.19,3.18 -0.06,-1.78 -0.54,-5 -0.59,-5.22 a 21.6,21.6 0 0 1 -0.54,-4.39 58.25,58.25 0 0 0 4,-4.57 23.73,23.73 0 0 1 0.29,5.16 z"
             inkscape:connector-curvature="0" />
        </g>
      </g>
      <g
         id="freepik--Window--inject-60">
        <path
           id="path2911"
           style="fill:#ffffff;stroke:#263238;stroke-width:1.06897402px;stroke-linecap:round;stroke-linejoin:round"
           d="M 420,102.76 V 297 c 0,5 -3.73,9 -8.36,9 H 59.82 c -4.62,0 -8.37,-4 -8.37,-9 V 102.76 c 0,-5 3.75,-9 8.37,-9 h 351.85 c 4.63,0.01 8.33,4.03 8.33,9 z"
           inkscape:connector-curvature="0" />
        <rect
           id="rect2913"
           style="fill:#50c7f1;fill-opacity:1"
           rx="6.29"
           height="150.85001"
           width="94.580002"
           y="127.79"
           x="64.699997" />
        <path
           id="path2915"
           style="fill:#ffffff;stroke:#263238;stroke-width:1.06897402px;stroke-linecap:round;stroke-linejoin:round"
           d="m 100.19,161.29 a 14.51,14.51 0 1 1 -14.51,-14.51 14.5,14.5 0 0 1 14.51,14.51 z"
           inkscape:connector-curvature="0" />
        <rect
           id="rect2917"
           style="fill:#263238"
           height="2.8699999"
           width="30.290001"
           y="152.95"
           x="114.8" />
        <rect
           id="rect2919"
           style="fill:#263238"
           height="2.8699999"
           width="33.990002"
           y="159.85001"
           x="114.8" />
        <rect
           id="rect2921"
           style="fill:#263238"
           height="2.8699999"
           width="30.290001"
           y="166.75"
           x="114.8" />
        <rect
           id="rect2923"
           style="fill:#263238"
           height="2.8699999"
           width="35.939999"
           y="173.64"
           x="114.8" />
        <rect
           id="rect2925"
           style="fill:#ffffff;stroke:#263238;stroke-width:1.06897402px;stroke-linecap:round;stroke-linejoin:round"
           rx="5.3499999"
           height="23.66"
           width="73.709999"
           y="192.77"
           x="75.07" />
        <rect
           id="rect2927"
           style="fill:#ffffff;stroke:#263238;stroke-width:1.06897402px;stroke-linecap:round;stroke-linejoin:round"
           rx="5.3499999"
           height="23.66"
           width="73.709999"
           y="224.3"
           x="75.07" />
        <line
           id="line2929"
           style="fill:none;stroke:#263238;stroke-width:1.06897402px;stroke-linecap:round;stroke-linejoin:round"
           y2="287.81"
           x2="307.82999"
           y1="127.36"
           x1="307.82999" />
        <path
           id="path2931"
           style="fill:#263238"
           d="m 420,102.15 v 13 H 51.45 v -13 a 8.38,8.38 0 0 1 8.37,-8.38 h 351.85 a 8.36,8.36 0 0 1 8.33,8.38 z"
           inkscape:connector-curvature="0" />
        <circle
           id="circle2933"
           style="fill:#ffffff"
           r="3.3499999"
           cy="104.44"
           cx="76.650002" />
        <path
           id="path2935"
           style="fill:#ffffff"
           d="m 95.47,104.44 a 3.35,3.35 0 1 1 -3.35,-3.35 3.35,3.35 0 0 1 3.35,3.35 z"
           inkscape:connector-curvature="0" />
        <path
           id="path2937"
           style="fill:#ffffff"
           d="m 110.75,104.44 a 3.35,3.35 0 1 1 -3.35,-3.35 3.35,3.35 0 0 1 3.35,3.35 z"
           inkscape:connector-curvature="0" />
        <rect
           id="rect2939"
           style="fill:#50aaf1;fill-opacity:1"
           height="2.6700001"
           width="80.459999"
           y="142.25999"
           x="322.09" />
        <rect
           id="rect2941"
           style="fill:#50aaf1;fill-opacity:1"
           height="2.6700001"
           width="38.860001"
           y="150.59"
           x="322.09" />
        <rect
           id="rect2943"
           style="fill:#50aaf1;fill-opacity:1"
           height="2.6700001"
           width="62.200001"
           y="158.92"
           x="322.09" />
        <rect
           id="rect2945"
           style="fill:#50aaf1;fill-opacity:1"
           height="2.9000001"
           width="55.560001"
           y="167.00999"
           x="322.09" />
        <rect
           id="rect2947"
           style="fill:#50aaf1;fill-opacity:1"
           height="2.6700001"
           width="53.82"
           y="175.58"
           x="322.09" />
        <rect
           id="rect2949"
           style="fill:#50aaf1;fill-opacity:1"
           height="2.6700001"
           width="34.970001"
           y="183.91"
           x="322.09" />
        <circle
           id="circle2963"
           style="fill:#263238"
           r="8.3299999"
           cy="160.67"
           cx="85.68" />
        <path
           id="path2965"
           style="fill:#263238"
           d="m 94,173.2 a 14.52,14.52 0 0 1 -17,-0.35 c 1.37,-2.75 4,-7 7.34,-7 4.18,-0.06 7.03,1.78 9.66,7.35 z"
           inkscape:connector-curvature="0" />
        <rect
           id="rect2967"
           style="fill:#ffffff"
           rx="4.1500001"
           height="9.2600002"
           width="88.559998"
           y="99.809998"
           x="312.47" />
        <line
           id="line2969"
           style="fill:none;stroke:#263238;stroke-width:1.06897402px;stroke-linecap:round;stroke-linejoin:round"
           y2="107.27"
           x2="317.72"
           y1="101.39"
           x1="317.72" />
        <rect
           id="rect2971"
           style="fill:#50c7f1;fill-opacity:1"
           rx="3.95"
           height="12.97"
           width="27.98"
           y="256.79999"
           x="119.44" />
        <polyline
           id="polyline2973"
           style="fill:none;stroke:#263238;stroke-width:1.06897402px;stroke-linecap:round;stroke-linejoin:round"
           points="403.53 256.99 328.84 256.99 328.84 217.85" />
        <polyline
           id="polyline2975"
           style="fill:none;stroke:#263238;stroke-width:1.06897402px;stroke-linecap:round;stroke-linejoin:round"
           points="331.86 240.85 335.07 248.02 351.92 225.72 355.44 236.48 362.1 232.74 377.49 248.02 388.98 237.42 393.42 242.09 401.08 227.03" />
        <rect
           id="rect2977"
           style="fill:#50c7f1;fill-opacity:1"
           height="2.45"
           width="5.4099998"
           y="254.53"
           x="321.67999" />
        <rect
           id="rect2979"
           style="fill:#50c7f1;fill-opacity:1"
           height="2.45"
           width="5.4099998"
           y="245.57001"
           x="321.67999" />
        <rect
           id="rect2981"
           style="fill:#50c7f1;fill-opacity:1"
           height="2.45"
           width="5.4099998"
           y="236.60001"
           x="321.67999" />
        <rect
           id="rect2983"
           style="fill:#50c7f1;fill-opacity:1"
           height="2.45"
           width="5.4099998"
           y="227.63"
           x="321.67999" />
        <rect
           id="rect2985"
           style="fill:#50c7f1;fill-opacity:1"
           height="2.45"
           width="5.4099998"
           y="218.67"
           x="321.67999" />
        <rect
           id="rect2987"
           style="fill:#50c7f1;fill-opacity:1"
           transform="rotate(-90,366.515,266.695)"
           height="2.4100001"
           width="15.45"
           y="265.48999"
           x="358.79999" />
        <rect
           id="rect2989"
           style="fill:#50c7f1;fill-opacity:1"
           transform="rotate(-90,375.095,266.695)"
           height="2.4100001"
           width="15.45"
           y="265.48999"
           x="367.38" />
        <rect
           id="rect2991"
           style="fill:#50c7f1;fill-opacity:1"
           transform="rotate(-90,383.675,266.695)"
           height="2.4100001"
           width="15.45"
           y="265.48999"
           x="375.95001" />
        <rect
           id="rect2993"
           style="fill:#50c7f1;fill-opacity:1"
           transform="rotate(-90,392.255,266.695)"
           height="2.4100001"
           width="15.45"
           y="265.48999"
           x="384.53" />
        <rect
           id="rect2995"
           style="fill:#50c7f1;fill-opacity:1"
           transform="rotate(-90,400.835,266.695)"
           height="2.4100001"
           width="15.45"
           y="265.48999"
           x="393.10999" />
        <rect
           id="rect2997"
           style="fill:#50c7f1;fill-opacity:1"
           transform="rotate(-90,357.715,266.695)"
           height="2.4100001"
           width="15.45"
           y="265.48999"
           x="349.98999" />
        <rect
           id="rect2999"
           style="fill:#50c7f1;fill-opacity:1"
           transform="rotate(-90,348.915,266.695)"
           height="2.4100001"
           width="15.45"
           y="265.48999"
           x="341.19" />
        <rect
           id="rect3001"
           style="fill:#50c7f1;fill-opacity:1"
           transform="rotate(-90,340.105,266.695)"
           height="2.4100001"
           width="15.45"
           y="265.48999"
           x="332.39001" />
        <rect
           id="rect3003"
           style="fill:#50c7f1;fill-opacity:1"
           transform="rotate(-90,331.305,266.695)"
           height="2.4100001"
           width="15.45"
           y="265.48999"
           x="323.57999" />
        <path
           id="path3005"
           style="fill:#263238"
           d="m 261.65,134.39 a 15.06,15.06 0 0 0 0,30.12 v 0 a 15.063088,15.063088 0 0 0 0.61,-30.12 z"
           inkscape:connector-curvature="0" />
        <path
           id="path3007"
           style="fill:#ffffff"
           d="m 271.2,144.62 a 2.48,2.48 0 0 0 -1.76,-1.77 c -1.56,-0.42 -7.8,-0.42 -7.8,-0.42 0,0 -6.24,0 -7.79,0.42 a 2.49,2.49 0 0 0 -1.77,1.77 28.54,28.54 0 0 0 0,9.67 2.49,2.49 0 0 0 1.77,1.77 c 1.55,0.42 7.79,0.42 7.79,0.42 0,0 6.24,0 7.8,-0.42 a 2.5,2.5 0 0 0 1.76,-1.77 28,28 0 0 0 0,-9.67 z"
           inkscape:connector-curvature="0" />
        <polygon
           id="polygon3009"
           style="fill:#263238"
           points="259.6,146.49 264.82,149.45 259.6,152.42 " />
        <path
           id="path3011"
           style="fill:#263238"
           d="m 202.32,134.43 a 15,15 0 1 0 15,15 15,15 0 0 0 -15,-15 z"
           inkscape:connector-curvature="0" />
        <path
           id="path3013"
           style="fill:#ffffff"
           d="m 199.79,159.09 h 3.89 v -9.74 h 2.71 l 0.29,-3.26 h -3 v -1.87 c 0,-0.77 0.15,-1.07 0.9,-1.07 h 2.1 v -3.39 H 204 c -2.89,0 -4.2,1.28 -4.2,3.71 v 2.6 h -2 v 3.29 h 2 z"
           inkscape:connector-curvature="0" />
        <path
           id="path3015"
           style="fill:#263238"
           d="m 202.23,195.48 a 15.06,15.06 0 1 0 15.06,15.07 v 0 a 15.07,15.07 0 0 0 -15.06,-15.07 z"
           inkscape:connector-curvature="0" />
        <path
           id="path3017"
           style="fill:#ffffff"
           d="m 202.23,203.35 c 2.34,0 2.62,0 3.55,0 a 4.86,4.86 0 0 1 1.63,0.31 2.66,2.66 0 0 1 1,0.65 2.73,2.73 0 0 1 0.66,1 4.8,4.8 0 0 1 0.3,1.63 c 0,0.93 0,1.24 0,3.54 0,2.3 0,2.63 0,3.55 a 4.75,4.75 0 0 1 -0.3,1.63 2.61,2.61 0 0 1 -0.66,1 2.69,2.69 0 0 1 -1,0.66 5.1,5.1 0 0 1 -1.63,0.3 c -0.93,0 -1.21,0 -3.55,0 -2.34,0 -2.62,0 -3.55,0 a 5,5 0 0 1 -1.63,-0.3 2.69,2.69 0 0 1 -1,-0.66 2.61,2.61 0 0 1 -0.66,-1 4.75,4.75 0 0 1 -0.3,-1.63 c 0,-0.92 -0.06,-1.2 -0.06,-3.55 0,-2.35 0,-2.61 0.06,-3.54 a 4.8,4.8 0 0 1 0.3,-1.63 2.61,2.61 0 0 1 0.66,-1 2.66,2.66 0 0 1 1,-0.65 5,5 0 0 1 1.63,-0.31 c 0.93,0 1.2,0 3.55,0 m 0,-1.58 c -2.38,0 -2.69,0 -3.62,0 a 6.33,6.33 0 0 0 -2.1,0.38 4.48,4.48 0 0 0 -2.56,2.56 6.54,6.54 0 0 0 -0.41,2.13 c 0,0.94 -0.06,1.24 -0.06,3.62 0,2.38 0,2.68 0.06,3.62 a 6.44,6.44 0 0 0 0.41,2.13 4.49,4.49 0 0 0 2.56,2.6 6.82,6.82 0 0 0 2.13,0.41 c 0.94,0 1.24,0 3.62,0 2.38,0 2.68,0 3.62,0 a 6.82,6.82 0 0 0 2.13,-0.41 4.5,4.5 0 0 0 2.56,-2.57 6.44,6.44 0 0 0 0.41,-2.13 c 0,-0.93 0.06,-1.23 0.06,-3.62 0,-2.39 0,-2.68 -0.06,-3.62 a 6.44,6.44 0 0 0 -0.41,-2.12 4.47,4.47 0 0 0 -2.56,-2.57 6.54,6.54 0 0 0 -2.13,-0.41 c -0.94,0 -1.24,0 -3.62,0"
           inkscape:connector-curvature="0" />
        <path
           id="path3019"
           style="fill:#ffffff"
           d="m 202.23,206 a 4.51,4.51 0 1 0 4.5,4.52 v 0 a 4.5,4.5 0 0 0 -4.5,-4.5 m 0,7.41 a 2.93,2.93 0 1 1 2.92,-2.93 v 0 a 2.93,2.93 0 0 1 -2.92,2.93"
           inkscape:connector-curvature="0" />
        <path
           id="path3021"
           style="fill:#263238;stroke:#263238;stroke-width:1.06897402px;stroke-linecap:round;stroke-linejoin:round"
           d="m 262.21,224.49 v 0 a 14.34,14.34 0 0 1 -14.35,-14.35 v 0 a 14.35,14.35 0 0 1 14.35,-14.35 v 0 a 14.35,14.35 0 0 1 14.35,14.35 v 0 a 14.34,14.34 0 0 1 -14.35,14.35 z"
           inkscape:connector-curvature="0" />
        <path
           id="path3023"
           style="fill:#ffffff"
           d="m 254.57,215 a 8.79,8.79 0 0 0 4.8,1.4 8.88,8.88 0 0 0 8.93,-9.4 6.67,6.67 0 0 0 1.55,-1.63 6.26,6.26 0 0 1 -1.8,0.5 3.16,3.16 0 0 0 1.37,-1.74 6.36,6.36 0 0 1 -2,0.78 3.14,3.14 0 0 0 -5.34,2.86 8.91,8.91 0 0 1 -6.46,-3.28 3.14,3.14 0 0 0 1,4.19 3.18,3.18 0 0 1 -1.42,-0.39 3.14,3.14 0 0 0 2.51,3.1 2.93,2.93 0 0 1 -1.41,0 3.13,3.13 0 0 0 2.93,2.18 6.36,6.36 0 0 1 -4.66,1.43 z"
           inkscape:connector-curvature="0" />
        <path
           id="path3025"
           style="fill:#263238"
           d="m 261.73,259.67 a 15.07,15.07 0 1 0 15.06,15.07 15.07,15.07 0 0 0 -15.06,-15.07 z"
           inkscape:connector-curvature="0" />
        <rect
           id="rect3027"
           style="fill:#ffffff"
           height="10.7"
           width="3.3099999"
           y="270.79001"
           x="254.02" />
        <path
           id="path3029"
           style="fill:#ffffff"
           d="m 255.66,269.39 a 2,2 0 1 0 -2,-2 v 0 a 2,2 0 0 0 2,2 z"
           inkscape:connector-curvature="0" />
        <path
           id="path3031"
           style="fill:#ffffff"
           d="m 262.63,275.88 c 0,-1.51 0.69,-2.4 2,-2.4 1.31,0 1.8,0.86 1.8,2.4 v 5.61 h 3.3 v -6.75 c 0,-2.86 -1.63,-4.26 -3.91,-4.26 a 3.73,3.73 0 0 0 -3.22,1.78 v -1.43 h -3.19 v 10.7 h 3.19 z"
           inkscape:connector-curvature="0" />
        <path
           id="path3033"
           style="fill:#263238"
           d="m 202.22,289.74 v 0 a 15.06,15.06 0 0 1 -15.06,-15.06 v 0 a 15.07,15.07 0 0 1 15.06,-15.07 v 0 a 15.07,15.07 0 0 1 15.07,15.07 v 0 a 15.07,15.07 0 0 1 -15.07,15.06 z"
           inkscape:connector-curvature="0" />
        <path
           id="path3035"
           style="fill:#ffffff"
           d="m 200,280.39 a 3.16,3.16 0 0 0 1.2,-0.53 3.18,3.18 0 0 0 1.22,-2.52 2.84,2.84 0 0 0 -0.41,-1.55 2.31,2.31 0 0 0 -1.22,-0.93 2.67,2.67 0 0 0 0.81,-0.6 2.36,2.36 0 0 0 0.48,-1.56 2.65,2.65 0 0 0 -0.48,-1.61 3.25,3.25 0 0 0 -2.74,-1.12 h -5.11 v 10.54 h 4.74 a 7.63,7.63 0 0 0 1.51,-0.12 z m -4.14,-8.59 h 2.29 a 3.74,3.74 0 0 1 1.25,0.17 0.92,0.92 0 0 1 0.57,1 1,1 0 0 1 -0.43,0.93 2.18,2.18 0 0 1 -1.12,0.26 h -2.56 z m 0,6.9 v -2.82 h 2.59 a 3,3 0 0 1 1.06,0.17 1.16,1.16 0 0 1 0.68,1.14 1.35,1.35 0 0 1 -0.7,1.32 2.63,2.63 0 0 1 -1.07,0.19 z"
           inkscape:connector-curvature="0" />
        <path
           id="path3037"
           style="fill:#ffffff"
           d="m 204.17,279.84 a 4.24,4.24 0 0 0 2.75,1 3.76,3.76 0 0 0 3,-1.14 2.44,2.44 0 0 0 0.75,-1.4 h -2.09 a 1.76,1.76 0 0 1 -0.41,0.53 1.73,1.73 0 0 1 -1.14,0.36 2.14,2.14 0 0 1 -1.13,-0.29 1.87,1.87 0 0 1 -0.81,-1.65 h 5.69 a 10,10 0 0 0 -0.06,-1.55 4,4 0 0 0 -0.72,-1.7 3.21,3.21 0 0 0 -1.35,-1.15 4.45,4.45 0 0 0 -1.84,-0.37 3.77,3.77 0 0 0 -2.79,1.08 4.25,4.25 0 0 0 -1,3.09 3.82,3.82 0 0 0 1.15,3.19 z m 1.46,-5.2 a 1.67,1.67 0 0 1 1.22,-0.45 1.81,1.81 0 0 1 1.22,0.43 1.69,1.69 0 0 1 0.54,1.23 h -3.52 a 2.16,2.16 0 0 1 0.54,-1.21 z"
           inkscape:connector-curvature="0" />
        <rect
           id="rect3039"
           style="fill:#ffffff"
           height="1.0700001"
           width="4.5900002"
           y="270.57001"
           x="204.42" />
        <rect
           id="rect3041"
           style="fill:none;stroke:#50c7f1;stroke-width:1.0696063;stroke-miterlimit:10;stroke-dasharray:none;stroke-opacity:1"
           rx="4.5100002"
           height="41.380001"
           width="41.380001"
           y="128.75999"
           x="181.63" />
        <rect
           id="rect3043"
           style="fill:none;stroke:#50c7f1;stroke-width:1.06897402px;stroke-miterlimit:10;stroke-opacity:1"
           rx="4.5100002"
           height="41.380001"
           width="41.380001"
           y="128.75999"
           x="241.25999" />
        <rect
           id="rect3045"
           style="fill:none;stroke:#50c7f1;stroke-width:1.06897402px;stroke-miterlimit:10;stroke-opacity:1"
           rx="4.5100002"
           height="41.380001"
           width="41.380001"
           y="189.37"
           x="181.63" />
        <rect
           id="rect3047"
           style="fill:none;stroke:#50c7f1;stroke-width:1.06897402px;stroke-miterlimit:10;stroke-opacity:1"
           rx="4.5100002"
           height="41.380001"
           width="41.380001"
           y="189.37"
           x="241.25999" />
        <rect
           id="rect3049"
           style="fill:none;stroke:#50c7f1;stroke-width:1.06897402px;stroke-miterlimit:10;stroke-opacity:1"
           rx="4.5100002"
           height="41.380001"
           width="41.380001"
           y="252.98"
           x="181.63" />
        <rect
           id="rect3051"
           style="fill:none;stroke:#50c7f1;stroke-width:1.06897402px;stroke-miterlimit:10;stroke-opacity:1"
           rx="4.5100002"
           height="41.380001"
           width="41.380001"
           y="252.98"
           x="241.25999" />
        <rect
           id="rect3053"
           style="fill:#92e3a9"
           height="8.8500004"
           width="29.16"
           y="236.49001"
           x="247.86" />
        <rect
           id="rect3055"
           style="fill:#92e3a9"
           height="8.8500004"
           width="29.16"
           y="175.78"
           x="247.86" />
        <rect
           id="rect3057"
           style="fill:#92e3a9"
           height="8.8500004"
           width="29.16"
           y="175.78"
           x="187.64999" />
        <rect
           id="rect3059"
           style="fill:#92e3a9"
           height="8.8500004"
           width="29.16"
           y="236.49001"
           x="187.64999" />
        <rect
           id="rect3061"
           style="fill:#263238"
           height="8.8500004"
           width="29.16"
           y="236.49001"
           x="247.86" />
        <rect
           id="rect3063"
           style="fill:#263238"
           height="8.8500004"
           width="29.16"
           y="175.78"
           x="247.86" />
        <rect
           id="rect3065"
           style="fill:#263238"
           height="8.8500004"
           width="29.16"
           y="175.78"
           x="187.64999" />
        <rect
           id="rect3067"
           style="fill:#263238"
           height="8.8500004"
           width="29.16"
           y="236.49001"
           x="187.64999" />
        <line
           id="line3069"
           style="fill:none;stroke:#263238;stroke-width:1.06897402px;stroke-linecap:round;stroke-linejoin:round"
           y2="132.22"
           x2="145.08"
           y1="132.22"
           x1="80" />
      </g>
      <g
         id="freepik--Character--inject-60">
        <path
           id="path3072"
           style="fill:#ffffff"
           d="m 165.21,389.24 c 0,0 2.33,8 1.55,12.89 0,0 -0.93,8.14 -2,12.48 -1.07,4.34 -2.16,7.35 3.95,9.07 6.11,1.72 21.12,-1.93 24.64,-0.7 3.52,1.23 23.56,-1.52 26.55,-2.84 2.99,-1.32 3.46,-10.47 -3,-13.65 -6.46,-3.18 -51.69,-17.25 -51.69,-17.25 z"
           inkscape:connector-curvature="0" />
        <path
           id="path3074"
           style="fill:#0984e3;fill-opacity:1"
           d="m 166.1,406 c 0,0 -1.74,9.78 -1.69,11.56 a 38.91,38.91 0 0 1 9.11,-1.46 c 4.12,0 16.47,0.16 21.37,-0.58 4.9,-0.74 14.32,-4.19 18.68,-4.21 a 46.78,46.78 0 0 1 8.25,0.73 c 0,0 0.51,-3.49 -6.37,-5.31 -6.88,-1.82 -31.95,-7.09 -31.95,-7.09 0,0 -5.6,6.02 -17.4,6.36 z"
           inkscape:connector-curvature="0" />
        <path
           id="path3076"
           style="fill:#ffffff"
           d="m 253.44,401.34 c 0,0 4.39,-2.78 8.52,-1.08 4.13,1.7 18.84,1.74 18.84,1.74 0,0 11.64,-1.46 16.6,1 4.96,2.46 5.51,6.17 5.12,9.06 -0.39,2.89 -7.71,10.6 -17.32,11 -9.61,0.4 -10.4,-1.76 -18.3,-2.18 0,0 -10.6,-0.67 -13.66,-2 -3.06,-1.33 -7.06,-2.43 -6.94,-8.15 0.12,-5.72 7.14,-9.39 7.14,-9.39 z"
           inkscape:connector-curvature="0" />
        <path
           id="path3078"
           style="fill:#0984e3;fill-opacity:1"
           d="m 253.44,401.34 c 0,0 4.45,-2.52 12.31,-0.16 7.86,2.36 21.71,-1.13 27.71,0.95 6,2.08 6.83,6 6.06,7.51 -0.77,1.51 -5.88,7.62 -11.56,8.59 -5.68,0.97 -18.49,0.38 -24.36,1.45 0,0 -12.13,0.7 -16,-5.36 -3.87,-6.06 5.84,-12.98 5.84,-12.98 z"
           inkscape:connector-curvature="0" />
        <polygon
           id="polygon3080"
           style="fill:#263238"
           points="81.02,383.17 101.2,362.35 119.41,364.52 129.72,380.23 127.15,389.24 88.42,396.96 " />
        <path
           id="path3082"
           style="fill:#263238"
           d="m 73.15,393.19 c 0,0 0.56,25.79 17.28,28.58 16.72,2.79 76.39,-26.24 76.39,-26.24 0,0 22.22,11.54 38.94,13 16.72,1.46 41,4.57 43.48,7.35 2.48,2.78 11.76,-8.88 6.41,-15.88 0,0 -18.11,-1.15 -29.53,-6.84 -11.42,-5.69 -48.76,-27.29 -56.28,-28.61 -7.52,-1.32 -51,19.29 -51,19.29 l -13.1,2.79 z"
           inkscape:connector-curvature="0" />
        <path
           id="path3084"
           style="fill:#263238"
           d="m 122.62,374.77 -3.21,-10.25 c 0,0 32.13,-35.71 45.8,-35.23 13.67,0.48 16.08,12.57 17,22 0.92,9.43 0,23.44 0,23.44 l -31.42,3.93 -23.69,10.58 -4.53,-14.47"
           inkscape:connector-curvature="0" />
        <path
           id="path3086"
           style="fill:none;stroke:#ffffff;stroke-width:1.06897402px;stroke-linecap:round;stroke-linejoin:round"
           d="m 157.48,368.78 c 0,0.56 1.1,-16.28 5.93,-23.81"
           inkscape:connector-curvature="0" />
        <path
           id="path3088"
           style="fill:none;stroke:#ffffff;stroke-width:1.06897402px;stroke-linecap:round;stroke-linejoin:round"
           d="m 168.54,344.69 a 46.24,46.24 0 0 0 0.06,10"
           inkscape:connector-curvature="0" />
        <path
           id="path3090"
           style="fill:none;stroke:#263238;stroke-width:1.06897402px;stroke-linecap:round;stroke-linejoin:round"
           d="m 166.24,405.66 c 0,0 -2.37,12.39 -1.72,15 0.83,3.31 9.49,3.38 11.95,3.49 5.44,0.23 10.87,-0.31 16.31,-0.22 4.14,0.07 8.27,0.51 12.42,0.45 a 27.64,27.64 0 0 0 12.06,-2.49 c 3.18,-1.59 5.26,-3.85 4.86,-7.55 -0.53,-4.88 -2.16,-6.11 -8.9,-6.88 -6.74,-0.77 -30.53,-7.88 -30.53,-7.88 0,0 -3.69,6.48 -16.45,6.08 z"
           inkscape:connector-curvature="0" />
        <path
           id="path3092"
           style="fill:none;stroke:#263238;stroke-width:1.06897402px;stroke-linecap:round;stroke-linejoin:round"
           d="m 166.24,405.66 a 35.55,35.55 0 0 0 0,-14 c -1.58,-7.12 10.67,-0.92 10.67,-0.92 l 6.59,7.11 -0.81,1.72"
           inkscape:connector-curvature="0" />
        <path
           id="path3094"
           style="fill:#263238"
           d="m 165.21,421.94 a 3.06,3.06 0 0 1 2.35,-3.1 c 1.78,-0.47 3.94,-0.15 5.75,-0.1 3.13,0.1 6.26,0.23 9.39,0.26 10.54,0.09 20.77,-3.25 31.3,-3.65 1.85,-0.07 5.16,-0.56 6.8,0.59 2.64,1.85 -2.23,5.48 -4.06,6.22 a 37.89,37.89 0 0 1 -14,2.22 c -6.18,-0.29 -15.86,-0.25 -20.05,-0.2 -4.19,0.05 -12.05,1.65 -17.48,-2.24 z"
           inkscape:connector-curvature="0" />
        <path
           id="path3096"
           style="fill:none;stroke:#263238;stroke-width:1.06897402px;stroke-linecap:round;stroke-linejoin:round"
           d="m 164.82,417.52 a 22.29,22.29 0 0 1 8.7,-1.46 c 10.94,-0.05 23,0.6 33.44,-3.28 4.62,-1.72 12.17,-2.64 14.92,0"
           inkscape:connector-curvature="0" />
        <path
           id="path3098"
           style="fill:none;stroke:#263238;stroke-width:1.06897402px;stroke-linecap:round;stroke-linejoin:round"
           d="m 247.43,413.7 c 0,0 0.39,4.48 7.9,5.54 7.51,1.06 22.67,3 27.68,3.69 5.01,0.69 19.38,-4.75 19.51,-11.8 0.13,-7.05 -6.06,-9.16 -9.89,-9.29 -3.83,-0.13 -22,0.66 -26.88,-0.66 -4.88,-1.32 -7.65,-1.85 -10.55,-0.13"
           inkscape:connector-curvature="0" />
        <path
           id="path3100"
           style="fill:none;stroke:#263238;stroke-width:1.06897402px;stroke-linecap:round;stroke-linejoin:round"
           d="m 295,402.13 c 0,0 4.27,3.27 4.67,6.56 0.4,3.29 -8.17,9.75 -15.82,10.41 -7.65,0.66 -17.45,-0.69 -21.84,1"
           inkscape:connector-curvature="0" />
        <path
           id="path3102"
           style="fill:#263238"
           d="m 74.34,296.35 c 0,0 5.84,4.33 8.66,2.47 2.82,-1.86 9,-8.9 9,-8.9 l 8.92,4.86 9.36,30.05 6.26,26.56 10,4.89 v 4.25 c 0,0 -5.88,6.09 -12,7.9 -6.12,1.81 -12.8,3.57 -17.84,2.39 C 91.66,369.64 82,336.26 82,336.26 L 57.7,300.75 Z"
           inkscape:connector-curvature="0" />
        <polygon
           id="polygon3104"
           style="fill:#ffffff;stroke:#263238;stroke-width:1.06897402px;stroke-linecap:round;stroke-linejoin:round"
           points="110.27,355.19 153.57,335.13 194.89,345.67 153.57,366.19 " />
        <polygon
           id="polygon3106"
           style="fill:#ffffff"
           points="163.25,321.75 203.69,306.32 195.38,345.96 153.57,366.19 " />
        <polygon
           id="polygon3108"
           style="fill:#263238"
           points="110.27,357.11 153.83,368.78 195.82,347.74 196.05,345.32 153.83,365.74 110.27,354.68 " />
        <path
           id="path3110"
           style="fill:#0984e3;fill-opacity:1"
           d="m 89.25,293.08 a 68.48,68.48 0 0 1 11.55,20 c 3.88,11.19 11.17,34.87 10.54,44 l 15.43,-12 a 94.07,94.07 0 0 1 -1.67,-23.24 c 0.85,-11.4 1.71,-29.56 -8.26,-31.05 -10.42,-2.23 -24.32,-5.63 -24.32,-5.63 z"
           inkscape:connector-curvature="0" />
        <path
           id="path3112"
           style="fill:#0984e3;fill-opacity:1"
           d="m 63.16,288.62 c 0,0 -15.65,8.38 -17.59,11.76 -1.94,3.38 -3.07,2.38 -2.34,7.72 0.73,5.34 4.61,22.75 5.55,28.63 0.94,5.88 4.13,31.27 4.13,31.27 a 55.66,55.66 0 0 0 8.89,3 l -20.45,26.73 c 0,0 7.71,16.75 22.44,17.27 14.73,0.52 21.56,-13.81 27.93,-23.9 6.37,-10.09 10.64,-23.73 10.64,-23.73 l 3.09,-0.57 -1.15,-14.5 -1.94,0.3 c 0,0 -0.41,-20.22 -9,-35.46 -8.59,-15.24 -30.2,-28.52 -30.2,-28.52 z"
           inkscape:connector-curvature="0" />
        <path
           id="path3114"
           style="opacity:0.2"
           d="m 96.35,287.71 c 0,0 6.81,3.48 7.51,7.86 0.7,4.38 -1.54,9.81 1.73,11.95 3.27,2.14 7.11,2.59 9,8.29 1.89,5.7 1.32,32.06 0,36.58 -1.32,4.52 -3.2,0 -3.2,0 l -2.17,-11.52 -4.46,-16.49 -4.41,-12.38 -4,-8.58 -4.8,-9.77 z"
           inkscape:connector-curvature="0" />
        <path
           id="path3116"
           style="fill:#ffffff"
           d="m 105.18,363.45 c 0,0 6.37,0.84 8.5,-0.08 2.13,-0.92 4,-1.38 5.5,-5.58 1.5,-4.2 4.3,-5.49 7.31,-5.69 3.01,-0.2 9.82,-1.53 11,-4.81 l -2.95,-0.21 a 7,7 0 0 0 2.74,-1.5 h -1.24 c 0,0 -5.92,-3.11 -8.94,-3.86 -3.02,-0.75 -6.25,-1.53 -9.1,0.93 -2.85,2.46 -4.38,7.76 -5.54,9.14 -1.16,1.38 -4.23,3.09 -8.26,3.08 z"
           inkscape:connector-curvature="0" />
        <path
           id="path3118"
           style="fill:none;stroke:#263238;stroke-width:1.06897402px;stroke-linecap:round;stroke-linejoin:round"
           d="m 105.59,363.48 c 0,0 8.64,1.51 11.52,-1.88 2.88,-3.39 1.88,-8.19 8.28,-9.3 6.4,-1.11 11.82,-2.5 12.12,-5 0,0 -13.16,-1.25 -16,1"
           inkscape:connector-curvature="0" />
        <path
           id="path3120"
           style="fill:none;stroke:#263238;stroke-width:1.06897402px;stroke-linecap:round;stroke-linejoin:round"
           d="m 135,347 a 4.37,4.37 0 0 0 2.34,-1.37 l -5.91,-1.13 c -2.07,-0.4 -4.14,-1.09 -6.28,-1 a 7.38,7.38 0 0 0 -4.9,2.71"
           inkscape:connector-curvature="0" />
        <path
           id="path3122"
           style="fill:none;stroke:#263238;stroke-width:1.06897402px;stroke-linecap:round;stroke-linejoin:round"
           d="m 135.72,345 -6.85,-2.61 c -3.15,-1.2 -6.86,-2.36 -9.73,-0.59 a 9.68,9.68 0 0 0 -2.83,3.07 33.85,33.85 0 0 0 -2.21,4 14.91,14.91 0 0 1 -1.62,3 c -1.87,2.36 -4.76,2.95 -7.77,3.08"
           inkscape:connector-curvature="0" />
        <path
           id="path3124"
           style="fill:#ffffff"
           d="m 62,288.62 c 0,0 8.69,3.4 12.3,7.73 0,0 8.71,5.92 12.33,-0.59 3.62,-6.51 4,-19.62 4,-19.62 l 3.37,-7.49 -1.3,-20.09 -9.42,-14.15 -8.94,-6.57 -9.71,18.74 -11.28,7.68 1.29,21 z"
           inkscape:connector-curvature="0" />
        <path
           id="path3126"
           style="fill:#92e3a9"
           d="m 80.22,236 c 0,0 0.42,16.12 -12.7,22.06 0,0 -3.82,19.57 8.83,23.71 0,0 2.14,9.15 -6.95,10.61 -11.73,-5.75 -9.66,-11.9 -9.66,-11.9 l -4.05,-17.33 -1.29,-11.65 15,-11.77 z"
           inkscape:connector-curvature="0" />
        <path
           id="path3128"
           style="opacity:0.5;fill:#ffffff"
           d="m 80.22,236 c 0,0 0.42,16.12 -12.7,22.06 0,0 -3.82,19.57 8.83,23.71 0,0 2.14,9.15 -6.95,10.61 -11.73,-5.75 -9.66,-11.9 -9.66,-11.9 l -4.05,-17.33 -1.29,-11.65 15,-11.77 z"
           inkscape:connector-curvature="0" />
        <path
           id="path3130"
           style="fill:none;stroke:#263238;stroke-width:1.06897402px;stroke-linecap:round;stroke-linejoin:round"
           d="m 90.45,244.49 c 0,0 0.56,1.82 0,7.26 -0.56,5.44 0.78,12.39 -1,17.27 -1.78,4.88 -4.8,12.32 -13.09,12.71 -6.36,0 -13,-9 -13.82,-14.91 0,0 -7.67,-3.6 -6.76,-8.7 0.91,-5.1 5.83,-3.73 7.12,0"
           inkscape:connector-curvature="0" />
        <path
           id="path3132"
           style="fill:none;stroke:#263238;stroke-width:1.06897402px;stroke-linecap:round;stroke-linejoin:round"
           d="m 83.55,254.61 a 18.94,18.94 0 0 0 0.29,9.07 3.14,3.14 0 0 1 0.15,2.06 1.92,1.92 0 0 1 -1.49,1.05 5,5 0 0 1 -1.88,-0.16"
           inkscape:connector-curvature="0" />
        <path
           id="path3134"
           style="fill:none;stroke:#263238;stroke-width:1.06897402px;stroke-linecap:round;stroke-linejoin:round"
           d="m 80.22,270.12 c 0,0 -3.58,1.11 -5.82,-1.47"
           inkscape:connector-curvature="0" />
        <path
           id="path3136"
           style="fill:none;stroke:#263238;stroke-width:1.06897402px;stroke-linecap:round;stroke-linejoin:round"
           d="m 63.16,288.62 c 2.22,-5.64 -1.92,-22.55 -1.92,-22.55"
           inkscape:connector-curvature="0" />
        <path
           id="path3138"
           style="fill:none;stroke:#263238;stroke-width:1.06897402px;stroke-linecap:round;stroke-linejoin:round"
           d="m 77,251.79 c 0,0 -5.17,-4.5 -7.59,2.16"
           inkscape:connector-curvature="0" />
        <path
           id="path3140"
           style="fill:none;stroke:#263238;stroke-width:1.06897402px;stroke-linecap:round;stroke-linejoin:round"
           d="m 84.48,251.5 a 4.85,4.85 0 0 1 1.79,-2.06 2.34,2.34 0 0 1 2.6,0.12"
           inkscape:connector-curvature="0" />
        <ellipse
           id="ellipse3142"
           style="fill:#263238"
           ry="1.9400001"
           rx="0.86000001"
           cy="258.01999"
           cx="75.440002" />
        <path
           id="path3144"
           style="fill:#263238"
           d="m 86.2,257.16 c 0,1.07 -0.38,1.94 -0.86,1.94 -0.48,0 -0.86,-0.87 -0.86,-1.94 0,-1.07 0.38,-1.94 0.86,-1.94 0.48,0 0.86,0.87 0.86,1.94 z"
           inkscape:connector-curvature="0" />
        <path
           id="path3146"
           style="fill:none;stroke:#263238;stroke-width:1.06897402px;stroke-linecap:round;stroke-linejoin:round"
           d="m 81.31,280.44 c 0,0 -1.78,3.56 1.06,11.35"
           inkscape:connector-curvature="0" />
        <path
           id="path3148"
           style="fill:#263238"
           d="m 61.24,255.22 c 0,0 19.32,-7.16 19,-19.26 0,0 3.22,7.81 10.48,11.84 0,0 -2.08,-11.06 -4.5,-15.87 -2.42,-4.81 -16.86,-8.59 -22.39,-7.42 -5.53,1.17 -16.19,3.39 -18.4,21.21 -2.21,17.82 0,31.22 -5.2,38.37 -5.2,7.15 -4.42,19.51 3.13,21.2 a 15.88,15.88 0 0 1 3.8,-6.27 c 2.73,-2.6 16.27,-10.14 16.27,-10.14 0,0 0.59,-13.54 -2.17,-22.81 0,0 -5.78,-1.78 -5.47,-7.95 0.56,-4.8 5.45,-2.9 5.45,-2.9 z"
           inkscape:connector-curvature="0" />
        <path
           id="path3150"
           style="fill:#263238"
           d="m 85.56,231 a 43.35,43.35 0 0 1 7.14,9.73 c 4.19,7.33 8.82,15.6 10.92,23.78 a 25.1,25.1 0 0 1 -2.93,19.23 17.68,17.68 0 0 0 -1.46,2.57 13.47,13.47 0 0 0 -0.76,3.45 c -0.35,2.67 -0.76,5.44 -2.22,7.71 -1.46,2.27 -4.28,3.88 -6.87,3.1 a 10.64,10.64 0 0 1 -5.69,-5.45 c -2,-5.45 -3.26,-8.92 -2.38,-14.66 0,0 9.15,-8.06 9.08,-17.33 -0.07,-9.27 1.58,-15.66 -2.18,-20.26 C 84.45,238.27 85.56,231 85.56,231 Z"
           inkscape:connector-curvature="0" />
        <path
           id="path3152"
           style="fill:none;stroke:#263238;stroke-width:1.06897402px;stroke-linecap:round;stroke-linejoin:round"
           d="m 63.41,288.88 c 0,0 -12.68,6.62 -17.84,11.5 -5.16,4.88 -0.49,16.16 1.65,27.6 2.14,11.44 3.8,22.34 5.69,40 18.54,8.62 36,1.62 52.54,-1.22 L 104.3,352.3 c -2.41,0.13 -15,3.85 -26,0.6 -5.68,-1.69 -10.31,0.77 -14.22,5.22"
           inkscape:connector-curvature="0" />
        <path
           id="path3154"
           style="fill:none;stroke:#263238;stroke-width:1.06897402px;stroke-linecap:round;stroke-linejoin:round"
           d="m 61.09,354.28 c 5.65,-2.78 10.76,-4 16,-1.68"
           inkscape:connector-curvature="0" />
        <path
           id="path3156"
           style="fill:none;stroke:#263238;stroke-width:1.06897402px;stroke-linecap:round;stroke-linejoin:round"
           d="m 76,352.17 c -3.27,-8.83 -4.07,-19.06 -5.59,-28.79"
           inkscape:connector-curvature="0" />
        <path
           id="path3158"
           style="fill:none;stroke:#263238;stroke-width:1.06897402px;stroke-linecap:round;stroke-linejoin:round"
           d="M 52.91,308.1 A 36.16,36.16 0 0 1 68.3,325.86"
           inkscape:connector-curvature="0" />
        <path
           id="path3160"
           style="fill:none;stroke:#263238;stroke-width:1.06897402px;stroke-linecap:round;stroke-linejoin:round"
           d="m 65.52,314.69 2.55,4.9"
           inkscape:connector-curvature="0" />
        <path
           id="path3162"
           style="fill:none;stroke:#263238;stroke-width:1.06897402px;stroke-linecap:round;stroke-linejoin:round"
           d="m 63.16,288.62 c 0,0 25.19,14.48 32.61,33.48 7.42,19 6.41,30.27 6.41,30.27"
           inkscape:connector-curvature="0" />
        <path
           id="path3164"
           style="fill:none;stroke:#263238;stroke-width:1.06897402px;stroke-linecap:round;stroke-linejoin:round"
           d="m 63.16,288.62 c -2.69,5.78 -0.19,12.53 3.66,17.13 4,4.8 10.55,7.4 16.62,8.35 0.66,0.1 1.45,0.26 1.67,0.89 a 1.6,1.6 0 0 1 0,1 c -0.91,3 -3.71,5.38 -3.65,8.5 a 9.63,9.63 0 0 0 1.07,3.67 219.06,219.06 0 0 0 11.47,22.15"
           inkscape:connector-curvature="0" />
        <path
           id="path3166"
           style="opacity:0.5;fill:none;stroke:#ffffff;stroke-width:1.06897402px;stroke-linecap:round;stroke-linejoin:round"
           d="m 64.63,231.44 a 53,53 0 0 1 -7,18.54"
           inkscape:connector-curvature="0" />
        <path
           id="path3168"
           style="opacity:0.5;fill:none;stroke:#ffffff;stroke-width:1.06897402px;stroke-linecap:round;stroke-linejoin:round"
           d="m 53.35,234.41 c -3.62,8.45 -1.9,18.1 -2.28,27.29 a 58.27,58.27 0 0 1 -6.22,23.78"
           inkscape:connector-curvature="0" />
        <path
           id="path3170"
           style="fill:none;stroke:#263238;stroke-width:1.06897402px;stroke-linecap:round;stroke-linejoin:round"
           d="m 102.36,367.36 c 0,0 -12.74,34.47 -25,43.3 -12.26,8.83 -25.87,4.1 -36,-12.93 L 61.8,371.05"
           inkscape:connector-curvature="0" />
        <path
           id="path3172"
           style="fill:none;stroke:#263238;stroke-width:1.06897402px;stroke-linecap:round;stroke-linejoin:round"
           d="m 65.47,372.09 a 34.5,34.5 0 0 0 12.81,19.1"
           inkscape:connector-curvature="0" />
        <path
           id="path3174"
           style="fill:none;stroke:#263238;stroke-width:1.06897402px;stroke-linecap:round;stroke-linejoin:round"
           d="m 63,371.82 a 39.85,39.85 0 0 0 0.83,16.83"
           inkscape:connector-curvature="0" />
        <path
           id="path3176"
           style="fill:none;stroke:#263238;stroke-width:1.06897402px;stroke-linecap:round;stroke-linejoin:round"
           d="m 84.48,285.69 c 0,0 11.62,12.4 18.7,33.9 7.08,21.5 8.16,33.31 8.16,33.31"
           inkscape:connector-curvature="0" />
        <path
           id="path3178"
           style="fill:none;stroke:#263238;stroke-width:1.06897402px;stroke-linecap:round;stroke-linejoin:round"
           d="m 75.44,297.22 c 0,0 7.52,5 11.23,-1.46 3.71,-6.46 1,-8.65 1,-8.65"
           inkscape:connector-curvature="0" />
        <path
           id="path3180"
           style="fill:none;stroke:#263238;stroke-width:1.06897402px;stroke-linecap:round;stroke-linejoin:round"
           d="m 86,284.77 c 2.35,-0.38 4.71,0.44 6.91,1.34 a 26.32,26.32 0 0 1 7.32,4.14 11.22,11.22 0 0 1 4.07,7.16 c 0.31,3.09 -1,6.51 0.61,9.18 1.8,3 6.27,3.27 8.38,6.05 a 10.12,10.12 0 0 1 1.58,4.74 A 112.59,112.59 0 0 1 115,347"
           inkscape:connector-curvature="0" />
        <path
           id="path3182"
           style="fill:none;stroke:#263238;stroke-width:1.06897402px;stroke-linecap:round;stroke-linejoin:round"
           d="m 113.16,303.5 a 29.58,29.58 0 0 1 6.54,8.19 14.18,14.18 0 0 1 1.23,10.22 c -0.38,1.24 -1,2.41 -1.3,3.66 a 19.55,19.55 0 0 0 -0.51,3.66 l -1,13"
           inkscape:connector-curvature="0" />
        <path
           id="path3184"
           style="fill:none;stroke:#263238;stroke-width:1.06897402px;stroke-linecap:round;stroke-linejoin:round"
           d="m 89.25,283.64 c 4.91,1.47 9.75,3.36 14.75,4.43 5,1.07 9.73,1.34 14.49,3.21 a 9.5,9.5 0 0 1 2,1 c 4.09,2.86 4.06,8.62 4.52,13 1.4,13.35 -2.27,23.33 1.48,36.22"
           inkscape:connector-curvature="0" />
        <path
           id="path3186"
           style="fill:none;stroke:#263238;stroke-width:1.06897402px;stroke-linecap:round;stroke-linejoin:round"
           d="m 101.2,370.76 c 0,0 12.53,1.33 24.07,-9.12"
           inkscape:connector-curvature="0" />
        <path
           id="path3188"
           style="opacity:0.5;fill:none;stroke:#ffffff;stroke-width:1.06897402px;stroke-linecap:round;stroke-linejoin:round"
           d="m 93,299.1 c -2.3,-3.36 -3.87,-7.43 -3.27,-11.45 0.39,-2.61 1.66,-5 2.8,-7.36 a 38.18,38.18 0 0 0 3.47,-9.68 17.93,17.93 0 0 0 -0.84,-10.13 28.17,28.17 0 0 0 -4.05,-6.22"
           inkscape:connector-curvature="0" />
        <polygon
           id="polygon3190"
           style="fill:#263238"
           points="203.69,306.32 195.38,345.96 153.57,366.19 " />
        <polygon
           id="polygon3192"
           style="opacity:0.8;fill:#ffffff"
           points="203.69,306.32 195.38,345.96 153.57,366.19 " />
        <path
           id="path3194"
           style="fill:#263238"
           d="m 186.39,334.55 c -0.69,2.7 -2.7,4.51 -4.49,4.05 -1.79,-0.46 -2.66,-3 -2,-5.72 0.66,-2.72 2.71,-4.51 4.49,-4.05 1.78,0.46 2.7,3.02 2,5.72 z"
           inkscape:connector-curvature="0" />
        <polygon
           id="polygon3196"
           style="fill:none;stroke:#263238;stroke-width:1.06897402px;stroke-linecap:round;stroke-linejoin:round"
           points="163.25,321.75 203.69,306.32 195.38,345.96 153.57,366.19 " />
        <polygon
           id="polygon3198"
           style="fill:#263238"
           points="161.41,321.08 202.37,305.68 203.88,306.06 163.25,321.75 153.57,366.19 151.93,365.23 " />
        <path
           id="path3200"
           style="opacity:0.2"
           d="m 63.16,288.62 c 0,0 -3.56,9.81 3.66,17.13 7.22,7.32 18.29,9.25 18.29,9.25 v 1 c 0,0 -4.8,6.51 -3.45,9.86 1.35,3.35 13.75,27.91 13.75,27.91 l 7,-1.17 a 71.19,71.19 0 0 0 -7.68,-33 C 86,303 63.16,288.62 63.16,288.62 Z"
           inkscape:connector-curvature="0" />
        <path
           id="path3202"
           style="opacity:0.2"
           d="m 59.77,373.69 c 0,0 0.5,7.26 3.26,11.5 0,0 0.32,-5.34 0.76,-10.05 0,0 4.09,10.46 12.16,14.15 0,0 -4.76,-9.44 -6.3,-14.15 0,0 16.19,2.88 31.83,-5.33 v -2.28 c 0,0 -24.12,7.07 -39.68,3.52 z"
           inkscape:connector-curvature="0" />
        <path
           id="path3204"
           style="opacity:0.2"
           d="m 70.58,324.83 10,25.48 12.08,4 -13.28,-0.51 c 0,0 -6.17,-0.89 -13.9,3.28 0,0 0.35,-2.25 3.55,-4.15 0,0 -1.15,-1.12 -6,0.45 a 27.3,27.3 0 0 1 8,-5.49 z"
           inkscape:connector-curvature="0" />
        <path
           id="path3206"
           style="opacity:0.2"
           d="m 115.05,305 c -2.41,-2.6 5.75,4.26 6.87,7.62 1.12,3.36 1.18,7 1.16,10.53 -0.02,3.53 -0.1,7.15 0.8,10.58 0.6,2.29 1.9,5.49 2.61,7.75 0,0 -6.57,-0.91 -8.33,0.68 l 1.47,-16.62 c 0,0 5.37,-9.74 -4.58,-20.54 z"
           inkscape:connector-curvature="0" />
        <polyline
           id="polyline3208"
           style="fill:none;stroke:#263238;stroke-width:1.06897402px;stroke-linecap:round;stroke-linejoin:round"
           points="137.51 347.29 154.58 338.74 158.29 339.57" />
        <polyline
           id="polyline3210"
           style="fill:none;stroke:#263238;stroke-width:1.06897402px;stroke-linecap:round;stroke-linejoin:round"
           points="153.16 362.35 122.97 354.39 131.64 351.02" />
        <line
           id="line3212"
           style="fill:none;stroke:#263238;stroke-width:1.06897402px;stroke-linecap:round;stroke-linejoin:round"
           y2="356.06"
           x2="129.72"
           y1="341.94"
           x1="157.88" />
        <line
           id="line3214"
           style="fill:none;stroke:#263238;stroke-width:1.06897402px;stroke-linecap:round;stroke-linejoin:round"
           y2="357.81"
           x2="136.48"
           y1="347.29001"
           x1="157.45" />
        <line
           id="line3216"
           style="fill:none;stroke:#263238;stroke-width:1.06897402px;stroke-linecap:round;stroke-linejoin:round"
           y2="359.56"
           x2="142.58"
           y1="352.56"
           x1="156.53999" />
        <line
           id="line3218"
           style="fill:none;stroke:#263238;stroke-width:1.06897402px;stroke-linecap:round;stroke-linejoin:round"
           y2="358.97"
           x2="154.67999"
           y1="351.92001"
           x1="127.49" />
        <line
           id="line3220"
           style="fill:none;stroke:#263238;stroke-width:1.06897402px;stroke-linecap:round;stroke-linejoin:round"
           y2="355.09"
           x2="155.99001"
           y1="349.69"
           x1="135.21001" />
        <line
           id="line3222"
           style="fill:none;stroke:#263238;stroke-width:1.06897402px;stroke-linecap:round;stroke-linejoin:round"
           y2="350.78"
           x2="156.53999"
           y1="346.34"
           x1="139.42" />
        <line
           id="line3224"
           style="fill:none;stroke:#263238;stroke-width:1.06897402px;stroke-linecap:round;stroke-linejoin:round"
           y2="347.06"
           x2="157.45"
           y1="343.73001"
           x1="144.63" />
        <line
           id="line3226"
           style="fill:none;stroke:#263238;stroke-width:1.06897402px;stroke-linecap:round;stroke-linejoin:round"
           y2="343.41"
           x2="158.28999"
           y1="341.26001"
           x1="149.97" />
        <path
           id="path3228"
           style="fill:none;stroke:#ffffff;stroke-width:1.06897402px;stroke-linecap:round;stroke-linejoin:round"
           d="m 181.39,370.5 c 5.52,1.92 10,4 10,4"
           inkscape:connector-curvature="0" />
        <path
           id="path3230"
           style="fill:none;stroke:#ffffff;stroke-width:1.06897402px;stroke-linecap:round;stroke-linejoin:round"
           d="m 111.34,383 c 0,0 47.92,-16.25 57,-15.65 a 36.8,36.8 0 0 1 6.57,1.15"
           inkscape:connector-curvature="0" />
        <path
           id="path3232"
           style="fill:none;stroke:#ffffff;stroke-width:1.06897402px;stroke-linecap:round;stroke-linejoin:round"
           d="m 119.41,380.34 c 2,-2.22 3.25,-3.37 4.34,-5.16"
           inkscape:connector-curvature="0" />
      </g>
    </g>
  </g>
</svg>
