<?xml version="1.0" encoding="UTF-8" standalone="no"?>
<svg
   xmlns:dc="http://purl.org/dc/elements/1.1/"
   xmlns:cc="http://creativecommons.org/ns#"
   xmlns:rdf="http://www.w3.org/1999/02/22-rdf-syntax-ns#"
   xmlns:svg="http://www.w3.org/2000/svg"
   xmlns="http://www.w3.org/2000/svg"
   xmlns:sodipodi="http://sodipodi.sourceforge.net/DTD/sodipodi-0.dtd"
   xmlns:inkscape="http://www.inkscape.org/namespaces/inkscape"
   id="svg1170"
   version="1.1"
   viewBox="0 0 100.761 62.007"
   height="62.007mm"
   width="100.761mm"
   sodipodi:docname="logofinal.svg"
   inkscape:version="0.92.4 (5da689c313, 2019-01-14)">
  <sodipodi:namedview
     pagecolor="#ffffff"
     bordercolor="#666666"
     borderopacity="1"
     objecttolerance="10"
     gridtolerance="10"
     guidetolerance="10"
     inkscape:pageopacity="0"
     inkscape:pageshadow="2"
     inkscape:window-width="1024"
     inkscape:window-height="706"
     id="namedview2715"
     showgrid="false"
     inkscape:zoom="0.76209254"
     inkscape:cx="150.94098"
     inkscape:cy="224.53949"
     inkscape:window-x="-8"
     inkscape:window-y="-8"
     inkscape:window-maximized="1"
     inkscape:current-layer="svg1170" />
  <defs
     id="defs1164" />
  <metadata
     id="metadata1167">
    <rdf:RDF>
      <cc:Work
         rdf:about="">
        <dc:format>image/svg+xml</dc:format>
        <dc:type
           rdf:resource="http://purl.org/dc/dcmitype/StillImage" />
        <dc:title></dc:title>
      </cc:Work>
    </rdf:RDF>
  </metadata>
  <rect
     style="opacity:1;fill:#000139;fill-opacity:1;fill-rule:evenodd;stroke:#000000;stroke-width:0;stroke-miterlimit:4;stroke-dasharray:none;stroke-opacity:1"
     id="rect1119"
     width="101.40279"
     height="63.075607"
     x="5e-07"
     y="-0.33212757" />
  <g
     id="g5250"
     transform="translate(-0.53149283,-1.4077896)">
    <g
       transform="translate(0.23543296,2.4302604)"
       id="g5207">
      <g
         id="g5220">
        <path
           id="path2079"
           d="m 37.365272,41.430064 c -1.327996,-0.02469 -2.49582,1.162269 -2.540193,2.464051 -0.08933,1.07523 0.527307,2.192999 1.554597,2.595909 0.697664,0.268499 1.487918,0.222851 2.201134,0.0409 0.586338,-0.21137 1.23098,-0.495059 1.553668,-1.05393 0.07843,-0.264938 -0.254571,-0.505019 -0.482073,-0.330629 -0.578215,0.36825 -1.174758,0.807889 -1.895512,0.809749 -0.708901,0.0607 -1.486961,-0.166478 -1.895602,-0.78105 -0.361207,-0.53636 -0.370581,-1.266748 -0.184902,-1.875398 0.330653,-0.895951 1.402713,-1.354691 2.310069,-1.121471 0.531265,0.094 1.102403,0.437759 1.190281,1.007319 0.06012,0.241361 0.362048,0.400431 0.556552,0.19748 0.200821,-0.273749 0.102129,-0.65609 0.139856,-0.975019 -0.02199,-0.275521 0.04238,-0.71293 -0.280551,-0.830979 -0.213654,-0.0476 -0.404681,0.177739 -0.451335,0.316608 -0.508457,-0.370689 -1.154858,-0.498859 -1.775989,-0.463518 z"
           style="opacity:1;fill:#0098fb;fill-opacity:1;fill-rule:evenodd;stroke:#000000;stroke-width:0;stroke-miterlimit:4;stroke-dasharray:none;stroke-opacity:1"
           inkscape:connector-curvature="0" />
        <path
           id="path2081"
           d="m 44.015392,41.959363 c -0.931161,0.0098 -1.800291,0.696642 -2.058956,1.575948 -0.03095,0.454493 -0.09373,0.941758 0.07337,1.376346 0.420984,0.986801 1.615504,1.607704 2.660182,1.259613 0.702942,-0.168116 1.269375,-0.758682 1.499335,-1.426546 0.05636,-0.433829 0.07874,-0.890656 -0.01921,-1.319411 -0.31595,-0.884947 -1.206477,-1.502423 -2.154704,-1.46595 z"
           style="opacity:1;fill:#0098fb;fill-opacity:1;fill-rule:evenodd;stroke:#000000;stroke-width:0;stroke-miterlimit:4;stroke-dasharray:none;stroke-opacity:1"
           inkscape:connector-curvature="0" />
        <path
           id="path2083"
           d="m 52.380787,39.571929 c -0.258842,0.02352 -0.833525,-0.08054 -0.75701,0.350793 0.08511,0.364807 0.611481,0.189203 0.873503,0.273272 0.0076,0.749297 0.03055,1.506495 0.0172,2.251432 -0.543827,-0.623528 -1.365996,-1.031732 -2.2093,-0.914432 -1.531138,0.104326 -2.617314,1.863003 -2.147575,3.290364 0.294039,1.12186 1.413798,2.029992 2.609606,1.863971 0.683681,-0.05339 1.320086,-0.413332 1.757641,-0.931659 0.05175,0.280554 -0.166907,0.867712 0.31297,0.762265 0.377722,-0.0607 0.873519,0.12468 1.188572,-0.146553 0.132503,-0.318426 -0.264462,-0.533405 -0.543587,-0.465532 -0.545843,0.162394 -0.27437,-0.48511 -0.336745,-0.802301 0,-1.814946 0,-3.62989 0,-5.444834 -0.112573,-0.231915 -0.552895,-0.03398 -0.765281,-0.08679 z m -1.735053,2.569599 c 1.049993,-0.0108 1.880904,0.980914 1.837494,1.9933 0.03768,1.050152 -0.920763,2.031182 -2.006653,1.936919 -1.067816,-0.01156 -1.867905,-1.057722 -1.78811,-2.076429 0.02408,-1.011521 0.918173,-1.917814 1.957269,-1.85379 z"
           style="opacity:1;fill:#0098fb;fill-opacity:1;fill-rule:evenodd;stroke:#000000;stroke-width:0;stroke-miterlimit:4;stroke-dasharray:none;stroke-opacity:1"
           inkscape:connector-curvature="0" />
        <path
           id="path2085"
           d="m 57.314416,41.507946 c -1.315114,-0.03131 -2.567937,1.113528 -2.543675,2.440922 -0.04178,0.720839 0.246238,1.441902 0.769946,1.941163 0.606118,0.610153 1.493255,0.915707 2.349992,0.815398 0.73882,-0.07267 1.538713,-0.231513 2.09251,-0.759933 0.201017,-0.154247 0.139129,-0.498325 -0.110387,-0.558422 -0.25319,-0.01267 -0.446084,0.228637 -0.662866,0.31805 -0.697925,0.372552 -1.565327,0.474658 -2.334371,0.261774 -0.748826,-0.216287 -1.329287,-0.897657 -1.435417,-1.662084 1.516975,-0.0056 3.033948,-0.01114 4.55092,-0.01669 0.197261,-0.06725 0.06076,-0.322802 0.07919,-0.477705 C 60.020578,43.156073 59.69926,42.530685 59.189204,42.112381 58.74572,41.669643 58.108611,41.498529 57.494077,41.5092 57.434197,41.5079 57.37431,41.5076 57.314414,41.5079 Z m 0.11157,0.6531 c 0.676839,-0.04129 1.355863,0.310381 1.728616,0.874239 0.114606,0.182518 0.193124,0.385236 0.259516,0.589219 -1.316606,0.025 -2.661108,0.02318 -3.964906,0.01103 0.190665,-0.859944 1.041054,-1.520177 1.930149,-1.474161 0.01556,1.72e-4 0.03108,-2.62e-4 0.04662,-2.62e-4 z"
           style="opacity:1;fill:#0098fb;fill-opacity:1;fill-rule:evenodd;stroke:#000000;stroke-width:0;stroke-miterlimit:4;stroke-dasharray:none;stroke-opacity:1"
           inkscape:connector-curvature="0" />
        <path
           id="path2087"
           d="m 64.138449,41.441864 c -0.721984,0.019 -1.588555,0.249391 -1.905817,0.964779 -0.229952,0.578472 0.102767,1.271252 0.689538,1.476661 0.836843,0.34145 1.804234,0.179959 2.601299,0.62085 0.454731,0.191799 0.491059,0.880531 0.08173,1.137621 -0.664673,0.43987 -1.521685,0.46518 -2.269371,0.24669 -0.39982,-0.118851 -0.781119,-0.427522 -0.798865,-0.870771 -0.04549,-0.334319 -0.61242,-0.299209 -0.613571,0.0431 -0.03145,0.422008 -0.06229,0.86985 0.05767,1.279448 0.129503,0.27109 0.555762,0.13751 0.552095,-0.146169 0.888952,0.56764 2.065314,0.59512 3.031461,0.214001 0.551815,-0.2115 1.027393,-0.731851 0.966748,-1.351521 0.03237,-0.692841 -0.6028,-1.18205 -1.218647,-1.343139 -0.734103,-0.20502 -1.541944,-0.138102 -2.237404,-0.471442 -0.299482,-0.146799 -0.356868,-0.581549 -0.07652,-0.7853 0.498927,-0.421219 1.206203,-0.395459 1.812115,-0.304429 0.389874,0.0688 0.839123,0.31837 0.862179,0.75475 0.05489,0.231791 0.324946,0.37778 0.516618,0.194059 0.19009,-0.229169 0.06119,-0.573778 0.100406,-0.84546 -0.0042,-0.22378 0.02799,-0.63146 -0.294129,-0.64189 -0.145875,-0.0245 -0.276275,0.0844 -0.310547,0.220911 -0.466526,-0.274201 -1.006406,-0.404101 -1.546981,-0.392739 z"
           style="opacity:1;fill:#0098fb;fill-opacity:1;fill-rule:evenodd;stroke:#000000;stroke-width:0;stroke-miterlimit:4;stroke-dasharray:none;stroke-opacity:1"
           inkscape:connector-curvature="0" />
      </g>
    </g>
    <g
       style="fill:#00e8f9;fill-opacity:1"
       transform="matrix(1.0063694,0,0,1,-123.1625,-33.79163)"
       id="g1029">
      <g
         style="fill:#00e8f9;fill-opacity:1"
         id="g868"
         transform="matrix(0.58585595,0,0,1,65.479862,0)">
        <g
           id="g5234">
          <path
             transform="matrix(1.6961011,0,0,1,97.907487,36.22189)"
             style="opacity:1;fill:#00e8f9;fill-opacity:1;fill-rule:evenodd;stroke:#000000;stroke-width:0;stroke-miterlimit:4;stroke-dasharray:none;stroke-opacity:1"
             d="m 50.735312,38.465775 c -0.739673,-0.025 -1.352424,-0.04955 -1.361671,-0.05453 -0.0092,-0.005 -0.0168,-0.113167 -0.0168,-0.240421 0,-0.207587 0.04083,-0.258922 0.397212,-0.499404 0.218465,-0.147421 0.46054,-0.348036 0.537945,-0.445815 l 0.140731,-0.177779 V 26.08839 15.128954 l -0.17398,-0.226655 c -0.09569,-0.12466 -0.338361,-0.335108 -0.539274,-0.467662 -0.58238,-0.384231 -0.588342,-0.711442 -0.01441,-0.789993 0.583405,-0.07985 6.04567,-0.05688 6.258379,0.02631 0.15893,0.06216 0.184918,0.110018 0.184918,0.340539 0,0.228126 -0.05025,0.323357 -0.336214,0.637127 l -0.336215,0.36891 v 4.363103 4.363104 l 1.795409,1.666457 c 0.987473,0.916551 1.864996,1.721257 1.950044,1.788237 l 0.154639,0.121779 V 21.167582 15.014953 L 58.998632,14.60704 c -0.344088,-0.371913 -0.374014,-0.428614 -0.339091,-0.642464 0.02106,-0.129002 0.05721,-0.253375 0.0803,-0.276384 0.116328,-0.115876 5.311073,-0.143635 6.402268,-0.03421 l 0.353025,0.0354 v 0.250158 c 0,0.223739 -0.02944,0.266601 -0.278794,0.405858 -0.153339,0.08563 -0.395414,0.271579 -0.537945,0.413208 L 64.41925,15.016114 V 26.09424 37.172362 l 0.252162,0.238152 c 0.138688,0.130982 0.380764,0.307993 0.537942,0.393358 0.244935,0.133025 0.285784,0.186042 0.285784,0.370896 0,0.201647 -0.01859,0.218816 -0.285784,0.263827 -0.370531,0.06242 -6.002644,0.0652 -6.280921,0.0031 -0.148967,-0.03325 -0.22463,-0.0964 -0.253789,-0.211844 -0.05397,-0.213672 0.04982,-0.399954 0.409164,-0.734356 l 0.29222,-0.271941 V 33.346503 29.46945 L 57.624191,27.848186 C 56.660679,26.956493 55.783159,26.15235 55.674144,26.061198 l -0.198208,-0.165724 v 5.57676 5.576761 l 0.369836,0.411861 c 0.372417,0.414731 0.451589,0.64244 0.304074,0.87453 -0.104561,0.164502 -2.6168,0.225004 -5.41454,0.130394 z"
             id="path2599"
             inkscape:connector-curvature="0" />
          <path
             style="opacity:1;fill:#00e8f9;fill-opacity:1;fill-rule:evenodd;stroke:#00ffff;stroke-width:0;stroke-miterlimit:4;stroke-dasharray:none;stroke-opacity:1"
             d="m 165.96236,49.459866 c -2.53889,0.01566 -5.25074,0.06098 -7.78811,0.166192 -0.35052,0.03036 -0.22093,0.04283 0.11446,0.03537 1.03719,0.23723 2.26144,0.845958 3.08458,1.600378 0.58187,0.646599 0.97784,1.43556 1.45055,2.158076 3.15589,5.238251 6.14971,10.575519 9.19258,15.88143 0.18975,0.282126 0.57987,0.02996 0.49676,-0.268419 0.11108,-5.440077 0.12358,-10.884192 0.33329,-16.318333 0.0442,-0.604355 0.0347,-1.232309 0.17321,-1.827317 0.53548,-0.352105 1.18508,-0.465844 1.74491,-0.76195 0.27164,-0.189762 0.0517,-0.576463 -0.24002,-0.566319 -0.90556,-0.130088 -1.82807,-0.05171 -2.74033,-0.08587 -1.94061,-0.0118 -3.88126,-0.01402 -5.8219,-0.01323 z"
             id="path847-1"
             inkscape:connector-curvature="0" />
          <path
             id="path864"
             d="m 167.03465,75.188199 c 2.53889,-0.01566 5.07937,0.0217 7.61674,-0.08351 0.35052,-0.03036 0.33426,-0.166533 -0.001,-0.159072 -1.03719,-0.23723 -2.2034,-0.804935 -3.02654,-1.559355 -0.58187,-0.646599 -0.97784,-1.43556 -1.45055,-2.158076 -3.15589,-5.238251 -6.14971,-10.575519 -9.19258,-15.88143 -0.18975,-0.282126 -0.57987,-0.02996 -0.49676,0.268419 -0.11108,5.440077 -0.12358,10.884192 -0.33329,16.318333 -0.0442,0.604355 -0.0347,1.232309 -0.17321,1.827317 -0.53548,0.352105 -1.18508,0.465844 -1.74491,0.76195 -0.27164,0.189762 -0.0517,0.576463 0.24002,0.566319 0.90556,0.130088 1.82807,0.05171 2.74033,0.08587 1.94061,0.0118 3.88126,0.01402 5.8219,0.01323 z"
             style="opacity:1;fill:#00e8f9;fill-opacity:1;fill-rule:evenodd;stroke:#00ffff;stroke-width:0;stroke-miterlimit:4;stroke-dasharray:none;stroke-opacity:1"
             inkscape:connector-curvature="0" />
        </g>
      </g>
      <g
         style="fill:#00e8f9;fill-opacity:1"
         id="g1016"
         transform="matrix(1,0,0,0.8730569,0.10319029,7.9217639)" />
    </g>
  </g>
  <g
     id="g2674"
     transform="matrix(1.0063694,0,0,1,-0.00862394,-236.06208)" />
</svg>
