<?xml version="1.0" encoding="UTF-8" standalone="no"?>
<svg
   width="100%"
   height="100%"
   version="1.1"
   viewBox="0 0 235.28 140.9"
   id="svg965"
   sodipodi:docname="savemoney.svg"
   inkscape:version="1.2.2 (732a01da63, 2022-12-09)"
   xmlns:inkscape="http://www.inkscape.org/namespaces/inkscape"
   xmlns:sodipodi="http://sodipodi.sourceforge.net/DTD/sodipodi-0.dtd"
   xmlns="http://www.w3.org/2000/svg"
   xmlns:svg="http://www.w3.org/2000/svg">
  <sodipodi:namedview
     id="namedview967"
     pagecolor="#ffffff"
     bordercolor="#000000"
     borderopacity="0.25"
     inkscape:showpageshadow="2"
     inkscape:pageopacity="0.0"
     inkscape:pagecheckerboard="0"
     inkscape:deskcolor="#d1d1d1"
     showgrid="false"
     inkscape:zoom="2.3687324"
     inkscape:cx="143.3256"
     inkscape:cy="85.910927"
     inkscape:window-width="1280"
     inkscape:window-height="945"
     inkscape:window-x="-9"
     inkscape:window-y="-9"
     inkscape:window-maximized="1"
     inkscape:current-layer="svg965" />
  <defs id="defs6">
    <style id="style4">
      <style type="text/css" id="style2">
         <![CDATA[
         
         .rotate {
         transform-box: fill-box;
         }
         .firstleft {
            animation: firstleft 2s linear infinite alternate;
         }
         @keyframes firstleft {
            0% {transform: translateY(0px);}
            50% {transform: translateY(7px);}
            50% {transform: translateY(-7px);}
         }

         .firstleft2 {
            animation: firstleft2 2s linear infinite alternate;
            animation-delay: 1s;
         }
         @keyframes firstleft2 {
            0% {transform: translateY(0px);}
            50% {transform: translateY(7px);}
            50% {transform: translateY(-7px);}
         }

         .firstleft3 {
            animation-duration: 2.5s;
         }
      ]]>
</style>
    </style>
  </defs>
  <defs
     id="defs83">
    <clipPath
       id="clipPath16309">
      <path
         d="m0 500h750v-500h-750z"
         id="path8" />
    </clipPath>
    <clipPath
       id="clipPath16445">
      <path
         d="m139.88 305.42h45.406v-38.634h-45.406z"
         id="path11" />
    </clipPath>
    <clipPath
       id="clipPath16489">
      <path
         d="m0 500h750v-500h-750z"
         id="path14" />
    </clipPath>
    <clipPath
       id="clipPath16501">
      <path
         d="m0 500h750v-500h-750z"
         id="path17" />
    </clipPath>
    <clipPath
       id="clipPath16513">
      <path
         d="m574.48 122.21h14.778v-30.52h-14.778z"
         id="path20" />
    </clipPath>
    <clipPath
       id="clipPath16549">
      <path
         d="m0 500h750v-500h-750z"
         id="path23" />
    </clipPath>
    <clipPath
       id="clipPath16561">
      <path
         d="m214.05 414.5h264.97v-268.37h-264.97z"
         id="path26" />
    </clipPath>
    <clipPath
       id="clipPath16765">
      <path
         d="m0 500h750v-500h-750z"
         id="path29" />
    </clipPath>
    <clipPath
       id="clipPath16905">
      <path
         d="m225.76 145.76h100.28v-37.913h-100.28z"
         id="path32" />
    </clipPath>
    <clipPath
       id="clipPath16921">
      <path
         d="m225.76 207.11h98.837v-23.65h-98.837z"
         id="path35" />
    </clipPath>
    <clipPath
       id="clipPath16953">
      <path
         d="m0 500h750v-500h-750z"
         id="path38" />
    </clipPath>
    <clipPath
       id="clipPath16965">
      <path
         d="m589.07 341.85h67.865v-38.99h-67.865z"
         id="path41" />
    </clipPath>
    <clipPath
       id="clipPath16981">
      <path
         d="m608.66 330.42h31.325v-49.591h-31.325z"
         id="path44" />
    </clipPath>
    <clipPath
       id="clipPath17005">
      <path
         d="m563.95 211.8h38.037v-28.239h-38.037z"
         id="path47" />
    </clipPath>
    <clipPath
       id="clipPath17021">
      <path
         d="m570.13 204.2h22.719v-27.273h-22.719z"
         id="path50" />
    </clipPath>
    <clipPath
       id="clipPath17045">
      <path
         d="m106.32 211.12h64.157v-38.729h-64.157z"
         id="path53" />
    </clipPath>
    <clipPath
       id="clipPath17061">
      <path
         d="m124.68 200.3h30.441v-46.969h-30.441z"
         id="path56" />
    </clipPath>
    <clipPath
       id="clipPath17081">
      <path
         d="m0 500h750v-500h-750z"
         id="path59" />
    </clipPath>
    <clipPath
       id="clipPath17093">
      <path
         d="m0 500h750v-500h-750z"
         id="path62" />
    </clipPath>
    <clipPath
       id="clipPath17129">
      <path
         d="m541.23 232.54h0.519v-9.016h-0.519z"
         id="path65" />
    </clipPath>
    <clipPath
       id="clipPath17221">
      <path
         d="m488.86 54.83h38.933v-3.1539h-38.933z"
         id="path68" />
    </clipPath>
    <clipPath
       id="clipPath17273">
      <path
         d="m429.45 319.77h9.206v-18.064h-9.206z"
         id="path71" />
    </clipPath>
    <clipPath
       id="clipPath17309">
      <path
         d="m483.85 372.22h25.205v-17.004h-25.205z"
         id="path74" />
    </clipPath>
    <clipPath
       id="clipPath17357">
      <path
         d="m514.34 324.38h6.249v-49.945h-6.249z"
         id="path77" />
    </clipPath>
    <clipPath
       id="clipPath17393">
      <path
         d="m0 500h750v-500h-750z"
         id="path80" />
    </clipPath>
  </defs>
  <g
     transform="translate(0 -156.1)"
     id="g963">
    <g
       transform="matrix(.35278 0 0 -.35278 -13.607 314.85)"
       id="g961">
      <g
         clip-path="url(#clipPath16309)"
         id="g251">
        <g
           class="firstleft rotate"
           id="g101">
          <g
             transform="translate(444.55 408.81)"
             id="g87">
            <path
               d="m0 0c3.326-22.892-12.577-44.152-35.521-47.487-22.945-3.335-44.242 12.519-47.568 35.412-3.328 22.891 12.576 44.152 35.521 47.486 22.944 3.335 44.242-12.52 47.568-35.411"
               id="path85" />
          </g>
          <g
             transform="translate(434.67 407.37)"
             id="g91">
            <path
               d="m0 0c2.535-17.444-9.584-33.646-27.07-36.188-17.485-2.541-33.715 9.542-36.25 26.985-2.534 17.446 9.585 33.648 27.069 36.189 17.485 2.54 33.715-9.541 36.251-26.986"
               fill="#ececec"
               id="path89" />
          </g>
          <g
             transform="translate(434.52 408.36)"
             id="g95">
            <path
               d="m0 0c-0.191-0.035-0.528 1.335-1.391 3.686-0.872 2.334-2.337 5.681-5.062 9.172-1.36 1.738-3.026 3.504-5.027 5.144-2.014 1.621-4.343 3.138-6.991 4.322-1.32 0.596-2.71 1.13-4.169 1.541-1.455 0.419-2.966 0.766-4.528 0.963-1.559 0.201-3.16 0.32-4.785 0.278-1.625-0.038-3.269-0.194-4.915-0.475-1.643-0.303-3.241-0.722-4.778-1.244-1.542-0.521-3.003-1.184-4.399-1.909-1.399-0.723-2.699-1.569-3.921-2.463-1.228-0.889-2.348-1.869-3.384-2.882-2.077-2.023-3.743-4.251-5.074-6.465-1.314-2.228-2.27-4.46-2.949-6.56-1.355-4.215-1.578-7.861-1.592-10.353 1e-3 -2.503 0.157-3.905-0.035-3.938-0.141-0.027-0.619 1.323-0.918 3.887-0.281 2.549-0.33 6.373 0.881 10.89 0.608 2.25 1.524 4.658 2.847 7.077 1.338 2.404 3.055 4.833 5.24 7.051 1.087 1.111 2.273 2.185 3.579 3.161 1.301 0.983 2.691 1.911 4.191 2.707 1.497 0.799 3.072 1.525 4.732 2.096 1.657 0.572 3.382 1.028 5.152 1.354 1.775 0.303 3.55 0.468 5.303 0.501 1.755 0.035 3.482-0.106 5.163-0.34 1.682-0.23 3.308-0.623 4.866-1.098 1.562-0.467 3.046-1.067 4.449-1.735 2.814-1.331 5.263-3.019 7.349-4.817 2.071-1.815 3.764-3.761 5.109-5.664 2.693-3.824 3.964-7.43 4.579-9.921 0.603-2.511 0.62-3.943 0.478-3.966"
               fill="#e1e1e1"
               id="path93" />
          </g>
          <g
             transform="translate(411.29 394.85)"
             id="g99">
            <path
               d="m0 0c-0.275 1.721-1.85 2.425-4.08 2.825l1.085-6.781c2.371 0.934 3.247 2.384 2.995 3.956m-10.347 10.488-1.118 6.976c-2.509-1.006-3.311-2.596-3.053-4.218 0.276-1.719 1.9-2.417 4.171-2.758m8.39-20.929 0.882-5.503-4.913-0.785-0.858 5.354c-4.911-0.483-9.822 0.291-12.862 1.971l1.741 6.427c2.748-1.425 6.497-2.185 10.091-1.962l-1.314 8.206c-5.666 0.451-12.049 1.294-13.174 8.32-0.833 5.208 2.233 10.285 9.854 12.411l-0.874 5.455 4.914 0.786 0.858-5.356c3.731 0.295 7.474-0.112 10.452-1.399l-1.487-6.438c-2.735 1.024-5.423 1.45-7.928 1.353l1.338-8.353c5.657-0.403 11.943-1.263 13.051-8.189 0.819-5.111-2.208-10.13-9.771-12.298"
               fill="#1a2e35"
               id="path97" />
          </g>
        </g>
        <g
           transform="translate(663.69 228.03)"
           id="g105">
          <path
             d="m0 0s-9.307 5.38-18.932-16.687c-9.624-22.068-13.015-34.665-13.015-34.665s-2.615-4.659-5.872-1.912c-3.258 2.746-7.979 10.811-13.127 8.998-5.339-1.88-6.763-8.049-5.192-16.895 1.573-8.847 4.304-28.355 4.544-30.119 0.237-1.733-0.606-4.358-3.125-2.842s-17.369 16.179-23.905 8.716c-6.535-7.463 1.893-31.388 2.764-34.022 0.871-2.633 0.416-3.806-0.816-4.546-1.231-0.738-5.758 4.661-10.152 8.658-4.395 3.998-10.191 7.862-13.601 3.24-3.41-4.621-3.487-22.958 15.681-51.581l9.75-12.682 15.96 1.852c33.915 6.045 47.07 18.817 48.035 24.479 0.964 5.662-5.84 7.157-11.768 7.551-5.927 0.393-12.956-0.091-13.278 1.309-0.322 1.399 0.209 2.542 2.71 3.74s25.581 11.72 26.425 21.605c0.843 9.884-20.02 10.412-22.858 11.176-2.839 0.764-1.534 3.19-0.122 4.223 1.438 1.05 17.386 12.612 24.849 17.616 7.463 5.003 10.92 10.309 8.571 15.459-2.264 4.965-11.348 2.772-15.587 3.214-4.238 0.442-2.694 5.557-2.694 5.557s6.722 11.18 15.943 33.418c9.222 22.24-1.384 25.236-1.384 25.236"
             fill="#1a2e35"
             id="path103" />
        </g>
        <g
           transform="translate(589.29 54.998)"
           id="g109">
          <path
             d="m0 0c6.833 16.308 16.465 38.756 27.187 63.519 10.718 24.753 20.405 47.173 27.328 63.44 3.447 8.12 6.239 14.699 8.181 19.273 0.961 2.256 1.71 4.017 2.231 5.238 0.253 0.579 0.45 1.03 0.593 1.357 0.136 0.305 0.219 0.455 0.219 0.455s-0.049-0.165-0.168-0.476c-0.131-0.332-0.31-0.79-0.543-1.378-0.497-1.231-1.215-3.004-2.135-5.278-1.861-4.581-4.602-11.189-8.022-19.341-6.832-16.308-16.463-38.754-27.182-63.508-10.721-24.763-20.409-47.185-27.332-63.452"
             fill="#e1e1e1"
             id="path107" />
        </g>
        <g
           transform="translate(618.89 172.22)"
           id="g113">
          <path
             d="m0 0c0.035 0.012 0.203-0.364 0.477-1.056 0.277-0.69 0.645-1.701 1.088-2.955 0.881-2.508 2.007-6.004 3.176-9.885 1.133-3.821 2.157-7.275 2.949-9.947 0.356-1.18 0.659-2.184 0.907-3.01 0.216-0.709 0.319-1.109 0.284-1.122-0.035-0.012-0.206 0.363-0.485 1.053-0.275 0.692-0.645 1.703-1.075 2.961-0.856 2.518-1.936 6.027-3.104 9.907-1.159 3.811-2.208 7.257-3.02 9.922-0.361 1.18-0.669 2.183-0.922 3.007-0.212 0.712-0.311 1.112-0.275 1.125"
             fill="#e1e1e1"
             id="path111" />
        </g>
        <g
           transform="translate(629.25 144.05)"
           id="g117">
          <path
             d="M 0,0 C -0.051,0.143 7.053,2.785 15.863,5.902 24.677,9.02 31.86,11.431 31.911,11.288 31.962,11.146 24.859,8.503 16.046,5.386 7.235,2.269 0.051,-0.143 0,0"
             fill="#e1e1e1"
             id="path115" />
        </g>
        <g
           transform="translate(611.08 106.77)"
           id="g121">
          <path
             d="m0 0c-1e-3 0.037 0.418 0.084 1.175 0.135 0.875 0.052 1.944 0.115 3.205 0.189 2.704 0.162 6.438 0.398 10.55 0.806 4.113 0.398 7.823 0.886 10.507 1.258 1.25 0.172 2.312 0.316 3.18 0.435 0.752 0.098 1.172 0.134 1.178 0.097 7e-3 -0.037-0.399-0.145-1.142-0.307-0.742-0.162-1.819-0.376-3.156-0.608-2.674-0.471-6.388-1.021-10.515-1.421-4.124-0.409-7.874-0.584-10.586-0.647-1.358-0.026-2.457-0.034-3.216-0.015-0.759 0.014-1.179 0.04-1.18 0.078"
             fill="#e1e1e1"
             id="path119" />
        </g>
        <g
           transform="translate(596.09 130.18)"
           id="g125">
          <path
             d="m0 0c0.031 0.021 0.274-0.283 0.687-0.851 0.413-0.567 0.995-1.398 1.704-2.43 1.419-2.066 3.346-4.941 5.448-8.134 2.102-3.194 3.979-6.103 5.315-8.223 0.668-1.06 1.2-1.924 1.558-2.527s0.541-0.946 0.51-0.967c-0.033-0.02-0.276 0.283-0.688 0.85s-0.994 1.398-1.704 2.43c-1.418 2.067-3.347 4.942-5.449 8.136-2.101 3.194-3.979 6.102-5.314 8.222-0.668 1.059-1.201 1.923-1.558 2.526-0.358 0.604-0.541 0.947-0.509 0.968"
             fill="#e1e1e1"
             id="path123" />
        </g>
        <g
           transform="translate(575.87 99.313)"
           id="g129">
          <path
             d="m0 0c0.031 0.021 0.338-0.371 0.866-1.098 0.58-0.823 1.316-1.865 2.194-3.108 1.832-2.638 4.331-6.304 7.063-10.37 2.732-4.069 5.182-7.769 6.932-10.462 0.819-1.282 1.506-2.357 2.048-3.205 0.473-0.764 0.72-1.196 0.688-1.217-0.03-0.021-0.338 0.371-0.865 1.098-0.581 0.823-1.317 1.865-2.194 3.108-1.832 2.638-4.331 6.304-7.064 10.372-2.732 4.067-5.181 7.767-6.931 10.46-0.819 1.282-1.506 2.357-2.048 3.205-0.473 0.764-0.72 1.196-0.689 1.217"
             fill="#e1e1e1"
             id="path127" />
        </g>
        <g
           transform="translate(595.38 70.691)"
           id="g133">
          <path
             d="m0 0c-2e-3 0.037 0.526 0.108 1.483 0.206 1.062 0.101 2.423 0.23 4.055 0.385 3.423 0.326 8.149 0.792 13.351 1.45 5.205 0.65 9.901 1.36 13.298 1.896 1.619 0.251 2.97 0.462 4.023 0.627 0.951 0.144 1.48 0.206 1.488 0.168 7e-3 -0.037-0.51-0.17-1.449-0.378-0.94-0.208-2.306-0.486-3.997-0.8-3.384-0.633-8.08-1.406-13.295-2.057-5.212-0.659-9.953-1.064-13.388-1.293-1.717-0.109-3.108-0.183-4.071-0.211-0.963-0.031-1.495-0.031-1.498 7e-3"
             fill="#e1e1e1"
             id="path131" />
        </g>
        <g
           transform="translate(308.4 160.34)"
           id="g137">
          <path
             d="m0 0-190.59 59.326c-4.897 1.524-7.631 6.729-6.107 11.625l36.649 117.74c1.524 4.896 6.729 7.63 11.626 6.106l190.59-59.328c4.896-1.524 7.629-6.729 6.105-11.625l-36.648-117.74c-1.524-4.896-6.729-7.629-11.626-6.105"
             fill="#e1e1e1"
             id="path135" />
        </g>
        <g
           transform="translate(318.93 271.08)"
           id="g141">
          <path
             d="m0 0c-2.471-7.941-10.913-12.375-18.854-9.903-7.942 2.472-12.375 10.914-9.902 18.855 2.472 7.941 10.913 12.374 18.853 9.903 7.941-2.473 12.375-10.913 9.903-18.855"
             fill="#fff"
             id="path139" />
        </g>
        <g
           transform="translate(323.68 284.5)"
           id="g145">
          <path
             d="m0 0c-6.809 0.858-13.481-3.264-15.59-10.041-2.368-7.602 1.892-15.714 9.496-18.083 3.685-1.147 7.595-0.789 11.011 1.003 3.415 1.795 5.927 4.811 7.073 8.496 2.366 7.603-1.893 15.715-9.497 18.084-0.827 0.257-1.661 0.437-2.493 0.541m-3.728-29.894c-0.918 0.116-1.831 0.313-2.732 0.595-8.252 2.57-12.875 11.374-10.306 19.624 2.568 8.252 11.369 12.879 19.625 10.309 8.251-2.57 12.874-11.375 10.307-19.626-1.245-3.997-3.971-7.271-7.677-9.218-2.872-1.508-6.066-2.081-9.217-1.684"
             fill="#fff"
             id="path143" />
        </g>
        <g
           transform="translate(142.58 265.47)"
           id="g149">
          <path
             d="m0 0-3.6-11.565-1.189 0.37 3.27 10.507-2.725 0.848 0.329 1.058z"
             fill="#fff"
             id="path147" />
        </g>
        <g
           transform="translate(151.2 251.26)"
           id="g153">
          <path
             d="m0 0-0.328-1.058-8.111 2.525 0.262 0.843 6.273 3.212c1.705 0.881 2.196 1.581 2.443 2.374 0.417 1.339-0.269 2.458-2.036 3.007-1.355 0.422-2.524 0.333-3.557-0.305l-0.616 0.989c1.221 0.779 2.843 0.927 4.611 0.377 2.347-0.73 3.464-2.383 2.861-4.316-0.344-1.107-1-1.99-3.027-3.027l-5.135-2.642z"
             fill="#fff"
             id="path151" />
        </g>
        <g
           transform="translate(164 249.46)"
           id="g157">
          <path
             d="m0 0-2.313 0.72-0.946-3.041-1.189 0.371 0.945 3.04-6.525 2.032 0.268 0.858 8.516 5.758 1.321-0.411-8.239-5.627 5.022-1.563 0.833 2.676 1.156-0.36-0.833-2.676 2.314-0.72z"
             fill="#fff"
             id="path155" />
        </g>
        <g
           transform="translate(181.72 243.94)"
           id="g161">
          <path
             d="m0 0-2.311 0.72-0.947-3.04-1.189 0.37 0.947 3.04-6.526 2.031 0.267 0.859 8.515 5.758 1.322-0.411-8.24-5.626 5.023-1.563 0.832 2.675 1.157-0.359-0.833-2.677 2.313-0.719z"
             fill="#fff"
             id="path159" />
        </g>
        <g
           transform="translate(191.94 241.16)"
           id="g165">
          <path
             d="m0 0c-0.611-1.966-2.462-3.075-5.287-2.195-1.67 0.519-3.075 1.591-3.684 2.778l0.872 0.761c0.501-1.008 1.648-1.981 3.135-2.444 1.966-0.612 3.305 0.023 3.742 1.427 0.463 1.486-0.176 2.7-3.115 3.615l-2.462 0.766 2.4 5.614 6.327-1.969-0.329-1.058-5.287 1.646-1.542-3.561 1.487-0.463c3.485-1.085 4.38-2.867 3.743-4.917"
             fill="#fff"
             id="path163" />
        </g>
        <g
           transform="translate(202.2 237.98)"
           id="g169">
          <path
             d="m0 0c0.474 1.52-0.347 2.844-2.131 3.399-1.768 0.55-3.313-0.165-3.76-1.602-0.396-1.273 0.287-2.807 2.285-3.429 1.67-0.52 3.129 0.095 3.606 1.632m1.185-0.333c-0.674-2.164-2.808-3.022-5.056-2.322-3.071 0.956-4.077 3.606-2.941 7.258 1.225 3.931 4.009 5.312 7.148 4.335 1.042-0.325 1.96-0.81 2.548-1.482l-0.779-0.809c-0.471 0.581-1.217 0.976-2.075 1.244-2.494 0.776-4.596-0.328-5.574-3.466-0.083-0.264-0.169-0.6-0.243-0.957 0.974 1.092 2.549 1.381 4.153 0.882 2.296-0.715 3.477-2.569 2.819-4.683"
             fill="#fff"
             id="path167" />
        </g>
        <g
           transform="translate(219.17 232.59)"
           id="g173">
          <path
             d="m0 0c-0.601-1.933-2.467-2.982-5.259-2.114-1.67 0.519-3.092 1.596-3.7 2.784l0.87 0.761c0.502-1.008 1.664-1.986 3.169-2.453 1.916-0.597 3.252-0.035 3.698 1.403 0.432 1.388-0.259 2.599-2.407 3.268l-0.826 0.256 0.272 0.876 4.455 3.017-5.914 1.841 0.33 1.057 7.434-2.313-0.263-0.843-4.552-3.095c2.438-0.904 3.269-2.594 2.693-4.445"
             fill="#fff"
             id="path171" />
        </g>
        <g
           transform="translate(229.62 229.44)"
           id="g177">
          <path
             d="m0 0c0.473 1.52-0.348 2.844-2.131 3.398-1.769 0.551-3.313-0.164-3.76-1.601-0.397-1.272 0.285-2.807 2.284-3.429 1.67-0.519 3.128 0.095 3.607 1.632m1.182-0.333c-0.673-2.164-2.807-3.022-5.053-2.322-3.074 0.956-4.079 3.606-2.941 7.258 1.224 3.931 4.009 5.312 7.147 4.335 1.041-0.325 1.959-0.81 2.547-1.482l-0.777-0.809c-0.471 0.582-1.217 0.977-2.077 1.244-2.494 0.777-4.595-0.327-5.572-3.466-0.083-0.264-0.17-0.6-0.244-0.956 0.974 1.092 2.55 1.38 4.152 0.881 2.297-0.714 3.477-2.568 2.818-4.683"
             fill="#fff"
             id="path175" />
        </g>
        <g
           transform="translate(243.97 233.91)"
           id="g181">
          <path
             d="m0 0-0.263-0.844-8.177-9.215-1.29 0.402 8.029 9.026-5.948 1.852-0.674-2.164-1.172 0.365 1.003 3.221z"
             fill="#fff"
             id="path179" />
        </g>
        <g
           transform="translate(260.5 228.77)"
           id="g185">
          <path
             d="m0 0-0.263-0.843-8.177-9.216-1.289 0.402 8.029 9.026-5.948 1.851-0.674-2.163-1.172 0.365 1.003 3.221z"
             fill="#fff"
             id="path183" />
        </g>
        <g
           transform="translate(265.81 221.55)"
           id="g189">
          <path
             d="m0 0c1.802-0.561 3.127-0.086 3.518 1.17 0.406 1.305-0.487 2.453-2.221 2.993-1.751 0.544-3.105 0.097-3.505-1.192-0.396-1.273 0.408-2.411 2.208-2.971m2.26-4.273c0.442 1.42-0.504 2.693-2.553 3.332-2.048 0.636-3.532 0.12-3.974-1.301-0.448-1.437 0.482-2.705 2.53-3.342 2.049-0.639 3.549-0.126 3.997 1.311m1.215-0.397c-0.638-2.049-2.767-2.781-5.526-1.922-2.775 0.863-4.065 2.66-3.428 4.709 0.433 1.388 1.529 2.115 3.115 2.148-1.028 0.827-1.399 1.903-1.024 3.109 0.586 1.883 2.553 2.559 4.998 1.797 2.446-0.761 3.716-2.443 3.129-4.327-0.375-1.206-1.308-1.875-2.641-1.968 1.303-0.932 1.804-2.175 1.377-3.546"
             fill="#fff"
             id="path187" />
        </g>
        <g
           transform="translate(280.42 218.85)"
           id="g193">
          <path
             d="m0 0c0.396 1.272-0.285 2.808-2.284 3.429-1.669 0.52-3.128-0.094-3.607-1.631-0.474-1.521 0.346-2.844 2.133-3.4 1.765-0.549 3.31 0.165 3.758 1.602m0.921-2.806c-1.223-3.931-4.01-5.311-7.147-4.335-1.042 0.326-1.96 0.81-2.547 1.483l0.776 0.808c0.472-0.581 1.219-0.976 2.078-1.244 2.494-0.776 4.596 0.327 5.572 3.466 0.083 0.265 0.17 0.6 0.244 0.957-0.975-1.092-2.551-1.38-4.153-0.882-2.295 0.715-3.477 2.569-2.818 4.683 0.674 2.164 2.807 3.022 5.053 2.323 3.074-0.957 4.079-3.606 2.942-7.259"
             fill="#fff"
             id="path191" />
        </g>
        <g
           transform="translate(294.84 218.08)"
           id="g197">
          <path
             d="m0 0-3.6-11.565-1.19 0.37 3.271 10.508-2.725 0.847 0.329 1.058z"
             fill="#fff"
             id="path195" />
        </g>
        <g
           transform="translate(303.46 203.87)"
           id="g201">
          <path
             d="m0 0-0.329-1.058-8.111 2.526 0.263 0.843 6.272 3.211c1.706 0.882 2.197 1.582 2.443 2.375 0.417 1.338-0.269 2.457-2.036 3.007-1.354 0.421-2.523 0.333-3.557-0.306l-0.616 0.99c1.221 0.778 2.844 0.927 4.612 0.376 2.345-0.73 3.462-2.383 2.861-4.316-0.345-1.106-1.001-1.99-3.027-3.026l-5.135-2.642z"
             fill="#fff"
             id="path199" />
        </g>
        <g
           transform="translate(314.54 202.9)"
           id="g205">
          <path
             d="m0 0c-0.601-1.933-2.468-2.983-5.262-2.114-1.667 0.519-3.089 1.596-3.697 2.783l0.87 0.761c0.502-1.008 1.664-1.986 3.167-2.453 1.917-0.597 3.252-0.035 3.699 1.404 0.433 1.387-0.26 2.599-2.406 3.267l-0.826 0.257 0.272 0.876 4.454 3.017-5.914 1.841 0.33 1.057 7.435-2.314-0.263-0.843-4.553-3.095c2.439-0.904 3.27-2.594 2.694-4.444"
             fill="#fff"
             id="path203" />
        </g>
        <g
           transform="translate(222.03 218.67)"
           id="g209">
          <path
             d="m0 0-1.563-5.021 92.63-28.834 1.563 5.021z"
             fill="#fff"
             id="path207" />
        </g>
        <g
           transform="translate(264.03 194.6)"
           id="g213">
          <path
             d="m0 0-1.563-5.021 47.507-14.79 1.566 5.023z"
             fill="#fff"
             id="path211" />
        </g>
        <g
           clip-path="url(#clipPath16445)"
           opacity=".5"
           id="g219">
          <g
             transform="translate(172.76 267.01)"
             id="g217">
            <path
               d="m0 0-29.391 9.148c-2.617 0.815-4.078 3.598-3.263 6.215l6.088 19.556c0.815 2.618 3.598 4.079 6.215 3.265l29.387-9.148c2.617-0.815 4.079-3.597 3.264-6.214l-6.085-19.557c-0.814-2.618-3.597-4.08-6.215-3.265"
               fill="#ececec"
               id="path215" />
          </g>
        </g>
        <g
           transform="translate(141.13 285.68)"
           id="g223">
          <path
             d="m0 0 0.582 1.862 20.01-6.23c2.308-0.717 4.773 0.576 5.493 2.887 0.718 2.31-0.595 4.807-2.885 5.49l-20.012 6.231 0.581 1.862 20.011-6.23c3.335-1.039 5.205-4.597 4.168-7.933-1.04-3.337-4.599-5.207-7.935-4.169z"
             fill="#e1e1e1"
             id="path221" />
        </g>
        <g
           transform="translate(167.86 282.97)"
           id="g227">
          <path
             d="m0 0 0.582 1.862 13.735-4.276-0.581-1.862z"
             fill="#e1e1e1"
             id="path225" />
        </g>
        <g
           transform="translate(256.98 289.44)"
           id="g231">
          <path
             d="m0 0-99.957 31.12 2.671 8.578 99.956-31.119z"
             fill="#fff"
             id="path229" />
        </g>
        <g
           class="firstleft2 rotate"
           id="g249">
          <g
             transform="translate(190.73 104.51)"
             id="g235">
            <path
               d="m0 0c2.104-14.479-7.955-27.925-22.466-30.034-14.512-2.11-27.982 7.918-30.085 22.396-2.105 14.479 7.954 27.925 22.466 30.034 14.511 2.109 27.981-7.918 30.085-22.396"
               id="path233" />
          </g>
          <g
             transform="translate(184.48 103.6)"
             id="g239">
            <path
               d="m0 0c1.603-11.033-6.062-21.28-17.121-22.888-11.058-1.606-21.323 6.035-22.927 17.068-1.602 11.033 6.062 21.28 17.121 22.887 11.058 1.607 21.323-6.034 22.927-17.067"
               fill="#ececec"
               id="path237" />
          </g>
          <g
             transform="translate(184.38 104.23)"
             id="g243">
            <path
               d="m0 0c-0.121-0.022-0.334 0.844-0.879 2.331-0.552 1.477-1.478 3.593-3.202 5.802-0.86 1.098-1.914 2.216-3.18 3.253-1.273 1.024-2.746 1.984-4.421 2.733-0.835 0.377-1.714 0.714-2.636 0.975-0.921 0.264-1.877 0.484-2.865 0.608-0.985 0.128-1.998 0.203-3.026 0.177-1.027-0.025-2.067-0.123-3.108-0.301-1.039-0.192-2.05-0.457-3.023-0.787-0.974-0.329-1.899-0.748-2.781-1.207-0.885-0.457-1.708-0.992-2.481-1.558-0.776-0.562-1.485-1.181-2.139-1.823-1.314-1.279-2.368-2.688-3.21-4.089-0.831-1.409-1.435-2.82-1.865-4.148-0.857-2.666-0.997-4.972-1.007-6.548 1e-3 -1.583 0.099-2.471-0.022-2.49-0.089-0.019-0.391 0.836-0.58 2.458-0.178 1.612-0.209 4.03 0.557 6.886 0.385 1.423 0.964 2.947 1.8 4.477 0.846 1.521 1.933 3.057 3.315 4.46 0.687 0.702 1.437 1.381 2.263 1.999 0.823 0.621 1.702 1.208 2.651 1.712 0.947 0.505 1.943 0.964 2.992 1.325 1.049 0.362 2.139 0.651 3.259 0.857 1.123 0.192 2.245 0.295 3.354 0.316 1.109 0.022 2.203-0.066 3.265-0.214 1.064-0.145 2.092-0.394 3.078-0.695 0.988-0.295 1.927-0.675 2.814-1.098 1.779-0.841 3.328-1.909 4.648-3.046 1.31-1.148 2.38-2.379 3.231-3.582 1.703-2.419 2.507-4.7 2.896-6.275 0.382-1.588 0.391-2.493 0.302-2.508"
               fill="#e1e1e1"
               id="path241" />
          </g>
          <g
             transform="translate(169.69 95.679)"
             id="g247">
            <path
               d="m0 0c-0.174 1.089-1.169 1.534-2.581 1.787l0.686-4.288c1.5 0.59 2.054 1.507 1.895 2.501m-6.543 6.634-0.708 4.412c-1.587-0.637-2.095-1.643-1.931-2.668 0.175-1.087 1.201-1.528 2.639-1.744m5.305-13.238 0.558-3.48-3.108-0.496-0.542 3.386c-3.106-0.306-6.212 0.184-8.135 1.247l1.102 4.065c1.738-0.901 4.109-1.382 6.382-1.241l-0.832 5.189c-3.583 0.287-7.62 0.819-8.332 5.263-0.526 3.294 1.413 6.504 6.233 7.85l-0.552 3.449 3.107 0.498 0.543-3.388c2.359 0.187 4.727-0.071 6.61-0.884l-0.941-4.072c-1.729 0.647-3.43 0.916-5.013 0.856l0.846-5.284c3.578-0.254 7.553-0.798 8.254-5.179 0.518-3.233-1.396-6.406-6.18-7.779"
               fill="#1a2e35"
               id="path245" />
          </g>
        </g>
      </g>
      <g
         clip-path="url(#clipPath16489)"
         id="g253" />
      <g
         clip-path="url(#clipPath16501)"
         id="g281">
        <g
           transform="translate(587.43 93.455)"
           id="g257">
          <path
             d="m0 0c-1.938-2.769-5.706-1.852-7.453-0.162-1.746 1.69-2.485 4.14-3.157 6.475-1.536 5.337-3.084 10.936-1.943 16.371 0.342 1.625 0.949 3.245 2.091 4.45 1.142 1.206 2.898 1.923 4.503 1.499 1.899-0.502 3.08-2.363 3.934-4.133 2.508-5.203 3.837-10.971 3.856-16.747 9e-3 -2.697-0.309-5.525-1.831-7.753"
             fill="#388ca9"
             id="path255" />
        </g>
        <g
           clip-path="url(#clipPath16513)"
           opacity=".2"
           id="g259" />
        <g
           transform="translate(580.17 79.433)"
           id="g263">
          <path
             d="m0 0c-3.17 1.636-6.903 1.849-10.423 1.267-1.89-0.313-3.862-0.878-5.149-2.298-1.286-1.421-1.531-3.92-0.053-5.141 0.879-0.726 2.105-0.837 3.246-0.823 2.756 0.031 5.813 0.516 8.014-1.141 1.256-0.946 2.092-2.518 3.594-2.983 1.468-0.455 3.126 0.411 3.905 1.737s0.804 2.984 0.442 4.478c0 0-0.383 3.257-3.576 4.904"
             fill="#50c7f1"
             id="path261" />
        </g>
        <g
           transform="translate(592.75 89.482)"
           id="g267">
          <path
             d="m0 0c-2.105 2.498-2.505 6.142-1.568 9.271 0.936 3.129 3.052 5.792 5.491 7.965 2.859 2.548 6.22 4.532 9.833 5.802 1.422 0.5 2.922 0.895 4.423 0.751 1.5-0.143 3.01-0.91 3.711-2.245 1.034-1.974 0.042-4.367-1.032-6.32-1.889-3.442-4.051-6.733-6.458-9.835-1.935-2.495-4.153-4.957-7.103-6.085s-6.015-0.995-7.578 1.05"
             fill="#50c7f1"
             id="path265" />
        </g>
        <g
           transform="translate(587.56 51.689)"
           id="g271">
          <path
             d="m0 0c-0.036-2e-3 -0.096 0.446-0.176 1.258-0.089 0.916-0.201 2.065-0.334 3.433-0.16 1.445-0.371 3.164-0.772 5.037-0.4 1.867-1.027 3.891-1.83 5.944-0.833 2.04-1.849 3.894-3.035 5.378-1.179 1.49-2.55 2.568-3.838 3.19-1.284 0.634-2.436 0.892-3.232 1.006-0.803 0.083-1.252 0.147-1.253 0.182 0 0.036 0.45 0.042 1.276 0.019 0.816-0.054 2.015-0.261 3.369-0.877 1.358-0.601 2.811-1.697 4.048-3.217 1.246-1.515 2.298-3.411 3.146-5.487 0.819-2.089 1.436-4.134 1.818-6.041 0.38-1.905 0.555-3.643 0.669-5.1 0.109-1.458 0.151-2.639 0.17-3.454 0.019-0.817 9e-3 -1.269-0.026-1.271"
             fill="#1a2e35"
             id="path269" />
        </g>
        <g
           transform="translate(587.32 54.331)"
           id="g275">
          <path
             d="m0 0c-0.018 1e-3 -0.028 0.202-0.033 0.584 1e-3 0.438 3e-3 0.991 4e-3 1.67 5e-3 1.448 4e-3 3.545-0.075 6.134-0.127 5.177-0.573 12.325-1.434 20.181-0.867 7.859-2.017 14.928-3.066 19.999-0.247 1.272-0.497 2.416-0.731 3.417-0.225 1.005-0.415 1.87-0.6 2.571-0.158 0.659-0.288 1.196-0.39 1.623-0.083 0.372-0.119 0.57-0.102 0.575 0.018 6e-3 0.086-0.183 0.203-0.547 0.127-0.42 0.287-0.949 0.485-1.6 0.215-0.694 0.435-1.553 0.686-2.553 0.263-0.998 0.537-2.14 0.809-3.408 1.142-5.066 2.352-12.144 3.223-20.02 0.862-7.872 1.25-15.041 1.285-20.231 0.031-2.596-0.025-4.697-0.091-6.147-0.041-0.678-0.074-1.229-0.102-1.668-0.029-0.381-0.052-0.581-0.071-0.58"
             fill="#1a2e35"
             id="path273" />
        </g>
        <g
           transform="translate(587.29 68.157)"
           id="g279">
          <path
             d="m0 0c-0.036 1e-3 -0.03 0.62 0.013 1.743 0.063 1.121 0.217 2.741 0.533 4.725 0.335 1.979 0.803 4.33 1.537 6.884 0.698 2.563 1.658 5.331 2.878 8.145 2.388 5.664 5.632 10.295 8.454 13.163 0.661 0.761 1.398 1.31 1.988 1.849 0.306 0.258 0.576 0.514 0.85 0.719 0.276 0.19 0.533 0.367 0.771 0.531 0.929 0.636 1.45 0.97 1.468 0.94 0.084-0.113-2.08-1.386-4.811-4.293-2.721-2.9-5.874-7.499-8.244-13.115-1.208-2.791-2.175-5.532-2.894-8.07-0.755-2.53-1.256-4.857-1.635-6.816-0.36-1.964-0.568-3.567-0.694-4.677-0.104-1.113-0.178-1.73-0.214-1.728"
             fill="#1a2e35"
             id="path277" />
        </g>
      </g>
      <g
         clip-path="url(#clipPath16549)"
         id="g477">
        <g
           transform="translate(370.01 147.48)"
           id="g285">
          <path
             d="m0 0-154.79 163.73c-1.631 1.726-1.554 4.447 0.171 6.078l101.59 96.039c1.725 1.632 4.447 1.555 6.078-0.17l154.79-163.73c1.632-1.726 1.555-4.447-0.17-6.079l-101.59-96.039c-1.725-1.631-4.447-1.555-6.078 0.171"
             fill="#388ca9"
             id="path283" />
        </g>
        <g
           clip-path="url(#clipPath16561)"
           opacity=".3"
           id="g287" />
        <g
           transform="translate(476.72 250.62)"
           id="g291">
          <path
             d="m0 0-152.52 161.33c-2.256 2.386-6.02 2.492-8.406 0.236l-28.863-27.287c-0.577-0.545-0.856-1.344-0.717-2.124 2.881-16.137 14.429-30.568 28.18-40.126 16.629-11.557 36.325-17.637 55.049-25.35 18.724-7.712 37.506-17.872 48.732-34.726 10.593-15.904 13.098-35.633 18.484-53.967 1.437-4.894 3.238-9.84 5.443-14.577 0.687-1.477 2.614-1.857 3.797-0.739l30.59 28.92c2.386 2.256 2.492 6.02 0.236 8.406"
             fill="#50c7f1"
             id="path289" />
        </g>
        <g
           transform="translate(320.37 367.04)"
           id="g295">
          <path
             d="m0 0c0.672 0.636 0.507 1.45-0.399 2.408l-2.036 2.154-1.972-1.864 2.036-2.154c0.906-0.959 1.686-1.19 2.371-0.544m0.791 7.612-1.881-1.779 1.735-1.834c0.851-0.9 1.634-1.09 2.261-0.498 0.627 0.594 0.471 1.376-0.38 2.276zm0.772-9.654c-1.379-1.304-3.212-0.963-5.195 1.134l-3.902 4.127 7.979 7.543 3.687-3.899c1.886-1.995 2.023-3.806 0.781-4.982-0.798-0.754-1.801-0.926-2.757-0.599 0.555-1.159 0.41-2.376-0.593-3.324"
             fill="#fff"
             id="path293" />
        </g>
        <g
           transform="translate(328.61 359.81)"
           id="g299">
          <path
             d="m0 0 1.859 4.153-4.252-1.623zm-0.853-1.907-3.502 3.705-2.379-0.909-1.788 1.891 11.341 3.988 1.725-1.825-4.606-11.111-1.833 1.938z"
             fill="#fff"
             id="path297" />
        </g>
        <g
           transform="translate(344.22 353.04)"
           id="g303">
          <path
             d="m0 0-7.979-7.543-1.434 1.516 1.084 8.559-4.845-4.581-1.725 1.824 7.98 7.544 1.444-1.528-1.094-8.546 4.844 4.58z"
             fill="#fff"
             id="path301" />
        </g>
        <g
           transform="translate(343.91 343.67)"
           id="g307">
          <path
             d="m0 0-2.13 0.015-2.018-1.908-1.736 1.837 7.979 7.543 1.736-1.836-3.727-3.524 7.067-9e-3 1.94-2.051-6.681-0.057-1.115-7.681-2.037 2.155z"
             fill="#fff"
             id="path305" />
        </g>
        <g
           transform="translate(287.34 335.12)"
           id="g311">
          <path
             d="m0 0-1.385 1.465-1.926-1.82-0.711 0.753 1.925 1.82-3.907 4.133 0.544 0.514 8.524 0.709 0.792-0.838-8.27-0.726 3.007-3.18 1.694 1.602 0.692-0.732-1.694-1.602 1.384-1.465z"
             fill="#fff"
             id="path309" />
        </g>
        <g
           transform="translate(292.61 329.91)"
           id="g315">
          <path
             d="m0 0c-1.225-1.157-3.007-1.158-4.678 0.61-1 1.057-1.593 2.419-1.552 3.528l0.943 0.197c-0.046-0.936 0.399-2.119 1.299-3.072 1.148-1.214 2.346-1.349 3.256-0.489 0.879 0.831 0.87 1.993-0.416 3.353l-0.495 0.523 0.555 0.525 4.462 0.374-3.541 3.746 0.669 0.633 4.452-4.709-0.535-0.504-4.563-0.392c1.4-1.649 1.315-3.215 0.144-4.323"
             fill="#fff"
             id="path313" />
        </g>
        <g
           transform="translate(298.26 324.04)"
           id="g319">
          <path
             d="m0 0c-1.245-1.177-3.04-1.228-4.731 0.562-0.999 1.056-1.582 2.407-1.541 3.516l0.943 0.197c-0.048-0.935 0.389-2.109 1.278-3.05 1.177-1.245 2.407-1.33 3.297-0.49 0.941 0.89 0.974 2.03-0.787 3.893l-1.474 1.559 4.029 3.095 3.789-4.008-0.67-0.633-3.165 3.348-2.572-1.954 0.892-0.942c2.087-2.207 2.009-3.866 0.712-5.093"
             fill="#fff"
             id="path317" />
        </g>
        <g
           transform="translate(303.67 318.34)"
           id="g323">
          <path
             d="m0 0c0.963 0.911 0.908 2.205-0.16 3.335-1.058 1.12-2.471 1.23-3.381 0.37-0.806-0.762-0.937-2.154 0.26-3.419 0.999-1.057 2.308-1.205 3.281-0.286m0.725-0.724c-1.371-1.296-3.27-1.048-4.615 0.375-1.839 1.945-1.489 4.279 0.824 6.465 2.49 2.354 5.073 2.22 6.953 0.233 0.623-0.66 1.092-1.386 1.245-2.114l-0.895-0.269c-0.104 0.613-0.486 1.204-1 1.748-1.494 1.58-3.468 1.637-5.456-0.243-0.168-0.159-0.367-0.367-0.567-0.596 1.153 0.396 2.413-0.037 3.373-1.052 1.375-1.454 1.477-3.281 0.138-4.547"
             fill="#fff"
             id="path321" />
        </g>
        <g
           transform="translate(317.17 299.72)"
           id="g327">
          <path
             d="m0 0 0.65 3.923-3.963-0.418-0.792 0.837 4.883 0.494 0.719 4.604 0.792-0.837-0.593-3.69 3.719 0.384 0.771-0.817-4.638-0.459-0.746-4.869z"
             fill="#fff"
             id="path325" />
        </g>
        <g
           transform="translate(322.45 294.13)"
           id="g331">
          <path
             d="m0 0 0.65 3.923-3.963-0.419-0.792 0.838 4.883 0.493 0.719 4.605 0.792-0.837-0.592-3.691 3.718 0.384 0.772-0.816-4.638-0.46-0.747-4.869z"
             fill="#fff"
             id="path329" />
        </g>
        <g
           transform="translate(327.73 288.55)"
           id="g335">
          <path
             d="m0 0 0.65 3.923-3.963-0.419-0.792 0.838 4.883 0.494 0.719 4.604 0.792-0.837-0.593-3.691 3.719 0.385 0.772-0.817-4.639-0.459-0.746-4.869z"
             fill="#fff"
             id="path333" />
        </g>
        <g
           transform="translate(333.01 282.96)"
           id="g339">
          <path
             d="m0 0 0.65 3.923-3.963-0.419-0.792 0.838 4.883 0.494 0.719 4.604 0.792-0.837-0.592-3.691 3.718 0.385 0.772-0.817-4.639-0.459-0.746-4.869z"
             fill="#fff"
             id="path337" />
        </g>
        <g
           transform="translate(351.25 263.67)"
           id="g343">
          <path
             d="m0 0 0.651 3.923-3.964-0.419-0.792 0.838 4.883 0.494 0.72 4.604 0.792-0.837-0.593-3.69 3.718 0.384 0.772-0.817-4.638-0.459-0.747-4.869z"
             fill="#fff"
             id="path341" />
        </g>
        <g
           transform="translate(356.53 258.08)"
           id="g347">
          <path
             d="m0 0 0.65 3.923-3.963-0.419-0.792 0.838 4.883 0.493 0.719 4.605 0.792-0.837-0.592-3.691 3.718 0.385 0.772-0.817-4.638-0.459-0.747-4.87z"
             fill="#fff"
             id="path345" />
        </g>
        <g
           transform="translate(361.81 252.49)"
           id="g351">
          <path
             d="m0 0 0.651 3.923-3.964-0.419-0.792 0.838 4.883 0.493 0.72 4.605 0.792-0.837-0.593-3.691 3.718 0.385 0.772-0.817-4.638-0.459-0.747-4.869z"
             fill="#fff"
             id="path349" />
        </g>
        <g
           transform="translate(367.1 246.91)"
           id="g355">
          <path
             d="m0 0 0.65 3.923-3.963-0.419-0.792 0.838 4.883 0.493 0.719 4.605 0.792-0.837-0.592-3.691 3.718 0.384 0.772-0.816-4.638-0.46-0.747-4.869z"
             fill="#fff"
             id="path353" />
        </g>
        <g
           transform="translate(390.8 236.51)"
           id="g359">
          <path
             d="m0 0-7.324-6.924-0.712 0.753 6.654 6.291-1.633 1.728 0.67 0.632z"
             fill="#fff"
             id="path357" />
        </g>
        <g
           transform="translate(391.81 224.98)"
           id="g363">
          <path
             d="m0 0c-1.224-1.157-3.006-1.158-4.678 0.609-0.999 1.058-1.593 2.419-1.551 3.529l0.943 0.197c-0.047-0.937 0.398-2.119 1.3-3.072 1.146-1.214 2.344-1.349 3.255-0.489 0.878 0.831 0.87 1.993-0.416 3.353l-0.495 0.523 0.555 0.525 4.462 0.374-3.542 3.746 0.67 0.633 4.451-4.709-0.534-0.504-4.563-0.393c1.4-1.648 1.315-3.215 0.143-4.322"
             fill="#fff"
             id="path361" />
        </g>
        <g
           transform="translate(398.52 217.53)"
           id="g367">
          <path
             d="m0 0-1.385 1.465-1.926-1.82-0.711 0.752 1.925 1.821-3.907 4.133 0.544 0.514 8.524 0.708 0.791-0.838-8.269-0.725 3.007-3.18 1.694 1.602 0.692-0.732-1.695-1.602 1.386-1.465z"
             fill="#fff"
             id="path365" />
        </g>
        <g
           transform="translate(402.6 210.69)"
           id="g371">
          <path
             d="m0 0-0.669-0.633-4.857 5.137 0.533 0.505 5.861-0.226c1.598-0.055 2.237 0.253 2.74 0.728 0.847 0.801 0.807 1.891-0.252 3.01-0.811 0.86-1.696 1.271-2.705 1.228l-0.045 0.969c1.205 0.068 2.442-0.486 3.5-1.606 1.406-1.486 1.541-3.139 0.318-4.297-0.701-0.662-1.537-1.036-3.43-0.962l-4.803 0.175z"
             fill="#fff"
             id="path369" />
        </g>
        <g
           transform="translate(260.65 329.05)"
           id="g375">
          <path
             d="m0 0c1.054 0.996 2.571 0.9 3.601-0.189 0.571-0.603 0.828-1.315 0.74-2.023l-0.97 0.066c0.047 0.49-0.091 0.917-0.421 1.266-0.619 0.654-1.517 0.684-2.176 0.061s-0.68-1.521-0.061-2.176c0.33-0.349 0.748-0.511 1.245-0.486l0.012-0.973c-0.717-0.052-1.413 0.244-1.988 0.852-1.025 1.085-1.036 2.605 0.018 3.602"
             fill="#fff"
             id="path373" />
        </g>
        <g
           transform="translate(265.81 322.82)"
           id="g379">
          <path
             d="m0 0 0.814 1.818-1.861-0.71zm-0.374-0.836-1.534 1.623-1.042-0.398-0.783 0.828 4.968 1.746 0.755-0.798-2.017-4.867-0.803 0.848z"
             fill="#fff"
             id="path377" />
        </g>
        <g
           transform="translate(270.36 320.96)"
           id="g383">
          <path
             d="m0 0-0.623 0.659-1.218-1.152 0.623-0.659c0.468-0.494 0.933-0.527 1.313-0.169 0.384 0.363 0.373 0.826-0.095 1.321m-2.118-3.44 0.335 1.594-0.037 0.04-0.666 0.704-0.973-0.92-0.764 0.808 3.495 3.304 1.429-1.511c0.883-0.934 0.951-1.976 0.167-2.717-0.524-0.496-1.159-0.595-1.783-0.324l-0.381-1.848z"
             fill="#fff"
             id="path381" />
        </g>
        <g
           transform="translate(269.69 316.68)"
           id="g387">
          <path
             d="m0 0 0.869 0.301c0.063-0.497 0.328-1.078 0.726-1.498 0.453-0.48 0.796-0.523 1.011-0.319 0.654 0.618-1.716 2.224-0.418 3.452 0.595 0.562 1.542 0.549 2.48-0.444 0.416-0.439 0.736-0.988 0.838-1.506l-0.85-0.332c-0.122 0.501-0.349 0.921-0.641 1.23-0.453 0.479-0.807 0.493-1.027 0.286-0.644-0.609 1.721-2.221 0.439-3.434-0.585-0.553-1.543-0.54-2.487 0.459-0.523 0.553-0.886 1.268-0.94 1.805"
             fill="#fff"
             id="path385" />
        </g>
        <g
           transform="translate(280.49 311.57)"
           id="g391">
          <path
             d="m0 0-3.495-3.304-0.764 0.808 1.432 1.354-1.501 1.589-1.433-1.355-0.764 0.808 3.495 3.305 0.764-0.809-1.378-1.302 1.502-1.589 1.378 1.303z"
             fill="#fff"
             id="path389" />
        </g>
        <g
           transform="translate(282.16 306.3)"
           id="g395">
          <path
             d="m0 0c0.664 0.627 0.675 1.526 0.086 2.15-0.591 0.625-1.489 0.664-2.153 0.036-0.663-0.627-0.675-1.526-0.084-2.151 0.589-0.623 1.487-0.662 2.151-0.035m-2.841 3.005c1.039 0.982 2.571 0.901 3.616-0.204 1.037-1.097 1.042-2.634-1e-3 -3.62s-2.577-0.894-3.614 0.203c-1.044 1.104-1.039 2.639-1e-3 3.621"
             fill="#fff"
             id="path393" />
        </g>
        <g
           transform="translate(285.27 306.51)"
           id="g399">
          <path
             d="m0 0 0.764-0.808-2.836-2.681 1.657-1.753-0.659-0.623-2.421 2.561z"
             fill="#fff"
             id="path397" />
        </g>
        <g
           transform="translate(286.75 299.27)"
           id="g403">
          <path
             d="m0 0c0.657-0.694 1.5-0.757 2.169-0.125 0.67 0.633 0.654 1.479-2e-3 2.173l-0.699 0.739-2.166-2.048zm1.368 4.223 1.501-1.587c1.081-1.144 1.133-2.579 0.075-3.58-1.059-1-2.488-0.868-3.57 0.276l-1.501 1.587z"
             fill="#fff"
             id="path401" />
        </g>
        <g
           transform="translate(291.74 293.97)"
           id="g407">
          <path
             d="m0 0-0.649-0.614-2.558 2.706 3.495 3.304 2.497-2.641-0.649-0.613-1.737 1.837-0.759-0.718 1.534-1.622-0.629-0.595-1.534 1.623-0.809-0.765z"
             fill="#fff"
             id="path405" />
        </g>
        <g
           transform="translate(295.93 293.92)"
           id="g411">
          <path
             d="m0 0-0.623 0.659-1.218-1.152 0.623-0.659c0.468-0.494 0.933-0.528 1.313-0.169 0.384 0.363 0.373 0.826-0.095 1.321m-2.118-3.44 0.335 1.594-0.037 0.04-0.666 0.704-0.973-0.92-0.764 0.807 3.495 3.304 1.429-1.511c0.883-0.934 0.95-1.976 0.167-2.717-0.524-0.495-1.159-0.594-1.783-0.323l-0.381-1.848z"
             fill="#fff"
             id="path409" />
        </g>
        <g
           transform="translate(246.66 316.48)"
           id="g415">
          <path
             d="m0 0 1.857 0.116c-0.145-0.829-0.013-1.47 0.441-1.95 0.591-0.625 1.276-0.598 2.017 0.102l3.203 3.028-2.237 2.367 1.251 1.182 3.7-3.915-4.367-4.128c-1.664-1.573-3.273-1.51-4.773 0.077-0.855 0.905-1.263 2.03-1.092 3.121"
             fill="#fff"
             id="path413" />
        </g>
        <g
           transform="translate(251.97 310.87)"
           id="g419">
          <path
             d="m0 0c0.557 0.527 1.314 0.459 1.806-0.061 0.491-0.519 0.516-1.279-0.041-1.806-0.549-0.519-1.334-0.478-1.825 0.042-0.492 0.52-0.489 1.306 0.06 1.825"
             fill="#fff"
             id="path417" />
        </g>
        <g
           transform="translate(269.94 303.62)"
           id="g423">
          <path
             d="m0 0-8.816-4.163-1.582 1.674 3.158 5.792-6.004-2.782-1.574 1.665 4.642 8.577 1.528-1.616-3.296-5.993 6.233 2.887 1.364-1.443-3.316-6.049 6.253 2.942z"
             fill="#fff"
             id="path421" />
        </g>
        <g
           transform="translate(269.18 301.3)"
           id="g427">
          <path
             d="m0 0 1.418-1.5-5.174-4.893-1.419 1.5zm1.385 1.656c0.471 0.446 1.191 0.417 1.719-0.141 0.527-0.558 0.536-1.261 0.074-1.697-0.501-0.473-1.22-0.443-1.748 0.114-0.528 0.558-0.516 1.278-0.045 1.724"
             fill="#fff"
             id="path425" />
        </g>
        <g
           transform="translate(273.88 300.26)"
           id="g431">
          <path
             d="m0 0 1.418-1.5-7.136-6.748-1.419 1.501z"
             fill="#fff"
             id="path429" />
        </g>
        <g
           transform="translate(276.61 297.37)"
           id="g435">
          <path
             d="m0 0 1.418-1.5-7.136-6.747-1.419 1.5z"
             fill="#fff"
             id="path433" />
        </g>
        <g
           transform="translate(277.38 292.62)"
           id="g439">
          <path
             d="m0 0 1.418-1.5-5.174-4.893-1.419 1.501zm1.385 1.657c0.471 0.445 1.191 0.416 1.719-0.142 0.527-0.558 0.536-1.26 0.074-1.697-0.501-0.473-1.22-0.443-1.748 0.115-0.527 0.558-0.516 1.277-0.045 1.724"
             fill="#fff"
             id="path437" />
        </g>
        <g
           transform="translate(279.49 283.3)"
           id="g443">
          <path
             d="m0 0 0.529 0.5-0.974 1.03c-0.663 0.701-1.133 0.678-1.479 0.351-0.375-0.355-0.325-0.909 0.175-1.438 0.474-0.501 1.113-0.715 1.749-0.443m2.736-0.254-2.953-2.792-1.328 1.405 0.644 0.609c-0.734-0.167-1.495 0.136-2.212 0.895-1.146 1.212-1.155 2.57-0.26 3.416 0.914 0.864 2.159 0.819 3.649-0.758l1.128-1.193c0.645 0.609 0.656 1.349-0.109 2.157-0.517 0.548-1.238 0.943-1.89 1.036l0.539 1.529c0.941-0.185 1.953-0.812 2.735-1.639 1.492-1.578 1.625-3.183 0.057-4.665"
             fill="#fff"
             id="path441" />
        </g>
        <g
           transform="translate(291.78 272.97)"
           id="g447">
          <path
             d="m0 0-2.962-2.8-1.418 1.5 2.732 2.583c0.836 0.79 0.865 1.53 0.293 2.135-0.637 0.674-1.516 0.736-2.439-0.137l-2.597-2.455-1.418 1.5 2.732 2.583c0.836 0.791 0.884 1.511 0.293 2.135-0.627 0.664-1.506 0.726-2.429-0.147l-2.597-2.455-1.419 1.501 5.175 4.893 1.355-1.433-0.596-0.564c0.806 0.033 1.583-0.326 2.21-0.989 0.682-0.722 0.985-1.601 0.763-2.503 0.92 0.086 1.874-0.286 2.611-1.066 1.164-1.232 1.289-2.789-0.289-4.281"
             fill="#fff"
             id="path445" />
        </g>
        <g
           transform="translate(290.09 269.78)"
           id="g451">
          <path
             d="m0 0 1.55 0.518c0.137-0.743 0.599-1.636 1.2-2.272 0.655-0.692 1.083-0.779 1.372-0.506 0.846 0.801-2.975 3.108-0.908 5.063 0.982 0.928 2.511 0.698 3.939-0.813 0.673-0.712 1.255-1.655 1.43-2.419l-1.541-0.509c-0.192 0.783-0.578 1.384-1.023 1.855-0.637 0.673-1.122 0.762-1.392 0.508-0.884-0.837 2.927-3.154 0.888-5.082-0.962-0.909-2.49-0.661-3.955 0.889-0.828 0.875-1.424 1.987-1.56 2.768"
             fill="#fff"
             id="path449" />
        </g>
        <g
           transform="translate(353.81 207.75)"
           id="g455">
          <path
             d="m0 0c1.529 1.446 1.656 2.585 0.919 3.363-0.727 0.77-1.872 0.709-3.401-0.737-1.53-1.445-1.655-2.585-0.927-3.355 0.736-0.779 1.88-0.716 3.409 0.729m-3.974 4.204c2.222 2.101 4.646 2.061 6.211 0.405 1.573-1.664 1.468-4.077-0.755-6.177-2.221-2.1-4.636-2.07-6.209-0.407-1.565 1.656-1.469 4.079 0.753 6.179"
             fill="#fff"
             id="path453" />
        </g>
        <g
           transform="translate(358.52 200.13)"
           id="g459">
          <path
             d="m0 0c0.615 0.582 0.582 1.407-0.072 2.099-0.646 0.682-1.524 0.764-2.111 0.21-0.577-0.546-0.59-1.38 0.119-2.129 0.627-0.664 1.448-0.762 2.064-0.18m1.505-1.438c-1.376-1.3-3.305-0.994-4.651 0.43-1.755 1.857-1.683 4.112 0.491 6.167 2.327 2.2 4.954 2.023 6.872-6e-3 0.674-0.712 1.165-1.559 1.312-2.312l-1.69-0.506c-0.105 0.612-0.427 1.127-0.854 1.579-1.065 1.126-2.41 1.22-3.745 0.049 0.768-0.022 1.507-0.399 2.17-1.1 1.228-1.299 1.364-3.101 0.095-4.301"
             fill="#fff"
             id="path457" />
        </g>
        <g
           transform="translate(368.96 201.2)"
           id="g463">
          <path
             d="m0 0 1.264-1.337-12.062-5.392-1.264 1.336z"
             fill="#fff"
             id="path461" />
        </g>
        <g
           transform="translate(368.1 188.43)"
           id="g467">
          <path
             d="m0 0-1.27-1.2-4.811 5.088 1.01 0.954 4.909-0.279c1.131-0.058 1.578 0.163 1.905 0.471 0.529 0.5 0.49 1.157-0.183 1.869-0.545 0.577-1.229 0.858-1.991 0.759l-0.342 1.825c1.251 0.2 2.633-0.28 3.778-1.491 1.419-1.501 1.595-3.228 0.373-4.384-0.653-0.618-1.423-0.998-3.19-0.884l-2.925 0.167z"
             fill="#fff"
             id="path465" />
        </g>
        <g
           transform="translate(374.59 181.86)"
           id="g471">
          <path
             d="m0 0-1.037 1.097-1.413-1.337-1.437 1.518 1.414 1.337-3.428 3.627 1.048 0.991 7.272 0.863 1.546-1.635-6.832-0.884 1.709-1.808 1.26 1.191 1.392-1.472-1.261-1.191 1.037-1.096z"
             fill="#fff"
             id="path469" />
        </g>
        <g
           transform="translate(406.18 265.15)"
           id="g475">
          <path
             d="m0 0c3.792 5.836 2.305 13.597-2.792 18.337-1.594 1.483-3.406 2.694-5.309 3.486-4.874 2.032-11.325 0.55-13.882-4.071-2.089-3.771-1.246-8.477 0.215-12.534 1.53-4.248 4.014-8.591 8.217-10.241 4.049-1.589 8.913-0.131 11.939 2.994 0.605 0.625 1.141 1.305 1.612 2.029"
             fill="#50c7f1"
             id="path473" />
        </g>
      </g>
      <g
         clip-path="url(#clipPath16765)"
         id="g639">
        <g
           transform="translate(516.37 245.3)"
           id="g481">
          <path
             d="m0 0v-176.03c0-9.632-7.809-17.441-17.44-17.441h-255.72c-9.632 0-17.441 7.809-17.441 17.441v176.03c0 9.632 7.809 17.441 17.441 17.441h255.72c9.631 0 17.44-7.809 17.44-17.441"
             fill="#50c7f1"
             id="path479" />
        </g>
        <g
           transform="translate(516.37 245.3)"
           id="g485">
          <path
             d="m0 0s-0.02 0.212-0.045 0.632c-0.039 0.418-0.02 1.05-0.181 1.866-0.229 1.628-0.823 4.093-2.558 6.833-0.882 1.348-2.029 2.77-3.568 4.044-1.54 1.261-3.445 2.39-5.691 3.122-0.557 0.193-1.149 0.308-1.739 0.47-0.599 0.123-1.22 0.193-1.846 0.295-0.634 0.03-1.278 0.061-1.934 0.092-0.661 0-1.332-1e-3 -2.014-2e-3 -2.729-4e-3 -5.634-8e-3 -8.712-0.012-24.625-0.02-60.25-0.048-104.27-0.083-22.011-0.01-46.121-0.021-72.004-0.032-12.941-4e-3 -26.325-9e-3 -40.112-0.013-6.894-2e-3 -13.888-4e-3 -20.977-6e-3 -1.773 0-3.551 0-5.335-1e-3 -1.789-0.019-3.57 0.063-5.309-0.3-1.738-0.338-3.436-0.913-5.012-1.751-1.561-0.863-2.997-1.956-4.248-3.241-1.267-1.273-2.273-2.796-3.069-4.41-0.792-1.618-1.348-3.369-1.563-5.173-0.243-1.791-0.164-3.644-0.175-5.498 0-1.852 0-3.709 1e-3 -5.572 1e-3 -7.451 2e-3 -14.988 4e-3 -22.605 2e-3 -15.233 4e-3 -30.788 6e-3 -46.622 2e-3 -31.669 3e-3 -64.458 5e-3 -98.041 6e-3 -4.143 1.545-8.239 4.265-11.327 2.692-3.109 6.531-5.191 10.589-5.701 2.015-0.261 4.102-0.152 6.166-0.176h6.189c4.119-1e-3 8.224-1e-3 12.314-1e-3 16.358-1e-3 32.477-3e-3 48.315-4e-3 31.676-5e-3 62.231-0.011 91.337-0.015 29.107-8e-3 56.765-0.016 82.65-0.024 3.235-1e-3 6.443-3e-3 9.623-4e-3 1.596-0.012 3.153 0.022 4.688 0.312 1.519 0.323 3.022 0.76 4.39 1.478 0.712 0.303 1.338 0.76 2.004 1.142 0.603 0.474 1.259 0.88 1.802 1.421 1.171 0.987 2.125 2.191 2.984 3.432 1.64 2.541 2.646 5.471 2.779 8.443 0.106 11.989 0.039 23.538 0.067 34.538 0.036 44.018 0.064 79.64 0.083 104.26 0.021 12.305 0.038 21.861 0.049 28.346 0.011 3.238 0.02 5.706 0.026 7.372 8e-3 1.661 0.026 2.512 0.026 2.512s0.019-0.851 0.027-2.512c6e-3 -1.666 0.014-4.134 0.026-7.372 0.011-6.485 0.027-16.041 0.049-28.346 0.019-24.624 0.047-60.246 0.083-104.26-0.018-11.011 0.062-22.527-0.036-34.562-0.132-3.04-1.159-6.042-2.837-8.643-0.877-1.272-1.854-2.505-3.051-3.518-0.557-0.553-1.227-0.971-1.845-1.455-0.681-0.393-1.323-0.859-2.052-1.172-1.401-0.736-2.94-1.186-4.495-1.517-1.565-0.3-3.188-0.335-4.767-0.324-3.18-1e-3 -6.388-2e-3 -9.623-2e-3 -25.885-8e-3 -53.543-0.016-82.65-0.025-29.106-5e-3 -59.661-0.01-91.337-0.015-15.838-2e-3 -31.957-2e-3 -48.315-4e-3h-18.503c-2.063 0.024-4.135-0.089-6.236 0.18-4.181 0.526-8.138 2.67-10.91 5.873-2.803 3.18-4.39 7.405-4.394 11.67 1e-3 33.583 3e-3 66.372 5e-3 98.041 2e-3 15.834 4e-3 31.389 7e-3 46.622 0 7.617 2e-3 15.154 3e-3 22.605 1e-3 1.863 1e-3 3.72 1e-3 5.572 0.014 1.846-0.067 3.702 0.183 5.564 0.223 1.854 0.795 3.654 1.609 5.317 0.819 1.66 1.855 3.224 3.157 4.533 1.286 1.32 2.763 2.442 4.368 3.328 1.62 0.861 3.366 1.452 5.152 1.798l1.348 0.206 1.36 0.074c0.907 0.051 1.792 0.014 2.687 0.025 1.784 0 3.562-1e-3 5.335-1e-3 7.089-2e-3 14.083-4e-3 20.977-6e-3 13.787-4e-3 27.171-9e-3 40.112-0.013 25.883-0.011 49.993-0.022 72.004-0.032 44.02-0.035 79.645-0.063 104.27-0.083 3.078-4e-3 5.983-8e-3 8.712-0.012 0.682-1e-3 1.353-2e-3 2.014-3e-3 0.662-0.033 1.312-0.066 1.952-0.099 0.631-0.105 1.257-0.177 1.862-0.304 0.595-0.166 1.192-0.283 1.754-0.48 2.263-0.747 4.18-1.893 5.726-3.169 1.544-1.29 2.692-2.727 3.573-4.088 1.73-2.766 2.309-5.246 2.522-6.882 0.152-0.819 0.124-1.453 0.154-1.872 0.018-0.421 0.019-0.633 0.019-0.633"
             fill="#1a2e35"
             id="path483" />
        </g>
        <g
           transform="translate(506.19 249.74)"
           id="g489">
          <path
             d="m0 0c0 0.144 1.344 0.26 3 0.26 1.657 0 3-0.116 3-0.26s-1.343-0.26-3-0.26c-1.656 0-3 0.116-3 0.26"
             fill="#1a2e35"
             id="path487" />
        </g>
        <g
           transform="translate(481.71 249.74)"
           id="g493">
          <path
             d="m0 0c0 0.144 2.74 0.26 6.119 0.26 3.38 0 6.119-0.116 6.119-0.26s-2.739-0.26-6.119-0.26c-3.379 0-6.119 0.116-6.119 0.26"
             fill="#1a2e35"
             id="path491" />
        </g>
        <g
           transform="translate(457.24 249.74)"
           id="g497">
          <path
             d="m0 0c0 0.144 2.739 0.26 6.118 0.26 3.38 0 6.119-0.116 6.119-0.26s-2.739-0.26-6.119-0.26c-3.379 0-6.118 0.116-6.118 0.26"
             fill="#1a2e35"
             id="path495" />
        </g>
        <g
           transform="translate(432.76 249.74)"
           id="g501">
          <path
             d="m0 0c0 0.144 2.739 0.26 6.118 0.26 3.38 0 6.119-0.116 6.119-0.26s-2.739-0.26-6.119-0.26c-3.379 0-6.118 0.116-6.118 0.26"
             fill="#1a2e35"
             id="path499" />
        </g>
        <g
           transform="translate(408.29 249.74)"
           id="g505">
          <path
             d="m0 0c0 0.144 2.74 0.26 6.119 0.26 3.38 0 6.119-0.116 6.119-0.26s-2.739-0.26-6.119-0.26c-3.379 0-6.119 0.116-6.119 0.26"
             fill="#1a2e35"
             id="path503" />
        </g>
        <g
           transform="translate(383.81 249.74)"
           id="g509">
          <path
             d="m0 0c0 0.144 2.74 0.26 6.119 0.26 3.38 0 6.119-0.116 6.119-0.26s-2.739-0.26-6.119-0.26c-3.379 0-6.119 0.116-6.119 0.26"
             fill="#1a2e35"
             id="path507" />
        </g>
        <g
           transform="translate(359.34 249.74)"
           id="g513">
          <path
             d="m0 0c0 0.144 2.74 0.26 6.119 0.26 3.38 0 6.119-0.116 6.119-0.26s-2.739-0.26-6.119-0.26c-3.379 0-6.119 0.116-6.119 0.26"
             fill="#1a2e35"
             id="path511" />
        </g>
        <g
           transform="translate(334.86 249.74)"
           id="g517">
          <path
             d="m0 0c0 0.144 2.74 0.26 6.119 0.26 3.38 0 6.119-0.116 6.119-0.26s-2.739-0.26-6.119-0.26c-3.379 0-6.119 0.116-6.119 0.26"
             fill="#1a2e35"
             id="path515" />
        </g>
        <g
           transform="translate(310.38 249.74)"
           id="g521">
          <path
             d="m0 0c0 0.144 2.74 0.26 6.119 0.26 3.38 0 6.119-0.116 6.119-0.26s-2.739-0.26-6.119-0.26c-3.379 0-6.119 0.116-6.119 0.26"
             fill="#1a2e35"
             id="path519" />
        </g>
        <g
           transform="translate(285.91 249.74)"
           id="g525">
          <path
             d="m0 0c0 0.144 2.74 0.26 6.119 0.26 3.38 0 6.119-0.116 6.119-0.26s-2.739-0.26-6.119-0.26c-3.379 0-6.119 0.116-6.119 0.26"
             fill="#1a2e35"
             id="path523" />
        </g>
        <g
           transform="translate(261.43 249.74)"
           id="g529">
          <path
             d="m0 0c0 0.144 2.739 0.26 6.118 0.26 3.381 0 6.119-0.116 6.119-0.26s-2.738-0.26-6.119-0.26c-3.379 0-6.118 0.116-6.118 0.26"
             fill="#1a2e35"
             id="path527" />
        </g>
        <g
           transform="translate(243.2 243.74)"
           id="g533">
          <path
             d="m0 0c-0.144 0-0.26 2.687-0.26 5.999 0.52 0.521 0.145 0.145 0.262 0.261h0.307l0.304-1e-3c0.201-2e-3 0.399-3e-3 0.596-4e-3 0.383-5e-3 0.757-0.01 1.126-0.016 0.657-0.019 1.29-0.037 1.908-0.055 1.086-0.047 1.757-0.113 1.757-0.184 0-0.072-0.671-0.137-1.757-0.185-0.618-0.018-1.251-0.036-1.908-0.055-0.369-5e-3 -0.743-0.01-1.126-0.015-0.197-2e-3 -0.395-3e-3 -0.596-4e-3l-0.304-1e-3 -0.155-1e-3h-0.152c0.116 0.116-0.262-0.26 0.258 0.26 0-3.312-0.116-5.999-0.26-5.999"
             fill="#1a2e35"
             id="path531" />
        </g>
        <g
           transform="translate(243.2 221.31)"
           id="g537">
          <path
             d="m0 0c-0.144 0-0.26 2.511-0.26 5.606 0 3.098 0.116 5.608 0.26 5.608s0.26-2.51 0.26-5.608c0-3.095-0.116-5.606-0.26-5.606"
             fill="#1a2e35"
             id="path535" />
        </g>
        <g
           transform="translate(243.2 198.88)"
           id="g541">
          <path
             d="m0 0c-0.144 0-0.26 2.511-0.26 5.607 0 3.097 0.116 5.608 0.26 5.608s0.26-2.511 0.26-5.608c0-3.096-0.116-5.607-0.26-5.607"
             fill="#1a2e35"
             id="path539" />
        </g>
        <g
           transform="translate(243.2 176.45)"
           id="g545">
          <path
             d="m0 0c-0.144 0-0.26 2.511-0.26 5.607 0 3.097 0.116 5.608 0.26 5.608s0.26-2.511 0.26-5.608c0-3.096-0.116-5.607-0.26-5.607"
             fill="#1a2e35"
             id="path543" />
        </g>
        <g
           transform="translate(243.2 154.02)"
           id="g549">
          <path
             d="m0 0c-0.144 0-0.26 2.511-0.26 5.606 0 3.098 0.116 5.608 0.26 5.608s0.26-2.51 0.26-5.608c0-3.095-0.116-5.606-0.26-5.606"
             fill="#1a2e35"
             id="path547" />
        </g>
        <g
           transform="translate(243.2 131.6)"
           id="g553">
          <path
             d="m0 0c-0.144 0-0.26 2.511-0.26 5.606 0 3.098 0.116 5.608 0.26 5.608s0.26-2.51 0.26-5.608c0-3.095-0.116-5.606-0.26-5.606"
             fill="#1a2e35"
             id="path551" />
        </g>
        <g
           transform="translate(243.2 109.17)"
           id="g557">
          <path
             d="m0 0c-0.144 0-0.26 2.511-0.26 5.607 0 3.097 0.116 5.608 0.26 5.608s0.26-2.511 0.26-5.608c0-3.096-0.116-5.607-0.26-5.607"
             fill="#1a2e35"
             id="path555" />
        </g>
        <g
           transform="translate(243.2 86.739)"
           id="g561">
          <path
             d="m0 0c-0.144 0-0.26 2.51-0.26 5.606 0 3.098 0.116 5.608 0.26 5.608s0.26-2.51 0.26-5.608c0-3.096-0.116-5.606-0.26-5.606"
             fill="#1a2e35"
             id="path559" />
        </g>
        <g
           transform="translate(249.2 69.524)"
           id="g565">
          <path
             d="m0 0c0-0.144-2.687-0.26-6-0.26-0.521 0.521-0.144 0.146-0.26 0.262v0.307l1e-3 0.304c1e-3 0.201 3e-3 0.4 4e-3 0.596 5e-3 0.384 0.01 0.758 0.015 1.127 0.019 0.656 0.038 1.29 0.056 1.907 0.047 1.086 0.112 1.757 0.184 1.757s0.137-0.671 0.184-1.757c0.018-0.617 0.037-1.251 0.056-1.907 5e-3 -0.369 0.01-0.743 0.015-1.127 1e-3 -0.196 3e-3 -0.395 4e-3 -0.596l1e-3 -0.304v-0.307c-0.116 0.116 0.26-0.262-0.26 0.259 3.313 0 6-0.117 6-0.261"
             fill="#1a2e35"
             id="path563" />
        </g>
        <g
           transform="translate(273.32 69.524)"
           id="g569">
          <path
             d="m0 0c0-0.144-2.7-0.26-6.03-0.26-3.331 0-6.03 0.116-6.03 0.26s2.699 0.261 6.03 0.261c3.33 0 6.03-0.117 6.03-0.261"
             fill="#1a2e35"
             id="path567" />
        </g>
        <g
           transform="translate(297.44 69.524)"
           id="g573">
          <path
             d="m0 0c0-0.144-2.7-0.26-6.03-0.26-3.331 0-6.031 0.116-6.031 0.26s2.7 0.261 6.031 0.261c3.33 0 6.03-0.117 6.03-0.261"
             fill="#1a2e35"
             id="path571" />
        </g>
        <g
           transform="translate(321.56 69.524)"
           id="g577">
          <path
             d="m0 0c0-0.144-2.7-0.26-6.03-0.26-3.331 0-6.031 0.116-6.031 0.26s2.7 0.261 6.031 0.261c3.33 0 6.03-0.117 6.03-0.261"
             fill="#1a2e35"
             id="path575" />
        </g>
        <g
           transform="translate(345.68 69.524)"
           id="g581">
          <path
             d="m0 0c0-0.144-2.7-0.26-6.03-0.26-3.331 0-6.03 0.116-6.03 0.26s2.699 0.261 6.03 0.261c3.33 0 6.03-0.117 6.03-0.261"
             fill="#1a2e35"
             id="path579" />
        </g>
        <g
           transform="translate(369.8 69.524)"
           id="g585">
          <path
             d="m0 0c0-0.144-2.7-0.26-6.03-0.26-3.331 0-6.031 0.116-6.031 0.26s2.7 0.261 6.031 0.261c3.33 0 6.03-0.117 6.03-0.261"
             fill="#1a2e35"
             id="path583" />
        </g>
        <g
           transform="translate(393.92 69.524)"
           id="g589">
          <path
             d="m0 0c0-0.144-2.7-0.26-6.029-0.26-3.331 0-6.032 0.116-6.032 0.26s2.701 0.261 6.032 0.261c3.329 0 6.029-0.117 6.029-0.261"
             fill="#1a2e35"
             id="path587" />
        </g>
        <g
           transform="translate(418.04 69.524)"
           id="g593">
          <path
             d="m0 0c0-0.144-2.7-0.26-6.03-0.26s-6.031 0.116-6.031 0.26 2.701 0.261 6.031 0.261 6.03-0.117 6.03-0.261"
             fill="#1a2e35"
             id="path591" />
        </g>
        <g
           transform="translate(442.16 69.524)"
           id="g597">
          <path
             d="m0 0c0-0.144-2.7-0.26-6.03-0.26-3.331 0-6.031 0.116-6.031 0.26s2.7 0.261 6.031 0.261c3.33 0 6.03-0.117 6.03-0.261"
             fill="#1a2e35"
             id="path595" />
        </g>
        <g
           transform="translate(466.28 69.524)"
           id="g601">
          <path
             d="m0 0c0-0.144-2.7-0.26-6.03-0.26-3.331 0-6.031 0.116-6.031 0.26s2.7 0.261 6.031 0.261c3.33 0 6.03-0.117 6.03-0.261"
             fill="#1a2e35"
             id="path599" />
        </g>
        <g
           transform="translate(490.41 69.524)"
           id="g605">
          <path
             d="m0 0c0-0.144-2.7-0.26-6.03-0.26-3.331 0-6.031 0.116-6.031 0.26s2.7 0.261 6.031 0.261c3.33 0 6.03-0.117 6.03-0.261"
             fill="#1a2e35"
             id="path603" />
        </g>
        <g
           transform="translate(508.47 69.524)"
           id="g609">
          <path
             d="m0 0c0-0.144-1.344-0.26-3-0.26-1.657 0-3 0.116-3 0.26s1.343 0.261 3 0.261c1.656 0 3-0.117 3-0.261"
             fill="#1a2e35"
             id="path607" />
        </g>
        <g
           clip-path="url(#clipPath16905)"
           opacity=".3"
           id="g615">
          <g
             transform="translate(326.04 145.76)"
             id="g613">
            <path
               d="m0 0s0.063-10.001-2.96-16.049c-3.024-6.047-4.04-8.373-10.394-10.699-6.353-2.325-86.922-11.164-86.922-11.164v27.213z"
               id="path611" />
          </g>
        </g>
        <g
           clip-path="url(#clipPath16921)"
           opacity=".3"
           id="g621">
          <g
             transform="translate(324.59 183.46)"
             id="g619">
            <path
               d="m0 0s0.92 10.203-24.692 13.994c-29.295 4.336-74.141 9.656-74.141 9.656v-19.308z"
               id="path617" />
          </g>
        </g>
        <g
           transform="translate(228.42 126.81)"
           id="g625">
          <path
             d="m0 0h83.302c7.906 0 14.315 6.409 14.315 14.314v37.289c0 7.905-6.409 14.314-14.315 14.314h-83.302c-7.906 0-14.314-6.409-14.314-14.314v-37.289c0-7.905 6.408-14.314 14.314-14.314"
             fill="#50c7f1"
             id="path623" />
        </g>
        <g
           transform="translate(228.42 126.81)"
           id="g629">
          <path
             d="m0 0s-0.289-3e-3 -0.855 0.017c-0.566 4e-3 -1.409 0.097-2.488 0.337-1.085 0.223-2.384 0.704-3.804 1.48-1.411 0.791-2.916 1.967-4.216 3.631-1.281 1.66-2.423 3.799-2.844 6.345-0.26 1.262-0.23 2.619-0.242 3.994-4e-3 1.383-7e-3 2.818-0.011 4.305-0.011 5.953-0.024 12.728-0.039 20.215 5e-3 3.748-0.035 7.662 8e-3 11.763 0.108 4.13 2.129 8.424 5.743 11.098 1.78 1.342 3.899 2.335 6.183 2.714 1.132 0.211 2.319 0.252 3.465 0.244 1.155 1e-3 2.32 2e-3 3.493 3e-3 4.69 3e-3 9.519 6e-3 14.47 0.01 19.805 7e-3 41.578 0.014 64.431 0.021 1.455-0.03 2.901-0.229 4.289-0.642 1.377-0.444 2.686-1.071 3.887-1.861 1.181-0.821 2.238-1.801 3.151-2.898 0.899-1.11 1.609-2.355 2.167-3.656 0.541-1.312 0.849-2.701 1.015-4.097 0.103-1.413 0.064-2.777 0.071-4.149 0-2.741-1e-3 -5.459-2e-3 -8.154-2e-3 -5.389-4e-3 -10.683-7e-3 -15.867-1e-3 -2.592-2e-3 -5.157-4e-3 -7.693-0.022-1.274 0.047-2.514-0.049-3.796-3e-3 -0.639-0.155-1.261-0.235-1.889-0.155-0.613-0.277-1.237-0.498-1.826-1.589-4.808-5.773-8.425-10.422-9.473-0.572-0.175-1.171-0.203-1.752-0.311-0.587-0.049-1.18-0.073-1.761-0.091-1.156 1e-3 -2.303 2e-3 -3.441 3e-3 -2.275 3e-3 -4.515 5e-3 -6.717 7e-3 -8.806 0.012-17.01 0.023-24.501 0.032-14.97 0.035-27.086 0.064-35.477 0.083-4.178 0.021-7.425 0.038-9.645 0.049-1.092 0.011-1.929 0.02-2.509 0.026-0.564 8e-3 -0.854 0.026-0.854 0.026s0.29 0.019 0.854 0.027c0.58 6e-3 1.417 0.015 2.509 0.026 2.22 0.011 5.467 0.027 9.645 0.049 8.391 0.019 20.507 0.047 35.477 0.083 7.491 9e-3 15.695 0.02 24.501 0.031 2.202 3e-3 4.442 5e-3 6.717 7e-3 2.276 0.056 4.61-0.188 6.849 0.398 4.498 1.023 8.543 4.532 10.072 9.182 0.868 2.306 0.747 4.819 0.748 7.357-1e-3 2.536-2e-3 5.101-4e-3 7.693-2e-3 5.184-4e-3 10.478-6e-3 15.867-1e-3 2.695-2e-3 5.413-3e-3 8.154-6e-3 1.367 0.029 2.757-0.07 4.1-0.163 1.345-0.458 2.684-0.981 3.949-0.538 1.255-1.223 2.455-2.091 3.526-0.881 1.057-1.9 2.002-3.039 2.794-1.159 0.762-2.42 1.365-3.747 1.794-1.339 0.398-2.733 0.59-4.137 0.619-22.853 7e-3 -44.626 0.014-64.431 0.021-4.951 4e-3 -9.78 7e-3 -14.47 0.011-1.173 0-2.338 1e-3 -3.493 2e-3 -1.163 0.011-2.279-0.027-3.387-0.229-2.214-0.363-4.27-1.321-6-2.62-3.514-2.588-5.486-6.751-5.602-10.768-0.054-4.073-0.025-8.007-0.041-11.749-0.015-7.487-0.027-14.262-0.039-20.215-3e-3 -1.487-7e-3 -2.922-0.01-4.305 5e-3 -1.385-0.032-2.708 0.217-3.951 0.399-2.504 1.508-4.617 2.758-6.263 1.27-1.651 2.747-2.825 4.134-3.621 1.397-0.782 2.678-1.276 3.752-1.512 1.066-0.255 1.903-0.365 2.466-0.387 0.563-0.037 0.852-0.07 0.852-0.07"
             fill="#1a2e35"
             id="path627" />
        </g>
        <g
           transform="translate(268.36 157.28)"
           id="g633">
          <path
             d="m0 0c0-13.235 10.729-23.964 23.964-23.964s23.964 10.729 23.964 23.964-10.729 23.965-23.964 23.965-23.964-10.73-23.964-23.965"
             fill="#1a2e35"
             id="path631" />
        </g>
        <g
           transform="translate(298.46 137.71)"
           id="g637">
          <path
             d="m0 0c-0.06 0.13 2.467 0.639 5.714 2.993 1.615 1.163 3.349 2.827 4.839 4.996 1.492 2.159 2.687 4.858 3.184 7.846 0.454 2.996 0.155 5.933-0.594 8.448-0.745 2.524-1.878 4.644-3.053 6.25-2.357 3.245-4.601 4.512-4.504 4.617 0.01 0.015 0.145-0.062 0.395-0.223 0.242-0.171 0.63-0.387 1.062-0.751 0.901-0.682 2.112-1.81 3.344-3.424 1.234-1.608 2.427-3.755 3.216-6.332 0.792-2.566 1.117-5.582 0.649-8.667-0.512-3.077-1.756-5.843-3.304-8.037-1.548-2.205-3.348-3.876-5.02-5.023-1.671-1.153-3.172-1.849-4.241-2.218-0.523-0.212-0.959-0.297-1.242-0.385-0.287-0.076-0.44-0.108-0.445-0.09"
             fill="#fafafa"
             id="path635" />
        </g>
      </g>
      <g
         clip-path="url(#clipPath16953)"
         id="g707">
        <g
           class="firstleft rotate"
           id="g661">
          <g
             transform="translate(667.42 310.86)"
             id="g643">
            <path
               d="m0 0c2.171-24.292-15.806-45.75-40.153-47.929-24.349-2.177-45.849 15.749-48.021 40.042-2.174 24.293 15.804 45.75 40.153 47.928 24.347 2.178 45.847-15.749 48.021-40.041"
               fill="#50c7f1"
               id="path641" />
          </g>
          <g
             clip-path="url(#clipPath16965)"
             opacity=".3"
             id="g649">
            <g
               transform="translate(656.82 310.98)"
               id="g647">
              <path
                 d="m0 0c-0.203-0.026-0.479 1.436-1.249 3.96-0.782 2.509-2.13 6.118-4.797 9.951-1.331 1.909-2.981 3.865-4.994 5.708-2.025 1.822-4.39 3.555-7.108 4.955-1.355 0.704-2.788 1.346-4.299 1.864-1.507 0.526-3.078 0.979-4.712 1.276-1.629 0.303-3.308 0.522-5.021 0.573-1.713 0.053-3.452-0.016-5.201-0.216-1.747-0.224-3.454-0.572-5.103-1.032-1.653-0.458-3.231-1.072-4.742-1.754-1.514-0.681-2.932-1.495-4.271-2.366-1.344-0.863-2.581-1.83-3.729-2.837-2.304-2.009-4.187-4.257-5.717-6.511-1.513-2.269-2.649-4.563-3.486-6.735-1.672-4.359-2.117-8.184-2.277-10.806-0.145-2.635-0.062-4.121-0.266-4.143-0.15-0.022-0.574 1.427-0.74 4.145-0.148 2.699 0.023 6.727 1.56 11.412 0.77 2.333 1.875 4.816 3.407 7.285 1.549 2.454 3.498 4.911 5.927 7.119 1.209 1.107 2.519 2.168 3.951 3.12 1.427 0.959 2.944 1.855 4.57 2.606 1.622 0.754 3.321 1.426 5.102 1.931 1.778 0.507 3.621 0.887 5.504 1.126 1.885 0.217 3.763 0.288 5.611 0.22 1.849-0.065 3.66-0.313 5.415-0.657 1.757-0.34 3.446-0.848 5.059-1.439 1.618-0.583 3.145-1.3 4.583-2.085 2.884-1.564 5.366-3.484 7.457-5.497 2.075-2.031 3.743-4.179 5.049-6.26 2.614-4.182 3.742-8.053 4.246-10.71 0.488-2.679 0.421-4.187 0.271-4.203"
                 id="path645" />
            </g>
          </g>
          <g
             clip-path="url(#clipPath16981)"
             opacity=".3"
             id="g655">
            <g
               transform="translate(631.59 298.1)"
               id="g653">
              <path
                 d="m0 0c-0.19 1.828-1.807 2.66-4.132 3.211l0.749-7.201c2.55 0.845 3.556 2.321 3.383 3.99m-10.283 11.643-0.773 7.408c-2.699-0.913-3.637-2.541-3.459-4.263 0.191-1.825 1.86-2.655 4.232-3.145m7.616-22.521 0.608-5.845-5.217-0.541-0.592 5.687c-5.198-0.224-10.323 0.876-13.426 2.822l2.206 6.665c2.811-1.66 6.713-2.678 10.509-2.652l-0.907 8.715c-5.939 0.804-12.609 2.062-13.385 9.525-0.575 5.531 2.948 10.696 11.095 12.493l-0.603 5.793 5.218 0.543 0.592-5.689c3.946 0.094 7.862-0.553 10.922-2.08l-1.94-6.691c-2.819 1.236-5.625 1.841-8.267 1.884l0.924-8.871c5.932-0.753 12.499-2.023 13.264-9.379 0.564-5.427-2.912-10.536-11.001-12.379"
                 id="path651" />
            </g>
          </g>
          <g
             transform="translate(589.74 303.83)"
             id="g659">
            <path
               d="m0 0c9e-3 0 0.031-0.09 0.065-0.268 0.037-0.208 0.082-0.467 0.139-0.79 0.059-0.359 0.129-0.787 0.21-1.284 0.082-0.508 0.151-1.098 0.346-1.739 0.573-2.598 1.788-6.323 4.292-10.378 1.22-2.046 2.891-4.066 4.824-6.083 0.518-0.47 1.045-0.948 1.579-1.433 0.272-0.239 0.529-0.498 0.817-0.725 0.294-0.219 0.59-0.441 0.888-0.663 0.604-0.435 1.185-0.923 1.83-1.334 0.655-0.398 1.317-0.802 1.988-1.21 2.751-1.501 5.805-2.83 9.154-3.553 3.34-0.724 6.896-0.986 10.514-0.702 3.61 0.38 7.059 1.287 10.212 2.608 3.162 1.322 5.922 3.186 8.354 5.164 0.585 0.524 1.163 1.042 1.733 1.553 0.56 0.522 1.042 1.107 1.557 1.645 0.252 0.274 0.503 0.546 0.752 0.815 0.242 0.275 0.447 0.577 0.671 0.861 0.437 0.575 0.868 1.141 1.291 1.698 1.532 2.336 2.806 4.627 3.634 6.861 1.722 4.444 2.236 8.328 2.326 10.987 0.074 0.665 0.034 1.258 0.023 1.772-0.011 0.503-0.02 0.936-0.029 1.301-3e-3 0.327-5e-3 0.591-7e-3 0.802 1e-3 0.18 7e-3 0.274 0.016 0.275s0.021-0.091 0.037-0.271c0.015-0.21 0.035-0.473 0.059-0.8 0.022-0.365 0.048-0.799 0.079-1.304 0.028-0.516 0.084-1.112 0.025-1.782-0.028-2.676-0.488-6.603-2.187-11.113-0.813-2.268-2.084-4.597-3.62-6.973-0.426-0.567-0.858-1.143-1.298-1.728-0.223-0.289-0.43-0.596-0.674-0.876-0.251-0.275-0.503-0.552-0.757-0.831-0.519-0.548-1.006-1.143-1.571-1.675-0.576-0.521-1.16-1.049-1.751-1.583-2.457-2.017-5.254-3.917-8.461-5.266-3.198-1.349-6.702-2.273-10.367-2.659-3.672-0.289-7.286-0.019-10.674 0.723-3.399 0.741-6.496 2.1-9.279 3.634-0.678 0.418-1.348 0.83-2.011 1.237-0.651 0.42-1.239 0.916-1.848 1.361-0.301 0.227-0.6 0.454-0.896 0.678-0.291 0.231-0.55 0.495-0.824 0.738-0.538 0.496-1.068 0.983-1.59 1.462-1.945 2.056-3.618 4.115-4.833 6.195-2.491 4.126-3.66 7.903-4.176 10.529-0.18 0.648-0.234 1.244-0.301 1.757-0.062 0.502-0.115 0.933-0.16 1.296-0.037 0.326-0.066 0.588-0.088 0.798-0.018 0.18-0.022 0.272-0.013 0.273"
               fill="#1a2e35"
               id="path657" />
          </g>
        </g>
        <g
           class="firstleft2 rotate"
           id="g683">
          <g
             transform="translate(605.04 180.35)"
             id="g665">
            <path
               d="m0 0c-6.152-12.766-21.513-18.116-34.309-11.95-12.795 6.167-18.181 21.514-12.028 34.281 6.152 12.767 21.513 18.116 34.309 11.949 12.795-6.166 18.18-21.514 12.028-34.28"
               fill="#50c7f1"
               id="path663" />
          </g>
          <g
             clip-path="url(#clipPath17005)"
             opacity=".3"
             id="g671">
            <g
               transform="translate(599.79 183.56)"
               id="g669">
              <path
                 d="m0 0c-0.109 0.048 0.189 0.858 0.557 2.348 0.356 1.484 0.759 3.686 0.571 6.393-0.096 1.349-0.337 2.816-0.791 4.335-0.468 1.513-1.131 3.081-2.07 4.589-0.466 0.756-0.99 1.503-1.589 2.211-0.596 0.712-1.245 1.405-1.971 2.04-0.723 0.637-1.495 1.246-2.335 1.781-0.838 0.537-1.726 1.021-2.658 1.443-0.939 0.408-1.895 0.743-2.854 1.005-0.961 0.263-1.93 0.427-2.887 0.537-0.959 0.112-1.91 0.128-2.836 0.092-0.928-0.03-1.833-0.144-2.705-0.304-1.749-0.317-3.358-0.877-4.792-1.545-1.431-0.682-2.681-1.488-3.745-2.322-2.133-1.676-3.495-3.452-4.356-4.712-0.857-1.272-1.259-2.038-1.367-1.989-0.081 0.035 0.14 0.884 0.866 2.288 0.73 1.392 2.015 3.351 4.178 5.23 1.079 0.934 2.37 1.844 3.87 2.619 1.503 0.763 3.207 1.408 5.077 1.786 0.933 0.192 1.902 0.331 2.9 0.379 0.998 0.054 2.022 0.049 3.056-0.06 1.034-0.108 2.083-0.279 3.121-0.557 1.038-0.277 2.071-0.637 3.081-1.078 1.006-0.453 1.963-0.978 2.866-1.562 0.902-0.583 1.732-1.247 2.504-1.941 0.777-0.693 1.467-1.449 2.096-2.225 0.633-0.772 1.182-1.586 1.665-2.405 0.974-1.64 1.639-3.336 2.082-4.964 0.431-1.632 0.623-3.2 0.655-4.627 0.058-2.865-0.532-5.132-1.073-6.607-0.554-1.482-1.036-2.215-1.116-2.178"
                 id="path667" />
            </g>
          </g>
          <g
             clip-path="url(#clipPath17021)"
             opacity=".3"
             id="g677">
            <g
               transform="translate(583.37 184.66)"
               id="g675">
              <path
                 d="m0 0c0.449 0.968-0.109 1.864-1.105 2.832l-1.772-3.815c1.523-0.338 2.466 0.098 2.877 0.983m-1.662 8.871 1.821 3.926c-1.619 0.349-2.571-0.184-2.995-1.097-0.449-0.967 0.136-1.878 1.174-2.829m-2.909-13.504-1.438-3.096-2.764 1.284 1.399 3.012c-2.66 1.438-4.89 3.513-5.857 5.409l3.085 2.667c0.908-1.665 2.551-3.335 4.454-4.454l2.142 4.619c-2.722 2.17-5.676 4.784-3.84 8.738 1.362 2.931 4.658 4.458 9.256 2.928l1.426 3.069 2.765-1.283-1.4-3.015c1.997-1.128 3.758-2.617 4.829-4.291l-2.961-2.76c-1.038 1.456-2.256 2.594-3.562 3.403l-2.182-4.701c2.736-2.143 5.633-4.733 3.823-8.63-1.334-2.876-4.591-4.389-9.175-2.899"
                 id="path673" />
            </g>
          </g>
          <g
             transform="translate(564.19 199.98)"
             id="g681">
            <path
               d="m0 0c0.05-0.022-0.308-0.81-0.797-2.275-0.474-1.469-0.965-3.684-0.913-6.442 4e-3 -1.379 0.24-2.877 0.606-4.451 0.448-1.552 1.027-3.191 1.944-4.765 0.923-1.558 2.046-3.122 3.494-4.471 1.443-1.348 3.131-2.531 5.01-3.461 1.903-0.881 3.883-1.453 5.838-1.734 1.96-0.282 3.882-0.177 5.675 0.081 1.801 0.272 3.442 0.85 4.932 1.473 1.455 0.702 2.771 1.458 3.847 2.319 2.18 1.689 3.599 3.46 4.445 4.75 0.836 1.3 1.225 2.072 1.273 2.047 0.017-8e-3 -0.07-0.205-0.25-0.573-0.198-0.359-0.42-0.932-0.852-1.583-0.802-1.337-2.196-3.172-4.39-4.932-1.083-0.895-2.413-1.686-3.893-2.42-1.515-0.656-3.19-1.262-5.033-1.554-1.835-0.279-3.808-0.396-5.821-0.113-2.008 0.28-4.043 0.865-5.997 1.769-1.929 0.955-3.659 2.173-5.137 3.562-1.481 1.39-2.626 3.001-3.559 4.604-0.928 1.619-1.506 3.304-1.945 4.896-0.356 1.612-0.574 3.145-0.555 4.55-5e-3 2.812 0.551 5.049 1.089 6.512 0.237 0.745 0.544 1.277 0.7 1.655 0.174 0.372 0.272 0.564 0.289 0.556"
               fill="#1a2e35"
               id="path679" />
          </g>
        </g>
        <g
           class="firstleft3 rotate"
           id="g705">
          <g
             transform="translate(180.44 184.02)"
             id="g687">
            <path
               d="m0 0c3.326-22.892-12.578-44.152-35.521-47.487-22.945-3.334-44.243 12.519-47.569 35.412-3.327 22.891 12.576 44.151 35.521 47.486 22.944 3.335 44.242-12.519 47.569-35.411"
               fill="#50c7f1"
               id="path685" />
          </g>
          <g
             clip-path="url(#clipPath17045)"
             opacity=".3"
             id="g693">
            <g
               transform="translate(170.4 183.58)"
               id="g691">
              <path
                 d="m0 0c-0.191-0.035-0.528 1.335-1.39 3.686-0.872 2.334-2.337 5.681-5.063 9.172-1.359 1.738-3.025 3.504-5.027 5.144-2.014 1.62-4.343 3.138-6.991 4.321-1.32 0.597-2.71 1.13-4.168 1.541-1.455 0.42-2.967 0.767-4.529 0.963-1.559 0.201-3.16 0.321-4.785 0.279-1.624-0.039-3.268-0.195-4.914-0.475-1.643-0.304-3.242-0.723-4.779-1.244-1.542-0.521-3.003-1.184-4.398-1.909-1.4-0.724-2.7-1.57-3.922-2.463-1.227-0.889-2.348-1.869-3.383-2.883-2.078-2.023-3.743-4.25-5.074-6.464-1.314-2.229-2.27-4.46-2.95-6.561-1.355-4.214-1.577-7.86-1.591-10.352 0-2.503 0.156-3.906-0.036-3.938-0.141-0.028-0.618 1.322-0.917 3.887-0.282 2.549-0.331 6.372 0.88 10.89 0.609 2.25 1.525 4.658 2.847 7.077 1.338 2.404 3.056 4.833 5.24 7.051 1.088 1.111 2.273 2.184 3.579 3.161 1.301 0.982 2.692 1.911 4.192 2.706 1.497 0.799 3.071 1.525 4.731 2.096 1.657 0.573 3.383 1.029 5.153 1.354 1.775 0.304 3.549 0.469 5.302 0.501 1.755 0.035 3.483-0.105 5.163-0.339 1.682-0.23 3.308-0.623 4.866-1.098 1.563-0.467 3.047-1.068 4.449-1.736 2.814-1.33 5.264-3.018 7.349-4.816 2.072-1.816 3.764-3.762 5.109-5.664 2.694-3.824 3.965-7.431 4.58-9.921 0.602-2.512 0.619-3.944 0.477-3.966"
                 id="path689" />
            </g>
          </g>
          <g
             clip-path="url(#clipPath17061)"
             opacity=".3"
             id="g699">
            <g
               transform="translate(147.18 170.06)"
               id="g697">
              <path
                 d="m0 0c-0.276 1.721-1.85 2.425-4.081 2.825l1.085-6.78c2.371 0.933 3.247 2.383 2.996 3.955m-10.347 10.488-1.118 6.976c-2.509-1.006-3.312-2.597-3.053-4.218 0.276-1.719 1.899-2.417 4.171-2.758m8.389-20.929 0.882-5.503-4.913-0.785-0.858 5.354c-4.911-0.483-9.821 0.291-12.861 1.972l1.741 6.426c2.748-1.425 6.497-2.184 10.091-1.961l-1.315 8.205c-5.666 0.452-12.049 1.295-13.174 8.321-0.833 5.208 2.234 10.284 9.854 12.41l-0.873 5.455 4.914 0.786 0.857-5.356c3.732 0.296 7.475-0.112 10.452-1.399l-1.487-6.437c-2.735 1.022-5.423 1.449-7.927 1.352l1.338-8.353c5.657-0.403 11.943-1.263 13.051-8.19 0.818-5.11-2.208-10.128-9.772-12.297"
                 id="path695" />
            </g>
          </g>
          <g
             transform="translate(107.25 173.3)"
             id="g703">
            <path
               d="m0 0c9e-3 2e-3 0.035-0.083 0.077-0.249 0.046-0.197 0.104-0.44 0.174-0.741 0.075-0.339 0.164-0.739 0.267-1.205 0.105-0.476 0.202-1.032 0.419-1.628 0.681-2.43 2.026-5.893 4.61-9.6 1.263-1.873 2.951-3.697 4.886-5.506 0.515-0.418 1.039-0.842 1.57-1.274 0.269-0.211 0.527-0.443 0.811-0.643 0.29-0.192 0.582-0.386 0.876-0.582 0.594-0.38 1.17-0.81 1.802-1.166 0.64-0.343 1.289-0.69 1.945-1.042 2.683-1.277 5.644-2.376 8.851-2.885 3.199-0.51 6.58-0.573 9.989-0.115 3.398 0.549 6.617 1.587 9.532 3.002 2.923 1.416 5.44 3.325 7.639 5.324 0.526 0.527 1.047 1.047 1.56 1.561 0.502 0.523 0.929 1.103 1.388 1.639 0.224 0.271 0.447 0.542 0.669 0.81 0.215 0.273 0.394 0.57 0.59 0.85 0.385 0.567 0.762 1.125 1.135 1.675 1.328 2.291 2.416 4.526 3.083 6.684 1.399 4.297 1.685 8 1.632 10.523 0.036 0.634-0.032 1.193-0.069 1.679-0.037 0.476-0.067 0.885-0.094 1.231-0.019 0.308-0.035 0.557-0.047 0.759-8e-3 0.171-8e-3 0.26 1e-3 0.261 9e-3 2e-3 0.026-0.085 0.052-0.254 0.026-0.2 0.058-0.448 0.098-0.754 0.041-0.346 0.089-0.755 0.144-1.231 0.054-0.487 0.138-1.048 0.118-1.686 0.115-2.537-0.114-6.28-1.485-10.642-0.653-2.191-1.733-4.464-3.065-6.796-0.373-0.559-0.753-1.127-1.138-1.705-0.197-0.285-0.377-0.587-0.594-0.865-0.222-0.274-0.447-0.549-0.674-0.826-0.461-0.547-0.892-1.136-1.399-1.67-0.519-0.524-1.044-1.054-1.576-1.591-2.222-2.04-4.773-3.987-7.741-5.433-2.959-1.444-6.23-2.503-9.682-3.059-3.465-0.467-6.901-0.4-10.151 0.127-3.259 0.524-6.264 1.649-8.98 2.958-0.665 0.36-1.322 0.715-1.969 1.067-0.64 0.363-1.222 0.803-1.823 1.192-0.297 0.201-0.591 0.399-0.884 0.596-0.287 0.204-0.547 0.44-0.818 0.656-0.537 0.442-1.064 0.876-1.583 1.303-1.95 1.847-3.642 3.709-4.901 5.617-2.575 3.779-3.878 7.296-4.503 9.757-0.204 0.605-0.285 1.167-0.375 1.648-0.085 0.472-0.158 0.877-0.219 1.22-0.05 0.305-0.091 0.552-0.124 0.751-0.024 0.17-0.033 0.257-0.024 0.258"
               fill="#1a2e35"
               id="path701" />
          </g>
        </g>
      </g>
      <g
         clip-path="url(#clipPath17081)"
         id="g713">
        <g
           transform="translate(708.47 51.796)"
           id="g711">
          <path
             d="m0 0c0-0.145-149.31-0.261-333.46-0.261-184.21 0-333.49 0.116-333.49 0.261 0 0.144 149.28 0.26 333.49 0.26 184.14 0 333.46-0.116 333.46-0.26"
             fill="#1a2e35"
             id="path709" />
        </g>
      </g>
      <g
         clip-path="url(#clipPath17093)"
         id="g957">
        <g
           transform="translate(553 239.66)"
           id="g717" />
        <g
           transform="translate(553.02 227.22)"
           id="g721" />
        <g
           transform="translate(549.12 224.88)"
           id="g725" />
        <g
           transform="translate(545.3 223.72)"
           id="g729" />
        <g
           transform="translate(541.5 222.62)"
           id="g733" />
        <g
           transform="translate(549.06 232.84)"
           id="g737" />
        <g
           transform="translate(545.22 232.86)"
           id="g741" />
        <g
           clip-path="url(#clipPath17129)"
           opacity=".78"
           id="g747">
          <g
             transform="translate(541.33 232.54)"
             id="g745" />
        </g>
        <g
           transform="translate(538.88 242.97)"
           id="g751" />
        <g
           transform="translate(508.95 407.92)"
           id="g755" />
        <g
           transform="translate(481.98 376.99)"
           id="g759" />
        <g
           transform="translate(476.15 404.15)"
           id="g763" />
        <g
           transform="translate(475.65 406.04)"
           id="g767" />
        <g
           transform="translate(490.65 404.15)"
           id="g771" />
        <g
           transform="translate(490.12 405.76)"
           id="g775" />
        <g
           transform="translate(484.78 394.84)"
           id="g779" />
        <g
           transform="translate(489.11 393.82)"
           id="g783" />
        <g
           transform="translate(489.74 411.53)"
           id="g787" />
        <g
           transform="translate(476.19 410.3)"
           id="g791" />
        <g
           transform="translate(511.01 413.84)"
           id="g795" />
        <g
           transform="translate(505.72 403.58)"
           id="g799" />
        <g
           transform="translate(507.43 396.59)"
           id="g803" />
        <g
           transform="translate(510.9 413.4)"
           id="g807" />
        <g
           transform="translate(510.67 411.52)"
           id="g811" />
        <g
           transform="translate(465.08 85.145)"
           id="g815" />
        <g
           transform="translate(489.58 57.821)"
           id="g819" />
        <g
           transform="translate(508.65 82.988)"
           id="g823" />
        <g
           clip-path="url(#clipPath17221)"
           opacity=".60001"
           id="g829">
          <g
             transform="translate(527.79 51.676)"
             id="g827">
            <path
               d="m0 0-0.094 3.154-37.279-1.016s-1.735-0.746-1.545-1.967z"
               fill="#375a64"
               id="path825" />
          </g>
        </g>
        <g
           transform="translate(462.99 68.332)"
           id="g833" />
        <g
           transform="translate(507.86 65.052)"
           id="g837" />
        <g
           transform="translate(458.64 273.85)"
           id="g841" />
        <g
           transform="translate(490.95 264.89)"
           id="g845" />
        <g
           transform="translate(469.94 69.24)"
           id="g849" />
        <g
           transform="translate(480.31 235.87)"
           id="g853" />
        <g
           transform="translate(507.53 65.357)"
           id="g857" />
        <g
           transform="translate(462.99 68.332)"
           id="g861" />
        <g
           transform="translate(410.53 336.32)"
           id="g865" />
        <g
           clip-path="url(#clipPath17273)"
           opacity=".2"
           id="g871">
          <g
             transform="translate(432.59 319.77)"
             id="g869" />
        </g>
        <g
           transform="translate(416.19 331.2)"
           id="g875" />
        <g
           transform="translate(410.47 331.83)"
           id="g879" />
        <g
           transform="translate(433.03 308.4)"
           id="g883" />
        <g
           transform="translate(437.39 308.56)"
           id="g887" />
        <g
           transform="translate(509.32 366.04)"
           id="g891" />
        <g
           clip-path="url(#clipPath17309)"
           opacity=".2"
           id="g897">
          <g
             transform="translate(483.85 362.64)"
             id="g895" />
        </g>
        <g
           transform="translate(553.11 243.29)"
           id="g901" />
        <g
           transform="translate(462.3 341.49)"
           id="g905" />
        <g
           transform="translate(488.32 372.19)"
           id="g909" />
        <g
           transform="translate(507.86 366.19)"
           id="g913" />
        <g
           transform="translate(529.63 352.14)"
           id="g917" />
        <g
           transform="translate(488.32 372.19)"
           id="g921" />
        <g
           transform="translate(553.98 250.36)"
           id="g925" />
        <g
           transform="translate(539.71 248.56)"
           id="g929" />
        <g
           clip-path="url(#clipPath17357)"
           opacity=".2"
           id="g935">
          <g
             transform="translate(520.58 314.91)"
             id="g933" />
        </g>
        <g
           transform="translate(493.96 332.31)"
           id="g939" />
        <g
           transform="translate(464.45 259.76)"
           id="g943" />
        <g
           transform="translate(466 260.41)"
           id="g947" />
        <g
           transform="translate(511.06 267.14)"
           id="g951" />
        <g
           transform="translate(409.28 334.45)"
           id="g955" />
      </g>
      <g
         clip-path="url(#clipPath17393)"
         id="g959" />
    </g>
  </g>
</svg>
