<?xml version="1.0" encoding="UTF-8" standalone="no"?>
<!-- Created with Inkscape (http://www.inkscape.org/) -->

<svg
   xmlns:dc="http://purl.org/dc/elements/1.1/"
   xmlns:cc="http://creativecommons.org/ns#"
   xmlns:rdf="http://www.w3.org/1999/02/22-rdf-syntax-ns#"
   xmlns:svg="http://www.w3.org/2000/svg"
   xmlns="http://www.w3.org/2000/svg"
   xmlns:sodipodi="http://sodipodi.sourceforge.net/DTD/sodipodi-0.dtd"
   xmlns:inkscape="http://www.inkscape.org/namespaces/inkscape"
   width="292.66833"
   height="96.666"
   viewBox="0 0 77.435164 25.576211"
   version="1.1"
   id="svg8"
   sodipodi:docname="stars.svg"
   inkscape:version="0.92.4 (5da689c313, 2019-01-14)">
  <defs
     id="defs2">
    <clipPath
       id="clipPath833"
       clipPathUnits="userSpaceOnUse">
      <path
         inkscape:connector-curvature="0"
         id="path831"
         d="M 0,500 H 499.999 V 0 H 0 Z" />
    </clipPath>
    <clipPath
       id="clipPath905"
       clipPathUnits="userSpaceOnUse">
      <path
         inkscape:connector-curvature="0"
         id="path903"
         d="M 0,500 H 499.999 V 0 H 0 Z" />
    </clipPath>
    <clipPath
       id="clipPath921"
       clipPathUnits="userSpaceOnUse">
      <path
         inkscape:connector-curvature="0"
         id="path919"
         d="M 0,500 H 499.999 V 0 H 0 Z" />
    </clipPath>
    <clipPath
       id="clipPath929"
       clipPathUnits="userSpaceOnUse">
      <path
         inkscape:connector-curvature="0"
         id="path927"
         d="M 61.9052,335.167 H 466.8 V 107.844 H 61.9052 Z" />
    </clipPath>
    <clipPath
       id="clipPath953"
       clipPathUnits="userSpaceOnUse">
      <path
         inkscape:connector-curvature="0"
         id="path951"
         d="M 71.4052,345.334 H 265.36 V 316.445 H 71.4052 Z" />
    </clipPath>
    <clipPath
       id="clipPath997"
       clipPathUnits="userSpaceOnUse">
      <path
         inkscape:connector-curvature="0"
         id="path995"
         d="m 127.86,276.225 h 155.441 v -72.78 H 127.86 Z" />
    </clipPath>
    <clipPath
       id="clipPath1001"
       clipPathUnits="userSpaceOnUse">
      <path
         inkscape:connector-curvature="0"
         id="path999"
         d="m 127.86,276.225 h 155.441 v -6.78 H 127.86 Z" />
    </clipPath>
    <clipPath
       id="clipPath1005"
       clipPathUnits="userSpaceOnUse">
      <path
         inkscape:connector-curvature="0"
         id="path1003"
         d="m 127.86,259.725 h 155.441 v -6.78 H 127.86 Z" />
    </clipPath>
    <clipPath
       id="clipPath1009"
       clipPathUnits="userSpaceOnUse">
      <path
         inkscape:connector-curvature="0"
         id="path1007"
         d="m 127.86,243.225 h 155.441 v -6.78 H 127.86 Z" />
    </clipPath>
    <clipPath
       id="clipPath1013"
       clipPathUnits="userSpaceOnUse">
      <path
         inkscape:connector-curvature="0"
         id="path1011"
         d="m 127.86,226.725 h 155.441 v -6.78 H 127.86 Z" />
    </clipPath>
    <clipPath
       id="clipPath1017"
       clipPathUnits="userSpaceOnUse">
      <path
         inkscape:connector-curvature="0"
         id="path1015"
         d="m 127.86,210.604 h 127.912 v -7.159 H 127.86 Z" />
    </clipPath>
    <clipPath
       id="clipPath1089"
       clipPathUnits="userSpaceOnUse">
      <path
         inkscape:connector-curvature="0"
         id="path1087"
         d="m 358.384,290.795 c -7.056,-3.752 -15.246,-8.515 -23.444,-13.593 v 0 c -27.539,-17.058 -43.472,-47.873 -41.4,-80.201 v 0 l 3.075,-47.966 c -1.627,-9.252 46.932,-11.419 56.183,-13.045 v 0 l 82.788,-14.555 c 9.252,-1.626 18.151,4.612 19.777,13.863 v 0 l 12.513,71.17 c 1.626,9.25 -4.612,18.15 -13.863,19.777 v 0 l -62.885,60.042 c -5.38,5.138 -12.399,7.814 -19.498,7.814 v 0 c -4.517,-10e-4 -9.067,-1.084 -13.246,-3.306" />
    </clipPath>
    <clipPath
       id="clipPath1097"
       clipPathUnits="userSpaceOnUse">
      <path
         inkscape:connector-curvature="0"
         id="path1095"
         d="M 297.045,288.179 H 525.348 V 95.7518 H 297.045 Z" />
    </clipPath>
    <clipPath
       id="clipPath1165"
       clipPathUnits="userSpaceOnUse">
      <path
         inkscape:connector-curvature="0"
         id="path1163"
         d="M 0,500 H 499.999 V 0 H 0 Z" />
    </clipPath>
    <clipPath
       id="clipPath1177"
       clipPathUnits="userSpaceOnUse">
      <path
         inkscape:connector-curvature="0"
         id="path1175"
         d="m 361.718,282.461 c -7.057,-3.751 -15.247,-8.514 -23.444,-13.592 v 0 C 310.735,251.81 294.801,220.996 296.873,188.668 v 0 l 3.075,-47.967 c -1.626,-9.251 46.933,-11.418 56.184,-13.045 v 0 l 82.788,-14.555 c 9.251,-1.626 18.15,4.613 19.777,13.863 v 0 l 12.512,71.171 c 1.627,9.25 -4.612,18.15 -13.862,19.777 v 0 l -62.885,60.042 c -5.38,5.137 -12.4,7.813 -19.499,7.813 v 0 c -4.517,0 -9.066,-1.084 -13.245,-3.306" />
    </clipPath>
    <clipPath
       id="clipPath1245"
       clipPathUnits="userSpaceOnUse">
      <path
         inkscape:connector-curvature="0"
         id="path1243"
         d="M 0,500 H 499.999 V 0 H 0 Z" />
    </clipPath>
  </defs>
  <sodipodi:namedview
     id="base"
     pagecolor="#ffffff"
     bordercolor="#666666"
     borderopacity="1.0"
     inkscape:pageopacity="0.0"
     inkscape:pageshadow="2"
     inkscape:zoom="0.9899495"
     inkscape:cx="149.86023"
     inkscape:cy="-41.510331"
     inkscape:document-units="mm"
     inkscape:current-layer="layer1"
     showgrid="false"
     units="px"
     inkscape:window-width="1024"
     inkscape:window-height="706"
     inkscape:window-x="-8"
     inkscape:window-y="-8"
     inkscape:window-maximized="1" />
  <metadata
     id="metadata5">
    <rdf:RDF>
      <cc:Work
         rdf:about="">
        <dc:format>image/svg+xml</dc:format>
        <dc:type
           rdf:resource="http://purl.org/dc/dcmitype/StillImage" />
        <dc:title></dc:title>
      </cc:Work>
    </rdf:RDF>
  </metadata>
  <g
     inkscape:label="Layer 1"
     inkscape:groupmode="layer"
     id="layer1"
     transform="translate(0,-271.4238)">
    <path
       inkscape:connector-curvature="0"
       id="path941"
       style="fill:#49356e;fill-opacity:1;fill-rule:nonzero;stroke:none;stroke-width:0.24227068"
       d="m 5.5627729,284.10433 h 5.1373501 v 12.87616 H 5.5627729 c -3.0223254,0 -5.47239445,-2.88242 -5.47239445,-6.43808 0,-3.55566 2.45006905,-6.43808 5.47239445,-6.43808" />
    <path
       inkscape:connector-curvature="0"
       id="path955"
       style="opacity:0.10000598;fill:#4d4d4d;fill-opacity:1;fill-rule:nonzero;stroke:none;stroke-width:0.35277775"
       d="M 9.9791983,287.45572 H 68.518081 c 4.682067,0 8.477957,-3.79554 8.477957,-8.47761 v -1.71344 H 14.932197 c -3.511902,0 -6.3591716,2.84692 -6.3591716,6.35917 v 3.71299 c 0.457553,0.0762 0.9267479,0.11889 1.4061729,0.11889" />
    <path
       inkscape:connector-curvature="0"
       id="path965"
       style="fill:#4d5b9f;fill-opacity:1;fill-rule:nonzero;stroke:none;stroke-width:0.35277775"
       d="M 69.41123,284.01613 H 11.656569 c -5.1523186,0 -9.7627716,3.19934 -11.56617145,8.0257 v -10.51031 c 0,-5.44689 4.41571885,-9.86261 9.86260775,-9.86261 H 69.41123 c 3.409595,0 6.17361,2.76401 6.17361,6.17361 0,3.4096 -2.764015,6.17361 -6.17361,6.17361" />
  </g>
</svg>
